<svg id="Layer_1" data-name="Layer 1" xmlns="http://www.w3.org/2000/svg" viewBox="0 0 1280 1024"><defs><style>.cls-1{fill:none;stroke:#ccc;stroke-linecap:round;stroke-linejoin:round;stroke-width:3px;}</style></defs><title>biggrayground</title><path class="cls-1" d="M1275.55,1021.55l2.64-1.53c.06.1,1,4.87,1,5l0,0c.06.09,1.44,4.69,1.5,4.8l.07,0"/><path class="cls-1" d="M1276.84,1020.71h0c.06.1.92,4.63,1,4.73l.05,0c0,.09,3.94,3.15,4,3.26l.68-.39"/><path class="cls-1" d="M1275.83,1020.61l3.23-1.86c.1.16-.42,6.26-.34,6.4l.57-.33c.07.13,3,3.58,3.12,3.7l1.42-.82"/><path class="cls-1" d="M1275.87,1020.31h0c.06.12.48,5.51.55,5.64l.06,0c.11.18-2.48,6.68-2.41,6.81l2.17-1.26"/><path class="cls-1" d="M1280.9,1016.28l3.84-2.22c.07.12,1.17,4.88,1.24,5l4.92-2.84"/><path class="cls-1" d="M1281.16,1015.57l4.43-2.56c.09.15,7.6.66,7.68.79l.58-.33"/><path class="cls-1" d="M14,1022.19l5-2.9c.08.14-2.71,7.25-2.62,7.4l.08,0c.07.13-.78,6-.71,6.09l.07,0"/><path class="cls-1" d="M16.11,1020.89h0c.08.13-1.51,6.33-1.43,6.46l.09,0"/><path class="cls-1" d="M11.85,1022.57l5.63-3.25c.15.25-6.26,8.69-6.12,8.93l.54-.31"/><path class="cls-1" d="M14.57,1019.73h0c.09.16-4,8.33-3.89,8.55l.13-.07"/><path class="cls-1" d="M-3,1019.78s6.58-3.81,6.59-3.8"/><path class="cls-1" d="M-1,1016.09l.23-.13"/><path class="cls-1" d="M-5.71,1016.34l7-4"/><path class="cls-1" d="M1281.2,12.18l7.47-4.32"/><path class="cls-1" d="M1279-4.18l8.1-4.68c.17.29-9,10.5-8.79,10.82l.41-.24"/><path class="cls-1" d="M1281.35-7.6l.09-.05c.1.18-2.4,6.66-2.3,6.83l.07,0"/><path class="cls-1" d="M1283.41-10.65h0c.15.25-9.3,10.16-9.1,10.5l4.74-2.73"/><path class="cls-1" d="M1276.81-8.51l.31-.18c.08.15-1.16,6.67-1.09,6.79l2.56-1.47c.16.29-6.73,9-6.61,9.22l6.78-3.92"/><path class="cls-1" d="M-2.42,9.89l.1-.06c.16.28,11.3-.89,11.42-.68l.37-.21"/><path class="cls-1" d="M-2.8,8.05l.92-.53c0,.1,4.2,3.11,4.26,3.22l6.86-4"/><path class="cls-1" d="M-1.77,5.59l.07,0c.08.13,5.85,1.87,5.93,2l.07,0"/><path class="cls-1" d="M-1.86,4l1.49-.86c.09.15,5.41,3,5.49,3.17l.07,0c.09.16,7,1.36,7.14,1.55l1.09-.63"/><path class="cls-1" d="M15.78-8.81l.06,0c.07.13-1,6.46-.92,6.62l.34-.2c.06.12.37,5.51.43,5.61l1.84-1.06"/><path class="cls-1" d="M12.55-7.89l2.08-1.2c.08.12,0,5.66.08,5.8l.07,0c.09.17-3.29,7.45-3.19,7.62l2.59-1.5"/><path class="cls-1" d="M11.47-7.95l0,0c.1.18-2.23,6.65-2.13,6.83L14-3.83c.06.1.48,5.25.55,5.38l0,0"/><path class="cls-1" d="M8.12-6.42,10.79-8c.06.1.11,5.16.16,5.26l2.48-1.43c.07.12-1.67,6.36-1.57,6.52L15.94,0"/><path class="cls-1" d="M1276.32,1014.39l0,0c.08.14,5.53,2.9,5.6,3l.23-.14c.06.1-.81,5.86-.75,6l0,0c0,.09,0,5.16,0,5.27l2.65-1.53"/><path class="cls-1" d="M1275,1015.13l3.27-1.89c.1.17-1.21,6.54-1.13,6.67l6.72-3.88c.1.16-1.51,6.16-1.44,6.29l0,0c.08.13,1.69,5.06,1.77,5.19l1.12-.64"/><path class="cls-1" d="M1276.82,1014.07l0,0c.06.1,3.33,3.71,3.39,3.82h0c.07.12,3.1,3.45,3.16,3.55l0,0c.06.12,3.42,3.88,3.48,4l.08,0"/><path class="cls-1" d="M1275.28,1014.9l3.87-2.23c.07.11,1.6,4.46,1.66,4.57h0c.07.11,3.48,3.13,3.55,3.25l.05,0c.06.11,3.76,3.44,3.82,3.56l.09,0"/><path class="cls-1" d="M1277.28,1013.67l0,0c.07.12,2.56,3.66,2.62,3.77l.2-.12c.07.13,5.07,2.09,5.15,2.24l.06,0c.05.1,4.08,3,4.16,3.13l.09,0"/><path class="cls-1" d="M1273.26,1015.91s5.16-3,5.17-3"/><path class="cls-1" d="M1277.5,1013.44l0,0c.07.12,1.49,4.91,1.56,5l4.52-2.6c.06.12,4.28,3.57,4.35,3.69l.07,0c.08.13,4.93,2.84,5,3l.06,0"/><path class="cls-1" d="M1276.36,1013.31c.22.39,20.51-12.43,20.76-12,.14.25-9.1,10.61-8.95,10.87s10.09-6.09,10.21-5.89"/><path class="cls-1" d="M1228,1013.75c.78,1.36,47.83-29.67,48.72-28.13.54.93-37.57,26-37.05,26.85.69,1.2,43.16-26.64,43.91-25.35.56,1-42.58,28.92-41.84,30.19s41.8-25.67,42.47-24.52c.52.9-40.32,27.58-39.68,28.68s46.56-28.36,47.2-27.25-35.69,25.1-35.17,26c.62,1.09,36.44-22.46,37.06-21.39s-33.65,23.8-33.19,24.61c.32.55,15.14-9.57,15.5-8.95s-16.25,14.65-16,15.1,12.85-7.88,13-7.53-9.23,10.28-9,10.58,9.76-6,9.93-5.74-6.3,8.9-6.18,9.11,5.12-3.08,5.18-3"/><path class="cls-1" d="M1139.7,1016.32c2.32,4,150.44-91,152.24-87.9,2.24,3.88-143.9,83.7-141.91,87.14,1.65,2.86,144.46-87.82,146.37-84.5,1.65,2.84-134.73,80-133.1,82.8s127.76-78.38,129.76-74.92c2.24,3.88-134.27,77.69-131.94,81.72,1.83,3.17,136.81-82.88,138.5-80,2.08,3.61-136.5,80.36-134.55,83.72s127.84-78.72,130-75c1.85,3.2-120,71.62-118.43,74.4s110.05-67.62,111.81-64.56c1.45,2.51-114,67.54-112.24,70.5,1.49,2.58,101.81-62.53,103.44-59.72s-100.57,60.43-98.9,63.33c1.18,2,94.1-57.76,95.58-55.18s-91.81,55.49-90.59,57.6c1.37,2.37,91.86-55.62,93-53.68"/><path class="cls-1" d="M1060.11,1013.89c4,6.88,232.56-141.52,235.7-136.08,2.68,4.63-228.36,130.31-225,136.05,3,5.28,218.38-134.55,222-128.2,3.76,6.52-218.37,125.28-215.48,130.28,2.8,4.84,204-124.15,206.77-119.38,3.17,5.49-208.36,119-205.48,124,2.3,4,199-121.78,202-116.6s-201.22,114.63-198.29,119.72,196.12-118.5,198.4-114.55c2.82,4.89-191.21,109.86-188.63,114.33s186.45-113.64,189-109.15c2.76,4.78-192.58,109.65-189.53,114.94,2.45,4.24,188.48-114.14,190.78-110.15,3.1,5.36-189.67,109.84-187.22,114.07,2.84,4.92,184.48-112.89,187.24-108.11S1099.51,1031.14,1102,1035.39c2.92,5,178.24-109.11,180.93-104.46"/><path class="cls-1" d="M971.86,1016.46c3.55,6.14,305.22-186.09,309.49-178.69,4,7-295.95,166.35-291.45,174.15,4.41,7.64,281.07-171,284.84-164.46,4.79,8.29-288.63,162.8-284.45,170,4,7,285-175.79,289.88-167.36,4,6.88-288.7,162.21-284.06,170.24,4.34,7.52,282.87-171,286.19-165.23,4.07,7.05-286.33,161-282,168.42,4.08,7.07,280.6-170.41,284.24-164.11,4,6.91-279.27,158.4-275.45,165s278.22-168.9,281.8-162.7c4.58,7.94-286.94,159.88-282.12,168.21,3.28,5.69,275.92-168.79,280-161.67,3.26,5.65-281,158.29-276.84,165.54,3.51,6.09,279.17-170.31,283.12-163.47s-278.84,158.17-275,164.76c4.54,7.85,271.45-167.4,276.07-159.39"/><path class="cls-1" d="M892.28,1014c4.88,8.44,382.12-234.15,388-224,6,10.42-386,214.31-379.88,225,6.44,11.16,377-231.32,382.9-221.06S906,1003.8,911.9,1014c5.69,9.86,370.73-227.45,376.54-217.39,4.71,8.16-380.5,214.58-375.69,222.92,5,8.67,375.19-229,380.54-219.71,5.25,9.1-381.7,212.68-375.79,222.91,5.26,9.12,369.51-225.44,374.75-216.36,5.14,8.91-372.91,208.75-367.74,217.71s369.23-223.25,373.6-215.7c4.53,7.86-377.66,213.78-373.08,221.7,5.91,10.23,364.73-225,371-214.17,4.76,8.24-374.79,207.16-368.44,218.16,5.61,9.72,361-219.51,365.76-211.17,4.55,7.88-362.06,203.12-357,211.83,5.82,10.09,341.3-207.41,345.79-199.64"/><path class="cls-1" d="M804,1016.6c6.47,11.2,485-297.91,492.77-284.51,5.73,9.93-485.4,267-477.32,281,6.08,10.53,470-284.83,475.82-274.72,7.31,12.66-478.54,263.24-470.45,277.25,7.5,13,463.26-282.23,469.66-271.16,7.87,13.65-472.15,262.14-465.12,274.33,7.88,13.65,459.65-283.18,467.36-269.83C1303,759.76,827.25,1009,834.73,1022c6.14,10.63,451.3-276.26,458.1-264.48,6.12,10.59-458.55,255.76-452.08,267,6,10.3,430.71-265.31,437.92-252.84,6.07,10.52-443.16,248.57-437.35,258.62,6.29,10.9,431.81-262.62,437.58-252.63,6.11,10.58-440.38,247-434.49,257.17,5.46,9.46,429.27-260.24,434.64-250.94,7.32,12.67-430.81,240.1-424.71,250.67,5,8.69,417-255.71,423.49-244.5"/><path class="cls-1" d="M724.46,1014.17c8.09,14,561.63-346.55,571.28-329.83,7.9,13.69-570.93,320.43-564.22,332C739.44,1030.11,1278.3,682,1286.41,696S732,1005.66,738.9,1017.67c9,15.57,536.84-324.54,543.16-313.59,8.31,14.38-541.39,303.74-535.16,314.53,7.83,13.56,522.68-317.83,529.63-305.78,6.86,11.88-533.31,293.22-524.57,308.36,6.83,11.83,516.43-317.54,524.83-303C1283.59,730,748.63,1011,756.2,1024.11c7.06,12.22,515-315.92,523-302,8.16,14.13-530,294.69-522.55,307.63,6.83,11.84,514.46-315.85,522.61-301.73,7.91,13.7-528.68,292.44-520.52,306.57s524.33-316.88,530.46-306.26c8.27,14.33-528.05,292.49-520.43,305.69,6.43,11.14,517.44-312.67,523.47-302.23"/><path class="cls-1" d="M636.21,1016.74c9.52,16.49,637.42-385.69,645.07-372.44,10.09,17.48-638.59,356.33-630.62,370.14,10.08,17.47,618.88-382.3,629.7-363.56,8.87,15.36-628.49,348.36-619.85,363.34,7.4,12.82,612.42-376.34,622.28-359.27,8.74,15.13-627.89,347.88-619.24,362.85,7.85,13.61,609.77-374.3,619.4-357.61,7.76,13.44-624.29,342-613.76,360.21,7.73,13.4,612.69-378,623.2-359.81,7.82,13.55-629.12,348-620,363.87,8.27,14.33,608.91-372,617.78-356.68,10.7,18.55-626.71,345.76-617.26,362.13,10.75,18.62,613-371.06,620.4-358.19,10,17.28-617.65,345.47-610.32,358.16,7.94,13.75,605.38-373.29,615.67-355.46,8.92,15.45-621,343.54-611.85,359.38,7.83,13.57,597.33-364.09,605.65-349.68"/><path class="cls-1" d="M556.62,1014.3c11.48,19.9,719.08-436.91,728.5-420.6,8.72,15.11-724.9,402.2-715.32,418.8,8.65,15,712.37-434.62,722.47-417.12,9.84,17-729.75,401.43-718.8,420.39,9.18,15.89,708.82-432.6,718.93-415.08,9,15.67-722.95,396.9-711.36,417s704-426.47,712.67-411.46-723.66,404.47-715.2,419.13S1289,595.1,1297.69,610.11s-719.67,396.28-709,414.7C598,1041,1284.06,601.65,1293.44,617.9S577.73,1010.13,589.23,1030c11.11,19.25,693.11-423.16,703.07-405.92,8.11,14-703.47,389-693.66,406,10.81,18.73,671.89-413,682.74-394.18,9,15.56-688.61,379.58-678.28,397.47,9,15.62,662.57-407,673.18-388.66"/><path class="cls-1" d="M468.37,1016.87c13.64,23.63,812-495.12,823.38-475.38,11.51,19.94-823,454.17-811.47,474.06,11.12,19.26,807.33-497.14,820.77-473.87C1311.71,560.14,473,994,486.42,1017.32c11,19.08,797.61-483.45,807.55-466.24,13.62,23.59-806.49,448.1-796.29,465.77,11.26,19.5,778.07-475.79,789.58-455.87,9.32,16.15-802,445.95-792.29,462.84,13.42,23.24,770.83-468.72,781.09-451,9,15.66-783.72,431.22-772,451.59,10.15,17.58,759.4-460.21,768.83-443.88,11.54,20-781.64,425.88-768.31,449,11.1,19.23,763.68-470.22,776.37-448.23,9.86,17.06-780.34,427-767.85,448.58,10,17.32,757.58-464.16,769.17-444.08,9.12,15.79-776.48,426.53-764.62,447.07,10.64,18.43,758.23-459.07,767.46-443.09,10.13,17.55-768.73,421.25-756.7,442.09.24.42,16.8-10.13,17-9.8"/><path class="cls-1" d="M388.78,1014.44c10.39,18,883.18-540.45,896.41-517.54,14.32,24.82-899,493.87-885.84,516.75,13.48,23.35,863.49-525.44,875.14-505.26C1285.3,527.11,397.6,995.87,408,1013.88c12.68,22,858.79-528.72,873-504,13.74,23.8-888.63,488.25-875.38,511.2,10.44,18.09,854.4-527,869-501.73,14.77,25.59-873.52,484.61-862.48,503.73,14.45,25,858.52-524,870.78-502.75,14.71,25.49-876.77,480.66-863.41,503.8,11.24,19.47,852.58-526,867.21-500.69C1301.29,548.55,409.13,1010.13,420,1029c11.19,19.37,852.89-518.22,864.06-498.86,12,20.72-866.12,481.29-855.34,500,13.82,23.93,853.36-521.18,865.7-499.81,14.11,24.45-874,478.6-860.42,502.15,12.42,21.51,845.33-516.19,857.51-495.09S436,1014,446,1031.35c.22.38,11.91-7.3,12.1-7"/><path class="cls-1" d="M300.53,1017c12.08,20.93,958.94-588.9,974.21-562.46C1286.56,475,305.08,986,320,1012c16.43,28.45,943.9-580.11,959.12-553.75,11.36,19.67-968.73,536.27-956,558.27,14.85,25.72,950.26-581,964.3-556.74C1301.2,483.6,312.76,1002.09,324,1021.56c15.09,26.13,948.67-577.59,961.6-555.19,15.94,27.6-967.35,535.34-954.67,557.31,15.56,27,947.22-580.55,961.8-555.3,15.85,27.47-970.41,531.46-955.39,557.47,12.37,21.43,945.71-581.16,960.93-554.8,12.19,21.11-972.31,537.39-959.26,560,16.48,28.55,943.18-578,957.67-552.91C1311,503,334,1007.55,348,1031.77c12.5,21.66,939.06-571.72,951.85-549.56,14.22,24.63-957.33,524-942.16,550.24.33.57,20-12.39,20.4-11.77"/><path class="cls-1" d="M220.93,1014.58c14.13,24.47,1051.69-648.15,1069.43-617.43C1305.59,423.54,213.1,984.85,230.52,1015c13.71,23.74,1048.28-635.88,1061.56-612.89,18,31.19-1071.38,589.25-1056,615.9,17.25,29.87,1046-635.22,1059.53-611.72S225.89,995.2,240.64,1020.75C254.93,1045.5,1284.31,379.69,1301,408.56c17.12,29.66-1068.09,588.5-1053.59,613.61,16.45,28.49,1028-632.72,1045-603.33,16.79,29.08-1057,577.21-1040.41,606,13.31,23,1025.28-627.53,1040.69-600.84,15,26-1054.47,579.67-1039.27,606,16.14,28,1015.56-613.8,1027.45-593.2,16.6,28.75-1037,564.6-1019.8,594.4,16.41,28.42,1007.37-611.38,1020.26-589.05,13.93,24.13-1028,561.27-1011.43,590,15.63,27.07,999.42-606.28,1012.1-584.33"/><path class="cls-1" d="M132.68,1017.15c16.27,28.19,1147.24-693.8,1160.86-670.22C1312.26,379.35,130,979,149.65,1013.08c16.75,29,1128.88-691.6,1146.13-661.72,18.72,32.42-1156.13,632-1138.09,663.22,19.44,33.67,1105.38-682.19,1124.43-649.19,19.44,33.66-1142.33,623.46-1124,655.21,19.25,33.33,1109-672.32,1122.85-648.27,17.65,30.57-1131.5,622.23-1115.6,649.77,16.89,29.25,1094-675.79,1113.13-642.67C1295.91,409.6,151,994.72,169,1025.84c14.08,24.4,1094.26-667.07,1109.55-640.6,17.92,31.05-1125.27,615.43-1107.93,645.47,15.86,27.46,1091.13-665.45,1106.5-638.84,12.79,22.16-1113.75,614.83-1099.22,640,14.75,25.55,1089.37-659.3,1102.52-636.54,13.6,23.57-1110.7,605-1092.47,636.53,17.64,30.56,1083.32-662.75,1099.47-634.78"/><path class="cls-1" d="M53.07,1014.72c18.17,31.47,1210-734.4,1225.54-707.56,15.32,26.53-1233.34,683.3-1218.51,709C79.83,1050.33,1263.75,288.24,1278,313c19.12,33.12-1228.1,667.32-1207.41,703.16C85.51,1041.9,1264,285,1282.29,316.57c19.18,33.24-1223,676.36-1207.54,703.22,18.2,31.52,1191.34-729,1209.18-698.12,18.5,32-1219.06,669-1201.35,699.64s1185.56-719,1200.52-693.12c18.27,31.65-1218.37,663.19-1198.68,697.3,15.17,26.27,1188.13-721.37,1203.46-694.82C1302.46,355.92,65.9,995.51,86,1030.23,101.41,1057,1271.69,300.84,1291.09,334.44c15.31,26.53-1216,665.84-1197.6,697.67C113.07,1066,1271.7,305.1,1292,340.18,1312.05,375,84,996.56,104.18,1031.48c19.75,34.2,1175.05-724.61,1195.05-690"/><path class="cls-1" d="M12.58,1017.25c20,34.68,1263.73-769.73,1281.1-739.65C1312.26,309.79,1.36,990.86,17.86,1019.43c15.55,27,1262.65-771.17,1280.91-739.53C1318.32,313.76-1.08,998.9,15.13,1027c16.85,29.18,1263-768.58,1280.08-739.06C1313.72,320-1.41,997.62,18,1031.17,34.33,1059.52,1260.09,264,1281.77,301.51,1300.54,334,7.87,998.13,27,1031.2c.21.37,14.24-8.69,14.44-8.34"/><path class="cls-1" d="M16.41,1014.82l1.47-.85c.13.23-3.9,8.15-3.8,8.34l.09,0"/><path class="cls-1" d="M15.92,1014.87l.06,0c.17.29-10,11.26-9.85,11.58l6.64-3.83"/><path class="cls-1" d="M15.11,1015.09l2.09-1.2c.22.39-12.49,12.13-12.25,12.53l.24-.14"/><path class="cls-1" d="M1287.36-2l2.87-1.66c.19.34-12.38,11.79-12.13,12.22l0,0"/><path class="cls-1" d="M1286.62-4l.18-.1c.16.3-7.89,10.32-7.76,10.55h0"/><path class="cls-1" d="M1284.4-5.09,1287.74-7c.24.42-11.21,11.89-11,12.2L1281,2.7"/><path class="cls-1" d="M-6.52,14.35c0,.05.84-.53.86-.49s-.59,5.55-.53,5.67,13.82-8.31,14-8.07-10.1,10.71-9.93,11c.63,1.11,42.73-25.89,43.25-25,.67,1.15-36.66,26-36,27.14S45.52,0,46.08,1C46.84,2.29,1.7,30.31,2.39,31.5c.56,1,47.48-28.66,48-27.73.75,1.3-44.64,30.06-43.88,31.39C7.19,36.3,50.3,8.31,51,9.49c.57,1-40.65,28.09-40.12,29S58.38,9.76,59,10.74C59.79,12.19,12,41.8,12.74,43c1.1,1.9,89.07-54.49,90.39-52.19S15.37,44.31,16.48,46.23,107.72-9.71,109.13-7.26c1.69,2.92-100.31,61-98.92,63.35S115-7.33,116.24-5.12C118.16-1.79-4.48,66.2-2.85,69c1.47,2.54,123.43-76,125.46-72.44,1.7,2.94-130.92,76.86-129.13,80C-4.92,79.31,118.55.89,120,3.46,122,6.83-7,77.62-4.81,81.33-2.87,84.69,127.53.8,129.31,3.89,131.23,7.21-2.8,80.52-.7,84.16,1,87,130.15,3.54,132.34,7.35,134.3,10.74-2.08,85.84,0,89.49,2.4,93.6,138.13,5,140.21,8.55c2.2,3.8-139.7,81-137.43,84.91S148.2,4.42,150.4,8.23c1.75,3-143.76,84.79-142,87.84,2.95,5.11,182.69-112.59,185.77-107.25C196.63-6.92,4,97,6.94,102.16,9.64,106.83,193.31-10.43,195.47-6.69,198.18-2,8.66,101.27,11.05,105.4,14.12,110.73,195-6.09,197.3-2.13S9.9,105,12.92,110.19C15.58,114.8,205.14-7.75,208.15-2.53,210.38,1.34,16.81,108.11,19.23,112.3c2.32,4,187.42-115.1,190.4-109.93,2.51,4.33-198.26,112.85-195,118.56C18.15,127,209.36,1.37,212.46,6.74,215.18,11.46-1,129.18,1.59,133.68c3.49,6,215.49-131.42,218.53-126.16C222.82,12.2-11.67,139-8,145.33c2.86,5,232.49-140.5,235.2-135.79C230.15,14.67-2.69,140.16.51,145.7,5.2,153.83,268.27-18.14,272.28-11.2,276.83-3.32-7.47,146.12-3.23,153.46.1,159.23,272.53-14.36,276.26-7.9,279.85-1.68-5.13,148.88-.32,157.2S277.52-13.13,281.82-5.69-1.54,154.14,2.59,161.29C6.86,168.68,281.48-8.7,285.37-2,289.45,5.09,8,154.94,12.12,162.13,15.87,168.64,290-8,294.22-.74,299,7.47,9.07,160.76,12.88,167.36,16.42,173.5,294.39-3,297.78,2.88S14.35,165,17.66,170.73C21.66,177.66,299.5-1,303.4,5.76,307,12,7.79,171.64,12.18,179.23S303.61.21,308.27,8.28c4.07,7.05-299,167.53-294.47,175.39C17.68,190.39,314,2.07,317.56,8.29,322,16,3.51,185,8.06,192.87,14,203.18,350.26-15.1,354.77-7.3S-6,195-.73,204.1C5.34,214.62,356.53-14.75,362-5.3c5.09,8.81-373.8,208.7-368.41,218C-2.08,220.26,364.74-13.95,370.1-4.67S-3.94,205.9.84,214.16C6.52,224,369.94-12.26,375.71-2.27c5.58,9.67-382,215.1-377,223.74C3.07,229.09,370.34-7.17,376.43,3.37,381,11.28-7.2,218.74-1.9,227.93,3.81,237.82,377-3.45,382.46,6S2.55,216.56,8.65,227.13c5,8.69,369.7-226.11,375.18-216.61C389.44,20.24,2.69,224,7.9,233.07,14.11,243.83,391.13,1.23,395.71,9.16S10.26,225.44,15.48,234.48C22.63,246.87,431.29-18.43,436.85-8.8,442.06.23,6.21,232.58,11.69,242.08c5.64,9.77,424.11-259,430.23-248.39C447.49,3.35,6.3,234.1,13.68,246.89,20.69,259,444.61-16.4,450.88-5.53c5.64,9.76-446.25,250-440.3,260.32C18,267.59,447.91-13.78,454.87-1.72,461.63,10-6,258.1-.67,267.31,7.2,280.94,449.41-8.12,456.15,3.56,463.5,16.28-12,267.07-6.6,276.41-.72,286.6,454.37-5.79,461.33,6.25,468.85,19.28-12.28,271-5.86,282.1S464.2-5.95,471.42,6.54c6.33,11-483.73,271.13-477.87,281.27C-.12,298.78,466.65-2.27,474,10.43,479.88,20.65-11.86,278.11-3.73,292.18,3,303.78,480.56-4.85,488.1,8.22c6.32,11-487.81,273-481.7,283.59C13.43,304,516.23-19.36,523.51-6.74,531.63,7.32,1,283.56,8.35,296.32,15.82,309.25,523-21.72,532-6,538.22,4.73,3.73,285.58,11.83,299.61,18.4,311,533.28-18.52,540.67-5.72,549,8.7,10.61,290.77,17,301.86,26,317.4,537.5-15.62,544.85-2.89,552.82,10.93,4.77,295.19,13,309.46c6.69,11.59,521.46-320,529.68-305.81,6.63,11.49-534,296.8-526.38,310C22.54,324.43,541.22-3.94,547.5,7,556.77,23,1.16,307.29,10.08,322.75,17.18,335,547.09-3.67,554.18,8.62,561.58,21.44-9.19,322.7-2,335.1c7.86,13.61,552.56-338.79,561.12-324C568.63,27.67-15.82,328.54-6.85,344.08,1.9,359.23,592.78-26.5,603.34-8.22,612.06,6.89-10.8,332.91-2.55,347.2,5.9,361.84,602.75-22,611.3-7.21,621.4,10.29-12.09,335.92-2.56,352.43,6.71,368.48,607.85-22.66,617.67-5.65,627.28,11-8.37,343.89-.77,357.05c9,15.67,610.32-372.32,619-357.36C628.83,18.12-4.15,343.13,5.12,359.18,12.55,372.05,617.89-15.95,627.13.06,635,13.76-2.64,346.47,7.32,363.74,15.42,377.76,620.17-12.72,630,4.26,639.32,20.46-1.47,351.65,8.62,369.13,18.94,387,632-7.54,639.25,5c9.07,15.72-630.17,350.51-622,364.71C26,384.79,630-4.93,639,10.78,646.47,23.65,4.14,363.21,13,378.49,20.4,391.36,646.56-5.36,654.37,8.17c8.92,15.44-646,357-636.67,373.09C29.28,401.32,689.39-25.83,697.75-11.36,707.78,6-3.61,378.46,5.65,394.5,17.5,415,687.34-21.39,697-4.65c9.79,17-713,393.12-702.5,411.25C3.11,421.51,694-21.53,704.5-3.32,715.37,15.49-13.14,393.94-3.07,411.38,6.45,427.87,699.43-21.69,711.33-1.08c8.94,15.48-727,400-715.92,419.12C6.64,437.5,707-14.25,716.28,1.85,728.79,23.52-15.37,404.87-4.27,424.1,7.88,445.14,709.22-7.65,717.8,7.21,726.51,22.29-8.89,409.49,1.06,426.71,11.38,444.59,711-7.77,721.63,10.69,733.49,31.23-2.67,414.18,6.33,429.76,18.3,450.49,722.81-10,734.1,9.57,746.42,30.91-1.51,414.93,9.6,434.17,22.43,456.39,760.54-29.86,773.74-7,782.69,8.49,5,421.86,14.08,437.54,25.31,457,775.69-25.8,785.92-8.08,797.1,11.28,3.34,425.21,14,443.58,27.21,466.55,778.29-22.74,789.13-4,802.48,19.15,8.31,429.4,18.44,447,29.63,466.33,782.69-18.66,793.24-.39,803.19,16.84,2,437.55,12.54,455.87,21.72,471.77,787.66-15.69,798.07,2.35c10,17.3-808.85,450.59-799.32,467.1C10.35,489.54,786.92-16.33,800.23,6.72,813.88,30.37-14.92,454-2.29,475.84c10,17.39,801.48-486,811.58-468.56C819,24.05-14.1,465.66-4.35,482.55,8.59,505,799.56-5.11,809.75,12.53,822.66,34.89-14.47,465.83-2,487.45c10.76,18.64,847.78-523.74,862.62-498C871.2,7.72-8.62,467,4.6,489.91,14.82,507.61,850.92-26.65,863-5.7,875.56,16-3.4,471,9.29,492.94c10.38,18,845.58-519.68,859.22-496.07C880.83,18.22.09,477.21,11.81,497.52,25.1,520.55,864-25.89,877.57-2.33,891.53,21.86,2.64,474.6,17.22,499.86,30.62,523.06,867.61-22.89,881.37.94,893.1,21.26-.69,484.86,12.9,508.4S874.9-15.55,886.28,4.15C897.29,23.22,5.09,492.92,16.08,512,28.59,533.63,881.63-13.41,892.74,5.83c10.55,18.26-886,491.4-874.61,511.22C32.81,542.49,884.2-18.17,899.43,8.22,914.77,34.8-10.2,506.89,3.85,531.23c15.86,27.48,924.75-566.79,939-542.12C958.16,15.63-22,516.56-6.86,542.74,6.68,566.2,934.42-27.15,945.87-7.32,962,20.61-19,523.88-5.28,547.72,10.52,575.07,934.92-29.11,949.64-3.61,965,23-15.81,533.76-4.57,553.24,7,573.31,945.14-29.59,960.08-3.7c14,24.33-972.41,540-960.54,560.59C15.61,584.72,950.88-18.39,962.15,1.13S-6.81,535.5,6.63,558.78C23.13,587.35,950.86-17.59,964.38,5.83,976.79,27.34-3.75,534.22,12,561.44,25.14,584.27,959.14-11.15,970.29,8.16,982.75,29.74-3.93,543.86,10.19,568.32,26.22,596.09,960.74-19,977.43,9.88,991.76,34.71.66,547.85,14.57,572,27.66,594.62,976.67-14.9,990.26,8.64,1005.51,35.06,5.4,552.89,18.35,575.33,34.63,603.52,1015-37.26,1031.08-9.37,1043.51,12.18,4.5,558,18.12,581.61c16.76,29,1002.44-611.54,1016.63-587C1051.17,23.08-3.15,569.91,9.71,592.17,24.29,617.42,1024.87-30.38,1040.65-3,1053.93,20-13.75,580.23-.34,603.46,13.83,628,1024.84-28.92,1042.38,1.45,1060.24,32.39-15.07,587.78-1.94,610.53,13.93,638,1029.93-23.78,1046.63,5.14,1060.07,28.41-22.12,591.52-6.14,619.2,9.42,646.15,1035.33-17.5,1050.66,9.06,1066.8,37-17,590.09.75,620.9,13.12,642.34,1048-18.63,1063.1,7.55,1077.41,32.34-14.8,594.68,2.94,625.41c13.24,22.92,1049.52-646.26,1067-616C1086.36,37.87-9.12,609,3.72,631.21c15,25.9,1092-672.22,1110-640.89C1127.67,14.41-5.88,599.81,12.52,631.68c13.83,24,1090-659.44,1103.08-636.86C1131.22,21.89-5.89,608.75,11.29,638.51,26.08,664.14,1108.93-29,1123.56-3.66,1139.55,24,2.71,613.93,18,640.46,35.72,671.11,1109.37-28.28,1126.1.71,1143.14,30.21-.77,616.6,17,647.29,35.48,679.39,1113.89-23.38,1130.06,4.63,1146.55,33.18-6.54,631.85,8.47,657.85c16.68,28.88,1106.86-683.14,1126-650.07,13.83,24-1146,636.31-1132.54,659.55C15.5,690.92,1124.3-15.93,1139.55,10.49c19.81,34.3-1159.87,645-1146.47,668.23C8.87,706.07,1134.39-21.87,1152.43,9.37,1170.1,40-26,651.13-6.84,684.23,10.85,714.87,1176.89-36.82,1193.18-8.6,1212.33,24.56-20.3,664.79-6.23,689.16,14.06,724.32,1181.74-42.26,1201.46-8.1,1220.57,25-20.87,656.35-.46,691.69c14.17,24.55,1195-723.81,1209.68-698.41,19.63,34-1219.89,670-1202.57,700C23.17,721.88,1194.68-31,1211.27-2.22,1226.91,24.86-11.37,667,6.87,698.64,22.68,726,1194.69-28,1212.36,2.65,1228.5,30.59-3,676.73,11.66,702.19,29.76,733.54,1202-29.41,1221.21,3.86c19.45,33.7-1227,674.32-1209.95,703.81C27,734.92,1198.39-25,1218.89,10.45,1238.89,45.1-3.82,679.3,14.82,711.58,32.55,742.28,1208.21-23.56,1228.19,11,1248.64,46.47-2.42,686.22,15.28,716.88,35.89,752.58,1221.82-20.42,1239.45,10.1,1256.6,39.82-9.24,700.17,6.38,727.22,24.37,758.37,1252-42.19,1273.72-4.48c16.17,28-1299.21,707.36-1278,744C11,766,1256.86-36.83,1277.76-.65,1297.29,33.19-20,717.83-4.16,745.29,12.93,774.9,1255.43-22.26,1272.89,8,1294.1,44.72-19.65,720.77-2.42,750.6,14.68,780.22,1258.89-22.83,1278.46,11.08c20,34.68-1295.2,712.05-1277.28,743.09C16.92,781.43,1273.12-15.13,1288.25,11.08c21.09,36.51-1308,714.8-1288,749.36,21,36.42,1276.57-773.32,1292.29-746.1C1314.22,52-5,733.2,10.8,760.57,26.11,787.08,1278.73-9.38,1295.14,19.05,1310.28,45.27-4.2,738.18,11.81,765.91,29.48,796.52,1263.36-6.8,1285.07,30.79,1301.89,59.93-.59,736.7,17.44,767.93,35.59,799.36,1255.9,9.65,1274.63,42.09,1292,72.18-2.6,748.53,13.12,775.77,31.73,808,1260.73,11.42,1279.8,44.45,1295.31,71.32,2,749.92,18.28,778.19c20.32,35.18,1235.34-761,1256-725.18C1289.71,79.67-4.14,762,11.14,788.52c19.24,33.31,1249.61-771.8,1271.41-734C1303.63,91-12.42,773,2.8,799.33c18.42,31.9,1266.69-768.94,1283-740.73C1307.22,95.73-18.7,775.45-.26,807.39,20.33,843.06,1270.05,29.28,1289.4,62.8,1304.76,89.4-22.45,786.09-5.21,815.94c18,31.24,1280.45-778.54,1297.46-749.08C1311.75,100.64-26.34,785.3-5.07,822.14c17.72,30.69,1284.88-782,1302.26-751.86C1314.34,100-17,783.37,5.1,821.63,20.5,848.29,1280.41,49.77,1295.8,76.44,1314.27,108.43-7.78,797,8.47,825.13c17.69,30.64,1269.61-771,1286.07-742.52C1311.39,111.79-13.14,795.37,7.72,831.5,24,859.65,1272.22,51.54,1293.83,89,1310,116.87-11.33,796.86,10.91,835.37,29,866.64,1261,75.6,1277.49,104.11,1293.11,131.16-8.31,804.78,12.26,840.4,29.61,870.45,1264.85,81.34,1280.39,108.25,1297.73,138.28-4.38,813.41,14.2,845.59c15.43,26.73,1245.86-766.28,1266.2-731C1301.09,150.38-4,823.31,12.9,852.63,28.31,879.31,1258.75,83.75,1280.22,120.94,1301.84,158.38-10.26,830.32,7.53,861.14,26.72,894.38,1264.12,99,1280,126.48c18,31.2-1299.47,712-1280.22,745.38C18.31,904,1274.11,100.39,1289.58,127.19,1307.79,158.72-20.95,839.94.38,876.89,19.28,909.61,1272,92.28,1293.83,130.11,1310.41,158.84-15.67,853.9.93,882.64,16.57,909.73,1277.23,102.49,1296,135,1311.76,162.29-18.43,860.71-1.46,890.1,17.51,923,1278,102.63,1299.1,139.23,1320.53,176.34-11.39,859.31,6.92,891c15.84,27.44,1272.28-780.76,1292.29-746.1C1319.74,180.48-11,866.31,6.54,896.7,25.19,929,1277.18,126.62,1293,154,1312.48,187.76-5.25,868.25,12.47,899,32,932.74,1259.72,133,1279.57,167.39s-1284,710.1-1268,737.72c21.73,37.63,1252.69-757.89,1267.69-731.9C1299.07,207.6,1.78,878.52,18.24,907,33.41,933.31,1259.7,146.8,1278.52,179.42c16,27.74-1281.18,705.71-1263.85,735.73C36,952.09,1262.48,151.75,1281.09,184,1296.91,211.38-4,883.13,16.82,919.26c15,26,1240.57-762.79,1260.72-727.88S-14.06,904.62,2.74,933.71s1264-776.05,1284-741.33C1303.66,221.68-20,917.37-5,943.46,16.3,980.31,1273.24,162.53,1291.84,194.75,1311.39,228.62-26,911.81-4.52,949,11.1,976,1270.6,171.92,1288.3,202.58,1304.49,230.62-15,922.33,1.56,951c17.32,30,1276.31-775.49,1293-746.53,17.48,30.29-1310.43,723-1293.31,752.61C18.59,987,1277.74,175.63,1297,209,1314.74,239.7-12.52,931.37,4.4,960.68,25.14,996.59,1278,183.57,1296.06,214.94,1315.9,249.31-14.09,929.54,6.45,965.11c18.61,32.23,1269.54-769,1285.14-742C1309.81,254.69-6.38,943.2,8.72,969.35,26.18,999.6,1257.25,201.12,1277.77,236.66,1296.58,269.25-3.26,938.5,15.35,970.73c17.25,29.88,1247.28-759.91,1264.52-730.07C1300.71,276.77.69,942.63,19.26,974.79c19,32.93,1239.67-754.08,1256.28-725.31C1294.78,282.8,1.68,956.78,16.41,982.29c21.15,36.63,1239.24-763.36,1260-727.45C1293.2,284-9.35,959.51,9.51,992.17c20.31,35.18,1257-765.56,1274.26-735.69S-20.61,977.24-4,1006c20.13,34.86,1267.88-783.36,1290.12-744.85C1303.84,291.86-24.78,983.87-7.47,1013.86,12.26,1048,1271.41,236.45,1288.32,265.74c20,34.6-1299.38,714.76-1281.69,745.4,20.64,35.75,1269.62-774.61,1287.64-743.41C1310.38,295.64-2.63,981.13,15.32,1012.2c20.18,35,1258.65-776.46,1280.21-739.13C1314.8,306.46-12.25,990.48,6.52,1023c0,0,2-1.18,2-1.17"/><path class="cls-1" d="M-.11,1.55l.06,0c.09.15,5.36,3,5.43,3.14l2-1.14c.07.13-.83,6.62-.75,6.77l5-2.9c.09.16,6.17,2.38,6.24,2.51s1.34-.82,1.36-.78"/><path class="cls-1" d="M15.13-7.45s1.29-.78,1.31-.75S21.22-5.11,21.3-5s8.78-5.36,8.91-5.14S19.28,1.92,19.5,2.31,31.14-4.94,31.37-4.54,21.7,6.48,21.9,6.83,39.1-3.68,39.34-3.25"/><path class="cls-1" d="M2.42-1.09l.28-.16c.06.11.63,5.25.7,5.38L9.68.5c.08.15.45,5.72.54,5.87l0,0c.06.11.37,5.33.42,5.42L16.3,8.52"/><path class="cls-1" d="M-.68-.24l.57-.33C0-.41,6,1.21,6.13,1.37l.08-.05c.08.14,4,3.65,4.07,3.75l0,0c.08.13.55,5,.61,5.09L15,7.77"/><path class="cls-1" d="M5.06-4.23l.87-.5c.08.15-3.2,6.88-3.09,7.08L4.77,1.23c.09.15,5.8,2.49,5.87,2.63l0,0c.07.11.8,4.58.87,4.7l2.57-1.48"/><path class="cls-1" d="M2.3-3l1.16-.67c.08.14,5.27,3,5.33,3.13l.08,0c.06.11,1.32,5,1.39,5.12l.09,0c.07.12,3.26,4.11,3.32,4.22l1.05-.61"/><path class="cls-1" d="M17.44,8.19l1.42-.82"/><path class="cls-1" d="M3.89-4.11l1.76-1c.06.09,1.11,4.93,1.17,5l4.06-2.34c.06.1,2.7,4.09,2.75,4.18L15.21.84c.06.1-.33,5.73-.27,5.83h0"/></svg>