<svg id="Layer_1" data-name="Layer 1" xmlns="http://www.w3.org/2000/svg" viewBox="0 0 1280 1024"><defs><style>.cls-1,.cls-2{fill:none;stroke-linecap:round;stroke-linejoin:round;stroke-width:3px;}.cls-1{stroke:#ccc;}.cls-2{stroke:#662d91;}</style></defs><title>bigpurp</title><path class="cls-1" d="M-160.3,1016.32c2.32,4,150.44-91,152.24-87.9,2.24,3.88-143.9,83.7-141.91,87.14,1.65,2.86,144.46-87.82,146.37-84.5,1.65,2.84-134.73,80-133.1,82.8S-8.94,935.48-6.94,938.94c2.24,3.88-134.27,77.69-131.94,81.72,1.83,3.17,136.81-82.88,138.5-80,2.08,3.61-136.5,80.36-134.55,83.72s127.84-78.72,130-75c1.85,3.2-120,71.62-118.43,74.4s110.05-67.62,111.81-64.56c1.45,2.51-113.95,67.54-112.24,70.5C-122.33,1032.3-22,967.19-20.38,970s-100.57,60.43-98.9,63.33c1.18,2,94.1-57.76,95.58-55.18s-91.81,55.49-90.59,57.6c1.37,2.37,91.86-55.62,93-53.68"/><path class="cls-1" d="M-663.79,1016.74c9.52,16.49,637.42-385.69,645.07-372.44,10.09,17.48-638.59,356.33-630.62,370.14,10.08,17.47,618.88-382.3,629.7-363.56,8.87,15.36-628.49,348.36-619.85,363.34C-632.09,1027-27.07,637.88-17.21,655c8.74,15.13-627.89,347.88-619.24,362.85C-628.6,1031.41-26.68,643.5-17,660.19c7.76,13.44-624.29,342-613.76,360.21,7.73,13.4,612.69-378,623.2-359.81,7.82,13.55-629.12,348-620,363.87,8.27,14.33,608.91-372,617.78-356.68C.91,686.33-636.5,1013.54-627,1029.91c10.75,18.62,613-371.06,620.4-358.19C3.32,689-624.3,1017.19-617,1029.88-609,1043.63-11.59,656.59-1.3,674.42c8.92,15.45-621,343.54-611.85,359.38,7.83,13.57,597.33-364.09,605.65-349.68"/><path class="cls-1" d="M-831.63,1016.87C-818,1040.5-19.64,521.75-8.25,541.49c11.51,19.94-823,454.17-811.47,474.06C-808.6,1034.81-12.39,518.41,1.05,541.68,11.71,560.14-827,994-813.58,1017.32-802.56,1036.4-16,533.87-6,551.08c13.62,23.59-806.49,448.1-796.29,465.77C-791.06,1036.35-24.25,541.06-12.74,561c9.32,16.15-802,445.95-792.29,462.84,13.42,23.24,770.83-468.72,781.09-451,9,15.66-783.72,431.22-772,451.59C-785.75,1042-36.5,564.24-27.07,580.57c11.54,20-781.64,425.88-768.31,449C-784.28,1048.76-31.7,559.31-19,581.3c9.86,17.06-780.34,427-767.85,448.58,10,17.32,757.58-464.16,769.17-444.08,9.12,15.79-776.48,426.53-764.62,447.07C-771.67,1051.3-24.08,573.8-14.85,589.78c10.13,17.55-768.73,421.25-756.7,442.09.24.42,16.8-10.13,17-9.8"/><path class="cls-1" d="M-999.47,1017c12.08,20.93,958.94-588.9,974.21-562.46C-13.44,475-994.92,986-980,1012c16.43,28.45,943.9-580.11,959.12-553.75,11.36,19.67-968.73,536.27-956,558.27,14.85,25.72,950.26-581,964.3-556.74C1.2,483.6-987.24,1002.09-976,1021.56-960.91,1047.69-27.33,444-14.4,466.37,1.54,494-981.75,1001.71-969.07,1023.68c15.56,27,947.22-580.55,961.8-555.3,15.85,27.47-970.41,531.46-955.39,557.47,12.37,21.43,945.71-581.16,960.93-554.8C10.46,492.16-974,1008.44-961,1031.05-944.51,1059.6-17.81,453-3.32,478.14,11,503-966,1007.55-952,1031.77-939.54,1053.43-13,460.05-.19,482.21c14.22,24.63-957.33,524-942.16,550.24.33.57,20-12.39,20.4-11.77"/><path class="cls-1" d="M-1079.07,1014.58C-1064.94,1039.05-27.38,366.43-9.64,397.15,5.59,423.54-1086.9,984.85-1069.48,1015-1055.77,1038.76-21.2,379.14-7.92,402.13c18,31.19-1071.38,589.25-1056,615.9C-1046.67,1047.9-18,382.81-4.39,406.31s-1069.72,588.89-1055,614.44C-1045.07,1045.5-15.69,379.69,1,408.56c17.12,29.66-1068.09,588.5-1053.59,613.61,16.45,28.49,1028-632.72,1045-603.33,16.79,29.08-1057,577.21-1040.41,606C-1034.7,1047.84-22.73,397.26-7.32,424c15,26-1054.47,579.67-1039.27,606,16.14,28,1015.56-613.8,1027.45-593.2,16.6,28.75-1037,564.6-1019.8,594.4,16.41,28.42,1007.37-611.38,1020.26-589.05,13.93,24.13-1028,561.27-1011.43,590C-1014.48,1059.16-30.69,425.81-18,447.76"/><path class="cls-1" d="M-1246.93,1014.72c18.17,31.47,1210-734.4,1225.54-707.56,15.32,26.53-1233.34,683.3-1218.51,709C-1220.17,1050.33-36.25,288.24-22,313c19.12,33.12-1228.1,667.32-1207.41,703.16C-1214.49,1041.9-36,285-17.71,316.57c19.18,33.24-1223,676.36-1207.54,703.22,18.2,31.52,1191.34-729,1209.18-698.12,18.5,32-1219.06,669-1201.35,699.64S-31.86,302.28-16.9,328.19c18.27,31.65-1218.37,663.19-1198.68,697.3,15.17,26.27,1188.13-721.37,1203.46-694.82C2.46,355.92-1234.1,995.51-1214,1030.23-1198.59,1057-28.31,300.84-8.91,334.44c15.31,26.53-1216,665.84-1197.6,697.67C-1186.93,1066-28.3,305.1-8,340.18,12.05,375-1216,996.56-1195.82,1031.48c19.75,34.2,1175.05-724.61,1195.05-690"/><path class="cls-1" d="M-1287.42,1017.25c20,34.68,1263.73-769.73,1281.1-739.65,18.58,32.19-1292.32,713.26-1275.82,741.83,15.55,27,1262.65-771.17,1280.91-739.53,19.55,33.86-1299.85,719-1283.64,747.09C-1268,1056.17-21.83,258.41-4.79,287.93,13.72,320-1301.41,997.62-1282,1031.17-1265.67,1059.52-39.91,264-18.23,301.51.54,334-1292.13,998.13-1273,1031.2c.21.37,14.24-8.69,14.44-8.34"/><path class="cls-1" d="M-1306.52,14.35c0,.05.84-.53.86-.49s-.59,5.55-.53,5.67,13.82-8.31,14-8.07-10.1,10.71-9.93,11c.63,1.11,42.73-25.89,43.25-25,.67,1.15-36.66,26-36,27.14S-1254.48,0-1253.92,1c.76,1.33-44.38,29.35-43.69,30.54.56,1,47.48-28.66,48-27.73.75,1.3-44.64,30.06-43.88,31.39.66,1.14,43.77-26.85,44.46-25.67.57,1-40.65,28.09-40.12,29s47.51-28.74,48.08-27.76c.84,1.45-46.91,31.06-46.21,32.28,1.1,1.9,89.07-54.49,90.39-52.19s-87.76,53.48-86.65,55.4,91.24-55.94,92.65-53.49c1.69,2.92-100.31,61-98.92,63.35s104.75-63.42,106-61.21c1.92,3.33-120.72,71.32-119.09,74.14,1.47,2.54,123.43-76,125.46-72.44,1.7,2.94-130.92,76.86-129.13,80,1.6,2.78,125.07-75.64,126.55-73.07,2,3.37-127,74.16-124.84,77.87,1.94,3.36,132.34-80.53,134.12-77.44,1.92,3.32-132.11,76.63-130,80.27,1.66,2.88,130.85-80.62,133-76.81,2,3.39-134.42,78.49-132.31,82.14,2.37,4.11,138.1-84.54,140.18-80.94,2.2,3.8-139.7,81-137.43,84.91s145.42-89,147.62-85.23c1.75,3-143.76,84.79-142,87.84,2.95,5.11,182.69-112.59,185.77-107.25C-1103.37-6.92-1296,97-1293.06,102.16c2.7,4.67,186.37-112.59,188.53-108.85,2.71,4.69-186.81,108-184.42,112.09,3.07,5.33,184-111.49,186.25-107.53S-1290.1,105-1287.08,110.19c2.66,4.61,192.22-117.94,195.23-112.72,2.23,3.87-191.34,110.64-188.92,114.83,2.32,4,187.42-115.1,190.4-109.93,2.51,4.33-198.26,112.85-195,118.56,3.48,6,194.69-119.56,197.79-114.19,2.72,4.72-213.47,122.44-210.87,126.94,3.49,6,215.49-131.42,218.53-126.16,2.7,4.68-231.79,131.5-228.14,137.81,2.86,5,232.49-140.5,235.2-135.79,3,5.13-229.87,130.62-226.67,136.16,4.69,8.13,267.76-163.84,271.77-156.9,4.55,7.88-279.75,157.32-275.51,164.66,3.33,5.77,275.76-167.82,279.49-161.36,3.59,6.22-281.39,156.78-276.58,165.1S-1022.48-13.13-1018.18-5.69s-283.36,159.83-279.23,167c4.27,7.39,278.89-170,282.78-163.26,4.08,7.06-277.41,156.91-273.25,164.1C-1284.13,168.64-1010-8-1005.78-.74c4.74,8.21-285.15,161.5-281.34,168.1,3.54,6.14,281.51-170.36,284.9-164.48S-1285.65,165-1282.34,170.73c4,6.93,281.84-171.73,285.74-165C-993,12-1292.21,171.64-1287.82,179.23S-996.39.21-991.73,8.28c4.07,7.05-299,167.53-294.47,175.39C-1282.32,190.39-986,2.07-982.44,8.29c4.47,7.74-314,176.71-309.5,184.58,6,10.31,342.2-208,346.71-200.17S-1306,195-1300.73,204.1C-1294.66,214.62-943.47-14.75-938-5.3c5.09,8.81-373.8,208.7-368.41,218,4.35,7.54,371.17-226.67,376.53-217.39s-374,210.57-369.26,218.83c5.68,9.85,369.1-226.42,374.87-216.43,5.58,9.67-382,215.1-377,223.74,4.4,7.62,371.67-228.64,377.76-218.1,4.56,7.91-383.63,215.37-378.33,224.56C-1296.19,237.82-923-3.45-917.54,6s-379.91,210.54-373.81,221.11c5,8.69,369.7-226.11,375.18-216.61,5.61,9.72-381.14,213.52-375.93,222.55,6.21,10.76,383.23-231.84,387.81-223.91s-385.45,216.28-380.23,225.32c7.15,12.39,415.81-252.91,421.37-243.28,5.21,9-430.64,241.38-425.16,250.88,5.64,9.77,424.11-259,430.23-248.39,5.57,9.66-435.62,240.41-428.24,253.2,7,12.14,430.93-263.29,437.2-252.42,5.64,9.76-446.25,250-440.3,260.32,7.4,12.8,437.33-268.57,444.29-256.51,6.76,11.71-460.86,259.82-455.54,269C-1292.8,280.94-850.59-8.12-843.85,3.56-836.5,16.28-1312,267.07-1306.6,276.41c5.88,10.19,461-282.2,467.93-270.16,7.52,13-473.61,264.72-467.19,275.85S-835.8-5.95-828.58,6.54c6.33,11-483.73,271.13-477.87,281.27,6.33,11,473.1-290.08,480.44-277.38,5.89,10.22-485.85,267.68-477.72,281.75,6.69,11.6,484.29-297,491.83-284,6.32,11-487.81,273-481.7,283.59,7,12.18,509.83-311.17,517.11-298.55,8.12,14.06-522.52,290.3-515.16,303.06C-1284.18,309.25-777-21.72-768-6c6.21,10.75-528.28,291.6-520.18,305.63C-1281.6,311-766.72-18.52-759.33-5.72-751,8.7-1289.39,290.77-1283,301.86-1274,317.4-762.5-15.62-755.15-2.89c8,13.82-540.08,298.08-531.84,312.35,6.69,11.59,521.46-320,529.68-305.81,6.63,11.49-534,296.8-526.38,310C-1277.46,324.43-758.78-3.94-752.5,7c9.27,16.05-546.34,300.34-537.42,315.8,7.1,12.28,537-326.42,544.1-314.13,7.4,12.82-563.37,314.08-556.21,326.48,7.86,13.61,552.56-338.79,561.12-324,9.54,16.53-574.91,317.4-565.94,332.94,8.75,15.15,599.63-370.58,610.19-352.3,8.72,15.11-614.14,341.13-605.89,355.42C-1294.1,361.84-697.25-22-688.7-7.21c10.1,17.5-623.39,343.13-613.86,359.64,9.27,16.05,610.41-375.09,620.23-358.08,9.61,16.64-626,349.54-618.44,362.7,9,15.67,610.32-372.32,619-357.36,10.64,18.43-622.34,343.44-613.07,359.49,7.43,12.87,612.77-375.13,622-359.12,7.91,13.7-629.77,346.41-619.81,363.68,8.1,14,612.85-376.46,622.65-359.48,9.35,16.2-631.44,347.39-621.35,364.87C-1281.06,387-668-7.54-660.75,5c9.07,15.72-630.17,350.51-622,364.71C-1274,384.79-670-4.93-661,10.78c7.43,12.87-634.9,352.43-626.08,367.71,7.44,12.87,633.6-383.85,641.41-370.32,8.92,15.44-646,357-636.67,373.09,11.58,20.06,671.69-407.09,680.05-392.62,10,17.38-701.36,389.82-692.1,405.86C-1282.5,415-612.66-21.39-603-4.65c9.79,17-713,393.12-702.5,411.25,8.61,14.91,699.49-428.13,710-409.92,10.87,18.81-717.64,397.26-707.57,414.7,9.52,16.49,702.5-433.07,714.4-412.46,8.94,15.48-727,400-715.92,419.12C-1293.36,437.5-593-14.25-583.72,1.85c12.51,21.67-731.65,403-720.55,422.25,12.15,21,713.49-431.75,722.07-416.89,8.71,15.08-726.69,402.28-716.74,419.5,10.32,17.88,709.91-434.48,720.57-416,11.86,20.54-724.3,403.49-715.3,419.07C-1281.7,450.49-577.19-10-565.9,9.57c12.32,21.34-735.61,405.36-724.5,424.6,12.83,22.22,750.94-464,764.14-441.17,9,15.49-768.71,428.86-759.66,444.54C-1274.69,457-524.31-25.8-514.08-8.08c11.18,19.36-782.58,433.29-772,451.66,13.26,23,764.34-466.32,775.18-447.56C-497.52,19.15-1291.69,429.4-1281.56,447c11.19,19.38,764.25-465.61,774.8-447.34,9.95,17.23-791.27,437.94-780.7,456.26,9.18,15.9,775.12-471.56,785.53-453.52,10,17.3-808.85,450.59-799.32,467.1,11.6,20.09,788.17-485.78,801.48-462.73,13.65,23.65-815.15,447.24-802.52,469.12,10,17.39,801.48-486,811.58-468.56,9.68,16.77-823.39,458.38-813.64,475.27,12.94,22.4,803.91-487.66,814.1-470,12.91,22.36-824.22,453.3-811.74,474.92,10.76,18.64,847.78-523.74,862.62-498,10.57,18.31-869.25,477.59-856,500.5C-1285.18,507.61-449.08-26.65-437-5.7-424.44,16-1303.4,471-1290.71,492.94c10.38,18,845.58-519.68,859.22-496.07,12.32,21.35-868.42,480.34-856.7,500.65C-1274.9,520.55-436-25.89-422.43-2.33c14,24.19-874.93,476.93-860.35,502.19,13.4,23.2,850.39-522.75,864.15-498.92,11.73,20.32-882.06,483.92-868.47,507.46S-425.1-15.55-413.72,4.15c11,19.07-881.19,488.77-870.2,507.82,12.51,21.66,865.55-525.38,876.66-506.14,10.55,18.26-886,491.4-874.61,511.22,14.68,25.44,866.07-535.22,881.3-508.83,15.34,26.58-909.63,498.67-895.58,523,15.86,27.48,924.75-566.79,939-542.12,15.32,26.52-964.82,527.45-949.7,553.63C-1293.32,566.2-365.58-27.15-354.13-7.32c16.13,27.93-964.91,531.2-951.15,555,15.8,27.35,940.2-576.83,954.92-551.33C-335,23-1315.81,533.76-1304.57,553.24-1293,573.31-354.86-29.59-339.92-3.7c14.05,24.33-972.41,540-960.54,560.59,16.07,27.83,951.34-575.28,962.61-555.76s-969,534.37-955.52,557.65c16.5,28.57,944.23-576.37,957.75-552.95,12.41,21.51-968.13,528.39-952.41,555.61,13.17,22.83,947.17-572.59,958.32-553.28,12.46,21.58-974.22,535.7-960.1,560.16,16,27.77,950.55-587.34,967.24-558.44,14.33,24.83-976.77,538-962.86,562.07,13.09,22.67,962.1-586.85,975.69-563.31,15.25,26.42-984.86,544.25-971.91,566.69C-1265.37,603.52-285-37.26-268.92-9.37c12.43,21.55-1026.58,567.4-1013,591,16.76,29,1002.44-611.54,1016.63-587,16.42,28.43-1037.9,575.26-1025,597.52C-1275.71,617.42-275.13-30.38-259.35-3c13.28,23-1054.4,583.28-1041,606.51C-1286.17,628-275.16-28.92-257.62,1.45c17.86,30.94-1057.45,586.33-1044.32,609.08C-1286.07,638-270.07-23.78-253.37,5.14c13.44,23.27-1068.75,586.38-1052.77,614.06C-1290.58,646.15-264.67-17.5-249.34,9.06-233.2,37-1317,590.09-1299.25,620.9-1286.88,642.34-252-18.63-236.9,7.55c14.31,24.79-1077.9,587.13-1060.16,617.86,13.24,22.92,1049.52-646.26,1067-616,16.44,28.48-1079,599.58-1066.2,621.82,15,25.9,1092-672.22,1110-640.89,13.91,24.09-1119.64,609.49-1101.24,641.36,13.83,24,1090-659.44,1103.08-636.86,15.62,27.07-1121.49,613.93-1104.31,643.69C-1273.92,664.14-191.07-29-176.44-3.66-160.45,24-1297.29,613.93-1282,640.46-1264.28,671.11-190.63-28.28-173.9.71c17,29.5-1126.87,615.89-1109.15,646.58C-1264.52,679.39-186.11-23.38-169.94,4.63c16.49,28.55-1136.6,627.22-1121.59,653.22,16.68,28.88,1106.86-683.14,1126-650.07,13.83,24-1146,636.31-1132.54,659.55C-1284.5,690.92-175.7-15.93-160.45,10.49c19.81,34.3-1159.87,645-1146.47,668.23C-1291.13,706.07-165.61-21.87-147.57,9.37-129.9,40-1326,651.13-1306.84,684.23c17.69,30.64,1183.73-721.05,1200-692.83C-87.67,24.56-1320.3,664.79-1306.23,689.16-1285.94,724.32-118.26-42.26-98.54-8.1-79.43,25-1320.87,656.35-1300.46,691.69c14.17,24.55,1195-723.81,1209.68-698.41,19.63,34-1219.89,670-1202.57,700C-1276.83,721.88-105.32-31-88.73-2.22-73.09,24.86-1311.37,667-1293.13,698.64-1277.32,726-105.31-28-87.64,2.65-71.5,30.59-1303,676.73-1288.34,702.19-1270.24,733.54-98-29.41-78.79,3.86c19.45,33.7-1227,674.32-1209.95,703.81C-1273,734.92-101.61-25-81.11,10.45c20,34.65-1222.71,668.85-1204.07,701.13C-1267.45,742.28-91.79-23.56-71.81,11c20.45,35.43-1230.61,675.18-1212.91,705.84C-1264.11,752.58-78.18-20.42-60.55,10.1-43.4,39.82-1309.24,700.17-1293.62,727.22-1275.63,758.37-48-42.19-26.28-4.48c16.17,28-1299.21,707.36-1278,744C-1289,766-43.14-36.83-22.24-.65-2.71,33.19-1320,717.83-1304.16,745.29-1287.07,774.9-44.57-22.26-27.11,8-5.9,44.72-1319.65,720.77-1302.42,750.6-1285.32,780.22-41.11-22.83-21.54,11.08c20,34.68-1295.2,712.05-1277.28,743.09C-1283.08,781.43-26.88-15.13-11.75,11.08c21.09,36.51-1308,714.8-1288,749.36C-1278.76,796.86-23.22-12.88-7.5,14.34,14.22,52-1305,733.2-1289.2,760.57-1273.89,787.08-21.27-9.38-4.86,19.05,10.28,45.27-1304.2,738.18-1288.19,765.91-1270.52,796.52-36.64-6.8-14.93,30.79,1.89,59.93-1300.59,736.7-1282.56,767.93-1264.41,799.36-44.1,9.65-25.37,42.09-8,72.18-1302.6,748.53-1286.88,775.77-1268.27,808-39.27,11.42-20.2,44.45-4.69,71.32-1298,749.92-1281.72,778.19-1261.4,813.37-46.38,17.15-25.68,53c15.39,26.66-1278.46,709-1263.18,735.51,19.24,33.31,1249.61-771.8,1271.41-734C3.63,91-1312.42,773-1297.2,799.33c18.42,31.9,1266.69-768.94,1283-740.73,21.44,37.13-1304.48,716.85-1286,748.79C-1279.67,843.06-29.95,29.28-10.6,62.8,4.76,89.4-1322.45,786.09-1305.21,815.94-1287.18,847.18-24.76,37.4-7.75,66.86c19.5,33.78-1318.59,718.44-1297.32,755.28C-1287.35,852.83-20.19,40.17-2.81,70.28,14.34,100-1317,783.37-1294.9,821.63-1279.5,848.29-19.59,49.77-4.2,76.44c18.47,32-1303.58,720.54-1287.33,748.69C-1273.84,855.77-21.92,54.1-5.46,82.61,11.39,111.79-1313.14,795.37-1292.28,831.5-1276,859.65-27.78,51.54-6.17,89,10,116.87-1311.33,796.86-1289.09,835.37-1271,866.64-39,75.6-22.51,104.11c15.62,27.05-1285.8,700.67-1265.23,736.29C-1270.39,870.45-35.15,81.34-19.61,108.25c17.34,30-1284.77,705.16-1266.19,737.34,15.43,26.73,1245.86-766.28,1266.2-731C1.09,150.38-1304,823.31-1287.1,852.63-1271.69,879.31-41.25,83.75-19.78,120.94c21.62,37.44-1290.48,709.38-1272.69,740.2C-1273.28,894.38-35.88,99-20,126.48c18,31.2-1299.47,712-1280.22,745.38C-1281.69,904-25.89,100.39-10.42,127.19c18.21,31.53-1310.53,712.75-1289.2,749.7C-1280.72,909.61-28,92.28-6.17,130.11c16.58,28.73-1309.5,723.79-1292.9,752.53C-1283.43,909.73-22.77,102.49-4,135,11.76,162.29-1318.43,860.71-1301.46,890.1-1282.49,923-22,102.63-.9,139.23,20.53,176.34-1311.39,859.31-1293.08,891-1277.24,918.46-20.8,110.26-.79,144.92,19.74,180.48-1311,866.31-1293.46,896.7-1274.81,929-22.82,126.62-7,154c19.5,33.78-1298.23,714.27-1280.51,745C-1268,932.74-40.28,133-20.43,167.39s-1284,710.1-1268,737.72c21.73,37.63,1252.69-757.89,1267.69-731.9C-.93,207.6-1298.22,878.52-1281.76,907-1266.59,933.31-40.3,146.8-21.48,179.42c16,27.74-1281.18,705.71-1263.85,735.73C-1264,952.09-37.52,151.75-18.91,184-3.09,211.38-1304,883.13-1283.18,919.26c15,26,1240.57-762.79,1260.72-727.88s-1291.6,713.24-1274.8,742.33,1264-776.05,1284-741.33C3.66,221.68-1320,917.37-1305,943.46-1283.7,980.31-26.76,162.53-8.16,194.75,11.39,228.62-1326,911.81-1304.52,949-1288.9,976-29.4,171.92-11.7,202.58,4.49,230.62-1315,922.33-1298.44,951c17.32,30,1276.31-775.49,1293-746.53,17.48,30.29-1310.43,723-1293.31,752.61C-1281.41,987-22.26,175.63-3,209,14.74,239.7-1312.52,931.37-1295.6,960.68-1274.86,996.59-22,183.57-3.94,214.94c19.84,34.37-1310.15,714.6-1289.61,750.17,18.61,32.23,1269.54-769,1285.14-742,18.22,31.55-1298,720.06-1282.87,746.21C-1273.82,999.6-42.75,201.12-22.23,236.66c18.81,32.59-1281,701.84-1262.42,734.07C-1267.4,1000.61-37.37,210.82-20.13,240.66c20.84,36.11-1279.18,702-1260.61,734.13,19,32.93,1239.67-754.08,1256.28-725.31,19.24,33.32-1273.86,707.3-1259.13,732.81,21.15,36.63,1239.24-763.36,1260-727.45C-6.8,284-1309.35,959.51-1290.49,992.17c20.31,35.18,1257-765.56,1274.26-735.69S-1320.61,977.24-1304,1006C-1283.86,1040.9-36.11,222.68-13.87,261.19c17.71,30.67-1310.91,722.68-1293.6,752.67C-1287.74,1048-28.59,236.45-11.68,265.74c20,34.6-1299.38,714.76-1281.69,745.4C-1272.73,1046.89-23.75,236.53-5.73,267.73c16.11,27.91-1296.9,713.4-1278.95,744.47C-1264.5,1047.17-26,235.74-4.47,273.07c19.27,33.39-1307.78,717.41-1289,749.92,0,0,2-1.18,2-1.17"/><path class="cls-2" d="M1269.55,1021.55l2.64-1.53c.06.1,1,4.87,1,5l0,0c.06.09,1.44,4.69,1.5,4.79l.07,0"/><path class="cls-2" d="M1270.84,1020.69h0c.06.11.92,4.63,1,4.73l.05,0c0,.09,3.94,3.15,4,3.27l.69-.4"/><path class="cls-2" d="M1269.81,1020.57l3.23-1.86c.1.16-.42,6.26-.34,6.4l.57-.33c.07.13,3,3.58,3.12,3.7l1.42-.82"/><path class="cls-2" d="M1269.86,1020.24h0c.06.11.48,5.51.56,5.64l.06,0c.1.18-2.49,6.68-2.41,6.81l2.17-1.25"/><path class="cls-2" d="M1274.92,1016.28l3.83-2.21c.07.12,1.17,4.88,1.24,5l4.92-2.84"/><path class="cls-2" d="M1276.34,1015.26h0c.08.14,4.65,2.61,4.73,2.75l2.72-1.58c.06.11,2.79,3.51,2.85,3.61l3.67-2.11"/><path class="cls-2" d="M1275.14,1015.57l4.44-2.57c.08.16,7.59.66,7.67.8l.58-.34"/><path class="cls-2" d="M1277.67,1012.92h0c.09.15,6.13,2.43,6.2,2.55l7.1-4.1"/><path class="cls-2" d="M8,1022.19l5-2.9c.08.14-2.71,7.25-2.62,7.4l.08,0c.07.13-.78,6-.71,6.09l.07,0"/><path class="cls-2" d="M10.11,1020.89h0c.08.13-1.51,6.33-1.43,6.46l.09,0"/><path class="cls-2" d="M5.85,1022.57l5.63-3.25c.15.25-6.26,8.69-6.12,8.93l.54-.31"/><path class="cls-2" d="M8.57,1019.73h0c.09.16-4,8.33-3.89,8.55l.13-.07"/><path class="cls-2" d="M1278.22,11l0,0"/><path class="cls-2" d="M1275.21,12.17l7.47-4.31"/><path class="cls-2" d="M1280,8.46l.15-.09"/><path class="cls-2" d="M1273-4.18l8.1-4.68c.17.29-9,10.5-8.79,10.82l.41-.24"/><path class="cls-2" d="M1275.35-7.6l.09-.05c.1.18-2.4,6.66-2.3,6.83l.07,0"/><path class="cls-2" d="M1277.4-10.65h0c.15.26-9.3,10.16-9.1,10.5l4.74-2.73"/><path class="cls-2" d="M1270.81-8.51l.31-.18c.08.15-1.16,6.67-1.09,6.79l2.56-1.47c.16.29-6.73,9-6.61,9.23l6.78-3.92"/><path class="cls-2" d="M-8.42,9.89l.1-.06c.16.28,11.3-.89,11.42-.68l.37-.21"/><path class="cls-2" d="M-8.8,8.05l.92-.53c0,.1,4.2,3.11,4.26,3.22l6.86-4"/><path class="cls-2" d="M-7.86,4l1.49-.86c.09.15,5.41,3,5.49,3.17l.07,0c.09.16,7,1.36,7.14,1.55l1.09-.63"/><path class="cls-2" d="M9.78-8.81l.06,0c.07.13-1,6.46-.92,6.62l.34-.2c.06.12.37,5.51.43,5.61l1.84-1.06"/><path class="cls-2" d="M6.55-7.89l2.08-1.2c.08.12,0,5.66.08,5.8l.07,0c.09.17-3.29,7.45-3.19,7.62l2.59-1.5"/><path class="cls-2" d="M5.47-7.95l0,0c.1.18-2.23,6.65-2.13,6.83L8-3.83c.06.1.48,5.25.55,5.38l0,0"/><path class="cls-2" d="M2.12-6.42,4.79-8c.06.1.11,5.16.16,5.26L7.43-4.13C7.5-4,5.76,2.23,5.86,2.39L9.94,0"/><path class="cls-2" d="M1270.32,1014.39l0,0c.08.14,5.53,2.9,5.6,3l.23-.14c.06.1-.81,5.86-.75,6l0,0c0,.09,0,5.16,0,5.27l2.65-1.53"/><path class="cls-2" d="M1269,1015.13l3.27-1.89c.1.17-1.21,6.54-1.13,6.67l6.72-3.88c.1.16-1.51,6.16-1.44,6.29l0,0c.08.13,1.69,5.06,1.77,5.19l1.12-.64"/><path class="cls-2" d="M1270.82,1014.07l0,0c.06.1,3.33,3.71,3.39,3.82h0c.07.12,3.1,3.45,3.16,3.55l0,0c.06.12,3.42,3.88,3.48,4l.08,0"/><path class="cls-2" d="M1269.28,1014.9l3.87-2.23c.07.11,1.6,4.46,1.66,4.57h0c.07.11,3.48,3.13,3.55,3.25l.05,0c.06.11,3.76,3.44,3.82,3.56l.09,0"/><path class="cls-2" d="M1271.28,1013.67l0,0c.07.12,2.56,3.66,2.62,3.77l.2-.12c.07.13,5.07,2.09,5.15,2.24l.06,0c.05.1,4.08,3,4.16,3.13l.09,0"/><path class="cls-2" d="M1267.26,1015.91s5.16-3,5.17-3"/><path class="cls-2" d="M1271.5,1013.44l0,0c.07.12,1.49,4.91,1.56,5l4.51-2.6c.07.12,4.29,3.57,4.36,3.69l.07,0c.08.13,4.93,2.84,5,3l.06,0"/><path class="cls-2" d="M1270.36,1013.31c.22.39,20.51-12.43,20.76-12,.14.25-9.1,10.61-8.95,10.87s10.09-6.09,10.21-5.89"/><path class="cls-2" d="M1222,1013.75c.78,1.36,47.83-29.67,48.72-28.13.54.93-37.57,26-37.05,26.85.69,1.2,43.16-26.64,43.91-25.35.56,1-42.58,28.92-41.84,30.19s41.8-25.67,42.47-24.52c.52.9-40.32,27.58-39.68,28.68s46.56-28.36,47.2-27.25-35.69,25.1-35.17,26c.62,1.09,36.44-22.46,37.06-21.39s-33.65,23.8-33.19,24.61c.32.55,15.14-9.57,15.5-8.95s-16.25,14.65-16,15.1,12.85-7.88,13-7.53-9.22,10.28-9,10.58,9.76-6,9.93-5.74-6.3,8.9-6.18,9.11,5.12-3.08,5.18-3"/><path class="cls-2" d="M1133.7,1016.32c2.32,4,150.44-91,152.24-87.9,2.24,3.88-143.9,83.7-141.91,87.14,1.65,2.86,144.46-87.82,146.37-84.5,1.65,2.84-134.73,80-133.1,82.8s127.76-78.38,129.76-74.92c2.24,3.88-134.27,77.69-131.94,81.72,1.83,3.17,136.81-82.88,138.5-80,2.08,3.61-136.5,80.36-134.55,83.72s127.84-78.72,130-75c1.85,3.2-120,71.62-118.43,74.4s110.05-67.62,111.81-64.56c1.45,2.51-114,67.54-112.24,70.5,1.49,2.58,101.81-62.53,103.44-59.72s-100.57,60.43-98.9,63.33c1.18,2,94.1-57.76,95.58-55.18s-91.81,55.49-90.59,57.6c1.37,2.37,91.86-55.62,93-53.68"/><path class="cls-2" d="M1054.11,1013.89c4,6.88,232.56-141.52,235.7-136.08,2.68,4.63-228.36,130.31-225,136.05,3,5.28,218.38-134.55,222-128.2,3.76,6.52-218.37,125.28-215.48,130.28,2.8,4.84,204-124.15,206.77-119.38,3.17,5.49-208.36,119-205.48,124,2.3,4,199-121.78,202-116.6s-201.22,114.63-198.29,119.72,196.12-118.5,198.4-114.55c2.82,4.89-191.21,109.86-188.63,114.33s186.45-113.64,189-109.15c2.76,4.78-192.58,109.65-189.53,114.94,2.45,4.24,188.48-114.14,190.78-110.15,3.1,5.36-189.67,109.84-187.22,114.07,2.84,4.92,184.48-112.89,187.24-108.11S1093.51,1031.14,1096,1035.39c2.92,5,178.24-109.11,180.93-104.46"/><path class="cls-2" d="M965.86,1016.46c3.55,6.14,305.22-186.09,309.49-178.69,4,7-295.95,166.35-291.45,174.15,4.41,7.64,281.07-171,284.84-164.46,4.79,8.29-288.63,162.8-284.45,170,4,7,285-175.79,289.88-167.36,4,6.88-288.7,162.21-284.06,170.24,4.34,7.52,282.87-171,286.19-165.23,4.07,7.05-286.33,161-282,168.42,4.08,7.07,280.6-170.41,284.24-164.11,4,6.91-279.27,158.4-275.45,165s278.22-168.9,281.8-162.7c4.58,7.94-286.94,159.88-282.12,168.21,3.28,5.69,275.92-168.79,280-161.67,3.26,5.65-281,158.29-276.84,165.54,3.51,6.09,279.17-170.31,283.12-163.47s-278.84,158.17-275,164.76c4.54,7.85,271.45-167.4,276.07-159.39"/><path class="cls-2" d="M886.28,1014c4.88,8.44,382.12-234.15,388-224,6,10.42-386,214.31-379.88,225,6.44,11.16,377-231.32,382.9-221.06S900,1003.8,905.9,1014c5.69,9.86,370.73-227.45,376.54-217.39,4.71,8.16-380.5,214.58-375.69,222.92,5,8.67,375.19-229,380.54-219.71,5.25,9.1-381.7,212.68-375.79,222.91,5.26,9.12,369.51-225.44,374.75-216.36,5.14,8.91-372.91,208.75-367.74,217.71s369.23-223.25,373.6-215.7c4.53,7.86-377.66,213.78-373.08,221.7,5.91,10.23,364.73-225,371-214.17,4.76,8.24-374.79,207.16-368.44,218.16,5.61,9.72,361-219.51,365.76-211.17,4.55,7.88-362.06,203.12-357,211.83,5.82,10.09,341.3-207.41,345.79-199.64"/><path class="cls-2" d="M798,1016.6c6.47,11.2,485-297.91,492.77-284.51,5.73,9.93-485.4,267-477.32,281,6.08,10.53,470-284.83,475.82-274.72,7.31,12.66-478.54,263.24-470.45,277.25,7.5,13,463.26-282.23,469.66-271.16,7.87,13.65-472.15,262.14-465.12,274.33,7.88,13.65,459.65-283.18,467.36-269.83C1297,759.76,821.25,1009,828.73,1022c6.14,10.63,451.3-276.26,458.1-264.48,6.12,10.59-458.55,255.76-452.08,267,6,10.3,430.71-265.31,437.92-252.84,6.07,10.52-443.16,248.57-437.35,258.62,6.29,10.9,431.81-262.62,437.58-252.63,6.11,10.58-440.38,247-434.49,257.17,5.46,9.46,429.27-260.24,434.64-250.94,7.32,12.67-430.81,240.1-424.71,250.67,5,8.69,417-255.71,423.49-244.5"/><path class="cls-2" d="M718.46,1014.17c8.09,14,561.63-346.55,571.28-329.83,7.9,13.69-570.93,320.43-564.22,332C733.44,1030.11,1272.3,682,1280.41,696S726,1005.66,732.9,1017.67c9,15.57,536.84-324.54,543.16-313.59,8.31,14.38-541.39,303.74-535.16,314.53,7.83,13.56,522.68-317.83,529.63-305.78,6.86,11.88-533.31,293.22-524.57,308.36,6.83,11.83,516.43-317.54,524.83-303C1277.59,730,742.63,1011,750.2,1024.11c7.06,12.22,515-315.92,523-302,8.16,14.13-530,294.69-522.54,307.63,6.83,11.84,514.46-315.85,522.61-301.73,7.91,13.7-528.68,292.44-520.52,306.57s524.33-316.88,530.46-306.26c8.27,14.33-528.05,292.49-520.43,305.69,6.43,11.14,517.44-312.67,523.47-302.23"/><path class="cls-2" d="M630.21,1016.74c9.52,16.49,637.42-385.69,645.07-372.44,10.09,17.48-638.59,356.33-630.62,370.14,10.08,17.47,618.88-382.3,629.7-363.56,8.87,15.36-628.49,348.36-619.85,363.34,7.4,12.82,612.42-376.34,622.28-359.27,8.74,15.13-627.89,347.88-619.24,362.85,7.85,13.61,609.77-374.3,619.4-357.61,7.76,13.44-624.29,342-613.76,360.21,7.73,13.4,612.69-378,623.2-359.81,7.82,13.55-629.12,348-620,363.87,8.27,14.33,608.91-372,617.78-356.68,10.7,18.55-626.71,345.76-617.26,362.13,10.75,18.62,613-371.06,620.4-358.19,10,17.28-617.65,345.47-610.32,358.16,7.94,13.75,605.38-373.29,615.67-355.46,8.92,15.45-621,343.54-611.85,359.38,7.83,13.57,597.33-364.09,605.65-349.68"/><path class="cls-2" d="M550.62,1014.3c11.48,19.9,719.08-436.91,728.5-420.6,8.72,15.11-724.9,402.2-715.32,418.8,8.65,15,712.37-434.62,722.47-417.12,9.84,17-729.75,401.43-718.8,420.39,9.18,15.89,708.82-432.6,718.93-415.08,9,15.67-722.95,396.9-711.36,417s704-426.47,712.67-411.46-723.66,404.47-715.2,419.13S1283,595.1,1291.69,610.11s-719.67,396.28-709,414.7C592,1041,1278.06,601.65,1287.44,617.9S571.73,1010.13,583.23,1030c11.11,19.25,693.11-423.16,703.07-405.92,8.11,14-703.47,389-693.66,406,10.81,18.73,671.89-413,682.74-394.18,9,15.56-688.61,379.58-678.28,397.47,9,15.62,662.57-407,673.18-388.66"/><path class="cls-2" d="M462.37,1016.87c13.64,23.63,812-495.12,823.38-475.38,11.51,19.94-823,454.17-811.47,474.06,11.12,19.26,807.33-497.14,820.77-473.87C1305.71,560.14,467,994,480.42,1017.32c11,19.08,797.61-483.45,807.55-466.24,13.62,23.59-806.49,448.1-796.29,465.77,11.26,19.5,778.07-475.79,789.58-455.87,9.32,16.15-802,445.95-792.29,462.84,13.42,23.24,770.83-468.72,781.09-451,9,15.66-783.72,431.22-772,451.59,10.15,17.58,759.4-460.21,768.83-443.88,11.54,20-781.64,425.88-768.31,449,11.1,19.23,763.68-470.22,776.37-448.23,9.86,17.06-780.34,427-767.85,448.58,10,17.32,757.58-464.16,769.17-444.08,9.12,15.79-776.48,426.53-764.62,447.07,10.64,18.43,758.23-459.07,767.46-443.09,10.13,17.55-768.73,421.25-756.7,442.09.24.42,16.8-10.13,17-9.8"/><path class="cls-2" d="M382.78,1014.44c10.39,18,883.18-540.45,896.41-517.54,14.32,24.82-899,493.87-885.84,516.75,13.48,23.35,863.49-525.44,875.14-505.26C1279.3,527.11,391.6,995.87,402,1013.88c12.68,22,858.79-528.72,873-504,13.74,23.8-888.63,488.25-875.38,511.2,10.44,18.09,854.4-527,869-501.73,14.77,25.59-873.52,484.61-862.48,503.73,14.45,25,858.52-524,870.78-502.75,14.71,25.49-876.77,480.66-863.41,503.8,11.24,19.47,852.58-526,867.21-500.69C1295.29,548.55,403.13,1010.13,414,1029c11.19,19.37,852.89-518.22,864.06-498.86,12,20.72-866.12,481.29-855.34,500,13.82,23.93,853.36-521.18,865.7-499.81,14.11,24.45-874,478.6-860.42,502.15,12.42,21.51,845.33-516.19,857.51-495.09S430,1014,440,1031.35c.22.38,11.91-7.3,12.1-7"/><path class="cls-2" d="M294.53,1017c12.08,20.93,958.94-588.9,974.21-562.46C1280.56,475,299.08,986,314,1012c16.43,28.45,943.9-580.11,959.13-553.75,11.35,19.67-968.74,536.27-956,558.27,14.85,25.72,950.26-581,964.3-556.74C1295.2,483.6,306.76,1002.09,318,1021.56c15.09,26.13,948.67-577.59,961.6-555.19,15.94,27.6-967.35,535.34-954.67,557.31,15.56,27,947.22-580.55,961.8-555.3,15.85,27.47-970.41,531.46-955.39,557.47,12.37,21.43,945.71-581.16,960.93-554.8,12.19,21.11-972.31,537.39-959.26,560,16.48,28.55,943.18-578,957.67-552.91C1305,503,328,1007.55,342,1031.77c12.5,21.66,939.06-571.72,951.85-549.56,14.22,24.63-957.33,524-942.16,550.24.33.57,20-12.39,20.4-11.77"/><path class="cls-2" d="M214.93,1014.58c14.13,24.47,1051.69-648.15,1069.43-617.43C1299.59,423.54,207.1,984.85,224.52,1015c13.71,23.74,1048.28-635.88,1061.56-612.89,18,31.19-1071.38,589.25-1056,615.9,17.25,29.87,1046-635.22,1059.53-611.72S219.89,995.2,234.64,1020.75C248.93,1045.5,1278.31,379.69,1295,408.56c17.12,29.66-1068.09,588.5-1053.59,613.61,16.45,28.49,1028-632.72,1045-603.33,16.79,29.08-1057,577.21-1040.41,606,13.31,23,1025.28-627.53,1040.69-600.84,15,26-1054.47,579.67-1039.27,606,16.14,28,1015.56-613.8,1027.45-593.2,16.6,28.75-1037,564.6-1019.8,594.4,16.41,28.42,1007.37-611.38,1020.26-589.05,13.93,24.13-1028,561.27-1011.43,590,15.63,27.07,999.42-606.28,1012.1-584.33"/><path class="cls-2" d="M126.68,1017.15c16.27,28.19,1147.24-693.8,1160.86-670.22C1306.26,379.35,124,979,143.65,1013.08c16.75,29,1128.88-691.6,1146.13-661.72,18.72,32.42-1156.13,632-1138.09,663.22,19.44,33.67,1105.38-682.19,1124.43-649.19,19.44,33.66-1142.33,623.46-1124,655.21,19.25,33.33,1109-672.32,1122.85-648.27,17.65,30.57-1131.5,622.23-1115.6,649.77,16.89,29.25,1094-675.79,1113.13-642.67C1289.91,409.6,145,994.72,163,1025.84c14.08,24.4,1094.26-667.07,1109.55-640.6,17.92,31.05-1125.27,615.43-1107.93,645.47,15.86,27.46,1091.13-665.45,1106.5-638.84,12.79,22.16-1113.75,614.83-1099.22,640,14.75,25.55,1089.37-659.3,1102.52-636.54,13.6,23.57-1110.7,605-1092.47,636.53,17.64,30.56,1083.32-662.75,1099.47-634.78"/><path class="cls-2" d="M47.07,1014.72c18.17,31.47,1210-734.4,1225.54-707.56,15.32,26.53-1233.34,683.3-1218.51,709C73.83,1050.33,1257.75,288.24,1272,313c19.12,33.12-1228.1,667.32-1207.41,703.16C79.51,1041.9,1258,285,1276.29,316.57c19.18,33.24-1223,676.36-1207.54,703.22,18.2,31.52,1191.34-729,1209.18-698.12,18.5,32-1219.06,669-1201.35,699.64s1185.56-719,1200.52-693.12c18.27,31.65-1218.37,663.19-1198.68,697.3,15.17,26.27,1188.13-721.37,1203.46-694.82C1296.46,355.92,59.9,995.51,80,1030.23,95.41,1057,1265.69,300.84,1285.09,334.44c15.31,26.53-1216,665.84-1197.6,697.67C107.07,1066,1265.7,305.1,1286,340.18,1306.05,375,78,996.56,98.18,1031.48c19.75,34.2,1175.05-724.61,1195.05-690"/><path class="cls-2" d="M6.58,1017.25c20,34.68,1263.73-769.73,1281.1-739.65C1306.26,309.79-4.64,990.86,11.86,1019.43c15.55,27,1262.65-771.17,1280.91-739.53C1312.32,313.76-7.08,998.9,9.13,1027c16.85,29.18,1263-768.58,1280.08-739.06C1307.72,320-7.41,997.62,12,1031.17,28.33,1059.52,1254.09,264,1275.77,301.51,1294.54,334,1.87,998.13,21,1031.2c.21.37,14.24-8.69,14.44-8.34"/><path class="cls-2" d="M10.41,1014.82l1.47-.85c.13.23-3.9,8.15-3.8,8.34l.09,0"/><path class="cls-2" d="M9.92,1014.87l.06,0c.17.29-10,11.26-9.85,11.58l6.64-3.83"/><path class="cls-2" d="M9.11,1015.09l2.09-1.2c.22.39-12.49,12.13-12.25,12.53l.24-.14"/><path class="cls-2" d="M1281.36-2l2.87-1.66c.19.34-12.38,11.79-12.13,12.22l0,0"/><path class="cls-2" d="M1280.62-4l.18-.1c.16.3-7.89,10.32-7.76,10.55h0"/><path class="cls-2" d="M1278.4-5.09,1281.74-7c.24.42-11.21,11.89-11,12.2L1275,2.7"/><path class="cls-2" d="M-12.52,14.35c0,.05.84-.53.86-.49s-.59,5.55-.53,5.67,13.82-8.31,14-8.07-10.1,10.71-9.93,11c.63,1.11,42.73-25.89,43.25-25,.67,1.15-36.66,26-36,27.14S39.52,0,40.08,1C40.84,2.29-4.3,30.31-3.61,31.5c.56,1,47.48-28.66,48-27.73C45.16,5.07-.23,33.83.53,35.16,1.19,36.3,44.3,8.31,45,9.49c.57,1-40.65,28.09-40.12,29S52.38,9.76,53,10.74C53.79,12.19,6,41.8,6.74,43c1.1,1.9,89.07-54.49,90.39-52.19S9.37,44.31,10.48,46.23,101.72-9.71,103.13-7.26c1.69,2.92-100.31,61-98.92,63.35S109-7.33,110.24-5.12C112.16-1.79-10.48,66.2-8.85,69c1.47,2.54,123.43-76,125.46-72.44,1.7,2.94-130.92,76.86-129.13,80C-10.92,79.31,112.55.89,114,3.46,116,6.83-13,77.62-10.81,81.33-8.87,84.69,121.53.8,123.31,3.89,125.23,7.21-8.8,80.52-6.7,84.16-5,87,124.15,3.54,126.34,7.35,128.3,10.74-8.08,85.84-6,89.49-3.6,93.6,132.13,5,134.21,8.55c2.2,3.8-139.7,81-137.43,84.91S142.2,4.42,144.4,8.23C146.15,11.27.64,93,2.4,96.07,5.35,101.18,185.09-16.52,188.17-11.18,190.63-6.92-2,97,.94,102.16,3.64,106.83,187.31-10.43,189.47-6.69,192.18-2,2.66,101.27,5.05,105.4,8.12,110.73,189-6.09,191.3-2.13S3.9,105,6.92,110.19C9.58,114.8,199.14-7.75,202.15-2.53,204.38,1.34,10.81,108.11,13.23,112.3c2.32,4,187.42-115.1,190.4-109.93C206.14,6.7,5.37,115.22,8.67,120.93,12.15,127,203.36,1.37,206.46,6.74,209.18,11.46-7,129.18-4.41,133.68c3.49,6,215.49-131.42,218.53-126.16C216.82,12.2-17.67,139-14,145.33c2.86,5,232.49-140.5,235.2-135.79,3,5.13-229.87,130.62-226.67,136.16C-.8,153.83,262.27-18.14,266.28-11.2,270.83-3.32-13.47,146.12-9.23,153.46-5.9,159.23,266.53-14.36,270.26-7.9,273.85-1.68-11.13,148.88-6.32,157.2S271.52-13.13,275.82-5.69-7.54,154.14-3.41,161.29C.86,168.68,275.48-8.7,279.37-2,283.45,5.09,2,154.94,6.12,162.13,9.87,168.64,284-8,288.22-.74,293,7.47,3.07,160.76,6.88,167.36,10.42,173.5,288.39-3,291.78,2.88S8.35,165,11.66,170.73C15.66,177.66,293.5-1,297.4,5.76,301,12,1.79,171.64,6.18,179.23S297.61.21,302.27,8.28c4.07,7.05-299,167.53-294.47,175.39C11.68,190.39,308,2.07,311.56,8.29,316,16-2.49,185,2.06,192.87,8,203.18,344.26-15.1,348.77-7.3S-12,195-6.73,204.1C-.66,214.62,350.53-14.75,356-5.3c5.09,8.81-373.8,208.7-368.41,218C-8.08,220.26,358.74-13.95,364.1-4.67S-9.94,205.9-5.16,214.16C.52,224,363.94-12.26,369.71-2.27c5.58,9.67-382,215.1-377,223.74,4.4,7.62,371.67-228.64,377.76-218.1C375,11.28-13.2,218.74-7.9,227.93-2.19,237.82,371-3.45,376.46,6S-3.45,216.56,2.65,227.13C7.67,235.82,372.35,1,377.83,10.52,383.44,20.24-3.31,224,1.9,233.07,8.11,243.83,385.13,1.23,389.71,9.16S4.26,225.44,9.48,234.48C16.63,246.87,425.29-18.43,430.85-8.8,436.06.23.21,232.58,5.69,242.08c5.64,9.77,424.11-259,430.23-248.39C441.49,3.35.3,234.1,7.68,246.89,14.69,259,438.61-16.4,444.88-5.53c5.64,9.76-446.25,250-440.3,260.32C12,267.59,441.91-13.78,448.87-1.72,455.63,10-12,258.1-6.67,267.31,1.2,280.94,443.41-8.12,450.15,3.56,457.5,16.28-18,267.07-12.6,276.41c5.88,10.19,461-282.2,467.93-270.16C462.85,19.28-18.28,271-11.86,282.1S458.2-5.95,465.42,6.54c6.33,11-483.73,271.13-477.87,281.27C-6.12,298.78,460.65-2.27,468,10.43,473.88,20.65-17.86,278.11-9.73,292.18c6.69,11.6,484.29-297,491.83-284,6.32,11-487.81,273-481.7,283.59C7.43,304,510.23-19.36,517.51-6.74,525.63,7.32-5,283.56,2.35,296.32,9.82,309.25,517-21.72,526-6,532.22,4.73-2.27,285.58,5.83,299.61,12.4,311,527.28-18.52,534.67-5.72,543,8.7,4.61,290.77,11,301.86,20,317.4,531.5-15.62,538.85-2.89,546.82,10.93-1.23,295.19,7,309.46c6.69,11.59,521.46-320,529.68-305.81,6.63,11.49-534,296.8-526.38,310C16.54,324.43,535.22-3.94,541.5,7,550.77,23-4.84,307.29,4.08,322.75,11.18,335,541.09-3.67,548.18,8.62,555.58,21.44-15.19,322.7-8,335.1c7.86,13.61,552.56-338.79,561.12-324,9.54,16.53-574.91,317.4-565.94,332.94C-4.1,359.23,586.78-26.5,597.34-8.22,606.06,6.89-16.8,332.91-8.55,347.2-.1,361.84,596.75-22,605.3-7.21,615.4,10.29-18.09,335.92-8.56,352.43.71,368.48,601.85-22.66,611.67-5.65,621.28,11-14.37,343.89-6.77,357.05c9,15.67,610.32-372.32,619-357.36C622.83,18.12-10.15,343.13-.88,359.18,6.55,372.05,611.89-15.95,621.13.06,629,13.76-8.64,346.47,1.32,363.74,9.42,377.76,614.17-12.72,624,4.26,633.32,20.46-7.47,351.65,2.62,369.13,12.94,387,626-7.54,633.25,5c9.07,15.72-630.17,350.51-622,364.71C20,384.79,624-4.93,633,10.78,640.47,23.65-1.86,363.21,7,378.49,14.4,391.36,640.56-5.36,648.37,8.17c8.92,15.44-646,357-636.67,373.09C23.28,401.32,683.39-25.83,691.75-11.36,701.78,6-9.61,378.46-.35,394.5,11.5,415,681.34-21.39,691-4.65c9.79,17-713,393.12-702.5,411.25C-2.89,421.51,688-21.53,698.5-3.32,709.37,15.49-19.14,393.94-9.07,411.38.45,427.87,693.43-21.69,705.33-1.08c8.94,15.48-727,400-715.92,419.12C.64,437.5,701-14.25,710.28,1.85c12.51,21.67-731.65,403-720.55,422.25C1.88,445.14,703.22-7.65,711.8,7.21,720.51,22.29-14.89,409.49-4.94,426.71,5.38,444.59,705-7.77,715.63,10.69,727.49,31.23-8.67,414.18.33,429.76,12.3,450.49,716.81-10,728.1,9.57,740.42,30.91-7.51,414.93,3.6,434.17,16.43,456.39,754.54-29.86,767.74-7,776.69,8.49-1,421.86,8.08,437.54,19.31,457,769.69-25.8,779.92-8.08,791.1,11.28-2.66,425.21,8,443.58,21.21,466.55,772.29-22.74,783.13-4,796.48,19.15,2.31,429.4,12.44,447,23.63,466.33,776.69-18.66,787.24-.39,797.19,16.84-4,437.55,6.54,455.87,15.72,471.77,781.66-15.69,792.07,2.35c10,17.3-808.85,450.59-799.32,467.1C4.35,489.54,780.92-16.33,794.23,6.72,807.88,30.37-20.92,454-8.29,475.84c10,17.39,801.48-486,811.58-468.56C813,24.05-20.1,465.66-10.35,482.55,2.59,505,793.56-5.11,803.75,12.53,816.66,34.89-20.47,465.83-8,487.45c10.76,18.64,847.78-523.74,862.62-498C865.2,7.72-14.62,467-1.4,489.91,8.82,507.61,844.92-26.65,857-5.7,869.56,16-9.4,471,3.29,492.94c10.38,18,845.58-519.68,859.22-496.07C874.83,18.22-5.91,477.21,5.81,497.52,19.1,520.55,858-25.89,871.57-2.33,885.53,21.86-3.36,474.6,11.22,499.86,24.62,523.06,861.61-22.89,875.37.94,887.1,21.26-6.69,484.86,6.9,508.4S868.9-15.55,880.28,4.15C891.29,23.22-.91,492.92,10.08,512,22.59,533.63,875.63-13.41,886.74,5.83,897.29,24.09.69,497.23,12.13,517.05,26.81,542.49,878.2-18.17,893.43,8.22,908.77,34.8-16.2,506.89-2.15,531.23c15.86,27.48,924.75-566.79,939-542.12C952.16,15.63-28,516.56-12.86,542.74.68,566.2,928.42-27.15,939.87-7.32,956,20.61-25,523.88-11.28,547.72,4.52,575.07,928.92-29.11,943.64-3.61,959,23-21.81,533.76-10.57,553.24,1,573.31,939.14-29.58,954.08-3.7c14,24.33-972.41,540-960.54,560.59C9.61,584.72,944.88-18.39,956.15,1.13S-12.81,535.5.63,558.78C17.13,587.35,944.86-17.59,958.38,5.83,970.79,27.34-9.75,534.22,6,561.44,19.14,584.27,953.14-11.15,964.29,8.16,976.75,29.74-9.93,543.86,4.19,568.32,20.22,596.09,954.74-19,971.43,9.88,985.76,34.71-5.34,547.85,8.57,572,21.66,594.62,970.67-14.9,984.26,8.64,999.51,35.06-.6,552.89,12.35,575.33,28.63,603.52,1009-37.26,1025.08-9.37,1037.51,12.18-1.5,558,12.12,581.61c16.76,29,1002.44-611.54,1016.63-587C1045.17,23.08-9.15,569.91,3.71,592.17,18.29,617.42,1018.87-30.38,1034.65-3c13.28,23-1054.4,583.28-1041,606.51C7.83,628,1018.84-28.92,1036.38,1.45,1054.24,32.39-21.07,587.78-7.94,610.53,7.93,638,1023.93-23.78,1040.63,5.14,1054.07,28.41-28.12,591.52-12.14,619.2,3.42,646.15,1029.33-17.5,1044.66,9.06,1060.8,37-23,590.09-5.25,620.9,7.12,642.34,1042-18.63,1057.1,7.55,1071.41,32.34-20.8,594.68-3.06,625.41c13.24,22.92,1049.52-646.26,1067-616C1080.36,37.87-15.12,609-2.28,631.21c15,25.9,1092-672.21,1110-640.89C1121.67,14.41-11.88,599.81,6.52,631.68c13.83,24,1090-659.44,1103.08-636.86C1125.22,21.89-11.89,608.75,5.29,638.51,20.08,664.14,1102.93-29,1117.56-3.66,1133.55,24-3.29,613.93,12,640.46,29.72,671.11,1103.37-28.28,1120.1.71,1137.14,30.21-6.77,616.6,11,647.29,29.48,679.39,1107.89-23.38,1124.06,4.63,1140.55,33.18-12.54,631.85,2.47,657.85c16.68,28.88,1106.86-683.14,1126-650.07,13.83,24-1146,636.31-1132.54,659.55C9.5,690.92,1118.3-15.93,1133.55,10.49c19.81,34.3-1159.87,645-1146.47,668.23C2.87,706.07,1128.39-21.87,1146.43,9.37,1164.1,40-32,651.13-12.84,684.23,4.85,714.87,1170.89-36.82,1187.18-8.6,1206.33,24.56-26.3,664.79-12.23,689.16,8.06,724.32,1175.74-42.26,1195.46-8.1,1214.57,25-26.87,656.35-6.46,691.69,7.71,716.24,1188.55-32.12,1203.22-6.72c19.63,34-1219.89,670-1202.57,700C17.17,721.88,1188.68-31,1205.27-2.22,1220.91,24.86-17.37,667,.87,698.64,16.68,726,1188.69-28,1206.36,2.65,1222.5,30.59-9,676.73,5.66,702.19,23.76,733.54,1196-29.41,1215.21,3.86c19.45,33.7-1227,674.32-1209.95,703.81C21,734.92,1192.39-25,1212.89,10.45,1232.89,45.1-9.82,679.3,8.82,711.58,26.55,742.28,1202.21-23.56,1222.19,11,1242.64,46.47-8.42,686.22,9.28,716.88,29.89,752.58,1215.82-20.42,1233.45,10.1,1250.6,39.82-15.24,700.17.38,727.22,18.37,758.37,1246-42.19,1267.72-4.48c16.17,28-1299.21,707.36-1278,744C5,766,1250.86-36.83,1271.76-.65,1291.29,33.19-26,717.83-10.16,745.29,6.93,774.9,1249.43-22.26,1266.89,8,1288.1,44.72-25.65,720.77-8.42,750.6,8.68,780.22,1252.89-22.83,1272.46,11.08c20,34.68-1295.2,712.05-1277.28,743.09C10.92,781.43,1267.12-15.13,1282.25,11.08c21.09,36.51-1308,714.8-1288,749.36,21,36.42,1276.57-773.32,1292.29-746.1C1308.22,52-11,733.2,4.8,760.57,20.11,787.08,1272.73-9.38,1289.14,19.05,1304.28,45.27-10.2,738.18,5.81,765.91,23.48,796.52,1257.36-6.8,1279.07,30.79,1295.89,59.93-6.59,736.7,11.44,767.93,29.59,799.36,1249.9,9.65,1268.63,42.09,1286,72.18-8.6,748.53,7.12,775.77,25.73,808,1254.73,11.42,1273.8,44.45,1289.31,71.32-4,749.92,12.28,778.19c20.32,35.18,1235.33-761,1256-725.18C1283.71,79.67-10.14,762,5.14,788.52c19.24,33.31,1249.61-771.8,1271.41-734C1297.63,91-18.42,773-3.2,799.33c18.42,31.9,1266.69-768.94,1283-740.73C1301.22,95.73-24.7,775.45-6.26,807.39,14.33,843.06,1264.05,29.28,1283.4,62.8,1298.76,89.4-28.45,786.09-11.21,815.94,6.82,847.18,1269.24,37.4,1286.25,66.86,1305.75,100.64-32.34,785.3-11.07,822.14,6.65,852.83,1273.8,40.17,1291.19,70.28,1308.34,100-23,783.37-.9,821.63,14.5,848.29,1274.41,49.77,1289.8,76.44,1308.27,108.43-13.78,797,2.47,825.13c17.69,30.64,1269.61-771,1286.07-742.52C1305.39,111.79-19.14,795.37,1.72,831.5,18,859.65,1266.22,51.54,1287.83,89,1304,116.88-17.33,796.86,4.91,835.37,23,866.64,1255,75.6,1271.49,104.11,1287.11,131.16-14.31,804.78,6.26,840.4,23.61,870.45,1258.85,81.34,1274.39,108.25,1291.73,138.28-10.38,813.41,8.2,845.59c15.43,26.73,1245.86-766.28,1266.2-731C1295.09,150.38-10,823.31,6.9,852.63,22.31,879.31,1252.75,83.76,1274.22,120.94,1295.84,158.38-16.26,830.32,1.53,861.14,20.72,894.38,1258.12,99,1274,126.48c18,31.2-1299.47,712-1280.22,745.38C12.31,904,1268.11,100.39,1283.58,127.19,1301.79,158.72-26.95,839.94-5.62,876.89,13.28,909.61,1266,92.28,1287.83,130.11,1304.41,158.84-21.67,853.9-5.07,882.64,10.57,909.73,1271.23,102.49,1290,135,1305.76,162.29-24.43,860.71-7.46,890.1,11.51,923,1272,102.63,1293.1,139.23,1314.53,176.34-17.39,859.31.92,891c15.84,27.44,1272.28-780.76,1292.29-746.1C1313.74,180.48-17,866.31.54,896.7,19.19,929,1271.18,126.62,1287,154,1306.48,187.76-11.25,868.25,6.47,899,26,932.74,1253.72,133,1273.57,167.39s-1284,710.1-1268,737.72c21.73,37.63,1252.69-757.89,1267.69-731.9C1293.07,207.6-4.22,878.52,12.24,907,27.41,933.31,1253.7,146.8,1272.52,179.42,1288.54,207.16-8.66,885.13,8.67,915.15,30,952.09,1256.48,151.75,1275.09,184,1290.91,211.38-10,883.13,10.82,919.26c15,26,1240.57-762.79,1260.72-727.88S-20.06,904.62-3.26,933.71s1264-776.05,1284-741.33C1297.66,221.68-26,917.37-11,943.46,10.3,980.31,1267.24,162.53,1285.84,194.75,1305.39,228.62-32,911.81-10.52,949,5.1,976,1264.6,171.92,1282.3,202.58,1298.49,230.62-21,922.33-4.44,951c17.32,30,1276.31-775.49,1293-746.53,17.48,30.29-1310.43,723-1293.31,752.61C12.59,987,1271.74,175.63,1291,209,1308.74,239.7-18.52,931.37-1.6,960.68,19.14,996.59,1272,183.57,1290.06,214.94,1309.9,249.31-20.09,929.54.45,965.11c18.61,32.23,1269.54-769,1285.14-742C1303.81,254.69-12.38,943.2,2.72,969.35,20.18,999.6,1251.25,201.12,1271.77,236.66,1290.58,269.25-9.26,938.5,9.35,970.73c17.25,29.88,1247.28-759.91,1264.52-730.07,20.84,36.11-1279.18,702-1260.61,734.13,19,32.93,1239.67-754.08,1256.28-725.31C1288.78,282.8-4.32,956.78,10.41,982.29c21.15,36.63,1239.24-763.36,1260-727.45C1287.2,284-15.35,959.51,3.51,992.17c20.31,35.18,1257-765.56,1274.26-735.69S-26.61,977.24-10,1006c20.13,34.86,1267.88-783.36,1290.12-744.85,17.71,30.67-1310.91,722.68-1293.6,752.67C6.26,1048,1265.41,236.45,1282.32,265.74c20,34.6-1299.38,714.76-1281.69,745.4,20.64,35.75,1269.62-774.61,1287.64-743.41C1304.38,295.64-8.63,981.13,9.32,1012.2c20.18,35,1258.65-776.46,1280.21-739.13C1308.8,306.46-18.25,990.48.52,1023c0,0,2-1.18,2-1.17"/><path class="cls-2" d="M-6.11,1.55l.06,0c.09.15,5.36,3,5.43,3.14l2-1.14c.07.13-.83,6.62-.75,6.77l5-2.9c.09.16,6.17,2.38,6.24,2.51s1.34-.82,1.36-.78"/><path class="cls-2" d="M9.13-7.45s1.29-.78,1.31-.75S15.22-5.11,15.3-5s8.78-5.36,8.91-5.14S13.28,1.92,13.5,2.31,25.14-4.94,25.37-4.54,15.7,6.48,15.9,6.83,33.1-3.68,33.34-3.25"/><path class="cls-2" d="M-3.58-1.09l.28-.16c.06.11.63,5.25.7,5.38L3.68.5c.08.15.45,5.72.54,5.87l0,0c.06.11.37,5.33.42,5.42L10.3,8.52"/><path class="cls-2" d="M-6.68-.24l.57-.33C-6-.41,0,1.21.13,1.37l.08-.05c.08.14,4,3.65,4.07,3.75l0,0c.08.13.55,5,.61,5.09L9,7.77"/><path class="cls-2" d="M-.94-4.23l.87-.5c.08.15-3.2,6.88-3.09,7.08l1.93-1.12c.09.15,5.8,2.49,5.87,2.63l0,0c.07.11.8,4.58.87,4.7L8.12,7.06"/><path class="cls-2" d="M-3.7-3l1.16-.67c.08.14,5.27,3,5.33,3.13l.08,0c.06.11,1.32,5,1.39,5.12l.09,0c.07.12,3.26,4.11,3.32,4.22l1.05-.61"/><path class="cls-2" d="M11.44,8.19l1.42-.82"/><path class="cls-2" d="M-2.11-4.11l1.76-1C-.29-5,.76-.19.82-.09L4.88-2.43c.06.1,2.7,4.09,2.75,4.18L9.21.84c.06.1-.33,5.73-.27,5.83h0"/></svg>
