<svg id="Layer_1" data-name="Layer 1" xmlns="http://www.w3.org/2000/svg" viewBox="0 0 1280 1024"><defs><style>.cls-1{fill:none;stroke:#662d91;stroke-linecap:round;stroke-linejoin:round;stroke-width:3px;}</style></defs><title>breakup</title><path class="cls-1" d="M1269.54,812.53l2.64-1.52c.06.1,1,4.86,1,5l0,0c0,.1,1.43,4.69,1.49,4.8l.08,0"/><path class="cls-1" d="M1270.84,811.68h0c.07.11.93,4.63,1,4.73l.06,0c0,.09,3.93,3.15,4,3.27l.68-.4"/><path class="cls-1" d="M1269.81,811.58l3.23-1.87c.1.16-.42,6.27-.34,6.41l.57-.33c.07.12,3,3.57,3.12,3.69l1.42-.82"/><path class="cls-1" d="M1269.86,811.25h0c.06.11.48,5.51.56,5.64l.06,0c.1.18-2.49,6.68-2.41,6.81l2.17-1.25"/><path class="cls-1" d="M1274.91,807.28l3.83-2.21c.07.11,1.17,4.87,1.24,5l4.92-2.84"/><path class="cls-1" d="M1276.36,806.27h0c.09.14,4.65,2.61,4.73,2.75l2.73-1.58c.06.11,2.79,3.51,2.85,3.61l3.66-2.11"/><path class="cls-1" d="M1275.13,806.56l4.44-2.56c.09.16,7.59.66,7.67.8l.59-.34"/><path class="cls-1" d="M1277.64,803.91h0c.09.16,6.13,2.43,6.2,2.56l7.1-4.1"/><path class="cls-1" d="M1275.16,221.82l5-2.91"/><path class="cls-1" d="M1279.28,218.83l.07,0"/><path class="cls-1" d="M1276.62,219.39l5.76-3.33"/><path class="cls-1" d="M1277.3,202.33l.1-.06c.1.17-4,8.34-3.89,8.56l0,0"/><path class="cls-1" d="M1271.77,203.47l6.3-3.64c.17.3-9.11,10.86-8.91,11.21l4.81-2.78"/><path class="cls-1" d="M1273.29,200.72l.07,0c.1.17-2.09,6.78-2,7l2.65-1.52"/><path class="cls-1" d="M1267.32,202.5l6.88-4c.06.11-1,6-.92,6.11l.47-.28c.13.22-4.57,8-4.45,8.25l1.6-.92"/><path class="cls-1" d="M11.12,811.39h0c.1.17-3.36,7.07-3.28,7.22l7-4c.18.3-8.68,10.18-8.49,10.5l2.41-1.39"/><path class="cls-1" d="M6,814.25,13.46,810c.14.25-5,8.87-4.92,9.08l.1-.06"/><path class="cls-1" d="M9.2,811.62h0c.09.15-2.57,7.26-2.47,7.42l.1-.06"/><path class="cls-1" d="M4.27,813.2l8-4.63c.17.3-9,10.5-8.79,10.82l.48-.28"/><path class="cls-1" d="M-8.42,218.89l.1-.06c.16.28,11.3-.89,11.42-.68l.37-.21"/><path class="cls-1" d="M-8.8,217.05l.92-.53c.06.1,4.2,3.11,4.26,3.22l6.86-4"/><path class="cls-1" d="M-7.86,213l1.49-.86c.09.15,5.41,3,5.49,3.16l.07,0c.09.16,7,1.35,7.1,1.53l1.09-.63"/><path class="cls-1" d="M9.78,200.19l.06,0c.07.13-1,6.46-.92,6.62l.34-.2c.06.12.37,5.51.43,5.61l1.84-1.06"/><path class="cls-1" d="M6.55,201.11l2.08-1.2c.08.12,0,5.66.08,5.8l.07,0c.09.17-3.29,7.44-3.19,7.62l2.59-1.5"/><path class="cls-1" d="M5.47,201.05l0,0c.1.18-2.23,6.65-2.13,6.83L8,205.17c.06.1.48,5.25.55,5.38l0,0"/><path class="cls-1" d="M2.12,202.58,4.79,201c.06.1.11,5.16.16,5.26l2.48-1.43c.07.12-1.67,6.36-1.57,6.52L9.94,209"/><path class="cls-1" d="M1270.32,805.39l0,0c.08.14,5.53,2.9,5.6,3l.23-.14c.06.1-.81,5.86-.75,6l0,0c0,.09,0,5.16,0,5.27l2.65-1.53"/><path class="cls-1" d="M1269,806.13l3.27-1.89c.1.17-1.21,6.54-1.13,6.67l6.72-3.88c.1.16-1.51,6.16-1.44,6.29l0,0c.08.13,1.69,5.06,1.77,5.19l1.12-.64"/><path class="cls-1" d="M1270.82,805.07l0,0c.06.1,3.33,3.71,3.39,3.82h0c.07.12,3.1,3.45,3.16,3.55l0,0c.06.12,3.42,3.88,3.48,4l.08-.05"/><path class="cls-1" d="M1269.28,805.9l3.87-2.23c.07.11,1.6,4.46,1.66,4.57h0c.07.11,3.48,3.13,3.55,3.25l.05,0c.06.11,3.76,3.44,3.82,3.56l.09,0"/><path class="cls-1" d="M1271.28,804.67l0,0c.07.12,2.56,3.66,2.62,3.77l.2-.12c.07.13,5.07,2.09,5.15,2.23l.06,0c.05.1,4.08,3,4.16,3.13l.09,0"/><path class="cls-1" d="M1267.26,806.91s5.16-3,5.17-3"/><path class="cls-1" d="M1271.5,804.44l0,0c.07.12,1.49,4.91,1.57,5l4.5-2.6c.07.12,4.29,3.57,4.36,3.69l.07,0c.08.13,4.93,2.84,5,3l.06,0"/><path class="cls-1" d="M1270.35,804.31c.19.32,17.61-10.64,17.82-10.28.11.19-6.12,9-6,9.16s9.26-5.58,9.36-5.41"/><path class="cls-1" d="M1222,804.75c1.06,1.84,66.3-41.08,67.51-39,.79,1.37-56.6,36.38-55.84,37.7.64,1.11,40.06-24.72,40.75-23.53.52.91-39.37,27.19-38.68,28.37s36-22.07,36.52-21.08c.44.77-34.28,24.3-33.73,25.24s40.68-24.74,41.22-23.8-29.63,21.79-29.19,22.54c.55,1,31.91-19.67,32.45-18.73s-29,21.25-28.58,21.95,15.14-9.57,15.5-8.95-16.25,14.65-16,15.1,12.85-7.88,13-7.53-9.22,10.28-9,10.58,9.76-6,9.93-5.74-6.3,8.9-6.18,9.11,5.12-3.08,5.18-3"/><path class="cls-1" d="M1133.7,807.32c2.39,4.13,154.41-93.42,156.26-90.22,2.3,4-148,85.92-145.93,89.46,1.7,2.94,148.29-90.15,150.26-86.75,1.69,2.93-138.66,82.15-137,85.05s128.88-79.07,130.9-75.57c2.25,3.9-135.42,78.31-133.08,82.37,1.56,2.7,117.32-71,118.76-68.56,1.78,3.09-116.48,69.44-114.81,72.32s110.52-68,112.36-64.87c1.58,2.73-102.19,61.85-100.82,64.23,1.55,2.68,101.53-62.41,103.17-59.57,1.34,2.32-105.18,62.77-103.6,65.51s111.58-68.54,113.36-65.45c1.69,2.93-110.66,65.87-108.82,69.06,1.39,2.4,111-68.14,112.76-65.1s-109.21,65-107.77,67.52c1.67,2.89,110.88-67.16,112.24-64.8"/><path class="cls-1" d="M1054.11,804.89c3.76,6.51,220.09-133.94,223.07-128.79,2.52,4.38-215.55,123.34-212.42,128.76,3,5.13,212.17-130.73,215.74-124.56,3.66,6.34-212,121.78-209.17,126.64s210.13-127.86,213-123c3.27,5.65-214.64,122.39-211.67,127.53,2.52,4.37,217.16-132.92,220.43-127.27s-220,124.83-216.76,130.39C1079.4,820,1287.56,687,1290,691.24c3,5.28-206.74,118.35-204,123.18,2.61,4.52,186.11-113.43,188.7-108.95,2.76,4.77-192.23,109.46-189.18,114.74,2.46,4.25,189-114.44,191.27-110.43,3.11,5.37-190.16,110.11-187.71,114.35,2.87,5,186.57-114.18,189.37-109.34s-185,107.3-182.55,111.6c3,5.15,181.82-111.3,184.56-106.56"/><path class="cls-1" d="M965.86,807.46c3.55,6.13,304.92-185.9,309.19-178.51,4,7-295.64,166.18-291.15,174s285-173.38,288.83-166.76c4.85,8.4-292.67,165-288.44,172.33,4.13,7.16,293-180.71,298-172,4.08,7.08-296.94,166.67-292.17,174.93,4.51,7.82,293.8-177.6,297.26-171.62,4.22,7.32-297.57,167.07-293.09,174.81,4.24,7.36,292-177.3,295.73-170.74,4.15,7.19-290.92,164.76-286.94,171.65S1289.51,641.58,1293.19,648c4.72,8.17-295.4,164.43-290.44,173,3.11,5.39,261.36-159.89,265.26-153.14,3.09,5.35-266,150.14-262.07,157,3.3,5.73,262.81-160.32,266.53-153.88s-262,149-258.45,155.17c4.3,7.45,257.53-158.81,261.91-151.22"/><path class="cls-1" d="M886.28,805c5.07,8.79,397.72-243.7,403.81-233.15,6.27,10.85-402.11,223-395.71,234.09s369.73-226.87,375.54-216.81S900.1,795,905.9,805c5.54,9.59,360.71-221.31,366.36-211.52,4.59,8-370.19,208.93-365.51,217.05,4.88,8.44,365.52-223.07,370.73-214,5.11,8.85-371.74,207.27-366,217.24,5.16,9,362.36-221.08,367.5-212.18,5,8.74-365.56,204.74-360.49,213.53s365.37-220.92,369.68-213.44c4.49,7.78-373.69,211.6-369.16,219.44,5.9,10.23,364.63-224.9,370.85-214.11,4.76,8.24-374.68,207.11-368.34,218.1,5.66,9.8,364.18-221.48,369-213.07,4.6,8-365.37,204.94-360.3,213.73,5.79,10,339.17-206.11,343.63-198.39"/><path class="cls-1" d="M798,807.6c6.47,11.21,485.26-298.06,493-284.64,5.73,9.93-485.64,267.1-477.56,281.1,6.09,10.55,470.87-285.36,476.71-275.23,7.33,12.68-479.44,263.72-471.34,277.76,7.48,13,462.58-281.81,469-270.76,7.87,13.63-471.44,261.76-464.42,273.93C831,822.84,1263.86,538.4,1271.24,551.2c6,10.37-449.68,249.36-442.51,261.78,6,10.38,440.51-269.65,447.14-258.15,6,10.33-447.43,249.7-441.12,260.64,6,10.44,436.73-269,444-256.37,6.16,10.67-449.36,252-443.47,262.15,6.48,11.23,444.83-270.53,450.77-260.25,6.29,10.91-453.75,254.28-447.68,264.79,5.67,9.83,446.14-270.47,451.72-260.8,7.61,13.18-448.14,249.54-441.79,260.53,5.21,9,433.48-265.8,440.2-254.15"/><path class="cls-1" d="M718.46,805.17c7.93,13.73,550.4-339.63,559.86-323.24C1286.07,495.34,719,796,725.52,807.38c8,13.86,551.71-337.42,559.89-323.26S725.9,796.55,732.9,808.67C742.17,824.73,1286.48,474,1293,485.3c8.56,14.84-558.52,313.18-552.1,324.31,8.13,14.07,542.29-329.76,549.51-317.26,7.12,12.33-553.52,304.13-544.45,319.84,6.83,11.83,516.55-317.61,525-303.07,6.8,11.78-528.28,292.89-520.71,306,7,12.16,512.37-314.34,520.39-300.45,8.12,14.07-527.36,293.24-519.92,306.11,6.8,11.79,511.73-314.17,519.84-300.13,7.87,13.64-525.86,290.92-517.75,305s522.67-315.88,528.79-305.29c8.24,14.28-526.36,291.56-518.76,304.72,6.42,11.13,517-312.42,523.06-302"/><path class="cls-1" d="M630.21,807.74c9.53,16.51,638.08-386.08,645.73-372.82,10.1,17.49-639.26,356.7-631.28,370.52C654.8,823,1266.72,421.18,1277.59,440c8.92,15.45-631.77,350.16-623.08,365.21,7.47,12.93,618-379.76,627.93-362.53,8.82,15.27-633.62,351-624.89,366.11,7.94,13.77,616.87-378.66,626.62-361.78,7.85,13.6-631.63,345.94-621,364.38,7.82,13.55,619.9-382.47,630.54-364,7.91,13.7-636.56,352-627.3,368.1C674.77,829.9,1280,440.6,1288.89,456.08,1299.68,474.76,657.43,804.42,667,820.91c10.44,18.09,595.28-360.35,602.5-347.86,9.68,16.77-599.53,335.51-592.42,347.83,7.7,13.34,587.36-362.18,597.35-344.88C1283,491,672,809.43,680.85,824.8c7.65,13.26,583.59-355.72,591.72-341.64"/><path class="cls-1" d="M550.62,805.3c11.67,20.21,730.54-443.87,740.11-427.3,8.86,15.35-736.67,408.63-726.93,425.5,8.51,14.73,700.4-427.32,710.34-410.12,9.68,16.77-717.43,394.75-706.67,413.39,9,15.58,694.91-424.11,704.83-406.94C1281.16,415.19,563.68,789,575,808.66c11.47,19.86,691.7-419,700.22-404.27S564.19,801.93,572.51,816.33c8.42,14.58,702.6-425.44,711.17-410.6s-711.54,391.87-701,410.08C592,832,1275.07,394.46,1284.41,410.65S571.78,801.21,583.23,821c11.19,19.39,698.09-426.2,708.12-408.83,8.17,14.14-708.59,391.82-698.71,408.93,11.08,19.19,688.55-423.22,699.67-404,9.21,16-705.8,388.92-695.21,407.25,9,15.63,662.62-407.07,673.23-388.69"/><path class="cls-1" d="M462.37,807.87c13.6,23.57,809.7-493.73,821.07-474,11.47,19.88-820.61,452.89-809.16,472.72,11.11,19.26,807.06-497,820.49-473.71C1305.43,351.3,467,785,480.42,808.32c11,19.07,797.11-483.15,807-465.95,13.61,23.58-806,447.82-795.78,465.48,11.09,19.19,765.6-468.17,776.93-448.56C1277.78,375.18,479.38,798.2,489,814.82c13.44,23.27,771.64-469.22,781.91-451.43,9,15.67-784.56,431.66-772.78,452.06,10.24,17.74,766.46-464.49,776-448,11.64,20.17-788.91,429.8-775.46,453.09,11.27,19.52,775-477.21,787.91-454.9,10,17.33-792.06,433.29-779.39,455.25,10.19,17.64,771.56-472.73,783.37-452.28,9.29,16.09-790.9,434.35-778.82,455.27,10.84,18.77,772.2-467.53,781.59-451.25,10.33,17.88-783.08,429-770.83,450.25.24.42,16.8-10.13,17-9.8"/><path class="cls-1" d="M382.78,805.44c10.4,18,883.44-540.61,896.67-517.69,14.34,24.82-899.32,494-886.1,516.9C407,828.33,1268.79,271.94,1280.6,292.39c11,19-889.14,494.23-878.6,512.49,12.93,22.39,875.76-539.16,890.29-514,14,24.27-906.14,497.76-892.63,521.16,10.67,18.48,873-538.53,887.95-512.66C1302.7,325.52,394.91,794.5,406.19,814c14.42,25,856.86-523,869.09-501.77C1290,337.7,400.23,792,413.56,815.09c11.17,19.34,846.66-522.37,861.19-497.21C1289.17,342.85,403.21,801.26,414,820c11.09,19.22,846-514,857.11-494.85,11.87,20.55-859.09,477.44-848.4,496,13.72,23.76,847.4-517.54,859.65-496.31,14,24.27-867.88,475.26-854.37,498.65,12.36,21.41,841.29-513.72,853.42-492.72,12,20.84-851.4,474.37-841.45,491.61.22.38,11.91-7.3,12.1-7"/><path class="cls-1" d="M294.53,808c12.07,20.92,958.38-588.56,973.64-562.13C1280,266.35,299.09,777.05,314.05,803c16.43,28.46,944.49-580.48,959.72-554.1,11.36,19.68-969.35,536.6-956.64,558.62,14.89,25.78,952.45-582.39,966.52-558,13.81,23.91-976.91,543.59-965.65,563.1,15.14,26.22,951.88-579.54,964.86-557.07,16,27.7-970.66,537.15-957.93,559.19,15.61,27,950.27-582.42,964.9-557.09,15.9,27.55-973.56,533.17-958.49,559.26C343.71,838.28,1277,235.73,1292.2,262.09,1304.38,283.2,320,799.44,333,822.05c16.14,28,923.72-566.09,937.91-541.5C1285,304.9,328.26,799.05,342,822.77c12.29,21.29,923.16-562,935.73-540.25,14,24.2-940.95,515.11-926,540.93.33.57,20-12.39,20.4-11.77"/><path class="cls-1" d="M1277.87,209s.78-.45.78-.45c.16.28-6.72,8.72-6.55,9l0,0"/><path class="cls-1" d="M1280.9,204.8l1-.58c.18.32-11.69,11.83-11.51,12.13l4.35-2.51"/><path class="cls-1" d="M1274.91,205.92l1.25-.72c.08.14-1.84,6.13-1.76,6.26l2.21-1.28"/><path class="cls-1" d="M1251.27,206.08c.17.31,12-7.26,12.1-7"/><path class="cls-1" d="M218.66,803.43c17.57,30.42,994.48-610.35,1010.15-583.21,12.85,22.25-1020,561.18-1005.42,586.38,16.19,28,1035.7-630.6,1049.83-606.12,14.6,25.29-1056.81,579.4-1041,606.83,15.54,26.91,1017.87-625.11,1034.08-597,12,20.84-1042.2,573.77-1027.77,598.75C253.52,835,1253,184.79,1269.71,213.69,1284.25,238.88,221.89,786,238.6,814.94c13.61,23.57,1017.66-624.43,1033.63-596.77C1286.52,242.92,227.71,786.3,245.34,816.83c12.67,22,1012-620.9,1027.87-593.44C1291,254.21,233.47,796.8,247.8,821.63c14.77,25.58,1020.31-630,1038-599.3,16.76,29-1049,573-1032.51,601.56,14.1,24.41,1017.93-622.2,1032.86-596.33C1299.52,250.68,246.69,805,259.09,826.5S1258,209.69,1275.32,239.78"/><path class="cls-1" d="M1167.21,206.22c.13.23,12.53-7.64,12.7-7.33"/><path class="cls-1" d="M134.62,803.57C148,826.67,1127.82,189.63,1145.36,220c16.77,29-1015.93,555-999.94,582.73,13.74,23.79,1029.05-625.15,1042.49-601.88,13.29,23-1049.75,583-1037.31,604.54C168.18,835.85,1185.27,178.64,1198,200.68c15.32,26.53-1055,584.13-1041.53,607.39,16.81,29.12,1028.39-630.4,1044.27-602.9,13.82,23.94-1061.83,577.14-1043.9,608.19,12.73,22,1034.65-625.63,1046.89-604.43C1217.31,232.46,148.43,795.4,160.8,816.82c12.65,21.92,1036.59-630.59,1050.5-606.5,15.77,27.31-1064.89,581.87-1048.09,611,17.89,31,1036.23-636.4,1052.74-607.8C1229.32,236.63,153.18,798.18,168.31,824.4c14.46,25.05,1036.05-629.27,1049.52-605.94C1234.67,247.63,162.18,802.9,175.38,825.77c14,24.25,1036.89-636.48,1053.28-608.1"/><path class="cls-1" d="M1083.16,206.36c.15.26,13.17-7.91,13.3-7.68"/><path class="cls-1" d="M50.56,803.71c15,26,997.8-607.35,1011.34-583.9,15,26-1013.29,564-1001.54,584.31C77.61,834,1094.46,177.86,1107.11,199.78c12.14,21-1061,582.88-1045.75,609.25,13.4,23.2,1033.78-631.76,1048.89-605.57C1122.69,225,53.45,790.85,65.73,812.12S1100.79,180.33,1115.6,206C1128.48,228.29,63,790.23,75.83,812.49,93.55,843.2,1108,183.41,1122.37,208.27,1135.05,230.24,64.14,795.17,77,817.52,89.48,839.07,1108,181.24,1125.8,212,1139.13,235.09,66.7,799.27,79.56,821.55c14.82,25.67,1034.11-632,1049.27-605.79C1144.57,243,69.79,801.51,83.31,824.91c14.62,25.34,1033.58-638,1051.43-607C1148.83,242.27,79.67,801.24,93.48,825.16c15.09,26.15,1035.62-631.89,1050.33-606.41"/><path class="cls-1" d="M10.07,806.23C26.08,834,1028.65,184.31,1043.3,209.69,1060.86,240.1-4.26,790.47,8.67,812.86,21.43,835,1030.81,188,1045.87,214,1063.19,244-1.84,786.6,14.51,814.91c14.18,24.55,1025.68-622.54,1038.82-599.77C1070.35,244.61-5.45,797.86,9.25,823.32c16.13,27.94,1027.07-632.78,1044.31-602.93C1065.91,241.79,6.46,799.66,19.74,822.67c.27.46,9.93-6.29,10.17-5.88"/><path class="cls-1" d="M10.37,805.84l.05,0c.11.2-5.13,8.29-5,8.49l2.16-1.25"/><path class="cls-1" d="M9,806.41l3.88-2.24c.14.25-6.68,8.88-6.54,9.11l0,0"/><path class="cls-1" d="M9.31,806l.07,0c.26.46-12.87,12.36-12.65,12.76l6.63-3.83"/><path class="cls-1" d="M998.64,206.77c.14.24,15-8.93,15.09-8.71"/><path class="cls-1" d="M919.05,204.34c.15.26,6.59-4.12,6.73-3.88"/><path class="cls-1" d="M830.8,206.91c.15.27,15.53-9.31,15.68-9"/><path class="cls-1" d="M751.21,204.48c.16.29,7.16-4.5,7.32-4.23"/><path class="cls-1" d="M663,207.05c.17.3,16.11-9.69,16.28-9.4"/><path class="cls-1" d="M583.37,204.62c.18.31,7.74-4.88,7.92-4.57"/><path class="cls-1" d="M495.13,207.19c.13.22,16.75-10,16.88-9.75"/><path class="cls-1" d="M415.55,204.76c.14.24,8.38-5.16,8.51-4.92"/><path class="cls-1" d="M327.3,207.33c.15.25,8.67-5.35,8.82-5.09"/><path class="cls-1" d="M247.71,204.9c.16.26,9-5.54,9.12-5.26"/><path class="cls-1" d="M159.47,207.47c.16.28,9.24-5.73,9.41-5.44"/><path class="cls-1" d="M79.88,205c.17.3,9.53-5.9,9.71-5.6"/><path class="cls-1" d="M-12.47,223.32c0,.05.79-.49.81-.46s.7,4.82.76,4.92,12.55-7.53,12.68-7.32-6.77,8.88-6.64,9.1c.58,1,39.48-23.91,40-23.07s-31.17,23.06-30.61,24S39.6,209.13,40.08,210c.66,1.16-38.12,25.95-37.52,27C3,237.76,44,212,44.41,212.77,45.08,213.93,5,240,5.69,241.18c.58,1,38.7-23.73,39.3-22.69.77,1.34-56.08,36.56-55.36,37.8S52.2,218.44,53,219.74c1.17,2-66.47,41.71-65.48,43.41,1.34,2.32,108.05-66.12,109.66-63.32C98.65,202.46-7.81,262.74-6.49,265s108-66.18,109.62-63.29C105,204.93-6.81,268-5.3,270.58s114.14-69.12,115.54-66.7C112,207-1.87,270.49-.36,273.11c1.37,2.37,115.08-70.8,117-67.53C118.09,208.14,2.94,273,4.49,275.71c1.39,2.41,108.26-65.48,109.54-63.25,1.65,2.85-107,63.36-105.15,66.5,1.65,2.86,112.92-68.7,114.43-66.07,1.91,3.3-131.29,76.18-129.2,79.8,1.65,2.86,130-80.12,132.23-76.34,2,3.48-138,80.45-135.88,84.2,2.43,4.22,141.62-86.7,143.75-83,2.26,3.92-143.86,83.23-141.52,87.27s149.45-91.5,151.71-87.59c1.79,3.1-147,86.59-145.22,89.7,3,5.2,185.86-114.54,189-109.11,2.49,4.3-192,109.22-189,114.38,2.72,4.72,188.16-113.67,190.34-109.89C192.18,207,2.4,310.42,4.79,314.55,7.86,319.89,189,202.91,191.3,206.87S4.14,313.84,7.16,319.06c2.65,4.59,192-117.8,195-112.59C204.6,210.72-8.29,327.58-5.63,332.19c2.55,4.42,206-126.49,209.26-120.82,2.71,4.68-214.54,121.63-211,127.8,3.75,6.51,210.46-129.22,213.8-123.43C209.18,220.46-6.88,338.11-4.28,342.61c3.49,6,215.36-131.35,218.4-126.09C216.71,221-8.58,343.09-5.07,349.17-2.32,353.93,218.57,214,221.18,218.54,224,223.36,5.31,341.52,8.32,346.73c4.45,7.72,254.15-155.52,258-148.93C270.56,205.21,3.22,346.06,7.21,353c3.13,5.43,259.54-158,263.05-151.87,3.39,5.87-265.5,148.23-261,156.09S271.76,196.28,275.82,203.31c4.39,7.61-291,164-286.77,171.34C-6.57,382.23,275.38,200.12,279.37,207c4.24,7.35-289,163.22-284.7,170.71,3.91,6.77,289.19-177,293.55-169.48C293.15,216.79-8.23,375.94-4.26,382.8c3.68,6.37,292.51-177,296-170.92,3.43,6-291.86,166.76-288.45,172.66C7.44,391.67,293.38,207.8,297.4,214.76,301,221.05-2.86,383.17,1.59,390.88s296-181.8,300.68-173.6C306.35,224.34,2.62,385.16,7.17,393c3.89,6.74,300.79-182,304.39-175.74C316,224.89,3,391,7.48,398.74c5.86,10.15,336.85-204.72,341.29-197S-13.44,404.79-8.16,413.93C-2.07,424.49,350.51,194.22,356,203.7,361,212.47-16.17,411.5-10.81,420.79c4.34,7.5,369.58-225.7,374.91-216.46S-4.68,412,0,420.16c5.62,9.72,364-223.28,369.69-213.43C375.17,216.18-3.59,417.05,1.29,425.5c4.29,7.44,363.19-223.43,369.14-213.13C374.87,220.06-2.74,422,2.42,431c5.55,9.61,368.72-225.17,374-216S6.28,420.31,12.22,430.6c4.9,8.48,360.27-220.34,365.61-211.08C383.37,229.1,1.92,430.18,7.06,439.09c6.13,10.61,378.13-228.76,382.65-220.93,4.7,8.13-402.65,225.67-397.2,235.12C0,466.16,425.06,190.18,430.85,200.2c5.42,9.39-447.73,250.75-442,260.62C-5.32,471,429.56,191.68,435.92,202.69c5.74,9.95-448.79,247.5-441.19,260.67C2,475.87,438.42,192.28,444.88,203.47c5.71,9.88-452,253.18-446,263.61,7.49,13,443-272,450-259.8C455.46,218.68.17,460.41,5.35,469.37,13,482.64,443.59,201.19,450.15,212.56c7,12.19-448.55,252.72-443.38,261.67,5.64,9.77,441.89-270.52,448.56-259,7.51,13-472.93,264.35-466.51,275.46s469.39-287.65,476.6-275.17c6.34,11-484.63,271.62-478.76,281.79,6.34,11,474-290.63,481.33-277.9,5.89,10.22-486,267.79-477.92,281.87,6.7,11.6,484.48-297.16,492-284.08C488.41,228.15-4.57,489.6,1.53,500.16c7,12.15,508.71-310.49,516-297.9,8.08,14-520.12,289-512.79,301.69C12.16,516.82,517,187.35,526,203,532.19,213.67.67,493,8.73,506.93c6.53,11.32,518.59-316.38,525.94-303.65C543,217.64,6.72,498.61,13.09,509.66,22,525.13,531.53,193.43,538.85,206.11c8.24,14.29-558.45,308-549.92,322.79,6.91,12,539.26-331,547.76-316.25C543.56,224.56-16.82,520.08-8.93,533.74-2.47,544.93,535,204.67,541.5,216,551,232.42-19,523.93-9.83,539.78c7.28,12.6,550.73-334.77,558-322.16S-11.59,529.73-4.47,542.05c7.8,13.52,549.05-336.65,557.56-321.91C562.4,236.26-7.72,529.9,1,545.06c8.56,14.81,586-362.14,596.31-344.28C605.8,215.44,1.5,531.92,9.5,545.78,17.7,560,597,187.42,605.3,201.79c9.8,17-604.63,333-595.38,349,9,15.58,592.22-363.91,601.75-347.41,9.66,16.73-629.54,351.47-621.9,364.7,9.09,15.76,613.73-374.41,622.42-359.36C623,227.33-17.19,556-7.81,572.19c7.51,13,619.59-379.32,628.94-363.13,8,13.86-637.36,350.52-627.27,368,8.19,14.18,620.19-381,630.11-363.79,9.44,16.35-637.49,350.67-627.3,368.31C7.09,599.61,625.91,201.34,633.25,214,642.37,229.85-.5,566.51,7.75,580.79,16.48,595.91,623.92,204,633,219.78,640.48,232.67-2.68,572.65,6.16,588c7.44,12.89,634.39-384.33,642.21-370.78C657.28,232.61,2.53,574,11.85,590.17c11.58,20.06,671.55-407,679.89-392.53C702,215.37-23.49,595.05-14,611.4-2,632.34,681.14,187.28,691,204.35S-21.66,597.3-11.19,615.42C-2.59,630.33,688,187.47,698.5,205.68,709.26,224.31-12.35,599.24-2.38,616.52c9.43,16.33,695.92-429,707.71-408.6C714.13,223.16-10.23,601.7.66,620.55,11.71,639.7,701.13,195,710.28,210.85,722.55,232.1-7.2,606.18,3.69,625c11.91,20.64,699.7-423.4,708.11-408.83C720.35,231-1.55,611.21,8.22,628.12c10.13,17.55,696.95-426.56,707.41-408.43C727.65,240.5-18.3,628.47-9.19,644.25c12.13,21,725.85-445.5,737.29-425.68C740.67,240.34-22.08,631.83-10.75,651.46,2.32,674.09,754.3,178.71,767.74,202c9.11,15.77-782.6,436.5-773.38,452.47C5.79,674.26,769.51,182.88,779.92,200.92c11.33,19.61-792.79,438.87-782,457.48C11.3,681.67,772.15,186,783.13,205,796.56,228.29-2.43,641,7.76,658.65c11.26,19.5,768.87-468.42,779.48-450C797.16,225.79-1.45,645.14,9.09,663.4c9.15,15.85,772.6-470,783-452C801.85,228.28.48,652.44,9.81,668.6,21.16,688.26,781.2,193.16,794.23,215.72,807.88,239.37-21,663-8.33,684.87c10,17.39,801.52-486.08,811.62-468.59C813,233-19,674.08-9.3,690.94c12.92,22.38,802.88-487,813.05-469.41C816.6,243.79-16.81,672.85-4.38,694.37c10.72,18.56,844.24-521.55,859-496C865.13,216.59-8.57,672.72,4.56,695.47,14.71,713,845,182.49,857,203.3,869.46,224.85-2.36,676.14,10.22,697.94,20.52,715.77,849,182.45,862.51,205.87,874.74,227.07.12,682.92,11.76,703.08,25,726,858.05,183.27,871.57,206.67,885.51,230.83-2.3,683,12.26,708.25c13.38,23.18,849.37-522.11,863.11-498.31C887.36,230.7-26,704.31-12.1,728.37S868.66,193,880.28,213.15C891.51,232.59-18.27,711.44-7.06,730.86,5.7,753,875.42,195.21,886.74,214.83,897.41,233.31-9.82,712,1.75,732,16.61,757.78,878,190.52,893.43,217.22,908.64,243.57-8.32,711.63,5.61,735.76,21.34,763,922.72,173.64,936.84,198.11c15,26-947.49,518.06-932.64,543.78,13.3,23,924.43-559.69,935.67-540.21C955.66,229-4.94,721.93,8.54,745.28,24,772.07,929.23,180.42,943.64,205.39,959,232.05-22.52,743.16-11.27,762.64.32,782.73,939.13,179.4,954.08,205.3,968.18,229.71-21.61,747.14-9.7,767.76,6.42,795.68,944.84,190.54,956.15,210.13S-16,746.24-2.51,769.6C14,798.26,944.81,191.34,958.38,214.83,970.82,236.38-11.8,744.33,4,771.61c13.2,22.87,949.17-573.8,960.34-554.45,12.47,21.59-974.74,536-960.61,560.46,16,27.77,951.05-587.66,967.75-558.74C985.75,243.69-4.76,756.53,9.15,780.62c13.08,22.66,961.53-586.5,975.11-563C999.52,244.07-.93,762.07,12,784.52,28.31,812.71,1009,171.73,1025.08,199.63c12.66,22-1045.63,577.81-1031.76,601.83C10.39,831,1014.3,178.62,1028.75,203.65,1045.22,232.17-12.39,780.69.5,803,15.13,828.35,1018.82,178.53,1034.65,206c13.06,22.62-1037,573.76-1023.83,596.61,13.93,24.14,1008.31-622,1025.56-592.11C1054.13,241.2-14.73,792.66-1.68,815.26c0,0,.38-.24.39-.22"/><path class="cls-1" d="M-6.11,210.55l.06,0c.09.15,5.36,3,5.43,3.14l2-1.14c.07.13-.83,6.62-.75,6.77l5-2.9c.09.16,6.17,2.38,6.24,2.51s1.34-.82,1.36-.78"/><path class="cls-1" d="M9.13,201.55s1.29-.78,1.31-.75,4.78,3.09,4.86,3.22,8.78-5.36,8.91-5.14-10.93,12-10.71,12.43,11.64-7.25,11.87-6.85-9.67,11-9.47,11.37,17.2-10.51,17.44-10.08"/><path class="cls-1" d="M-3.58,207.91l.28-.16c.06.11.63,5.25.7,5.38l6.28-3.63c.08.15.45,5.72.54,5.87l0,0c.06.11.37,5.33.42,5.42l5.64-3.25"/><path class="cls-1" d="M-6.68,208.76l.57-.33c.09.16,6.15,1.78,6.24,1.94l.08-.05c.08.14,4,3.65,4.07,3.75l0,0c.08.13.55,5,.61,5.09L9,216.77"/><path class="cls-1" d="M-.94,204.77l.87-.5c.08.15-3.2,6.88-3.09,7.07l1.93-1.11c.09.15,5.79,2.49,5.87,2.63l0,0c.06.12.8,4.59.87,4.71l2.57-1.49"/><path class="cls-1" d="M-3.7,206l1.16-.67c.08.14,5.27,3,5.33,3.13l.07,0c.07.12,1.33,5,1.4,5.13l.09-.05c.07.12,3.26,4.11,3.32,4.22l1.05-.61"/><path class="cls-1" d="M11.44,217.19l1.42-.82"/><path class="cls-1" d="M-2.11,204.89l1.76-1c.06.09,1.11,4.93,1.17,5l4.06-2.34c.06.1,2.7,4.09,2.75,4.18l1.58-.91c.06.1-.33,5.73-.27,5.83h0"/></svg>