<svg id="Layer_1" data-name="Layer 1" xmlns="http://www.w3.org/2000/svg" viewBox="0 0 1280 1024"><defs><style>.cls-1{fill:none;stroke:#ccc;stroke-miterlimit:10;stroke-width:88px;}.cls-2{fill:#ff7c5c;}.cls-3{fill:#662d91;}</style></defs><title>chart 1</title><circle class="cls-1" cx="654" cy="464" r="338"/><path class="cls-2" d="M216,107.5s0-5,0-5,0,5,0,5Z"/><path class="cls-2" d="M614.12,88.4,634,177V177c.85-28.69-2.62-57-11.82-84.25.49,1.46-.3,3.47,0,5a423.33,423.33,0,0,0,13.73,52.56c-.5-1.5.44-3.47,0-5a94.77,94.77,0,0,1-3.76-21.59,72.63,72.63,0,0,1,.76-13.42c.22-1.51.47-3,.76-4.53.47-2.45,0-3.24,1.13-.82,3,6.3,4.3,14,6.34,20.72l6.63,21.65L651,157.62c.39,1.27.59,3.84,1.45,4.71.24,1.5.56,1.26.94-.71.32-.83.62-1.66.9-2.5a91.4,91.4,0,0,0,4.14-19c1.26-10.6,1.19-21.31,1.18-32,0-2.79-.05-2.89-.05,0a203.22,203.22,0,0,0,7.23,55.66c.34,1.21.69,2.42,1.06,3.62.18.61.36,1.21.55,1.81q.14,1.68.78.21c1.55-.75,3.33-5,4.14-6.4a85.37,85.37,0,0,0,6.14-13,86.71,86.71,0,0,0,5.31-27.41c0-1.6-.21-3.32,0-4.91a146.77,146.77,0,0,0-1,19.66,121.48,121.48,0,0,0,.86,13.47c.19,1.49,2.15,16.53,3.38,16.56,1.66,0,5.53-12.23,6-13.75A74.6,74.6,0,0,0,697.13,139a107,107,0,0,0,.38-16.6,74.6,74.6,0,0,0-1.79-13.31c-.43-1.87-.73-4.84-1.8-6.44-1.5-2.25-.72-1.16-1.52,1-.63,1.72-1.24,3.45-1.81,5.19a153.1,153.1,0,0,0-6.89,32.24c-.22,2.11-.17,4.39-.54,6.49-.57,3.28-.72,1.16-1.25-1.09-1.15-4.95-2.37-9.88-3.77-14.77-2.63-9.13-5.92-18.15-10.77-26.35-2-3.36-4.61-8.47-7.83-10.77-2.23-1.59-.43-1.13-1.85.11-.78.68-1.3,2.38-1.74,3.32a43.61,43.61,0,0,0-2.55,7,59.68,59.68,0,0,0-1.57,17.06,45.32,45.32,0,0,0,6.26,22.62c1.26,2.08.45,2.35,1.59.1a16.73,16.73,0,0,0,.68-3.61c.43-2.41.78-4.83,1.07-7.26a137.68,137.68,0,0,0,.91-14.06,170.51,170.51,0,0,0-.61-19.31,131.41,131.41,0,0,0-2.39-15.4c-.33-1.49-.68-3-1.06-4.46-.3-1.19.09-3.67-.8-1.69-1,2.21-.6,6.34-.78,8.82a313.86,313.86,0,0,0,.67,53.54c.12,1.27.17,2.65.41,3.88l.23,1.93.7-3.89,1.74-9.75,3.49-19.48,1.74-9.74c0,.31.73-3.89.7-3.9.36.1,1.68,4.91,1.82,5.32q2.89,8.89,5,18t3.52,18.39c.08.56,1,9.27,1.17,9.28.43,0,2.58-7.94,2.81-8.74a148.77,148.77,0,0,0,5.57-36.31,44.69,44.69,0,0,1,0-4.91,207.41,207.41,0,0,0-1.37,48.15q.33,3.84.83,7.65c.08.64.17,1.27.26,1.91,0,1.23.17,1.27.53.12.91-.78,1.39-3,1.9-4.18q3.15-7.14,5.79-14.49a221.32,221.32,0,0,0,8.52-31c.31-1.53-.51-3.56,0-5a302,302,0,0,0-12.22,44.81c-.3,1.57.44,3.48,0,5l13.73-47.79v-5a172.68,172.68,0,0,0-1.4,49.21c.1.87.44,7.42,1.08,7.65.26.09,3-6.39,3.39-7.22a104.07,104.07,0,0,0,4.87-14.25,110.05,110.05,0,0,0,3.42-27c0-1.29-.35-3,0-4.26a171.07,171.07,0,0,0-4.9,55.57v.09a327.45,327.45,0,0,0,19.85-54.65v-5l-7.14,52.72c-.21,1.49.5,3.61,0,5q8.1-22.14,14.42-44.85v-5a282.41,282.41,0,0,0-7.39,49c-.08,1.33.53,3.72,0,4.91a150.72,150.72,0,0,1,11.76-22c1.29-2,2.64-4,4-5.88.7-1,1.41-1.92,2.12-2.87l.63,1.73c1.27,1.58,1.82,5,2.52,6.91l1.25,3.45q.19,2.85,1.14,1.08c2.48-1.06,4.9-7.6,5.89-9.92a44,44,0,0,0,3.1-11.13,77.34,77.34,0,0,0,.42-12.08c0-.12,0-.23,0-.34a384.46,384.46,0,0,0-12.94,57c-.19,1.3.62,3.89,0,5,9.86-17.69,13.19-38,11.17-58-.14-1.41-.31-2.81-.52-4.21-.13-.84-.27-1.67-.42-2.5-.05-1.39-.45-1.17-1.19.68-2.18,2.23-3.82,5.86-5.42,8.51-3.48,5.77-6.69,11.69-9.8,17.66q-2.33,4.49-4.58,9c-.36.71-2.16,5-2.47,4.93s-.47-5.49-.49-5.77a205.68,205.68,0,0,1,.23-32c.13-1.6-.32-3.44,0-5a270.52,270.52,0,0,0-5.42,57.33,5.15,5.15,0,0,1,0,1.24q9.79-31.92,16.81-64.58c.33-1.56-.48-3.52,0-5-7.67,23.63-10.61,48-10.16,72.73,0,.12,0,.23,0,.35a131.49,131.49,0,0,0,26-54.08c.35-1.58-.42-3.46,0-5l-17,62.38c-.37,1.35.68,3.85,0,5a495.48,495.48,0,0,0,30.07-59.87v-5l-15.58,69.33c-.32,1.43.62,3.72,0,5a353.11,353.11,0,0,1,34.17-56.77v-5a125.07,125.07,0,0,1-15.27,42.26v5a201,201,0,0,0,19-46.63c.28-1.06-.68-4.28,0-5a136.12,136.12,0,0,0-32.7,59.46c-.32,1.23.69,4,0,5a541.86,541.86,0,0,0,37.21-60.26v-5l-24.68,63.49c-.5,1.29.75,3.91,0,5l37.45-54.68v-5a364,364,0,0,1-23.53,69c-.63,1.38.66,3.68,0,5a145.72,145.72,0,0,1,38-47.62v-5a91.18,91.18,0,0,1-18.13,41.3c-.81,1,.81,4,0,5A344,344,0,0,0,846.7,148.5c.71-1.25-.75-3.83,0-5a469.63,469.63,0,0,1-35.43,47.93v5L830.85,166c4.1-6.38,8.24-11.46,8.18-19.16a13.11,13.11,0,0,0,0-2.17,3.82,3.82,0,0,0-.81-2c-1.39-1.21-1.9.07-3.15,1.12L820.61,155.8,791.79,180v5a337.3,337.3,0,0,0,32.27-59.86c.48-1.17-.77-4.1,0-5a134.13,134.13,0,0,0-29,58.6c-.28,1.28.66,3.95,0,5,10.74-17,21.9-34.16,38.73-45.7v-5q-13.12,33-26.24,66.1c-.41,1,.72,4.31,0,5l45.6-43.57v-5a221.13,221.13,0,0,1-25.63,47.65c-.8,1.13.78,3.92,0,5a136.71,136.71,0,0,1,38.18-35.88v-5a431.85,431.85,0,0,1-32.26,45.8v5a325.75,325.75,0,0,1,46.31-48.62v-5a180,180,0,0,1-43.89,49.38v5a104.44,104.44,0,0,1,31.1-31v-5l-27.15,38c-.76,1,.82,4.09,0,5l38.78-42.48v-5a155.84,155.84,0,0,1-30.5,39.54c-.84.79.81,4.28,0,5l36.11-31.82v-5a485.6,485.6,0,0,1-42.13,47.16v5a571.66,571.66,0,0,1,54.53-49.11v-5a306.88,306.88,0,0,1-38.34,42.29c-.83.76.82,4.31,0,5l41.4-35v-5A399.51,399.51,0,0,0,859.07,233c-.69.82.78,4.44,0,5l53.57-38v-5a592.88,592.88,0,0,0-45.32,40.58c-.78.78.81,4.37,0,5a263.42,263.42,0,0,1,51.07-30.89v-5a418.27,418.27,0,0,1-45.13,41.73c-.81.65.78,4.45,0,5a545.1,545.1,0,0,1,57.56-35.89v-5l-43.46,29.1c-.7.46.66,4.69,0,5L932,224v-5l-52.55,30.62v5a469.06,469.06,0,0,1,56.45-28.15v-5l-51.75,34.14c-.59.39.55,4.82,0,5L942.35,242v-5c-13,11.58-28.76,19-44.44,26.28-.56.26.48,4.87,0,5L956,251.91v-5a190.34,190.34,0,0,1-52.62,18.2v5l53.15-30c.59-.33-.53-4.83,0-5L895.23,254.3v5l36.83-21.81c.52-.31-.44-4.91,0-5A318.89,318.89,0,0,0,878.44,249c-.56.24.5,4.84,0,5A208.15,208.15,0,0,1,938,243.58v-5c-5.33,15.18-25.9,16.2-32.2,30.75-.19.46.12,5,0,5a168.85,168.85,0,0,0,50.74-10.57v-5l-58.6,29.6c-.47.24.37,4.94,0,5l64.6-10.27v-5q-16.61,9.29-33.87,17.31c-.33.16.18,5,0,5a91.24,91.24,0,0,0,36.93-7.21c.51-.22-.42-4.91,0-5a260.86,260.86,0,0,0-52.76,18.39c-.49.24.41,4.92,0,5l62.39-12.67v-5L931,315.58c-.31.16.14,5,0,5a87.23,87.23,0,0,0,41.9-7.84c.44-.2-.33-4.95,0-5A195.11,195.11,0,0,0,923,321.46c-.48.2.38,4.93,0,5l47.9-8.95v-5l-36.38,16.27c-.4.17.26,5,0,5q21.06-1.57,41.88-5.09v-5L932.79,346c-.7.36.65,4.66,0,5l43.57-22.33c.48-.24-.38-4.93,0-5q-20.82,3.53-41.88,5.09v5l36.38-16.27c.48-.22-.39-4.93,0-5L923,321.46v5a195.11,195.11,0,0,1,49.95-13.72v-5a87.23,87.23,0,0,1-41.9,7.84v5l44.18-21.67c.5-.24-.41-4.91,0-5L912.8,306.58v5a260.86,260.86,0,0,1,52.76-18.39v-5a91.24,91.24,0,0,1-36.93,7.21v5q17.26-8,33.87-17.31c.47-.27-.38-4.94,0-5l-64.6,10.27v5l58.6-29.6c.63-.31-.57-4.78,0-5a168.85,168.85,0,0,1-50.74,10.57v5c6.3-14.55,26.87-15.57,32.2-30.75.16-.46-.08-5,0-5A208.15,208.15,0,0,0,878.44,249v5a318.89,318.89,0,0,1,53.62-16.49v-5L895.23,254.3c-.59.35.54,4.83,0,5l61.28-19.19v-5l-53.15,30c-.5.28.4,4.92,0,5A190.34,190.34,0,0,0,956,251.91c.56-.29-.5-4.86,0-5l-58.07,16.41v5c15.69-7.25,31.41-14.7,44.44-26.28.55-.48-.54-4.83,0-5l-58.23,18.57v5l51.75-34.14c.66-.44-.64-4.74,0-5a469.06,469.06,0,0,0-56.45,28.15c-.75.44.7,4.6,0,5L932,224c.7-.4-.64-4.7,0-5l-44.61,20.61v5l43.46-29.1c.74-.5-.7-4.62,0-5a545.1,545.1,0,0,0-57.56,35.89v5a418.27,418.27,0,0,0,45.13-41.73c.58-.63-.65-4.7,0-5a263.42,263.42,0,0,0-51.07,30.89v5A592.88,592.88,0,0,1,912.64,200c.8-.65-.79-4.44,0-5l-53.57,38v5a399.51,399.51,0,0,1,40.59-41.59c.83-.74-.81-4.31,0-5l-41.4,35v5a306.88,306.88,0,0,0,38.34-42.29c.67-.9-.81-4.36,0-5a571.66,571.66,0,0,0-54.53,49.11c-.84.86.82,4.2,0,5a485.6,485.6,0,0,0,42.13-47.16c.73-.94-.83-4.28,0-5L848.09,217.9v5a155.84,155.84,0,0,0,30.5-39.54c.61-1.12-.8-4.12,0-5l-38.78,42.48v5l27.15-38c.58-.82-.73-4.53,0-5a104.44,104.44,0,0,0-31.1,31c-.59.92.77,4.4,0,5a180,180,0,0,0,43.89-49.38c.58-1-.79-4.33,0-5a325.75,325.75,0,0,0-46.31,48.62c-.81,1.06.81,4,0,5a431.85,431.85,0,0,0,32.26-45.8c.5-.81-.69-4.57,0-5a136.71,136.71,0,0,0-38.18,35.88v5a221.13,221.13,0,0,0,25.63-47.65c.4-1-.72-4.31,0-5l-45.6,43.57v5q13.13-33,26.24-66.1c.34-.84-.62-4.57,0-5-16.83,11.54-28,28.75-38.73,45.7v5a134.13,134.13,0,0,1,29-58.6v-5A337.3,337.3,0,0,1,791.79,180c-.65.95.8,4.33,0,5l25-21L829,153.8l6.07-5.09c1-.82,1.68-1.88,2.71-1.52s1.24,2.28,1.25,2.9l0-4.27c-.57,3.6-2.52,6.37-4.45,9.37l-7.94,12.36-15.35,23.88c-.72,1.12.81,4,0,5A469.63,469.63,0,0,0,846.7,148.5v-5a344,344,0,0,1-33.56,48.67v5a91.14,91.14,0,0,0,18.13-41.3c.14-.85-.54-4.56,0-5a145.72,145.72,0,0,0-38,47.62v5a364,364,0,0,0,23.53-69c.28-1.24-.68-4,0-5l-37.45,54.68v5l24.68-63.49c.54-1.4-.68-3.72,0-5a541.86,541.86,0,0,1-37.21,60.26v5a136.12,136.12,0,0,1,32.7-59.46v-5a201,201,0,0,1-19,46.63c-.72,1.27.72,3.77,0,5a125.07,125.07,0,0,0,15.27-42.26c.19-1.15-.64-4.13,0-5a353.11,353.11,0,0,0-34.17,56.77v5l15.58-69.33c.33-1.48-.58-3.64,0-5a495.48,495.48,0,0,1-30.07,59.87v5l17-62.38v-5a130.38,130.38,0,0,1-22.88,50.1c-.21.27-1.83,2.72-2.06,2.67-.86-.2-.92-5.72-.92-6.87,0-3.07.33-6.18.6-9.23q.66-7.46,1.86-14.84a209.46,209.46,0,0,1,7.55-30.83v-5q-7,32.64-16.81,64.58l0,1.23a236.29,236.29,0,0,1,5.37-49.8v-5a284.75,284.75,0,0,0-.81,29.93c0,1,.92,17.84,1.07,17.82,1-.15,4.41-8.78,5-9.85,1.52-3,3.07-6,4.66-9,3.18-5.93,6.51-11.79,10.13-17.46.73-1.12,1.87-4,3-4.59.61-1.27.88-1,.82.91l.27,1.67a68.79,68.79,0,0,1,.79,13.67,89.17,89.17,0,0,1-11.44,38.57v5c1.71-11.52,3.9-23,6.65-34.26q2.12-8.7,4.65-17.31c.52-1.76.88-3.55,1.35-5.31,1.11-4.14,0,1.33-.12,2.32a42.76,42.76,0,0,1-1.91,8,43.78,43.78,0,0,1-3,6.81c-.85,1.57-2.46,5.51-4.1,6.2q-.95,1.77-1.14-1.08l-.63-1.72-1.25-3.46-1.57-4.32c-.91-2.5-.24-2.67-2-1.16-3.66,3.1-6.42,9.27-8.82,13.39a153.93,153.93,0,0,0-8,15.92v4.92a281.29,281.29,0,0,1,7.38-48.8c.38-1.57-.43-3.46,0-5q-6.32,22.71-14.42,44.85v5l7.14-52.72c.21-1.58-.41-3.48,0-5A324,324,0,0,1,715,147q-1.12,2.58-2.28,5.15l-1.17,2.56c-1.22.17-1.56-.49-1-2-1.42-4.59.1-12.81.62-17.79a156.25,156.25,0,0,1,4.5-24.18v-4.27a104.58,104.58,0,0,1-9.32,42.25c-.33.72-1.93,4.81-2.33,4.79-.22,0-.68-4.46-.72-4.78-.56-4.11-1-8.25-1.16-12.4a138.67,138.67,0,0,1,2.2-29.68c.28-1.58-.43-3.49,0-5l-13.73,47.79v5a302,302,0,0,1,12.22-44.81v-5a217.81,217.81,0,0,1-13.58,43.77,36.56,36.56,0,0,1-2.25,5c-.56,2-.87,2.24-.91.71-.14-.95-.27-1.91-.38-2.86q-.84-6.65-1.17-13.32a160.75,160.75,0,0,1,1.83-31.53v-4.91a147.92,147.92,0,0,1-6.07,37.89c-.35,1.17-.72,2.34-1.1,3.51l-.58,1.74q-.66,3.09-.71.8c-1-1.93-.73-6.07-1.07-8.35q-1.37-9.27-3.52-18.39-2-8.65-4.77-17.12A27.54,27.54,0,0,0,667,97.18c-1.52-2.89-.28-1.45-1,.18-1.39,3.28-1.47,8.2-2.09,11.69l-3.14,17.54-1.74,9.74c-.23,1.28-.39,2.64-.7,3.89-1,4.1-.64-.46-.79-1.92a255.79,255.79,0,0,1-.63-48.48,41.22,41.22,0,0,1,.44-4.85c.7-3.38.06-1.57.68-.17,1.14,2.58,1.49,6.19,2,9a128.46,128.46,0,0,1,2.2,20,111.9,111.9,0,0,1-1.6,20.67c-.25,1.53-.28,4-1,5.42s.56,2.52-1.21.54-2.77-5-3.66-7.35a36,36,0,0,1,.83-29.31c.4-.91.84-1.81,1.31-2.69s1-1.74,1.52-2.59l1.07,1.17c2.15,1.22,4.38,5.4,5.75,7.45a85.65,85.65,0,0,1,8,15.32c4.43,10.88,7.12,22.36,9.74,33.78V156a156.28,156.28,0,0,1,6-37c.77-2.64,1.6-5.27,2.51-7.86.09-.26,1.74-5.18,1.91-5.17s1,2.86,1,3.18a67.29,67.29,0,0,1,3.07,18c.23,11-3,22.52-7.9,32.27-.38.75-.77,1.49-1.18,2.22q-.52,1.55-.66-.18c-.79-.83-.88-3.35-1.16-4.55-.7-3-1.28-6.14-1.72-9.24a93.77,93.77,0,0,1-.15-25v-4.91A86.51,86.51,0,0,1,680,143.45a84.35,84.35,0,0,1-4.69,10.88c-.68,1.32-5.23,10.93-6.66,10.81-1-.09-3.24-11.27-3.59-12.72q-1.8-7.33-3-14.8c-.71-4.35-1.27-8.73-1.67-13.11-.26-2.8-.46-5.59-.6-8.39l-.12-2.83-.13-3.36c0,2.82,0,5.64-.07,8.46-.21,9.41-.85,18.89-3,28.08-.37,1.58-2.18,11.37-3.75,11.8-.05,0-3.94-12.88-4.32-14.12L640,116.85l-4-13.18a21.44,21.44,0,0,0-1.15-3.77c-.8-1.4.06-3.24-1-.08a40.27,40.27,0,0,0-1.16,7.25,110,110,0,0,0,3.23,43.19v-5A423.33,423.33,0,0,1,622.21,92.7v5a227.48,227.48,0,0,1,9.08,36.36c1.09,6.75,1.88,13.57,2.34,20.4a108.93,108.93,0,0,1,.48,11c-.35,10.4-1.83-1.2-2.47-4l-17.52-78c.35,1.58-.36,3.41,0,5Z"/><path class="cls-2" d="M994.74,410.34c4,1.19,4.38-3.38,4.38-6.2,0-4.09-1.51-6.27-5.71-7.61-13.64-4.31-30.89-1.37-44,3.32-4.19,1.49-5.47,2.34-5.46,6.51s2.12,4.92,6.29,4.17c15.22-2.77,30.31-7.16,45-11.89.47-.15-.4-4.9,0-5l-33.87,8.53a29.78,29.78,0,0,0,0,5c4.94,5.05,15.18,3.23,21.58,3.35l27.6.53v-5l-30,9.88c-5.14,1.69-13.5,2.71-13.83,9.31a15.69,15.69,0,0,0,.09,4.54c1,3.51,5.7,4.17,8.74,4.89a79.1,79.1,0,0,0,29.57,1.15c.12,0,0-5,0-5a101.8,101.8,0,0,0-37.18,3.89c-.42.13.34,4.94,0,5l12-2.37c.35-.07-.28-4.95,0-5l-12,2.37v5a101.8,101.8,0,0,1,37.18-3.89v-5a80.18,80.18,0,0,1-21.33.33c-4.57-.57-16.61-1.17-17-7.35v4.91c.83-3,3.58-4.29,6.31-5.31,4-1.5,8.14-2.68,12.19-4l25.31-8.33c.29-.1-.14-5,0-5l-27.6-.53c-6.41-.12-16.64,1.7-21.58-3.35v5l33.87-8.53v-5q-14,4.51-28.33,8.1-6.93,1.71-13.9,3.2c-2.57.55-8.23,2.48-9.06-1.41v5c1.13-3.65,8.48-4.78,11.62-5.63a86.07,86.07,0,0,1,16.4-2.83,75.73,75.73,0,0,1,15.57.33c4.18.56,10.5,1.27,11.56,6.24v-5c-.32,2.4-1.7,4.48-4.36,3.7.42.12-.49,4.85,0,5Z"/><path class="cls-2" d="M967.66,344.42a39,39,0,0,0,12.2-7c.31-.26-.11-5,0-5A47.17,47.17,0,0,0,951,338.87c-.47.28.36,4.95,0,5A355.17,355.17,0,0,0,989.88,336v-5l-29,7.63c-6.71,1.76-17.75,2.56-21.62,9.15-.26.45.2,5,0,5q24.75-2.23,49.44-5v-5c-13.75,9.84-32.2,8.11-45.92,18-.29.21,0,5,0,5,10.86,1.84,22.54-.52,33.41-1.52l35-3.2v-5c-.62,4.34-5,5.74-8.73,6.66-6.66,1.64-13.42,2.94-20.13,4.4l-19.17,4.19c-3.39.74-9.4.71-10.15,4.85-.18.95-.48,4.38.28,5.2s8.54-1,9.77-1.2l9.78-1.19,41-5v-5a340.64,340.64,0,0,0-55.8,13.4,41.7,41.7,0,0,0,0,5c9.91,1.84,19.74.47,29.6-1l30.22-4.49v-5c-1.87,3.65-5.56,4.66-9.31,5.51-6,1.35-12,2.51-18.06,3.76l-35.16,7.33c-.28.05.18,5,0,5l58.13-4.52v-5l-55.86,11.73a30.86,30.86,0,0,0,0,5c1.53,2.18,3.85,2,6.3,1.72.25,0-.18-5,0-5-2.43.32-4.76.47-6.3-1.72v5l55.86-11.73c.28-.05-.18-5,0-5l-58.13,4.52v5l35.16-7.33c5.7-1.19,11.41-2.35,17.11-3.57,4-.85,8.23-1.75,10.26-5.7.25-.49-.23-5,0-5l-30.22,4.49c-9.86,1.46-19.69,2.83-29.6,1v5a340.64,340.64,0,0,1,55.8-13.4c.26,0-.18-5,0-5l-31.28,3.82L967,374.67l-7.81.95c-1.66.2-5.62,1.57-6.14-.21v5c1.7-4,10.26-4.14,14-5l18.22-4c5.74-1.25,11.54-2.37,17.25-3.77,3.77-.92,8.11-2.31,8.73-6.66.07-.49-.06-5,0-5l-35,3.2c-10.87,1-22.56,3.36-33.41,1.52v5c13.72-9.89,32.17-8.16,45.92-18,.43-.31-.33-5,0-5q-24.69,2.79-49.44,5v5c3.85-6.57,15-7.4,21.62-9.15l29-7.63c.44-.12-.37-4.9,0-5A355.17,355.17,0,0,1,951,338.87v5a47.17,47.17,0,0,1,28.87-6.47v-5a39.13,39.13,0,0,1-12.2,7c-.56.2.5,4.82,0,5Z"/><path class="cls-2" d="M1003,405.5s0-5,0-5,0,5,0,5Z"/><path class="cls-2" d="M1005,435.5l6-6c.39-.39.22-4.46,0-5-1.45-3.63-5.73-3-9-2.79-4.58.36-9.15.84-13.71,1.36-9.78,1.1-19.51,2.52-29.21,4.2-.29,0,.21,5,0,5q27.63-3.8,55.37-6.78v-5c-15.16,9.49-34.51,5.92-49.78,15.16a27.83,27.83,0,0,0,0,5c18.56,6.21,38.33.15,57.19,4.55v-5c-19.64,9-42.4,6.06-61.84,15.61-.34.17.2,5,0,5a471.09,471.09,0,0,0,56.82-3.31c.1,0,0-5,0-5-13.81-1-27.91-1.77-40.91,3.83-.33.15.18,5,0,5l27.82.18c7.42,0,15.9-1,22.43,3.2v-5A292.24,292.24,0,0,1,968,468.44c-.12,0,0,5,0,5a292.24,292.24,0,0,0,58.21-8.77,30.9,30.9,0,0,0,0-5c-6.52-4.22-15-3.16-22.43-3.2L976,456.29v5c13-5.6,27.11-4.88,40.91-3.83v-5a471.09,471.09,0,0,1-56.82,3.31v5c19.44-9.55,42.2-6.64,61.84-15.61.22-.1,0-5,0-5-18.86-4.4-38.63,1.66-57.19-4.55v5c15.27-9.24,34.62-5.67,49.78-15.16.44-.28-.32-5,0-5q-27.74,3-55.37,6.78v5c9.7-1.68,19.43-3.1,29.21-4.2,4.56-.52,9.13-1,13.71-1.36,3.22-.24,7.5-.84,9,2.79v-5l-6,6c-.85.86.81,4.18,0,5Z"/><path class="cls-2" d="M1015.21,472.63a2.16,2.16,0,0,1,3.71.75v-5q-28.5-.33-56.93,2.16s-.14,5,0,5a369.72,369.72,0,0,0,60.61,7.06c-.11,0,.21-5,0-5a150.93,150.93,0,0,0-56.84.57,41.7,41.7,0,0,0,0,5,250.66,250.66,0,0,0,58,9.2c-.16,0,.28-4.92,0-5a172.44,172.44,0,0,0-50.56-6.49c.11,0-.25,4.92,0,5q30.51,9.4,61.45,17.25v-5l-70.23-12.57c.37.07-.46,4.8,0,5a407.48,407.48,0,0,0,46.26,17.73v-5L954,488.85c.42.11-.51,4.8,0,5l70.8,27.95v-5L959.05,506c.31.05-.41,4.87,0,5a424.4,424.4,0,0,1,64.25,26.66v-5a340.48,340.48,0,0,1-61-17.9v5l55.54,20.4v-5l-65-19c.47.14-.54,4.77,0,5l59.87,25v-5q-33.15-8.88-65.33-20.92v5l63.34,23.66v-5l-54.09-11.35c.41.09-.49,4.75,0,5l58,29.86v-5L958.3,549.72c.42.09-.5,4.76,0,5l42.26,20.08v-5a471.56,471.56,0,0,0-53.83-16.89c.46.11-.52,4.69,0,5a314.84,314.84,0,0,0,63.13,28.47c-.47-.15.53-4.82,0-5q-34-11.75-66.88-26.47v5l59.54,18.14v-5L946,557.33c.49.14-.54,4.67,0,5l57.27,34.8v-5a588.07,588.07,0,0,1-64.34-18c.49.17-.55,4.81,0,5l53.73,19.14v-5L941.86,578.8c.45.13-.53,4.78,0,5q28.9,11.63,57.55,23.89v-5L941.8,587.57c.47.12-.54,4.71,0,5l54.6,29.6v-5l-59.23-20.78c.56.19-.59,4.56,0,5a253.19,253.19,0,0,0,54.88,30.8v-5a182.57,182.57,0,0,1-63.91-38.54v5L937,595.5c-.3-.06.37-4.92,0-5l-8.86-1.85c.39.08-.43,4.59,0,5a182.57,182.57,0,0,0,63.91,38.54c-.52-.18.58-4.77,0-5a253.19,253.19,0,0,1-54.88-30.8v5l59.23,20.78c-.55-.19.61-4.67,0-5l-54.6-29.6v5l57.61,15.12c-.45-.12.52-4.78,0-5q-28.65-12.27-57.55-23.89v5l50.79,14.43c-.43-.13.52-4.82,0-5l-53.73-19.14v5a588.07,588.07,0,0,0,64.34,18c-.43-.09.5-4.69,0-5L946,557.33v5l56.53,15.72c-.41-.12.48-4.86,0-5L943,554.91c.49.15-.56,4.75,0,5q32.84,14.72,66.88,26.47v-5a314.84,314.84,0,0,1-63.13-28.47v5a471.56,471.56,0,0,1,53.83,16.89c-.56-.21.62-4.7,0-5L958.3,549.72v5l56.32,12.72c-.42-.09.51-4.74,0-5l-58-29.86v5l54.09,11.35c-.37-.08.47-4.83,0-5l-63.34-23.66c.51.19-.58,4.79,0,5q32.15,12,65.33,20.92c-.44-.12.52-4.78,0-5l-59.87-25v5l65,19c-.45-.14.52-4.81,0-5l-55.54-20.4c.52.19-.59,4.77,0,5a340.48,340.48,0,0,0,61,17.9c-.39-.08.48-4.76,0-5A424.4,424.4,0,0,0,959.05,506v5l65.78,10.8c-.33-.06.43-4.83,0-5L954,488.85v5l56.69,14.44c-.4-.1.47-4.85,0-5a407.48,407.48,0,0,1-46.26-17.73v5l70.23,12.57c-.29-.05.38-4.9,0-5q-30.95-7.85-61.45-17.25v5a172.44,172.44,0,0,1,50.56,6.49v-5a250.66,250.66,0,0,1-58-9.2v5a150.93,150.93,0,0,1,56.84-.57v-5A369.72,369.72,0,0,1,962,470.54v5q28.41-2.49,56.93-2.16c-.08,0,.19-4.6,0-5a2.16,2.16,0,0,0-3.71-.75c-.85.76.8,4.27,0,5Z"/><path class="cls-2" d="M625.68,101.64c.21-2.15,1.73.11,2,.74,1.06,2.15,1.21,5.55,1.6,7.87.95,5.59,1.53,11.23,2.12,16.86,1.18,11.24,2.42,22.45,6.09,33.21v-.09a148.37,148.37,0,0,0-2-39.53c-1.16-5.79-2.38-17.82-8.76-20.75-2.94-1.35-2.64.64-3.11,3.11-.4,2.14-.75,4.29-1,6.44a118.06,118.06,0,0,0-1,12.17c-.12,4.7-.12,9.44.14,14.14.2,3.75.58,7.5,1.15,11.21.09.61,1.06,7.34,1.37,7.33.78,0,2.49-4.49,2.76-5.17,5.67-14.19.25-30.23,6-44.49v-4.27c-.24,21.35,2,42.33,7.78,62.93-.43-1.53.3-3.43,0-5q-6.24-33-15.34-65.32c-.66-2.34-2.1-8.58-5.52-5.36-2.8,2.63-3.52,10.21-4,13.82a79.22,79.22,0,0,0-.31,16A54,54,0,0,0,618,129.31c.95,3.06,2.81,10.62,7.07,10.57,4.92-.06,4.25-7.95,4.23-11.31a196.1,196.1,0,0,0-2.08-26.4q-.57-3.84-1.27-7.67c.05.27-.83-3.76-.75-3.81-.24.15-.37,3.09-.43,3.66-.4,3.91-.59,7.84-.64,11.77a153.22,153.22,0,0,0,1.17,22.66,124.2,124.2,0,0,0,3.88,18c1.27,4.34,2.37,11.27,7.33,12.77-.21-.06.06-4.5,0-5q-1.32-12-2-24-.29-5.31-.45-10.62c-.14-4.9-.26-9.84-.12-14.74,0-.52-.12-6.54.29-2.18.91,9.53-.8,19.3,0,28.9.49,5.66,1.55,12.41,4.81,17.23,1.66,2.46,4.08,3.32,6.27.8,1.8-2.07,2-5.84,2.43-8.36,2.57-13.89,4.74-27.86,9.87-41.1v-5l-5.32,54.65c-.16,1.64.24,3.38,0,5l7.57-52.47c.21-1.44-.55-3.71,0-5L657,104.48c-.61,1.42.59,3.61,0,5l2.89-6.77v-5l-7.57,52.47v5l5.32-54.65c.14-1.45-.51-3.68,0-5-3.78,9.76-6,19.93-7.9,30.21-.93,5-1.59,10.17-2.78,15.14-.83,3.47-4.15,8.41-7.51,3.9-6.5-8.72-5.47-22.32-5.22-32.37.15-5.84.21-11.7-.16-17.53,0-.12,0-.12,0,0a472,472,0,0,0,2.47,64.68v-5c-4-1.23-5.05-5.64-6.24-9.25a123.68,123.68,0,0,1-5.88-30.61c-.1-1.55-.67-18.8.81-19,1.18-.18,3.79,28.54,3.87,30.73.1,2.61.27,7.3-3,8.31-3.95,1.21-5.9-4.52-6.94-7.19A44.07,44.07,0,0,1,617.57,99c.53-1.84,1.56-7.94,4.67-7.22s4,8.58,4.61,11q8.26,30,14,60.63v-5c-5-17.61-8-36.06-7.75-54.39,0-1.16-.45-3.2,0-4.27-6,14.66,0,31.47-6.61,45.83a24.52,24.52,0,0,1-1.38,2.58q-1.17,2.76-1.2-.57c-1-1.92-1-5.23-1.25-7.35a93.13,93.13,0,0,1-.85-17.42c.17-3.07.49-6.14.91-9.18.3-2.12.3-5.43,1.28-7.35-.27-1.69.27-2.25,1.62-1.67a5.93,5.93,0,0,1,2.14,1,10.24,10.24,0,0,1,2.81,3.42c4.18,7.32,5.36,17.51,6.39,25.75.59,4.77,2.06,12.26.8,17,.52,1.41.25,2-.81,1.88-.37-1.13-.71-2.26-1-3.4-.64-2.28-1.17-4.59-1.64-6.9-1.75-8.77-2.43-17.69-3.42-26.56-.52-4.74-1.12-9.48-2-14.16-.25-1.32-.4-5.2-1.43-6.12-.65-.59-1.61-1.24-1.74.15-.16,1.66.16,3.36,0,5Z"/><path class="cls-2" d="M636.62,99.37a298.22,298.22,0,0,1-2.35,56.19v4.91a280.23,280.23,0,0,1,11.93-67.66v-5c-3.69,14.51-6.46,29.15-5.54,44.18a53,53,0,0,0,1.92,11.59,43.84,43.84,0,0,0,2.46,6.52c.45.94.94,1.87,1.46,2.78,1.35,2.35.66,2.07,1.66.22,2-3.69,1.89-10.67,2.22-14.77.29-3.67.37-7.34.37-11a121.44,121.44,0,0,0-2-23.46c-.47-2.43-1-4.85-1.67-7.24.07.28-1-3.58-1-3.57a16.93,16.93,0,0,0-1.6,2.85A63,63,0,0,0,639,110.37c-3.33,13.61-2.82,29.66,2,42.79a15.59,15.59,0,0,0,1.22,3c.6.21,2.58-1.49,2.95-1.83a12.16,12.16,0,0,0,2.92-5.08c1.36-4.11,1.3-8.59,1.44-12.87l1.37-39.85c.06-1.62-.17-3.31,0-4.91a128,128,0,0,0,.36,30.49c1,7,2.24,15.21,5.77,21.47,2.36,4.17,8.13,10,12.86,5.28,4.2-4.19,4.12-13.4,4.32-19,.13-3.42.13-6.87,0-10.29a75.32,75.32,0,0,0-1.11-10.06q-.49-2.7-1.18-5.35c-.23-.88-.47-1.76-.73-2.64l-.55-1.74q-.33-2.94-1-1c-1.88,1.41-2.93,7.27-3.54,9.47a60.07,60.07,0,0,0-2,10.82c-1,11.77.19,23.71,4.92,34.61-.47-1.09,0-3.46,0-4.66a195,195,0,0,0-1.6-22.78c-.58-4.33-1.31-8.65-2.21-12.93q-.57-2.76-1.23-5.49c-.29-1.22-.59-2.43-.91-3.64-.44,1.14-.87,2.28-1.28,3.42a140,140,0,0,0-8.1,45c-.07,4.25-.06,8.52.13,12.78.07,1.55.16,3.09.28,4.64q.15,1.82.33,3.63l.37-1.92c1.39-4.21,1.7-9.08,2.53-13.46l10.12-53.83V99.68c-1.07,16.21-2.49,37.16,11.52,48.41V148q.69-22.2.59-44.41a10.29,10.29,0,0,1,0-1.84,201.53,201.53,0,0,0-3.42,34.65c0,2.72,0,5.44,0,8.16.05,4.16-.55,9.5,1.84,13.19,3,4.6,6,1.15,7-2.62,1.75-6,3.17-12.1,4.38-18.22a240,240,0,0,0,4.27-36.35c0-1.07-.56-4,0-4.91-11,16.94-14.76,36.11-13.8,56v.09l11-47.75V99.1l-1.51,37.22c-.23,5.81-.82,12,.07,17.78.44,2.89,1.84,8.54,5.33,9.38,1.66.4.88.22,1.52-1.38a30.66,30.66,0,0,0,1-4.62q1-4.64,2-9.27,3.63-18.12,5.92-36.47c.19-1.46-.52-3.66,0-5-6.93,17.69-9.49,36-9.3,54.86a3.42,3.42,0,0,1,0,.73,232.66,232.66,0,0,0,18.2-54.55c.28-1.39-.62-3.77,0-5a150.62,150.62,0,0,0-15.8,58.67c-.06,1.12.58,4,0,4.91a122.17,122.17,0,0,0,18.3-62.13c0-1.21-.5-3.58,0-4.66-7.61,16.72-13.11,36.35-12,54.93.18,2.9,1.49,8.31,5.62,6.83,3.94-1.4,4.82-9,5.81-12.29l11.73-39.24v-5q-5.16,22.67-9.78,45.47c-1.28,6.41-2.51,14.51-.65,21,.52,1.81,1.82,5,3.76,5.82s1.71-1.1,2.46-3.06l2.15-5.6L734.31,146l17.18-44.79v-5c-6.5,20.82-12.88,41.78-14.33,63.66-.07,1.09.58,4,0,4.91a252.54,252.54,0,0,0,27.56-55.33v-5l-12.19,38.32c-2.16,6.82-3.9,13-3.55,20.16.1,2.05,1.13,8.37,4.25,8.08.93-.08,3.75-7,4.25-7.94q2.06-4,3.93-8.1a230.14,230.14,0,0,0,12.87-35.53c.4-1.44-.62-3.69,0-5A170.62,170.62,0,0,0,762,149c-1.78,7.58-3.56,15.48-3.2,23.32.14,2.8,1,6.49,4.74,5.49,4.65-1.27,7.2-10.12,9.08-13.89l18.43-37c.67-1.34-.69-3.71,0-5A248.2,248.2,0,0,0,767.27,187c-.2.92.6,4.45,0,5,18.5-16.84,27-40.85,34.82-63.93.4-1.17-.73-4.12,0-5a123,123,0,0,0-26.62,57.35c-.21,1.19.65,4.07,0,5a159.62,159.62,0,0,0,26.67-65.55c.18-1.12-.64-4.18,0-5a112.86,112.86,0,0,0-23.42,63.62c0,.42-.12,4.9,0,4.91,9,.94,13.11-10,16.34-16.55L810,136.68c.67-1.35-.67-3.69,0-5A218.66,218.66,0,0,0,788.72,195c-.12.68.42,4.76,0,5,17.37-9.81,26.47-28.17,34.68-45.53v-5l-19.55,41.77c-.43.92.7,4.46,0,5a211.1,211.1,0,0,0,41.84-43.06c.79-1.09-.8-4,0-5a361.2,361.2,0,0,0-37.92,59.65c-.48,1,.73,4.41,0,5,17.91-14.54,32.42-32.49,46.77-50.43v-5L828.86,209c-.58,1.17.79,4.07,0,5l35-41.12v-5C854,183.34,844.13,199.05,839.22,217c-.24.86.58,4.55,0,5l24.06-18.36c3-2.25,17.44-15.52,18.24-5v-5c-1.38,10.17-5.52,20.5-8.3,30.38-.19.66.4,4.82,0,5a52.39,52.39,0,0,0,25.57-25.12c.37-.76-.58-4.67,0-5a133.93,133.93,0,0,0-34,26.94c-5.55,6.14-13.6,15.19-9.07,24.09-.67-1.31.68-3.66,0-5a5.28,5.28,0,0,1-1-2.76V247c.23-5.48,4.42-9.79,7.81-13.72a130.05,130.05,0,0,1,11.1-11.42,135,135,0,0,1,25.15-18v-5a52.39,52.39,0,0,1-25.57,25.12v5c2.57-9.14,5.62-18.28,7.75-27.54.59-2.54,1.24-6.61.44-9.22-2.53-8.26-16.25,5-18.91,7L839.22,217v5c4.91-17.91,14.75-33.62,24.66-49.13.71-1.12-.82-4,0-5l-35,41.12v5l25.68-51.53c.59-1.2-.79-4,0-5-14.35,17.94-28.86,35.89-46.77,50.43v5a361.2,361.2,0,0,1,37.92-59.65v-5a211.1,211.1,0,0,1-41.84,43.06v5l19.55-41.77c.64-1.38-.64-3.65,0-5-8.21,17.36-17.31,35.72-34.68,45.53v5A218.66,218.66,0,0,1,810,136.68v-5l-14.88,30.18c-3.24,6.56-7.32,17.49-16.34,16.55v4.91a112.69,112.69,0,0,1,23.41-63.44v-5a159.62,159.62,0,0,1-26.67,65.55v5a123,123,0,0,1,26.62-57.35v-5c-7.84,23.08-16.32,47.09-34.82,63.93v5a248.2,248.2,0,0,1,23.82-65.1v-5l-16.68,33.5c-2.37,4.77-4.36,10.63-7.67,14.83-3.19,4-7.47,3.07-7.88-2.17v4.66c.21-9.09,2.92-18.7,5.45-27.37a172.22,172.22,0,0,1,10-25.88v-5a232.07,232.07,0,0,1-9.61,28.1q-2.77,6.66-6,13.12c-1.06,2.15-2.16,4.29-3.29,6.4s-1.66,5-4.08,2.63c-2.63-2.61-2.12-5.93-1.23-9.17,1.33-4.8,3-9.54,4.52-14.29l10.11-31.78c.48-1.51-.52-3.52,0-5a252.54,252.54,0,0,1-27.56,55.33v4.91c1.45-21.82,7.84-42.73,14.32-63.48.47-1.5-.55-3.56,0-5l-14.32,37.32L730,152.23c-2.3,6-4,13.09-7.16,18.66-.91,1.59-.1,1.87-1.75,1.2a7.8,7.8,0,0,1-2.36-2.58,13,13,0,0,1-1.88-5.67c-.41-4.92,1.51-10.45,2.49-15.22q4-19.45,8.42-38.82c.35-1.57-.46-3.49,0-5l-11.16,37.33c-1.12,3.72-1.89,11.23-5.44,13.68-4.36,3-6.29-3-6.55-6.22l0,3.16c.05-16.36,5.22-33.42,11.94-48.18V99.91a121.22,121.22,0,0,1-18.28,61.45v4.91a150.31,150.31,0,0,1,15.78-58.49v-5A230.13,230.13,0,0,1,699,150.58c-.14.32-2,5.06-2.32,5.07-1.48.08-.34-6.66-.3-7.17q.54-6,1.62-11.9a134.89,134.89,0,0,1,7.16-24.84v-5c-1.27,10-2.8,20-4.66,30q-1.39,7.45-3,14.86c-.16.77-1.11,7.25-1.67,7.39-.92.24-2.75-1.6-3.3-2.19-2.07-2.22-2.85-5.36-3.22-8.29-.16-2.83-.23-3.31-.19-1.45l.15-3.91.32-7.84,1.27-31.34c.06-1.53-.35-3.43,0-4.91l-5.69,24.83-2.85,12.41a63,63,0,0,1-1.54,6.69c-.56,1.61-.51,3.77-.93.32-.86-7.14,2.06-16.31,4.3-23a86.41,86.41,0,0,1,9.55-19.61V95.74a240.63,240.63,0,0,1-3.08,29.72c-1.44,8.54-2.69,18.64-6.15,26.65-1.08,2.49-3.13,3.92-5.44,2-4.11-3.46-2.86-12.72-2.76-16.94a191.57,191.57,0,0,1,3.33-30.39l0-1.83q0,15.19-.34,30.39c0,1.52.29,3.49-.13,4.92-.56,1.88-.6,2.07-2.16,1.1-1.85-1.15-3.41-3.87-4.49-5.69-5.51-9.29-5.62-20.69-4.94-31.14.11-1.58-.29-3.36,0-4.91l-8,42.3-3.79,20.19c-.3,1.58-.48,3.24-.9,4.8q-.36,3.35-.46,1c-.15-1.49-.27-3-.36-4.46a104.06,104.06,0,0,1,.17-15.19,137.57,137.57,0,0,1,3-19.78q1.11-4.91,2.59-9.7c.35-1.13,2.24-9.24,3.29-9.48.51-.12,3.84,18.45,4.09,20.21A186.19,186.19,0,0,1,669,153.44v-4.65c-5.19-12-6.36-24.51-2.48-37,.51-1.66,1.64-6.77,3.07-7.85q.63-2,1,1l.55,1.74c.44,1.46.82,2.93,1.17,4.41a59.13,59.13,0,0,1,1,23.1c-.65,4.09-1.53,10.73-6.67,11.49-4.26.64-7.78-3.71-9.62-7-2.83-5.05-4-11.35-5-17a87.26,87.26,0,0,1-1.1-25V91.75l-1.1,31.88c-.25,7.48,1.28,18.62-3.86,24.89-.57.7-2.64,2.94-3.71,2.68-.76-.19-2-5.34-2.27-6.13a63.47,63.47,0,0,1-2.57-12.79c-.91-9.58,1.6-19.79,5.62-28.47.3-.64,2.42-5.78,3-5.77.43,0,1.78,6.53,1.93,7.17a110.18,110.18,0,0,1,2.34,14.66,87.3,87.3,0,0,1-.77,20.93c-.32,2.1-.36,5.43-1.36,7.3-.07,2.25-.5,2.4-1.27.46-.54-.9-1-1.82-1.51-2.76-8.38-16.79-3.56-35.78.82-53,.39-1.56-.47-3.49,0-5a281.12,281.12,0,0,0-11.94,67.84c-.09,1.61.22,3.32,0,4.91a351,351,0,0,0,2.36-66c.07,1.19-.09,3.31,0,4.82Z"/><path class="cls-3" d="M976.93,636.82l-41.72-23.08v5l32.64,17c-.7-.36.71-4.47,0-5A117.54,117.54,0,0,0,936.41,614v5a117.08,117.08,0,0,1,38.7,20.21v-5l-48-27.41c.72.41-.75,4.48,0,5q23.46,16.5,47.68,31.87v-5l-43.39-27.15v5A169.63,169.63,0,0,1,971.61,640v-5a358.7,358.7,0,0,1-41.36-18.3v5a446,446,0,0,1,41.33,23.57c-.74-.48.79-4.45,0-5a290.36,290.36,0,0,0-44.08-25.12c.66.3-.66,4.49,0,5l47,36.7v-5l-53.28-32.1c.72.44-.77,4.5,0,5l49.63,32.68v-5q-23.92-12.27-47-26.11v5q22.55,13.5,43.84,28.9v-5q-22.93-14.36-46.56-27.54c.72.4-.74,4.45,0,5l48.34,35.66v-5a733.76,733.76,0,0,1-62.1-41.18v5l60.18,31c-.69-.36.66-4.39,0-5l-41.84-38.73v5c5.72-2.64,13.72,3,18.9,5.23l20.91,9.07c-.63-.27.62-4.45,0-5A166.21,166.21,0,0,0,923,601.3c.65.29-.67,4.53,0,5a464,464,0,0,0,51,31.08c-.69-.36.73-4.53,0-5l-52.84-34c.74.48-.79,4.45,0,5a560.73,560.73,0,0,1,51.71,40.87v-5c-18.88-1.87-33.26-16.6-52-19.11.32,0-.42,4.7,0,5l40.07,29v-5a533.18,533.18,0,0,0-56.34-34.44c.71.38-.72,4.48,0,5L965.23,664v-5l-58.59-26.51c.66.29-.67,4.51,0,5l58.15,41.94v-5L898.1,634.7c.72.43-.76,4.51,0,5l64.49,40.89v-5q-32.34-17-63.68-35.85c.73.44-.77,4.46,0,5q30.78,21.79,60.16,45.5v-5q-35.77-21-70.8-43.2v5q18.12,10.83,35.72,22.45c5.75,3.81,11.54,7.61,17.14,11.63,4.63,3.33,8.84,6.94,10.58,12.55v-5q-35.33-16.75-69.45-35.87c.72.4-.73,4.43,0,5l53.45,41.81v-5L878.15,664c.71.38-.69,4.42,0,5l51.11,42.61v-5l-41.45-25c.74.44-.76,4.47,0,5L932,717.09v-5l-28.1-16.36c.69.41-.76,4.56,0,5L932,717.09c-.72-.42.76-4.48,0-5l-44.16-30.46v5l41.45,25c-.75-.45.74-4.38,0-5L878.15,664v5l57.56,30.6c-.7-.37.71-4.44,0-5L882.26,652.8v5q34.11,19.1,69.45,35.87c-.42-.2.2-4.36,0-5-1.74-5.59-6-9.23-10.58-12.55-5.61-4-11.39-7.82-17.14-11.63Q906.4,652.85,888.27,642c.72.43-.76,4.52,0,5q35,22.2,70.8,43.2c-.74-.43.73-4.4,0-5q-29.37-23.68-60.16-45.5v5q31.33,18.79,63.68,35.85c-.69-.37.73-4.54,0-5L898.1,634.7v5l66.69,39.71c-.74-.43.75-4.45,0-5l-58.15-41.94v5L965.23,664c-.65-.3.67-4.52,0-5l-60.68-44.26v5a533.18,533.18,0,0,1,56.34,34.44c-.77-.53.8-4.41,0-5l-40.07-29v5c18.71,2.51,33.09,17.24,52,19.11-.27,0,.37-4.67,0-5a560.73,560.73,0,0,0-51.71-40.87v5l52.84,34v-5a464,464,0,0,1-51-31.08v5a166.21,166.21,0,0,1,42.63,27.46v-5l-20.91-9.07c-5.14-2.23-13.22-7.85-18.9-5.23a22,22,0,0,0,0,5l41.84,38.73v-5l-60.18-31c.69.36-.71,4.48,0,5a733.76,733.76,0,0,0,62.1,41.18c-.74-.43.75-4.44,0-5L921.2,627.69v5q23.63,13.18,46.56,27.54c-.75-.47.77-4.44,0-5q-21.28-15.39-43.84-28.9c.71.42-.76,4.54,0,5q23,13.84,47,26.11c-.69-.36.72-4.53,0-5l-49.63-32.68v5l53.28,32.1c-.74-.45.76-4.41,0-5l-47-36.7v5a290.36,290.36,0,0,1,44.08,25.12v-5a446,446,0,0,0-41.33-23.57c.64.33-.71,4.64,0,5A358.7,358.7,0,0,0,971.61,640c-.58-.22.6-4.54,0-5a169.63,169.63,0,0,0-40.22-23.5c.61.26-.66,4.59,0,5l43.39,27.15c-.73-.45.77-4.5,0-5q-24.21-15.37-47.68-31.87v5l48,27.41c-.73-.42.73-4.42,0-5A117.08,117.08,0,0,0,936.41,614c.45.13-.52,4.81,0,5a117.54,117.54,0,0,1,31.44,16.74v-5l-32.64-17c.67.35-.72,4.6,0,5l41.72,23.08c-.68-.38.74-4.59,0-5Z"/><path class="cls-3" d="M915,708.53c-.08-1.14-2.17-6.4-4.38-4.94-.66.43-.37,2.16-.4,2.77-.16,2.71-.52,6,2.73,6.87-.3-.08.23-4.48,0-5l-6.71-15.29v5a77.18,77.18,0,0,1,15.58,15v-5l-29.66-31.22v5a200.54,200.54,0,0,1,31.38,38.84v-5l-60.49-55c.83.75-.72,4.06,0,5q25.41,33,52.93,64.21v-5Q892.23,698.21,866,674c.83.76-.82,4.15,0,5l56,57.91c-.81-.84.85-4.12,0-5l-50.42-52.27v5a491.13,491.13,0,0,1,47.73,53.48v-5a639.9,639.9,0,0,0-60.75-54.32c.78.61-.65,4.11,0,5a477.77,477.77,0,0,0,48.71,57.29c-.83-.83.78-4,0-5a291.82,291.82,0,0,0-47.41-47c.81.63-.71,4.14,0,5l39.54,47.46v-5l-42.27-40.8c.82.79-.83,4.12,0,5l44,46.33c-.82-.86.85-4.1,0-5-16.23-17.35-32.45-34.88-44.66-55.4v5L890,715.29l17.6,12.34c.89.62,7.28,6,8,5.61,1-.49,1-2.59,1-3.6.6-9.25-5.69-15.29-11.15-22.17Q892.7,691.39,879.09,676c.81.93-.83,4,0,5l55,65.07v-5l-72.27-60.34c.68.57-.37,4.07,0,5,8.37,20.95,32.2,32.3,37.08,55v-5l-71.09-51c.77.55-.63,4.16,0,5l42.91,56.61v-5C854.8,732.13,842,719,829.4,705.77v5q22.8,23.72,47.22,45.77c-.83-.75.75-4.08,0-5a257,257,0,0,1-23-32.93v5a498.58,498.58,0,0,1,51.21,40.65c-.82-.74.83-4.17,0-5l-44.09-43.94v5l43.17,34.74c-.8-.65.69-4.12,0-5a321.19,321.19,0,0,0-47.53-49.22c.78.65-.6,4.06,0,5l18,28.4,8.48,13.36c2.52,4,6.52,8.51,6.63,13.48v-4.66c-.15.82-.27,2.08-1.09,2.53s-1.74-.56-2.7-1.26q-3.47-2.54-7-5-7.38-5.26-14.89-10.32-14.62-9.84-29.77-18.9c.68.4-.51,4.23,0,5,9.67,14.48,21.46,27.27,33.31,40v-5l-47.9-45.53c.83.79-.81,4.1,0,5l41.22,45.85v-5L816.3,724.18c.82.74-.77,4.11,0,5a410.8,410.8,0,0,1,34.62,46.89v-5a398.49,398.49,0,0,1-43.43-36.41c.83.8-.73,4,0,5a513.68,513.68,0,0,0,36,43.43v-5a576.11,576.11,0,0,1-42.28-43.6v5a158.31,158.31,0,0,1,28.94,40.23v-5l-36-28c.77.6-.58,4.1,0,5a373.07,373.07,0,0,0,28.32,37.87v-5q-22.12-20.29-42.26-42.6v5a231.36,231.36,0,0,1,36.4,47.1v-5a402.67,402.67,0,0,1-54.94-50.6c.82.91-.77,4,0,5l30.52,41v-5l-32.68-21c.69.45-.5,4.2,0,5a275.6,275.6,0,0,0,21.7,29.81c-.81-1,.83-4,0-5a275.6,275.6,0,0,1-21.7-29.81v5l32.68,21c-.73-.46.59-4.21,0-5l-30.52-41v5a402.67,402.67,0,0,0,54.94,50.6c-.73-.56.53-4.1,0-5a231.36,231.36,0,0,0-36.4-47.1c.83.82-.82,4.09,0,5q20.13,22.29,42.26,42.6c-.83-.76.78-4.09,0-5a373.07,373.07,0,0,1-28.32-37.87v5l36,28c-.71-.55.46-4.09,0-5a158.56,158.56,0,0,0-28.94-40.23c.83.84-.81,4.07,0,5a576.11,576.11,0,0,0,42.28,43.6c-.82-.76.82-4.12,0-5a512.1,512.1,0,0,1-36-43.43v5a398.49,398.49,0,0,0,43.43,36.41c-.73-.54.55-4.14,0-5a410.8,410.8,0,0,0-34.62-46.89v5l44.43,39.55c-.82-.73.79-4.12,0-5l-41.22-45.85v5l47.9,45.53c-.83-.78.82-4.12,0-5-11.85-12.7-23.64-25.49-33.31-40v5q17.17,10.3,33.72,21.58,8.25,5.64,16.35,11.54c2.29,1.67,4.19,4.26,5.23.41a10.51,10.51,0,0,0,.13-2.38c.23-8.93-5.77-15.57-10.38-22.83l-22.8-35.92v5a321.19,321.19,0,0,1,47.53,49.22v-5l-43.17-34.74c.82.65-.79,4.21,0,5l44.09,43.94v-5a498.58,498.58,0,0,0-51.21-40.65c.7.49-.5,4.16,0,5a257,257,0,0,0,23,32.93v-5q-24.42-22-47.22-45.77c.81.85-.85,4.11,0,5,12.6,13.19,25.4,26.36,41.34,35.54-.69-.39.55-4.26,0-5L827.83,684.7v5l71.09,51c-.52-.37.16-4.23,0-5-4.88-22.67-28.71-34-37.08-55v5l72.27,60.34c-.81-.68.75-4.12,0-5l-55-65.07v5q10.42,11.84,20.4,24,4.83,5.93,9.54,12c3.12,4,7.39,8.19,7.57,13.56v-4.91a3.66,3.66,0,0,1-.66,2c-.2.84-.59.87-1.16.07-1.19-.16-2.93-2-4-2.8l-8-5.61-15.2-10.66-31.2-21.87c.71.5-.5,4.15,0,5,12.21,20.52,28.43,38,44.66,55.4v-5l-44-46.33v5l42.27,40.8c-.83-.8.78-4.06,0-5L859.8,689.15v5a291.82,291.82,0,0,1,47.41,47v-5a477.77,477.77,0,0,1-48.71-57.29v5a639.9,639.9,0,0,1,60.75,54.32c-.82-.84.77-4,0-5a491.13,491.13,0,0,0-47.73-53.48c.82.79-.84,4.13,0,5L921.94,737v-5L866,674v5q26.22,24.15,49.94,50.79c-.81-.91.84-4.05,0-5Q888.42,693.6,863,660.62v5l60.49,55c-.79-.73.62-4,0-5a200.54,200.54,0,0,0-31.38-38.84c.83.8-.83,4.13,0,5L921.77,713c-.83-.87.78-4,0-5a77.18,77.18,0,0,0-15.58-15c.65.48-.38,4.15,0,5l6.71,15.29v-5a3.39,3.39,0,0,1-2.71-2.69l0,3.17v-1l0,1.84c1.34-3.34,4.65,2.48,4.76,4-.12-1.66.13-3.34,0-5Z"/><path class="cls-3" d="M598,119.5c.59-1.51,1-3.7,2-5q.84-3.45,1,.19c.17.93.32,1.87.47,2.8q.9,5.63,1.54,11.28.81,7,1.2,14.09c.11,1.89.19,3.78.26,5.68.05,1.6.9,12.24-.86,6.53-4.78-15.54-6.15-33.09-7.15-49.23v4.91a118.33,118.33,0,0,0,16.27,42.47c-.72-1.17.55-3.68,0-5a434.19,434.19,0,0,0-24.15-49.72c.58,1-.09,3.78,0,5a268.23,268.23,0,0,0,11.77,60.77c-.46-1.45.19-3.46,0-5a364.32,364.32,0,0,0-15.63-68.69c.37,1.13,0,3.07,0,4.27a176.38,176.38,0,0,0,4.59,39.11c1.16,4.87,7.66,36,17.14,28.9.43-.33.1-4.39,0-5q-4.5-26.58-9-53.14v5a170.53,170.53,0,0,1,20,46.73v-5a361.41,361.41,0,0,0-19.62-53.81c.44,1,0,3.2,0,4.27A281.08,281.08,0,0,0,605,163.3c-.36-1.56.25-3.39,0-5q-4.59-29.53-11.68-58.59c.38,1.56-.31,3.4,0,5l9.57,48.57c-.32-1.6.27-3.39,0-5a156.93,156.93,0,0,0-17.58-50.1v.09a353,353,0,0,0,5.06,79.9v-5L574,102.73c.36,1.56-.24,3.39,0,5,3.37,22.68,6.94,45.55,16.62,66.54-.55-1.18.1-3.66,0-5q-3.06-38.84-10-77.22c.29,1.6-.18,3.38,0,5a493.51,493.51,0,0,0,10,58.16c-.36-1.55.18-3.41,0-5l-6.6-59.28c.19,1.65-.17,3.35,0,5L591.28,166v-5l-15.53-34.79-7.56-17c-.35-.78-1.23-3.85-2-4.46-.41-1.43-.69-1.18-.84.76l-.39,1.67a75.31,75.31,0,0,0-1.43,8.43c-1.9,17,.53,34.46,8.4,49.76a3.48,3.48,0,0,1,0-.73,286,286,0,0,0-8.33-74.06c.37,1.44,0,3.42,0,4.91a259.45,259.45,0,0,0,13.07,74c-.47-1.42.17-3.49,0-5a160.64,160.64,0,0,0-17.6-56.76,8.73,8.73,0,0,1,0,2.5,193.19,193.19,0,0,0,9.05,60c-.47-1.45.23-3.46,0-5a390.74,390.74,0,0,0-15.64-64.87c0,.11,0,.23,0,.34-.47,23.49,2.42,46.5,10.14,68.78-.46-1.34.1-3.48,0-4.91a138.06,138.06,0,0,0-10.41-44.07c.51,1.22-.1,3.56,0,4.91a176.82,176.82,0,0,0,12.94,55.63c-.57-1.38.35-3.51,0-5a364.89,364.89,0,0,0-24.45-70.29c.52,1.12-.06,3.64,0,4.91a284.76,284.76,0,0,0,11.92,69.58c-.46-1.51.4-3.44,0-5a221.83,221.83,0,0,0-24.21-58.26,4.2,4.2,0,0,1,0,.73c-.25,21,3,41.33,11.52,60.7-.54-1.23.12-3.63,0-5a133.2,133.2,0,0,0-17.72-56.09c.41.71,0,2.95,0,3.77a137.36,137.36,0,0,0,12.51,57.23c-.52-1.11,0-3.64,0-4.91a131.88,131.88,0,0,0-16.19-58.86c.55,1-.09,3.72,0,4.91A308,308,0,0,0,533,195.48c-.48-1.46.26-3.46,0-5a652.35,652.35,0,0,0-20.63-85.65c.46,1.47-.24,3.45,0,5,1.88,12,3.76,24.06,7.19,35.75,2.33,8,5.63,21.61,15.83,22.37-.06,0,.09-4.56,0-5l-10.1-49.39c.33,1.59-.32,3.39,0,5A216,216,0,0,0,546.4,178v-.09c.8-21.84-2.9-43-13.29-62.39.59,1.1-.14,3.71,0,5a354.33,354.33,0,0,0,7,41.19q2.37,10.19,5.35,20.21c.13.46,1.13,5.32,1.67,5.45.73.18,2.48-1.4,2.9-1.84a12.56,12.56,0,0,0,2.76-6c1.26-5.57,1.13-11.63,1.4-17.29q.42-9.19.51-18.39c.11-10.93-.07-21.85-.6-32.77V116l8.16,41,1.94,9.76a54.51,54.51,0,0,0,1.16,5.85c.86,2.67.48,1.57.93-.76a163.54,163.54,0,0,0,2.47-19.21,181.66,181.66,0,0,0-5.45-59.83v.09c-.93,27.22,1.51,54.38,8.68,80.73q.74,2.7,1.53,5.39c.35,1.19.72,2.38,1.09,3.57l.37-1.86c1.54-3.63,1.52-9.27,1.91-13.16.6-6.1.83-12.21.88-18.33.12-13.34-.63-26.63-1.54-39.93v4.91l9.52,31.58c.39,1.3,4.27,16.3,4.91,16.27,1.9-.09,4.79-10.33,5.18-11.83,3.12-11.87,1.94-26-3.89-36.79v.09a350.79,350.79,0,0,0,0,51v-4.91a93.42,93.42,0,0,0-13.37-18.35c-4.63-4.91-10.2-10.55-16.47-13.3-16.25-7.14-19.33,18.26-21.39,28.38a244.08,244.08,0,0,0-3.79,25.23c-.16,1.64.22,5.46-.51,2-.49-2.31-.56-4.78-.9-7.12q-.84-5.77-2.06-11.48a184.48,184.48,0,0,0-16.65-46.28v.09c-.54,20.8,1.38,41.31,7,61.41-.42-1.5.21-3.44,0-5a176.54,176.54,0,0,0-17-56.09c.52,1.06,0,3.69,0,4.91a446.86,446.86,0,0,0,8.56,73.37v-5l-20.76-64.36c.46,1.45-.22,3.47,0,5A540.72,540.72,0,0,0,507.79,198c-.42-1.55.33-3.42,0-5a640.09,640.09,0,0,0-17.85-66.31c.47,1.45-.23,3.47,0,5a424.89,424.89,0,0,0,16,68.13c-.48-1.48.3-3.46,0-5a109.18,109.18,0,0,0-11-31.07,107.67,107.67,0,0,0-8.94-13.89c-.83-1.1-1.69-2.18-2.56-3.24-1.4-1.7-1.08-2.58-1.79-.08-.6,2.13-.41,5.17-.5,7.39-.81,19.44,1.57,38.65,8.22,57-.49-1.37.16-3.53,0-5a240.42,240.42,0,0,0-14.61-60.13c.52,1.37-.24,3.51,0,5a183.25,183.25,0,0,0,19.28,57.51c-.68-1.29.67-3.66,0-5q-14.62-29.65-26.73-60.45c.53,1.34-.19,3.54,0,5a126.67,126.67,0,0,0,25.24,61c-.68-.89.28-3.84,0-5-3.14-12.71-9-24.35-15.83-35.45-3.19-5.19-6.35-11.67-10.53-16.13s-6.24,0-6.36,4c-.62,19.86,10.55,40.58,23.44,55-.76-.84.47-3.88,0-5a256.63,256.63,0,0,0-32.19-55.86c.67.89-.28,3.84,0,5a112.21,112.21,0,0,0,26.62,50.25c-.82-.89.72-3.93,0-5a387.76,387.76,0,0,0-38.28-47.81c.7.74-.32,3.94,0,5a133.43,133.43,0,0,0,35.46,57.32c-.79-.76.59-4,0-5A187.94,187.94,0,0,0,436.54,163c.68.6-.35,4,0,5a98.87,98.87,0,0,0,32.73,44.85c-.8-.61.82-4.32,0-5L413,161.41c.69.57-.4,4.06,0,5a122,122,0,0,0,42.19,51.82c-.77-.54.69-4.2,0-5L419,171.6c.81.94-.82,4,0,5a220.73,220.73,0,0,0,48.46,44.61c-.78-.52.7-4.24,0-5a330.21,330.21,0,0,0-51.13-44.87c.61.43-.31,4.17,0,5a88.37,88.37,0,0,0,34.46,43.19,85,85,0,0,0,8.44,4.85c.8.4,3.38,2.15,4.07,1.91.88-.31,1.57-3.45,1.72-4.13,1.85-8.48-1.37-17.07-5.76-24.16-8.43-13.62-17.49-26.9-26.24-40.33.76,1.16-.65,3.72,0,5q12.9,25.28,27.7,49.51v-5a175.59,175.59,0,0,1-32.25-46.87v5a189.9,189.9,0,0,0,27.44,26.94c3.79,3,21.88,19.09,22.69,6.58.53-8.13-3.74-16.09-7.41-23.09a109.19,109.19,0,0,0-22.37-29.1c.69.64-.35,4,0,5a389.24,389.24,0,0,0,26,58.39c-.7-1.27.62-3.65,0-5l-23-49.92v5l24.7,34.25,6.31,8.77c1.33,1.84,2.74,4.66,4.8,5.83,3.65,2.08,5.13-1.43,5.33-4.46.53-8.09-2.81-15.37-5.56-22.85-4.72-12.8-10-25.36-15.86-37.7v5l26.09,54.41c-.63-1.33.45-3.57,0-5-6.57-21.1-13.08-42.25-17-64v5a263.62,263.62,0,0,1,27.22,44.18c-.6-1.23.23-3.62,0-5a209,209,0,0,0-11.7-42.11c.57,1.43-.54,3.53,0,5a230.1,230.1,0,0,0,10.94,25.05c2,3.79,4,7.52,6.15,11.19.77,1.32,1.64,3.65,2.83,4.68.84,2.16,1.31,2.06,1.43-.3.29-1.24.57-2.48.84-3.73,2.88-13.41,3.63-27,3.36-40.67l0,4.65a179,179,0,0,1,13,36.06v-5A173.53,173.53,0,0,0,519.9,143.5c.64,1-.22,3.75,0,5l8.45,47.73v-5L493,143.93c.56.74-.05,3.92,0,4.91A155.57,155.57,0,0,0,506.3,204.9v-5a483,483,0,0,1-30.37-41.74q-3.57-5.4-7.07-10.82l-3-4.65c.16.25-2-3.11-2-3.1-.34.18-.51,2.58-.58,3a71.2,71.2,0,0,0-.57,11.77c.12,13.3,4.42,25.84,8.15,38.46a123.16,123.16,0,0,1,4.77,21.1c.38,3.45.89,7.7-.59,11.48-.6,1.52.37,1.35-.87.68-.53-.28-1.23-1.89-1.57-2.4-1.39-2.14-2.77-4.29-4.16-6.44q-16.56-25.78-32-52.24c.65,1.11-.29,3.68,0,5,4.83,22.41,12.38,44.05,20,65.64v-5l-36.8-50.74c.67.92-.25,3.82,0,5A173.59,173.59,0,0,0,441.81,240c-.74-1.19.71-3.74,0-5a280.66,280.66,0,0,0-36.26-49.9c.77.85-.51,3.89,0,5A486.12,486.12,0,0,0,438,249.66c-.75-1.17.67-3.72,0-5A308.63,308.63,0,0,0,406.82,197c.79,1-.61,3.81,0,5a103.79,103.79,0,0,0,25.07,31.63c-.8-.69.85-4.28,0-5A103.79,103.79,0,0,1,406.82,197v5A308.63,308.63,0,0,1,438,249.66v-5a486.12,486.12,0,0,1-32.46-59.57v5A280.66,280.66,0,0,1,441.81,240v-5a173.59,173.59,0,0,1-22.2-55.09v5l36.8,50.74c-.73-1,.44-3.76,0-5-7.62-21.59-15.17-43.23-20-65.64v5q13.54,23.13,27.91,45.79c2.22,3.5,4.47,7,6.72,10.48.44.68,3.57,5.67,3.66,5.62.72-.39,1-5.24,1.05-6a82.8,82.8,0,0,0,.28-10.45c-.26-13.46-4.84-26.18-8.57-39-2.07-7.13-4-14.4-4.53-21.83a31.59,31.59,0,0,1,.35-7.07,7.13,7.13,0,0,1,.42-2.25c.81-1,.2-.23,1.16.8,2.94,3.18,5.14,8,7.52,11.62C483,174,493.94,190,506.3,204.9c-.77-.93.52-3.83,0-5A155,155,0,0,1,493.05,144v4.91l35.31,47.3c-.65-.86.2-3.87,0-5L519.9,143.5v5a173.53,173.53,0,0,1,14.75,29.84c-.54-1.43.37-3.49,0-5a179,179,0,0,0-13-36.06c.5,1,0,3.5,0,4.66a135.67,135.67,0,0,1-2.23,25.75c-.51,2.89-.74,6.65-1.94,9.34,0,2.07-.36,2.43-1,1.08l-1.44-2.33c-.79-1.3-1.57-2.6-2.33-3.92a227.11,227.11,0,0,1-16.63-35.45v5a209,209,0,0,1,11.7,42.11v-5a263.62,263.62,0,0,0-27.22-44.18c.64.85-.2,3.88,0,5,3.95,21.77,10.46,42.92,17,64v-5L471.57,144c.64,1.34-.65,3.63,0,5q6.56,13.88,12.21,28.15Q486.51,184,489,191c1.5,4.21,3.52,8.59,4,13.06l0-1.84v1.16l0-3.17c-.51,4.59-4,5.5-7.07,2.06-4.14-4.6-7.45-10.29-11.08-15.32l-23-31.86c.77,1.06-.57,3.75,0,5l23,49.92v-5a389.24,389.24,0,0,1-26-58.39v5a109.81,109.81,0,0,1,18.28,22c4.78,7.62,9.93,16.78,11.49,25.74v-4.91c-.44,12.12-21.72-6.4-24.72-8.86a190.8,190.8,0,0,1-25.39-25.29c.78.93-.55,3.83,0,5a175.59,175.59,0,0,0,32.25,46.87c-.81-.85.65-3.94,0-5Q445.91,183,433,157.67v5l22.22,34.12c3.39,5.22,7.14,10.43,9,16.43.68,2.16,1.3,4.71-.21,6.73-1.32,1.77-1.44,1.07-3.49.09-1.12-.54-2.24-1.11-3.34-1.7a88.73,88.73,0,0,1-40.9-47v5a330.21,330.21,0,0,1,51.13,44.87v-5A220.73,220.73,0,0,1,419,171.6v5l36.16,41.63v-5A122,122,0,0,1,413,161.41v5l56.32,46.46v-5A98.87,98.87,0,0,1,436.54,163v5a187.94,187.94,0,0,1,38.4,47.16v-5a133.43,133.43,0,0,1-35.46-57.32v5a387.76,387.76,0,0,1,38.28,47.81v-5a112.21,112.21,0,0,1-26.62-50.25v5a256.63,256.63,0,0,1,32.19,55.86v-5c-12.31-13.73-21.75-31.9-23.43-50.49l0,4.66c0-1.95.45-4.83,2.9-5.12s4.1,2.87,5.25,4.58c3.49,5.18,6.89,10.42,10.1,15.78,6.24,10.41,11.52,21.33,14.44,33.16v-5a126.67,126.67,0,0,1-25.24-61v5q12.09,30.78,26.73,60.45v-5a183.25,183.25,0,0,1-19.28-57.51v5A240.42,240.42,0,0,1,489.43,211v-5a138.12,138.12,0,0,1-6.82-26.54,113.22,113.22,0,0,1-1.39-20.64c0-.66.07-8.9.68-9s3.25,3.95,3.66,4.48A108.3,108.3,0,0,1,506,199.85v-5a424.89,424.89,0,0,1-16-68.13v5A640.09,640.09,0,0,1,507.79,198v-5a540.72,540.72,0,0,1-13.22-65.09v5l20.76,64.36c-.48-1.48.31-3.45,0-5a446.86,446.86,0,0,1-8.55-73.19V124a176.54,176.54,0,0,1,17,56.09v-5a192.6,192.6,0,0,1-5.17-24.2q-.82-5.67-1.29-11.36c-.2-2.49-.45-5-.46-7.52a22.14,22.14,0,0,1,.34-4.37c.67-4,.68-2,1.62,0a181.92,181.92,0,0,1,15,44c.72,3.52,1.32,7.06,1.83,10.61q.38,2.67.67,5.34c0,.19.2,2.66.28,2.68s.3-3.47.33-3.77a242.88,242.88,0,0,1,3.6-24.3c1.77-8.88,4-32.39,17.74-30.47,7.39,1,14.21,8.19,19.18,13.29A93.19,93.19,0,0,1,592,164.55c-.56-1,.1-3.72,0-4.91-.41-5.67-.74-11.36-.81-17,0-.83-.9-22.06,1.13-22.59,1.63-.43,3.84,8.84,4.17,10.53a32.43,32.43,0,0,1-.77,15.41c-.43,1.52-3.22,11-5,11.09-.59,0-4.21-13.93-4.62-15.31l-9.81-32.54c.42,1.4-.11,3.44,0,4.91,1.33,19.6,2.63,39.32-.72,58.79a22.4,22.4,0,0,1-.52,2.81c-.43,1.39.33,2.14-.65,1s-1.19-4-1.59-5.37c-1.1-3.9-2.12-7.82-3-11.76q-2.64-11.39-4.23-23c-1.13-8.3-1.87-16.66-2.17-25-.12-3.48-1.14-16.07.71-11.09a40.53,40.53,0,0,1,1.29,5.38q1.29,5.85,2.15,11.8a142.14,142.14,0,0,1,1.29,30q-.4,6-1.25,11.89-.39,2.73-.88,5.46a27.16,27.16,0,0,1-.5,2.72c-.62,2.11-.17,1.85-.76-.14-2.67-9.1-3.77-19-5.63-28.29L554.13,111c.3,1.52-.08,3.35,0,4.91a438.65,438.65,0,0,1-.17,46.44c-.28,4.78-.08,10.08-1.82,14.62a9.92,9.92,0,0,1-2.49,4c-.41.36-1.33,1.26-1.93,1.23-1.11,0-1.28-2.12-1.67-3.41a353,353,0,0,1-12.93-63.22v5a113,113,0,0,1,10.14,26.13,109.69,109.69,0,0,1,2.51,13.82c.31,2.66,1.19,6.07.66,8.66-1,4.83-2.08-.05-2.93-1.76a213.72,213.72,0,0,1-18.22-53.83v5L535.38,168v-5c-10.2-.76-13.5-14.4-15.83-22.37-3.43-11.69-5.31-23.74-7.19-35.75v5A652.35,652.35,0,0,1,533,195.48v-5a307.54,307.54,0,0,1-14.55-75.76v4.91a131.52,131.52,0,0,1,16.18,58.68V173.4a132.59,132.59,0,0,1-12.46-54.76l0,3.76a133.2,133.2,0,0,1,17.72,56.09v-5A136.43,136.43,0,0,1,531,145.91q-1.28-6.22-1.94-12.55c-.14-1.3-1.64-7.9-.64-9,1.55-1.64,2.77,2.53,3.55,3.93a219.55,219.55,0,0,1,20.59,52v-5a283.87,283.87,0,0,1-11.9-69.4v4.91a364.89,364.89,0,0,1,24.45,70.29v-5a176,176,0,0,1-12.92-55.45v4.91a137.79,137.79,0,0,1,10.4,43.89v-4.91a185.3,185.3,0,0,1-7.53-28.84c-.85-4.9-1.5-9.84-1.94-14.79a78.8,78.8,0,0,1-.58-9.21c.26-9,1.19-2.49,2,.07a387.37,387.37,0,0,1,13.56,58.52v-5a178.79,178.79,0,0,1-9-55l0,2.5a160.64,160.64,0,0,1,17.6,56.76v-5a259.26,259.26,0,0,1-13.06-73.81v4.91A270.7,270.7,0,0,1,571,138.81q.53,6.13.76,12.27c0,1.25.46,7.31-.6,7.86,0,0-1.87-4.05-2.13-4.67a77.86,77.86,0,0,1-5.17-18.94,62.72,62.72,0,0,1,.93-22.23c.18-.83.37-1.67.58-2.5.15-1.94.43-2.19.84-.76.95.76,1.46,3.26,2,4.46L573,125l18.31,41c-.55-1.23.14-3.62,0-5l-7.23-70.11v5l6.6,59.28v-5a493.51,493.51,0,0,1-10-58.16v5q6.9,38.36,10,77.22v-5c-9.68-21-13.25-43.86-16.62-66.54v5l16.35,70.44c-.37-1.57.29-3.4,0-5-1.74-9.5-3.1-19.07-4-28.69q-.81-8.61-1.16-17.25c-.1-2.49-.18-5-.22-7.47,0,.92-.63-14.34.25-14.74,2.47-1.12,10.17,19.86,11.07,22.44a157.21,157.21,0,0,1,6.6,25.82v-5l-9.57-48.57v5q7.08,29,11.68,58.59v-5a274.6,274.6,0,0,1-7.18-60l0,4.26a361.41,361.41,0,0,1,19.62,53.81c-.42-1.54.41-3.44,0-5a170.53,170.53,0,0,0-20-46.73c.64,1-.21,3.75,0,5q4.5,26.56,9,53.14v-5c-8.79,6.58-14.51-18.92-15.77-23.53a169.9,169.9,0,0,1-5.93-43v4.27a364.32,364.32,0,0,1,15.63,68.69v-5a268.23,268.23,0,0,1-11.77-60.77v5a434.19,434.19,0,0,1,24.15,49.72v-5a118.33,118.33,0,0,1-16.27-42.47c.27,1.55-.11,3.33,0,4.91a300.8,300.8,0,0,0,8.06,53.14v-.09c.21-8.55.18-17.13-.29-25.68q-.48-8.56-1.55-17.09c-.44-3.45-.94-6.89-1.52-10.32-.33-2,.35-3.67-1.14-1.12a35.94,35.94,0,0,0-2,5c-.57,1.46.56,3.57,0,5Z"/><path class="cls-3" d="M436.8,244.59a49,49,0,0,0-20.73-22c.72.39-.69,4.36,0,5l18.5,17.15v-5a440.43,440.43,0,0,1-44.29-27.57v5a556.83,556.83,0,0,1,48.25,30.17v-5L402.4,217.92v5l47.8,24c-.69-.35.69-4.47,0-5l-59.61-46.22v5c16.1,7,32.22,14,48.87,19.57-.5-.17.47-4.47,0-5a106.1,106.1,0,0,0-38.54-27.4c.62.26-.63,4.5,0,5a567.17,567.17,0,0,1,45.41,40v-5l-54.88-19.78c.57.21-.61,4.58,0,5l49.93,34.58v-5l-57.74-25.6c.65.29-.65,4.51,0,5l46.54,35v-5l-55.49-27.22c.68.33-.69,4.48,0,5l49.25,37.3v-5l-50.43-18.88c.58.22-.63,4.63,0,5q23.76,14.22,46.71,29.75v-5l-54.16-21.89c.61.24-.65,4.6,0,5q22.67,13.89,44,29.71v-5A494.09,494.09,0,0,1,356.36,255v5q25.8,13.56,50.25,29.46v-5l-50.12-13.69c.48.13-.53,4.62,0,5l46.15,33.41v-5l-59.89-24c.6.24-.65,4.59,0,5l46.27,29v-5l-52.47-20.7c.59.24-.64,4.62,0,5L385,322.29v-5a336.17,336.17,0,0,0-49.78-21.5c.55.19-.59,4.63,0,5l49.12,29.95v-5l-49.46-18.52c.58.21-.63,4.62,0,5l50.06,30.27v-5l-45.81-15c.54.17-.58,4.6,0,5l33.67,23.43v-5l-50.59-19c.58.22-.63,4.64,0,5l38.47,22.16v-5l-40.46-18.87v5a286.82,286.82,0,0,1,39.29,18v-5a240.7,240.7,0,0,0-49.76-18.23c.46.12-.5,4.63,0,5l36.57,27.08c-.78-.57.82-4.39,0-5L309.7,330.06v5a240.7,240.7,0,0,1,49.76,18.23c-.65-.33.71-4.61,0-5a286.82,286.82,0,0,0-39.29-18c.54.2-.62,4.71,0,5l40.46,18.87c-.64-.3.69-4.61,0-5L322.16,327v5l50.59,19c-.59-.22.61-4.57,0-5L339.08,322.5v5l45.81,15c-.53-.18.59-4.64,0-5l-50.06-30.27v5l49.46,18.52c-.59-.22.62-4.62,0-5l-49.12-29.95v5A336.17,336.17,0,0,1,385,322.29c-.69-.36.73-4.56,0-5l-48.4-28.83v5L389,314.16c-.6-.24.64-4.6,0-5l-46.27-29v5l59.89,24c-.61-.25.63-4.55,0-5l-46.15-33.41v5l50.12,13.69c-.48-.13.54-4.65,0-5q-24.44-15.9-50.25-29.46c.66.35-.73,4.6,0,5a494.09,494.09,0,0,0,53.73,25.88c-.62-.25.63-4.53,0-5q-21.36-15.81-44-29.71v5L420.22,278c-.61-.25.64-4.57,0-5q-22.94-15.53-46.71-29.75v5l50.43,18.88c-.59-.22.6-4.54,0-5l-49.25-37.3v5l55.49,27.22c-.68-.34.69-4.48,0-5l-46.54-35v5l57.74,25.6c-.64-.29.67-4.54,0-5l-49.93-34.58v5l54.88,19.78c-.55-.19.53-4.48,0-5a567.17,567.17,0,0,0-45.41-40v5a106.1,106.1,0,0,1,38.54,27.4v-5c-16.65-5.6-32.77-12.56-48.87-19.57.64.28-.64,4.5,0,5L450.2,247v-5l-47.8-24c.68.34-.71,4.52,0,5l36.13,24.44c-.76-.51.8-4.44,0-5a556.83,556.83,0,0,0-48.25-30.17c.72.4-.74,4.47,0,5a440.43,440.43,0,0,0,44.29,27.57c-.71-.39.68-4.38,0-5l-18.5-17.15v5a49,49,0,0,1,20.73,22c-.64-1.34.66-3.63,0-5Z"/><path class="cls-3" d="M435.14,242.89c-.12,1.32-.81,5.25.34,6,2.9,1.84,2.49-4.46,2.31-5.59-.43-2.65-2.23-3.39-4.51-4.61-3.87-2.06-7.82-4-11.77-5.91q-11.88-5.7-24.1-10.62c.6.24-.65,4.64,0,5l37.91,21.16v-5a603.4,603.4,0,0,0-66.18-29.84c.58.22-.63,4.64,0,5l66.83,38v-5l-74.73-21c.49.14-.55,4.69,0,5l67.5,38.27v-5l-79.07-23.65c.49.15-.56,4.74,0,5l56.47,26.82v-5l-59.75-21.78v5A363.53,363.53,0,0,1,402,280.68v-5l-53.67-12.25c.43.1-.51,4.72,0,5l69.16,37.67v-5l-84.06-21.9c.47.12-.53,4.66,0,5l51.84,33.5v-5L331,298c.48.13-.54,4.68,0,5l43.58,26.05v-5l-37.83-4.77c.28,0-.36,4.63,0,5,14,14.58,37.86,16.81,48.48,34.91v-5l-64.13-14.55c.42.09-.5,4.77,0,5A634.1,634.1,0,0,1,379,374.86v-5a442,442,0,0,1-57.59-14.17c.49.16-.56,4.77,0,5L350,372.35v-5a194.66,194.66,0,0,1-46.67-14.55v5q26.52,5.1,52.53,12.49c-.47-.14.55-4.75,0-5a259.83,259.83,0,0,0-51.8-17.77c.41.09-.5,4.78,0,5l73,32.2v-5l-74.83-17.9c.39.09-.47,4.84,0,5q28.88,9.6,57,21.2v-5l-72.42-16.5c.42.09-.5,4.75,0,5l82.94,39.65v-5a220.46,220.46,0,0,1-56.3-13.41v5q20.81,7.49,41,16.6v-5a269.61,269.61,0,0,0-51-10.41c.27,0-.39,4.85,0,5q26.2,10.73,53.28,19c-.44-.14.5-4.85,0-5l-51.84-16.34c.49.15-.56,4.76,0,5L370,434.13v-5l-69-13.05c.39.07-.47,4.66,0,5,17.17,12.32,36.52,20.8,55.84,29.12v-5q-28-7.08-56.47-11.6c.35,0-.45,4.77,0,5l42.18,21.13v-5L303,450.92c.29,0-.4,4.76,0,5a284.85,284.85,0,0,0,39.62,19.79v-5c-15.95-3-32-5.93-48.29-4.8.1,0-.29,4.85,0,5Q320,484.61,346,497.61v-5c-18.43-4.2-36.95-8.29-56-8.11.15,0-.3,4.86,0,5l67.44,29.37v-5l-51.75-4.18c-4.1-.33-12.59-1.54-14.54,3.62-.75,2-.24,4.78-.17,6.85,0-1.19.06-3.3,0-4.82l0-1v4.91c.82-3.74,5.12-4.73,8.48-4.89,6-.3,12.24.83,18.2,1.31l39.81,3.22c-.25,0,.38-4.84,0-5L290,484.5v5c19-.18,37.53,3.91,56,8.11-.43-.1.5-4.75,0-5q-26-13-51.7-26.7v5c16.31-1.13,32.34,1.76,48.29,4.8-.36-.07.46-4.81,0-5A284.85,284.85,0,0,1,303,450.92v5l39.61,3.81c-.27,0,.4-4.8,0-5L300.39,433.6v5q28.49,4.51,56.47,11.6c-.44-.11.52-4.77,0-5-19.32-8.32-38.67-16.8-55.84-29.12v5l69,13.05c-.37-.07.46-4.8,0-5l-65.13-27.49v5L356.7,423v-5q-27.07-8.31-53.28-19v5a269.61,269.61,0,0,1,51,10.41c-.5-.15.56-4.74,0-5q-20.15-9.12-41-16.6c.51.18-.58,4.78,0,5a220.46,220.46,0,0,0,56.3,13.41c-.28,0,.4-4.81,0-5l-82.94-39.65v5L359.24,388c-.4-.09.49-4.8,0-5q-28.14-11.59-57-21.2v5l74.83,17.9c-.42-.11.51-4.78,0-5l-73-32.2v5a259.83,259.83,0,0,1,51.8,17.77v-5q-26-7.38-52.53-12.49c.37.07-.47,4.78,0,5A194.66,194.66,0,0,0,350,372.35c-.35-.07.45-4.82,0-5l-28.59-11.66v5A442,442,0,0,0,379,374.86c-.37-.07.47-4.73,0-5a634.1,634.1,0,0,0-57.93-30.21v5l64.13,14.55c-.31-.07.29-4.51,0-5-10.62-18.1-34.52-20.33-48.48-34.91v5l37.83,4.77c-.32,0,.43-4.75,0-5L331,298v5l54.33,14.69c-.49-.13.53-4.65,0-5l-51.84-33.5v5l84.06,21.9c-.46-.12.54-4.71,0-5l-69.16-37.67v5L402,280.68c-.43-.1.51-4.72,0-5a363.53,363.53,0,0,0-55.65-25.57c.5.18-.57,4.79,0,5l59.75,21.78c-.55-.2.61-4.71,0-5l-56.47-26.82v5l79.07,23.65c-.51-.15.57-4.67,0-5l-67.5-38.27v5l74.73,21c-.49-.14.55-4.69,0-5l-66.83-38v5a603.4,603.4,0,0,1,66.18,29.84c-.67-.35.72-4.6,0-5l-37.91-21.16v5c7.56,3.06,15,6.31,22.4,9.81q5.1,2.43,10.13,5c2.61,1.34,7.27,2.73,7.83,6v-5a1.6,1.6,0,0,1-2.69.54v5l.06-.6c.15-1.66-.15-3.35,0-5Z"/><path class="cls-3" d="M373.86,304.18a108.9,108.9,0,0,0-43.68.16,34.76,34.76,0,0,0,0,5,379,379,0,0,0,55.66,21.6v-5c-23.49,7.32-48.54-5.5-71.66,3.84a27.83,27.83,0,0,0,0,5,432.75,432.75,0,0,0,43.36,19v-5l-40.9-2.38c-6.49-.38-13-.87-19.48-1.13-4.6-.19-9.73-.11-12.42,4.21a29.73,29.73,0,0,0,0,5l65.85,15.36v-5a446.72,446.72,0,0,0-66.43-2.73c.09,0-.23,4.93,0,5l40.74,12.14,19.89,5.93c5.43,1.62,11,3.1,14.44,7.9v-5l-65,.22c.12,0-.25,4.93,0,5l59.79,17.31v-5l-74.24-1.91c.14,0-.27,4.93,0,5l73.82,20.16v-5a707.58,707.58,0,0,0-70.74-7c.17,0-.28,4.92,0,5q38.52,10.42,77.81,17.59v-5l-86.59-9.37c.22,0-.31,4.92,0,5l75.95,18v-5l-60.73.53c.13,0-.27,4.9,0,5l64.93,22.15v-5a686.36,686.36,0,0,1-69.86-5.85c.24,0-.32,4.93,0,5l70.65,15.68v-5l-78.46-6.43c.2,0-.3,4.92,0,5L358,495.25v-5l-70.53-5.11c.21,0-.32,4.91,0,5l70.78,21.53v-5l-57.08-3.34c.19,0-.3,4.91,0,5l66.19,19.43v-5c-21,7.7-43.67-3.53-64.66,4.25a30.91,30.91,0,0,0,0,5,289.31,289.31,0,0,0,62.7,16v-5l-68.48-5.36c.23,0-.36,4.87,0,5l44.48,16.53c7.4,2.75,14.95,5.25,22.24,8.26,4.62,1.91,10.18,5.12,10.95,10.53V573.1c-.32,4.53-4.35,5.8-8.15,6.62-5.34,1.15-10.73,2.11-16.1,3.13q-15.63,3-31.33,5.59c-.31,0,.24,5,0,5q22.35-3.78,44.59-8.16c4.69-.93,10.49-1.6,11-7.35a19.53,19.53,0,0,0-.17-6c-1.23-5.1-7.28-8.09-11.71-9.78-7.08-2.71-14.21-5.28-21.32-7.92l-44.48-16.53v5l68.48,5.36c-.13,0,.22-5,0-5a289.31,289.31,0,0,1-62.7-16v5c21-7.78,43.65,3.45,64.66-4.25a33.38,33.38,0,0,0,0-5l-66.19-19.43v5l57.08,3.34c-.19,0,.31-4.91,0-5l-70.78-21.53v5L358,495.25c-.19,0,.29-4.92,0-5L276.6,469.18v5l78.46,6.43c-.18,0,.28-4.94,0-5l-70.65-15.68v5a686.36,686.36,0,0,0,69.86,5.85c-.18,0,.31-4.9,0-5l-64.93-22.15v5l60.73-.53c-.09,0,.23-4.94,0-5l-75.95-18v5l86.59,9.37c-.19,0,.27-4.95,0-5q-39.27-7.15-77.81-17.59v5a707.58,707.58,0,0,1,70.74,7c-.28,0,.37-4.9,0-5l-73.82-20.16v5l74.24,1.91c-.15,0,.28-4.92,0-5l-59.79-17.31v5l65-.22c-.12,0,.26-4.64,0-5-3.47-4.79-9-6.28-14.44-7.9l-19.89-5.93-40.74-12.14v5a446.72,446.72,0,0,1,66.43,2.73c-.22,0,.32-4.92,0-5L284.74,349.5v5c2.56-4.11,7.34-4.38,11.78-4.24,6.7.21,13.42.77,20.12,1.16l40.9,2.38c-.21,0,.34-4.88,0-5a432.75,432.75,0,0,1-43.36-19v5c23.12-9.34,48.17,3.48,71.66-3.84a34.77,34.77,0,0,0,0-5,379,379,0,0,1-55.66-21.6v5a108.9,108.9,0,0,1,43.68-.16c-.29-.06.35-4.93,0-5Z"/><path class="cls-3" d="M363.94,490q-36.31,1.77-72.35,6.79v5a334.07,334.07,0,0,1,45.52-4.44v-5q-31.08,8.49-61.49,19.22a30.91,30.91,0,0,0,0,5c22.07,8.91,45.81-2.73,68.45,2.52v-5a372.16,372.16,0,0,0-59.89,21.53,29.81,29.81,0,0,0,0,5c24.91,8.1,51.2-2.74,76.32,4v-5c-17.72,14.88-44.72,13.08-60.41,30.89-.36.41.28,5,0,5q29.66-3.27,59.44-5.08v-5c-11.94,7.61-24.91,13.2-37.92,18.69-.41.18.31,5,0,5L372,583.37v-5a650.72,650.72,0,0,0-71,31.72c-.47.24.36,4.94,0,5a182.32,182.32,0,0,0,58-19.4c.55-.29-.49-4.87,0-5l-32.28,8.55c-4.53,1.2-18.59,7-20.36-.89v5A205.24,205.24,0,0,0,346,566.27c.29-.36-.11-5,0-5-15.12-.73-29.32,4.34-43.27,9.55v5l58.21-28.43c.58-.28-.52-4.84,0-5a277.25,277.25,0,0,0-36.21,14q-8.58,4-16.87,8.67c-4.18,2.34-9.27,4.84-9.73,10.14-.11,1.29-.44,3.65,0,4.86.79,2.15.29.92,2.21,1,1.66.1,4.15-.68,5.79-1q4.83-.82,9.64-1.71,21.18-3.9,42.11-8.94v-5L326,588.18c-3.88,2.89-10.51,6.2-12.28,11.05a16,16,0,0,0-.43,6.29c.06.87-.11,1.86.64,2.54,1.23,1.12,7.06-1.47,8.84-2l18.88-5.51,38.71-11.31v-5c-17.27,14.66-37.42,25-57.51,35.17-.5.25.4,4.93,0,5,23-4.37,45.26-11.88,67.4-19.46v-5l-76.55,41.2c-.63.34.58,4.79,0,5l69.06-25.81v-5A214.92,214.92,0,0,1,330,640.62v5L389,612.94c.71-.39-.65-4.69,0-5A311.78,311.78,0,0,0,342.18,636c-.58.42.55,4.82,0,5a616.15,616.15,0,0,0,64.51-24.69v-5q-34.14,19.59-66.87,41.46c-.6.4.55,4.83,0,5a283.27,283.27,0,0,0,58.69-26.51v-5a403.86,403.86,0,0,1-56.46,34c-.67.33.62,4.72,0,5a310.25,310.25,0,0,0,53.11-30.8c.73-.53-.72-4.62,0-5A337.93,337.93,0,0,0,346,661.79c-.57.45.54,4.83,0,5a279.65,279.65,0,0,0,64.5-30v-5l-64.31,40.55c-.7.44.66,4.69,0,5l72.64-34.07v-5l-59,42.36c-.59.42.55,4.82,0,5,21.52-7,41.27-18,60.9-29.15.73-.41-.68-4.63,0-5l-63.91,34.74v5A457.38,457.38,0,0,1,431.3,648v-5a434.44,434.44,0,0,0-57.82,45c-.59.54.6,4.76,0,5l55.32-21.75v-5c-8,19.33-30.69,26.22-40.5,44.29-.33.61.44,4.84,0,5a324.87,324.87,0,0,0,63.14-30.62v-5q-28.05,17.69-57.26,33.36v5c13.15-18.16,39.37-27.44,45-50.72.15-.62-.35-4.86,0-5a639,639,0,0,0-59.16,28v5C393.18,682,406.37,668.18,414.67,651c.34-.7-.52-4.75,0-5a401.75,401.75,0,0,0-67.26,40.72v5a200.83,200.83,0,0,1,53-32.62l0-4.27c-.22,19.27-22.16,30.93-21.39,50.25.42,10.7,15.46,1.77,20.51-.61a192.52,192.52,0,0,0,33.11-19.94v-5a480.6,480.6,0,0,0-47.57,41c-.76.74.79,4.45,0,5L452.2,679v-5l-59.28,51.81c-.73.64.76,4.55,0,5l62.9-37.46v-5l-43.66,37.55c-.7.6.71,4.63,0,5l54.62-28.6v-5L425.66,735.2c-.8.73.8,4.39,0,5l48.49-36.62v-5a519.14,519.14,0,0,0-61.18,60,16.43,16.43,0,0,0,0,5,16.15,16.15,0,0,0,15,3.67c.41-.1-.35-4.92,0-5a16.15,16.15,0,0,1-15-3.67v5a519.14,519.14,0,0,1,61.18-60c.82-.68-.8-4.4,0-5L425.66,735.2v5l41.12-37.87c.68-.62-.71-4.62,0-5l-54.62,28.6v5l43.66-37.55c.74-.63-.76-4.55,0-5l-62.9,37.46v5L452.2,679c.78-.69-.79-4.46,0-5l-67.14,46.45v5a480.6,480.6,0,0,1,47.57-41c.82-.61-.78-4.42,0-5a193.35,193.35,0,0,1-28.36,17.63c-4.63,2.34-22.71,13.66-25.24,4.76v4.91c.34-9.66,8.37-18.6,13.4-26.29,4.49-6.86,7.9-13.84,8-22.17,0-.46-.27-4.16,0-4.27a200.83,200.83,0,0,0-53,32.62c-.81.69.79,4.4,0,5A401.75,401.75,0,0,1,414.67,651v-5c-8.3,17.2-21.49,31-34.66,44.59-.65.67.71,4.62,0,5a639,639,0,0,1,59.16-28v-5c-5.61,23.28-31.84,32.57-45,50.72-.53.74.66,4.65,0,5q29.2-15.67,57.26-33.36c.77-.48-.73-4.54,0-5a324.87,324.87,0,0,1-63.14,30.62v5c9.81-18.07,32.5-25,40.5-44.29.26-.63-.42-4.83,0-5L373.48,688v5a434.44,434.44,0,0,1,57.82-45c.69-.45-.66-4.69,0-5a457.38,457.38,0,0,0-74.44,43.24c-.74.52.72,4.61,0,5l63.91-34.74v-5c-19.63,11.1-39.38,22.14-60.9,29.15v5l59-42.36c.69-.5-.68-4.69,0-5l-72.64,34.07v5l64.31-40.55c.78-.49-.72-4.54,0-5a279.65,279.65,0,0,1-64.5,30v5a337.93,337.93,0,0,1,49.16-32.35v-5a310.25,310.25,0,0,1-53.11,30.8v5a403.86,403.86,0,0,0,56.46-34c.77-.55-.73-4.56,0-5a283.27,283.27,0,0,1-58.69,26.51v5q32.71-21.85,66.87-41.46c.68-.39-.64-4.71,0-5A616.15,616.15,0,0,1,342.18,636v5A311.78,311.78,0,0,1,389,612.94v-5L330,640.62c-.6.33.54,4.83,0,5a214.92,214.92,0,0,0,52.7-25.27c.64-.42-.59-4.78,0-5l-69.06,25.81v5L390.21,605c.61-.33-.55-4.81,0-5-22.14,7.58-44.36,15.09-67.4,19.46v5c20.09-10.16,40.24-20.51,57.51-35.17.54-.45-.51-4.85,0-5l-34.93,10.2-17,5-8.49,2.48a29.65,29.65,0,0,1-3.78,1.1c-2.24.35-2.25.75-2.85-1.49v4.91c.24-4.6,4.61-7.23,7.91-9.68l11.95-8.9,24.7-18.37c.53-.39-.46-4.89,0-5q-15.22,3.64-30.58,6.73-7.68,1.53-15.38,2.91-3.86.69-7.72,1.33c-2,.34-5.57,2-6.06-.33V580c.4-5.72,7-8.45,11.3-10.83q8.31-4.58,16.93-8.57a278.82,278.82,0,0,1,34.57-13.23v-5l-58.21,28.43c-.63.31.56,4.79,0,5,13.95-5.21,28.15-10.28,43.27-9.55v-5a205.24,205.24,0,0,1-39.62,37.08c-.4.29-.12,4.44,0,5,1.77,7.93,15.86,2.08,20.36.89L359,595.69v-5a182.32,182.32,0,0,1-58,19.4v5a650.72,650.72,0,0,1,71-31.72c.4-.15-.29-5,0-5l-50.35,5.74v5c13-5.49,26-11.08,37.92-18.69.4-.25-.27-5,0-5q-29.77,1.82-59.44,5.08v5c15.69-17.81,42.69-16,60.41-30.89.26-.21,0-5,0-5-25.12-6.73-51.41,4.12-76.32-4v5a372.16,372.16,0,0,1,59.89-21.53,41.7,41.7,0,0,0,0-5c-22.64-5.25-46.38,6.39-68.45-2.52v5q30.39-10.73,61.49-19.22c.29-.08-.16-5,0-5a334.07,334.07,0,0,0-45.52,4.44c-.29,0,.21,5,0,5q36-5,72.35-6.79c.11,0-.05-5,0-5Z"/><path class="cls-3" d="M466,715.41l.33-5.41c.09-1.48-.42-3.5,0-4.91a124.57,124.57,0,0,1-16,34.32c-.76,1.15.79,3.92,0,5l30-40.9v-5L452,751.2c-.61,1.15.8,4.09,0,5a337.29,337.29,0,0,0,30.46-40.68v-5a128.53,128.53,0,0,1-12.51,19.75c-4.85,6.27-10.66,11.27-16,17.06-1.72,1.88-2.86,5-1.93.78a32.73,32.73,0,0,1,1.08-3.75,61.65,61.65,0,0,1,3.87-8.53c3-5.67,6.56-11.17,8.53-17.32a34.6,34.6,0,0,0,1.37-11.35c0-1.42.22-3.3-.31-4.63a13.4,13.4,0,0,0-.41-1.88l-2.43,3.06-4.26,5.34-34.72,43.53v5a180.63,180.63,0,0,1,28.35-46.64v-5l-27.25,60.91c-.55,1.24.77,4,0,5l39.47-53.17v-5l-23,49.68c-.53,1.14.78,4.12,0,5l40.4-45.63v-5l-25.73,54.38c-.56,1.18.78,4.06,0,5q21.26-25.56,40.62-52.6v-5l-28.45,47.81c-.7,1.19.8,3.95,0,5a411.11,411.11,0,0,0,31.52-48.42c.63-1.13-.8-4.08,0-5a198.25,198.25,0,0,0-33.17,52c-.5,1.14.77,4.14,0,5a555.28,555.28,0,0,0,39.82-50.24v-5q-18.45,32.16-38.16,63.58c-.73,1.16.8,3.95,0,5Q491.7,759.49,512,728.13v-5l-31.2,60.48c-.64,1.24.78,3.92,0,5l42.6-59.24v-5q-18.72,34.39-36,69.53c-.2.43.08,5,0,5,6.15.12,9.89-4.86,13.19-9.4,4.4-6.08,8.76-12.19,13.14-18.28L540,734.66v-5q-19.35,35-40.85,68.62v5l34.41-56.84c.69-1.14-.81-4,0-5a326,326,0,0,0-32.35,46.62v5q19-33.79,40.83-65.82v-5c-15.39,25.09-31,50.27-51.7,71.39v5l26.21-67.07c.43-1.09-.73-4.23,0-5a253.08,253.08,0,0,0-42,58.52c-.45.87.68,4.53,0,5,24.15-16.76,37.3-45.11,62.4-60.75v-5c-3.93,29.64-26,53.19-29.32,83-.1.84.52,4.55,0,5a183.27,183.27,0,0,0,45.59-60.51c.58-1.24-.77-4,0-5a409.81,409.81,0,0,0-36.54,59.14c-.67,1.31.72,3.78,0,5l40.12-67.41v-5a518.81,518.81,0,0,1-39.31,61.66v5c11.56-19.48,23.09-39.26,28.26-61.53.25-1.07-.66-4.26,0-5l-55,61.82v5l30.14-67.76c.56-1.26-.77-3.93,0-5a286.26,286.26,0,0,0-32.27,58.46c-.33.81.6,4.62,0,5C514,780,527.67,751.47,551.87,733.9v-5a226.91,226.91,0,0,1-16,45.42c-5.12,10.91-9.27,21.4-9.15,33.6,0,.73-.26,4.54.19,4.7.65.23,7.57-8.78,8.23-9.58q7.5-9,14.51-18.42a433.89,433.89,0,0,0,25.85-39.1c.72-1.22-.77-3.89,0-5q-24.22,34.9-49.89,68.77v5l43.73-68.4v-5q-19.22,35.43-35.73,72.21c-.21.47.17,5,0,5,6.63-.64,10.42-6.36,14-11.31q7.14-9.74,14-19.62,13.8-19.78,26.69-40.18c.75-1.19-.77-3.89,0-5a656.08,656.08,0,0,0-44.31,73.49c-.65,1.25.77,3.9,0,5l50.84-72v-5L556.56,818.7c-.6,1.16.79,4.07,0,5a345.85,345.85,0,0,0,44-65.27c.67-1.3-.73-3.79,0-5-13.6,22.56-27.17,45.18-38.32,69.08-.55,1.18.78,4.07,0,5a389.1,389.1,0,0,0,42.87-63.08c.69-1.26-.75-3.83,0-5a372.72,372.72,0,0,0-30.4,57.14c-.55,1.28.75,3.9,0,5q19.7-28.71,37.37-58.73c.69-1.17-.8-4,0-5a195.61,195.61,0,0,0-30.83,57.55c-.38,1.14.73,4.16,0,5a321.69,321.69,0,0,0,46.6-70.71c.63-1.29-.75-3.82,0-5a487.59,487.59,0,0,0-38.1,72.68c-.47,1.12.76,4.18,0,5,19.46-21.05,32.87-46.48,46-71.72.67-1.3-.74-3.8,0-5A780.74,780.74,0,0,0,592.8,826c-.64,1.38.63,3.64,0,5a780.74,780.74,0,0,1,42.93-80.31v-5c-13.15,25.24-26.56,50.67-46,71.72v5a487.59,487.59,0,0,1,38.1-72.68v-5a321.69,321.69,0,0,1-46.6,70.71v5A195.61,195.61,0,0,1,612,762.84v-5q-17.67,30-37.37,58.73v5a372.72,372.72,0,0,1,30.4-57.14v-5a389.1,389.1,0,0,1-42.87,63.08v5c11.15-23.9,24.72-46.52,38.32-69.08v-5a345.85,345.85,0,0,1-44,65.27v5l38.36-75.26c.64-1.25-.77-3.91,0-5l-50.84,72v5A656.08,656.08,0,0,1,588.39,747v-5q-12.9,20.38-26.69,40.18-6.63,9.5-13.47,18.84c-3.77,5.16-7.66,11.42-14.61,12.09v5q16.5-36.76,35.73-72.21c.68-1.27-.75-3.82,0-5l-43.73,68.4c-.74,1.16.8,4,0,5q25.67-33.87,49.89-68.77v-5a429,429,0,0,1-46.8,65.07c-.62.7-1.41,1.82-1.91,1.76-.33,0,.74-5.89.91-6.71a63.6,63.6,0,0,1,2.81-9.15c2.32-6.08,5.3-11.88,8-17.81a212,212,0,0,0,13.37-39.78c.19-.81-.54-4.61,0-5C527.67,746.47,514,775,488.6,791.18v5a286.26,286.26,0,0,1,32.27-58.46v-5l-30.14,67.76c-.51,1.14.77,4.13,0,5l55-61.82v-5c-5.17,22.27-16.7,42.05-28.26,61.53-.71,1.19.79,3.93,0,5a518.81,518.81,0,0,0,39.31-61.66c.7-1.29-.73-3.78,0-5l-40.12,67.41v5a409.81,409.81,0,0,1,36.54-59.14v-5a183.27,183.27,0,0,1-45.59,60.51v5c3.33-29.79,25.39-53.34,29.32-83,.09-.7-.43-4.73,0-5-25.1,15.64-38.25,44-62.4,60.75v5a253.08,253.08,0,0,1,42-58.52v-5L490.3,793.63c-.42,1.08.74,4.25,0,5,20.71-21.12,36.31-46.3,51.7-71.39.74-1.2-.77-3.87,0-5q-21.86,32-40.83,65.82c-.71,1.28.71,3.76,0,5a326,326,0,0,1,32.35-46.62v-5l-34.41,56.84c-.74,1.23.75,3.83,0,5q21.5-33.66,40.85-68.62c.68-1.22-.78-3.91,0-5l-26.27,36.56q-6.29,8.73-12.57,17.48c-3.44,4.77-7.25,10.33-13.76,10.2v5q17.26-35.13,36-69.53c.67-1.23-.78-3.91,0-5l-42.6,59.24v5L512,728.13c.66-1.28-.75-3.84,0-5q-20.25,31.35-42.83,61.08v5q19.71-31.41,38.16-63.58c.7-1.22-.78-3.89,0-5a555.28,555.28,0,0,1-39.82,50.24v5a198.25,198.25,0,0,1,33.17-52v-5a411.11,411.11,0,0,1-31.52,48.42v5l28.45-47.81c.72-1.21-.78-3.91,0-5q-19.35,27-40.62,52.6v5l25.73-54.38c.54-1.14-.78-4.11,0-5l-40.4,45.63v5l23-49.68c.57-1.24-.78-4,0-5l-39.47,53.17v5l27.25-60.91c.53-1.18-.78-4.07,0-5a180.63,180.63,0,0,0-28.35,46.64c-.5,1.2.77,4,0,5L449.09,727l12.18-15.27a45.06,45.06,0,0,1,3.66-4.58c1.28-1.22.78-2,1.52-.27s-.12,3.72-.59,5.4c-2.39,8.6-8.06,15.85-11.56,24-2.55,5.94-3,11.56-2.91,17.88,0,.11,0,.22,0,.34a127.77,127.77,0,0,0,31-39c.66-1.28-.75-3.83,0-5A337.29,337.29,0,0,1,452,751.2v5l28.31-52.69c.66-1.23-.78-3.93,0-5l-30,40.9v5a124.57,124.57,0,0,0,16-34.32v-4.91l-.34,5.41c-.09,1.5.09,3.64,0,4.82Z"/><path class="cls-3" d="M612.91,775.74c-2,1.27-2,5-1.59,7.25.68,3.49,2.6.67,4.21-1.1a28.58,28.58,0,0,0,5.47-9.23v-5c-1.68,20.41-5.58,40.51-9.55,60.58v5a287.29,287.29,0,0,1,12.14-52.74v-5q-7.07,29.88-12.49,60.11c-.08.48.06,5,0,5,3-.23,3.7-3.13,4.63-5.56,1.37-3.57,2.63-7.19,3.91-10.79q4-11.25,7.72-22.61,7.27-22.27,13.42-44.88c.4-1.46-.61-3.64,0-5a300.74,300.74,0,0,0-24,86c-.08.63.36,4.81,0,5,4.23-2.16,5.64-6.47,7.22-10.66,2.12-5.56,4.21-11.14,6.31-16.71L643,782v-5a316.94,316.94,0,0,0-12.56,52.35c-.21,1.35.6,3.83,0,5a170.2,170.2,0,0,0,17.39-54.73c.21-1.52-.49-3.58,0-5-9,26.18-12.14,53.56-10.78,81.13v.09l5.32-43.67L645,790.33c.15-1.23.49-11.45,1.45-11.91-.27.13,2.28,9.72,2.42,10.32l2.42,10.31c.67,2.85,1,6.5,2.28,9.12,3.66,7.25,6.34-3.87,6.94-6.62l9.44-43.26v-5c-1.37,17.46-1.89,35-1.73,52.46,0,4.15.08,8.31.25,12.46.09,2.27.1,7.26,2.88,8,1.84.53,2.24-3.61,2.77-5.32l2.35-7.55,5.28-17c.47-1.53-.47-3.5,0-5l-6.46,20.75c-.51,1.66-2.18,9.27-3.44,9.26-2,0-2.85-3.39-3.12-4.81-.79-4.3-.42-9.08-.46-13.42-.08-7.14,0-14.28.31-21.41q.44-11.77,1.37-23.5c.13-1.6-.34-3.46,0-5l-6.71,30.76c-.71,3.23-3.05,23.63-8.1,21.22-2.93-1.41-3.23-8.57-3.85-11.22l-3.08-13.13c-.15-.63-1.49-7.5-1.76-7.5-.12,0-.89,7.31-1,7.94l-1.82,14.89L639.91,827l-1.7,13.89c-.08.66-1.2,7.86-1,7.94-1.58-.56-.49-8.48-.37-11.54a200.61,200.61,0,0,1,10.9-57.69v-5a170.2,170.2,0,0,1-17.39,54.73v5A316.94,316.94,0,0,1,643,782c.49-1.5-.55-3.55,0-5l-12.61,33.42-6,15.78c-1.67,4.44-3.07,9.29-7.57,11.59v5a300.74,300.74,0,0,1,24-86v-5q-6.16,22.61-13.42,44.88-3.57,10.89-7.4,21.71-1.92,5.42-3.9,10.79c-.95,2.58-1.71,6.21-5,6.46v5q5.43-30.23,12.49-60.11c.36-1.54-.49-3.51,0-5a287.29,287.29,0,0,0-12.14,52.74c-.21,1.62.32,3.41,0,5,4-20.07,7.87-40.17,9.55-60.58.12-1.44-.5-3.68,0-5a29.08,29.08,0,0,1-4.47,8.06c-1.31,1.64-4.47,6.21-5.2,2.48v5a2.89,2.89,0,0,1,1.58-2.46c.79-.51-.73-4.53,0-5Z"/><path class="cls-3" d="M832.29,711.59c-2.11-3.19-2.74,2.17-2.76,3.59,0,3.6,1.12,5.86,2.69,9.23q8.34,17.94,16.7,35.89v-5l-21.34-39.71v5a310,310,0,0,1,25.57,56.75v-5l-33.91-46.57c.7,1-.35,3.78,0,5l16.82,59v-5a363.06,363.06,0,0,1-29-52.42c.59,1.32-.31,3.55,0,5a298.71,298.71,0,0,0,16.14,51.78v-5l-23.75-52.31c.61,1.35-.43,3.54,0,5l21.4,72.85v-5l-18.79-38.7c-4.42-9.11-8.57-23.56-19.33-27,.33.11-.21,4.46,0,5a441.82,441.82,0,0,1,20.37,68.69v-5c-12-18.53-21.09-38.7-30-58.86.61,1.37-.45,3.53,0,5L789,805.37v-5a586.65,586.65,0,0,0-27.29-52.72c.63,1.08-.22,3.72,0,5l9.79,58.18v-5l-29.59-43c.64.94-.21,3.82,0,5a435.36,435.36,0,0,0,10.92,47.32v-5l-22.19-54c.57,1.39-.39,3.51,0,5q7.67,29.25,12.42,59.11v-5l-28.32-59.09c.61,1.28-.33,3.57,0,5l15.4,66.3v-5l-26.82-59.7c.58,1.3-.28,3.56,0,5l11.18,57.32v-5L689.93,771c.59,1.17-.18,3.65,0,5l6.61,50v-5l-23.1-44.15c.58,1.1-.11,3.72,0,5l4.15,46.91v-5a474.06,474.06,0,0,1-21.27-49.11c.49,1.34-.13,3.54,0,5l4.19,46.07v-5l-22.07-47.29c.51,1.1,0,3.66,0,4.91l1.34,48.15v-4.91a140,140,0,0,1-14.86-47.92v5a75.74,75.74,0,0,1,8.41,24.2,61.59,61.59,0,0,1,.87,8.45,40.16,40.16,0,0,1-.26,5.37c.4,1.61,0,2.1-1.16,1.48-1.78.22-4.4-2.4-5.47-3.55-6.89-7.45-7-20.66-17.37-24.94.27.12,0,4.47,0,5a199.48,199.48,0,0,1-.1,32.15l-.17,1.95c.15,2.16,0,2.55-.62,1.16-.93-.69-1.52-2.84-2.07-3.93-1.45-2.92-2.78-5.89-4-8.9-4.87-11.83-8.22-24.2-11.55-36.52.41,1.53-.26,3.42,0,5l8.3,50.7v-5A190.12,190.12,0,0,1,583.2,771.5v5c5,17.55,10,35.34,18.86,51.42,1.78,3.24,4.24,9.32,7.28,11.51q1.15,2.79,1.65-.1c.39-1,.75-2,1.07-3a48.69,48.69,0,0,0,1.48-6.09,90.87,90.87,0,0,0,1-16.4c0-7.43-.67-14.84-.83-22.26a60.68,60.68,0,0,1,1.59-15.72c.17-.72,1.22-5.88,1.93-6,.2,0,2.75,6.72,3,7.32l23.93,58.52c-.51-1.27.11-3.61,0-5l-4.35-57.14v5l25.12,52.6c-.57-1.19.15-3.65,0-5l-6.87-60.37v5L684.88,842c-.51-1.38.22-3.52,0-5l-9.67-67.18v5a607.67,607.67,0,0,1,20.07,58.11c-.45-1.52.34-3.43,0-5a624,624,0,0,1-10.65-63.72v5l20.43,51.45c-.53-1.32.15-3.56,0-5l-5.33-48v5l21.78,57.64c-.51-1.37.21-3.52,0-5l-8.73-61.78v5l24.14,63.37c-.52-1.36.21-3.52,0-5l-9.56-68.37v5l15.8,36.74,3.55,8.26c.82,1.89,2.36,7.94,3.95,9.18.21,1.26.64,1.25,1.31,0l.74-1.06a11.37,11.37,0,0,0,1.21-3,21.53,21.53,0,0,0,.61-4.93c.26-7.57-.5-15.17-.95-22.71l-2.39-39.69v4.91A317.56,317.56,0,0,1,770,805.18v-5L755.48,743.3c.39,1.56-.35,3.42,0,5L767.94,806v-5l-21.81-58.31c.52,1.39-.24,3.51,0,5a452.71,452.71,0,0,0,13.13,58.3v-5a296.89,296.89,0,0,1-13.92-55.71v5l23.92,64.68c-.52-1.4.25-3.5,0-5l-10.42-61.29v5a442.57,442.57,0,0,0,22.89,60.6c-.52-1.13.08-3.63,0-4.91q-1.54-29.19-5.64-58.14v5a334,334,0,0,1,19.92,49c-.47-1.5.34-3.45,0-5L784,744.57v5l21.71,54.92c-.53-1.36.24-3.53,0-5l-10.34-64.16v5q10.2,28.41,19,57.31c-.45-1.48.24-3.44,0-5l-9.54-60.12v5l12.6,28.82c-.6-1.39.62-3.59,0-5l-12.6-28.82c.56,1.3-.23,3.57,0,5l9.54,60.12v-5q-8.79-28.89-19-57.31c.51,1.41-.24,3.49,0,5l10.34,64.16v-5L784,744.57c.55,1.39-.33,3.5,0,5L796,805.15v-5a334,334,0,0,0-19.92-49c.59,1.18-.19,3.65,0,5q4.1,28.85,5.63,58v-4.91a442.57,442.57,0,0,1-22.89-60.6c.44,1.49-.27,3.43,0,5l10.42,61.29v-5l-23.92-64.68c.51,1.39-.23,3.5,0,5a296.89,296.89,0,0,0,13.92,55.71c-.52-1.47.45-3.48,0-5a452.71,452.71,0,0,1-13.13-58.3v5L767.94,806c-.53-1.42.33-3.49,0-5L755.48,743.3v5L770,805.18c-.39-1.55.4-3.42,0-5a317.56,317.56,0,0,0-18.83-54.09c.53,1.16-.08,3.61,0,4.91l1.91,31.75.95,15.87c.25,4.18,1,8.45-1,12.33-.27.49-.91,1.93-1.5,2.1-1,.31-1.08-1-1.64-2.27l-3.16-7.35-6.32-14.69-13-30.31c.56,1.29-.2,3.58,0,5l9.56,68.37v-5l-24.14-63.37c.52,1.36-.21,3.52,0,5l8.73,61.78v-5l-21.78-57.64c.51,1.35-.17,3.54,0,5l5.33,48v-5l-20.43-51.45c.52,1.32-.17,3.56,0,5a624,624,0,0,0,10.65,63.72v-5a607.67,607.67,0,0,0-20.07-58.11c.54,1.33-.21,3.54,0,5L684.88,842v-5l-26.82-71.16c.51,1.35-.16,3.54,0,5l6.87,60.37v-5l-25.12-52.6c.55,1.16-.1,3.68,0,5l4.35,57.14v-5l-23.93-58.52c-.24-.6-2.79-7.36-3-7.32-.71.15-1.76,5.31-1.93,6a59.76,59.76,0,0,0-1.54,11.05c-.27,4.81-.2,9.67-.06,14.49.29,9.62,1.54,19.28-.17,28.84a48.69,48.69,0,0,1-1.48,6.09c-.32,1-.68,2-1.07,3q-.5,2.89-1.65.1c-3-2.19-5.5-8.27-7.28-11.51-8.84-16.08-13.89-33.87-18.86-51.42.42,1.48-.17,3.45,0,5a189.85,189.85,0,0,0,16.51,59.81c-.58-1.26.23-3.6,0-5l-8.3-50.7v5c2.48,9.18,5,18.38,8.09,27.37,1.56,4.48,3.27,8.9,5.21,13.23,1,2.16,2,4.3,3.08,6.4.54,1,1.11,2.1,1.68,3.13.11-1,.2-1.94.28-2.92a260.86,260.86,0,0,0,.19-43.12v5c6.38,2.65,9,9.23,11.7,15.11,1.43,3.14,2.85,6.41,5.05,9.1a13.9,13.9,0,0,0,3.1,2.88,7.46,7.46,0,0,0,2.07,1.09c1.41.37,1.27.77,2-.31,1.29-1.94.45-7.19.46-9.55,0-2.75,0-5.51-.19-8.26a75.42,75.42,0,0,0-9.2-31.07c.6,1.09-.15,3.71,0,5a140.09,140.09,0,0,0,14.86,47.92c-.53-1,0-3.72,0-4.91l-1.33-48.15v4.91l22.07,47.29c-.56-1.19.12-3.66,0-5l-4.19-46.07v5a474.06,474.06,0,0,0,21.27,49.11c-.57-1.13.11-3.69,0-5l-4.15-46.91v5L696.54,826c-.6-1.14.17-3.69,0-5l-6.61-50v5l24.61,49.08c-.62-1.22.27-3.61,0-5l-11.18-57.32v5l26.82,59.7c-.59-1.32.34-3.54,0-5l-15.4-66.3v5l28.32,59.09c-.59-1.22.22-3.61,0-5q-4.76-29.85-12.42-59.11v5l22.19,54c-.58-1.4.43-3.51,0-5A435.36,435.36,0,0,1,742,762.83v5l29.59,43c-.64-.93.19-3.82,0-5l-9.79-58.18v5A586.65,586.65,0,0,1,789,805.37c-.62-1.36.45-3.55,0-5l-15.93-51.61v5c8.94,20.16,18,40.33,30,58.86-.66-1,.26-3.75,0-5a441.82,441.82,0,0,0-20.37-68.69v5c10.76,3.43,14.91,17.88,19.33,27l18.79,38.7c-.64-1.3.42-3.56,0-5l-21.4-72.85v5l23.75,52.31c-.63-1.37.58-3.58,0-5A298.71,298.71,0,0,1,807.1,732.3v5a363.06,363.06,0,0,0,29,52.42c-.7-1.05.36-3.73,0-5l-16.82-59v5l33.91,46.57c-.73-1,.41-3.76,0-5a310,310,0,0,0-25.57-56.75c.72,1.24-.69,3.71,0,5l21.34,39.71c-.69-1.28.63-3.65,0-5-6.44-13.84-14.06-27.64-19.36-41.95v4.91c.12-1.82,1.47-3.58,2.73-1.67-.75-1.14.78-3.82,0-5Z"/><path class="cls-3" d="M41.59,174.07c-3.32,4-2.91,10.61-2.2,15.59.79,5.6,2.35,11.1,3.22,16.7a161.83,161.83,0,0,1,2,24.86l0-1.84c-5.35.87-5.6-9.6-6.1-12.94A144,144,0,0,1,37,188.77a159.25,159.25,0,0,1,2.47-21.22c.13-.74,1.26-8.28,2-8.29.41,0,.64,6,.74,7.12a183.54,183.54,0,0,0,21.45,70.94v-5l-2.7-1.64c.71.43-.77,4.53,0,5l2.7,1.64c-.63-.38.42-4.22,0-5a184.29,184.29,0,0,1-22-79.72v-.09A181.12,181.12,0,0,0,36.73,196c0,6.15-.25,39.68,7.9,38.36.06,0,0-1.81,0-1.83a210.28,210.28,0,0,0-1.15-24.46q-.93-8.19-2.65-16.27c-1-4.75-2.65-8.64.73-12.75.83-1-.8-4,0-5Z"/><path class="cls-3" d="M18.25,215.92a181.78,181.78,0,0,0,34.59-26.58c.86-.83-.81-4.2,0-5a181.78,181.78,0,0,1-34.59,26.58c-.76.45.7,4.58,0,5Z"/><path class="cls-3" d="M60.89,154.38c-3.37,8.12,2.25,18,5,25.3q8.46,22.13,17.16,44.15c-.56-1.43.58-3.54,0-5q-6-15.29-12-30.61-2.79-7.22-5.54-14.44c-2-5.18-5.13-10.95-5.43-16.57v4.91a5.72,5.72,0,0,1,.75-2.74c.6-1.43-.58-3.59,0-5Z"/><path class="cls-3" d="M83.7,191.41a32.09,32.09,0,0,0,7.61,19.22c7,7.93,8.74-3.07,9.83-8.67a144.27,144.27,0,0,0,2-35.4v4.91c5.67,19.69,17.19,37.25,20.9,57.57a85,85,0,0,1-.46,32.69,96.14,96.14,0,0,1-4.15,14.39c-.38,1-4.5,10.49-6.08,6.23.54,1.45-.55,3.52,0,5,.75,2,3,.22,3.8-.89,1.72-2.28,2.56-6,3.46-8.66a97.13,97.13,0,0,0,4-17.15,127,127,0,0,0,.89-23.39,105.29,105.29,0,0,0-7.92-34.6c-4.86-12.07-10.86-23.65-14.47-36.19.41,1.41-.09,3.43,0,4.91a100.25,100.25,0,0,1-1.3,21.81c-.65,4-.86,11.37-3.83,14.44-3.38,3.47-7.4-2.66-9.09-5.22a32.47,32.47,0,0,1-5.18-15.83c.08,1.19-.11,3.32,0,4.83Z"/><path class="cls-3" d="M132.85,169.37c.83-2.65,1.94-8.59.22-11.11-4.43-6.51-12.55,11.34-13,14.74-.48,3.75-.44,7.81,3.84,8.72,4.44.94,9.35.83,13.87,1.21,4,.34,9.27,0,9.44,5.31v-4.91c-.7,5-4.53,10.5-8.72,13.31s-10.22,1.51-10.82-4v5a3.5,3.5,0,0,1,.66-2c.68-1.33-.66-3.69,0-5-1.45,2.87-1.22,8.47,1.14,10.73,6.58,6.31,15.37-4.76,17.23-10.6.89-2.82,1.44-8.83-.78-11-2.91-2.89-10.71-2-14.51-2.36s-10.91.58-11.35-4.48v5a34.38,34.38,0,0,1,5.82-12.07c2.37-3.19,7.34-6.87,7.75.16v-4.91a13.83,13.83,0,0,1-.82,3.28c-.48,1.52.47,3.49,0,5Z"/><path class="cls-3" d="M164,147.19a18.71,18.71,0,0,0-15.74,8.9c-1.95,3.3-2,6.83-1.88,10.54.7,15.25,27.39,1.1,30.1,13.92v-5c-1,7.28-14,19.84-19.91,10.06.73,1.2-.75,3.77,0,5,4,6.53,11.55,2.47,15.37-1.84,3.2-3.63,4.75-6.94,4.57-11.69-.57-14.71-28-.37-30.11-14.47l0,4.66c.21-9,9.42-14.82,17.58-15.08.09,0,0-5,0-5Z"/><path class="cls-3" d="M196,133.54c-13.41.53-22.57,17.19-20.7,29.65.46,3,2.72,4,5.33,2.23,3.84-2.62,6.85-8.31,9.68-12a31.32,31.32,0,0,1,2.93-3.79c1.63-1.51.74-1.74,1.47.34.8,2.25.9,5,1.39,7.37,1.16,5.51,2.61,10.95,4.26,16.33-.46-1.51.47-3.46,0-5-1.47-4.78-2.78-9.61-3.86-14.5q-.81-3.66-1.47-7.35c-.22-1.23-.43-2.47-.62-3.7l-2.34,3c-3.11,4-6,8.32-9.39,12.13-2.37,2.7-7.27,5.14-7.37-.59v4.66c1.32-10.85,8.73-23.36,20.7-23.83.1,0,0-5,0-5Z"/><path class="cls-3" d="M68,259.5c-1.45-.54-2.47-1.6-3.76-2.25-.3-.14-1-1.44-1.23-1.44-.47,0-1.59,1.46-1.91,1.9-2,2.74-2.41,6.42-2.84,9.69a144.16,144.16,0,0,0-1.13,18.69c0,14.2,1.39,28.64,6,42.16,15.74,46.37,37.65-23.78,24.47-26.65-7.32-1.59-10,11.66-10.18,16.52s.09,9.25,1.95,13.71c-.59-1.41.59-3.57,0-5A16.15,16.15,0,0,1,81.47,310c4.66-6.05,10.41-2.63,9.47,4.38-1,7.2-10.16,32.15-20.35,22.29-4.66-4.51-7-11.24-8.69-17.33a127.61,127.61,0,0,1-4.06-21.59,104.13,104.13,0,0,1,.78-27.82c.45-2.7,1.08-5.55,2.91-7.69s1.07-.75,2.71.06c1.31.66,2.29,1.7,3.76,2.25-.52-.19.58-4.78,0-5Z"/><path class="cls-3" d="M76.24,276.11a45.2,45.2,0,0,1,10.63-13.33c3.74-3.17,9.92-7.87,15-8.24,7-.51,3.8,12.9,3.45,16.4-.67,6.72-1.48,13.44-1.66,20.2-.19,7.39-1.26,17.42,2.47,24,3.35,5.87,9,2.29,13.52-.17a98.83,98.83,0,0,0,17.45-12.24c.85-.73-.8-4.3,0-5a98.2,98.2,0,0,1-16.67,11.81c-4.31,2.4-10.34,6.59-14,1.12-4.14-6.22-2.87-16.22-2.28-23.17.54-6.44,1.38-12.84,1.81-19.28.25-3.78,2.56-19.11-4.12-18.63-4.88.35-10.81,4.77-14.46,7.76a45.1,45.1,0,0,0-11.2,13.81c-.7,1.31.69,3.72,0,5Z"/><path class="cls-3" d="M155,289.6l-2,0c-.05,0,0,5,0,5l2,0c.05,0,0-5,0-5Z"/><path class="cls-3" d="M145.31,240.62a29.31,29.31,0,0,0-.53,10.77c1.57,8.28,11.4,3.71,16.7,3.85,6.69.18,12.16,7.29,10.93,13.77-.7,3.75-6.89,20.93-12.35,15.44.81.81-.85,4.14,0,5,5.54,5.57,11.56-11.91,12.35-15.44a37.83,37.83,0,0,0,.55-10.68c-.44-5.95-4.17-12.36-10.62-13.08-4-.44-19,4.75-17-4.63.34-1.61-.33-3.42,0-5Z"/><path class="cls-3" d="M136.51,244.81l32.64-23.09c.81-.58-.76-4.47,0-5l-32.64,23.09c-.81.57.76,4.46,0,5Z"/><path class="cls-3" d="M183.83,214.39c1.29-2.06,4.38-14.73,0-15.92-3.76-1-7.82,11.27-8.59,13.78a29.75,29.75,0,0,0-1.35,8.95c0,2.46.15,5,3.46,4.12,3.89-1,7.29-7.34,8.13-10.92a25.31,25.31,0,0,0,.27-6.62,11.33,11.33,0,0,0-.17-2.33c-.58-2.41-2.87-2.4-3.5-4.07v5c2-4.88,5.45,1.31,6.29,3.51a36.51,36.51,0,0,1,1.81,17.29c-1.15,10.75-3.39,21.43-5.19,32.09s-4.28,21.42-5.4,32.16c-.27,2.61-1.25,10.34,3.23,9.09.47-.13-.39-4.89,0-5-2,.55-2.84-.37-3.33-2.25l0,4.27c.07-6.81,2.26-14.13,3.39-20.85l3.54-21c1.85-11,4.21-22,4.27-33.19a75.51,75.51,0,0,0-.28-8.77c-.34-3.06-1.66-13.82-6.06-14.13-2.82-.19-2.41,3.49-2.31,5.27a4.49,4.49,0,0,0,.36,2.43c.18.26,2,.75,2.41,1.31a6,6,0,0,1,.9,2.95l0-1.24v1.15l0-3.77a19.07,19.07,0,0,1-5.18,10.3c-1.75,1.87-5.9,4.44-6.64.39v5A39.18,39.18,0,0,1,179,208.58c2.28-4,5.78-7.82,6.71-.8l0-3.76v1.4l0-1.24a12.48,12.48,0,0,1-1.9,5.21c-.76,1.21.74,3.82,0,5Z"/><path class="cls-3" d="M191.52,276.67c2.2-2.08,0-11.38-3.35-6.09-1.15,1.85-1.23,4.83-1.66,6.94-.58,2.91-1.28,5.84-1.73,8.77a35.61,35.61,0,0,0-.29,5.84,22,22,0,0,0,0,2.57,5.05,5.05,0,0,0,.75,2.5c1.26,1.31.78.61,1.73-.63,2.82-3.66,4.62-9.43,4.93-14,.4-5.73.25-11.74-3.85-16.17.81.88-.85,4.08,0,5,3.35,3.62,4.21,7.29,2.71,11.92a44.42,44.42,0,0,1-2.93,6.62c-.65,1.28-1.08,3-2.16,2.72s-1.16-3.24-1.17-3.58l0,4.27a136.32,136.32,0,0,1,2.54-13.55c.32-1.5.47-4.16,1.81-5.23s3.15-.66,3.23,1.44v-4.91l-.58.55c-.85.81.81,4.23,0,5Z"/><path class="cls-3" d="M206.88,225.54l-.48-1,0,3.16v-1.14l0,1.83c1.12-2.39,12,.18,14.79.52q8.1,1,16.18,2.1,16.14,2.29,32.18,5.34,32.07,6.08,63.46,15.1c-.4-.12.48-4.87,0-5a713,713,0,0,0-76.68-17.48q-18.91-3.21-38-5.4c-3.09-.35-6.43-1.1-9.54-1-2.45.06-2.17-.07-2.41,1.83a12.25,12.25,0,0,0,.49,6.19c-.63-1.36.63-3.61,0-5Z"/><path class="cls-2" d="M924.85,110.42l-1.38,2.31c-.48.8.67,4.59,0,5l26.44-16.17c7.56-4.62,15.14-10.32,24.07-11.75.3,0-.22-5,0-5-8.93,1.43-16.51,7.13-24.07,11.75l-26.44,16.17v5l1.38-2.31c.74-1.25-.72-3.79,0-5Z"/><path class="cls-2" d="M946.32,105.58a135.46,135.46,0,0,0,15,47.28c-.68-1.28.7-3.68,0-5a135.46,135.46,0,0,1-15-47.28c.2,1.64-.21,3.35,0,5Z"/><path class="cls-2" d="M961.85,106.57a173.79,173.79,0,0,1,11.76,38.82v-5c-2.21-4.74-3.51-9.72-2.33-14.93.7-3.07,2.81-11.33,7.23-10.52,3.71.68,4,7.24,4.64,10,1.28,5.66,2.86,11.24,4.65,16.77-.49-1.5.49-3.48,0-5-2.38-7.36-3.66-15-5.87-22.35-.69-2.3-2.2-5.49-5.19-4.24-2.76,1.15-4,5.54-4.84,8.06a40.18,40.18,0,0,0,1.71,27.2c-.59-1.27.25-3.59,0-5a173.79,173.79,0,0,0-11.76-38.82c.6,1.39-.62,3.59,0,5Z"/><path class="cls-2" d="M994.91,124.72c6.34,1.3,7.1-9.68,7-14.08-.06-3.1-.81-6.34-3.93-7.78-4.48-2-8.07,2.35-9.12,6.25-1.17,4.37-1.08,9.78-.69,14.31.36,4.16,2.13,8.47,6.68,9.34,5,1,9.84-3.06,13.2-6.18.85-.79-.81-4.25,0-5-3.3,3.06-7.68,6.67-12.51,6.24s-6.67-4.53-7.32-8.73c.33,2.13,0-1.32.12-1.92a20.45,20.45,0,0,1,.75-3.8,9.09,9.09,0,0,1,3.49-5c4.9-3.2,9.09,1.67,9.3,6.45V109.9c-.35,3.43-2.35,10.77-7,9.82.29.06-.37,4.92,0,5Z"/><path class="cls-2" d="M1042.46,87.44a153.92,153.92,0,0,0,7.78,41c-.5-1.49.51-3.49,0-5a153.4,153.4,0,0,1-7.77-40.81c.07,1.19-.09,3.31,0,4.83Z"/><path class="cls-2" d="M1031.74,89.62c-2.16-8,4.62-18.35,9.42-24.44,5-6.28,14.22-10.65,20.71-3.76s2.42,15.25-1.88,22.12a61.6,61.6,0,0,1-19,19c-.78.5.73,4.52,0,5,10.42-6.73,20.34-17.16,23.85-29.37,1.92-6.66,1.94-16.46-3-21.77-10.69-11.45-22.6,5.21-27,13.94-3.7,7.34-5.3,16.17-3.12,24.26-.41-1.55.43-3.44,0-5Z"/><path class="cls-2" d="M1076.09,108.36c-2.23-2.89-1.24-6.77-3.35-9.63-2.38-3.24-5.52-1.25-7,1.65-2.28,4.47-2.12,10.07-2,15a30.68,30.68,0,0,0,1.06,8c.14.47,1.31,4.66,1.85,4.78.77.17,3-4.68,3.29-5.29,1.9-4.46,1.72-9.11,1.65-13.82l0,4.66,9.37,8.93c-.81-.78.85-4.19,0-5l-9.37-8.93c.47.44,0,3.94,0,4.65a23.24,23.24,0,0,1-1.62,4.51,21,21,0,0,1-1.87,3.42,11.36,11.36,0,0,1-.93,1.26c-.39.87-.67.81-.84-.17-1.23-.92-1.86-5-2.07-6.49a18.62,18.62,0,0,1,1.06-9.34c1-2.67,3.72-6.17,6.75-3.62s1.77,7.5,4.07,10.48c-.79-1,.82-3.93,0-5Z"/><path class="cls-2" d="M1080.77,108.57q-.48-.73-1,0c-.41.26,0,4.32,0,4.91.11,1.79,1.72,3.3,2.7,4.7l5.68,8v-5c-4.28-5.31-7.09-12-5-18.79a26.19,26.19,0,0,1,10.8-14.06c.79-.52-.74-4.51,0-5-13.76,9.12-16,30.18-5.82,42.85-.81-1,.77-3.9,0-5l-4.54-6.43c-1.15-1.63-3.7-4.05-3.83-6.13v4.91q.57-.73,1,0c-.79-.63.84-4.33,0-5Z"/><path class="cls-2" d="M1098.57,74.6l12.06,51c-.37-1.57.37-3.42,0-5l-12.06-51c.38,1.57-.37,3.41,0,5Z"/><path class="cls-2" d="M1105.91,106.4l9.1-8.89c.27-.27,0-2.11,0-2.5s-.3-2.23,0-2.5l-9.1,8.89c-.27.27,0,2.11,0,2.5s.3,2.24,0,2.5Z"/><path class="cls-2" d="M1115.43,97.56c1.3,7.84,7.67,13.33,9.47,21,.27.88.15,1.14-.34.8q-2.2-.87-.35-4.35a80.18,80.18,0,0,1,.78-8.89,96.56,96.56,0,0,1,2.49-12.38c.56-2.07,1.3-8,4.38-8.18,3.3-.18,4.84,5.4,5.68,7.65a155.12,155.12,0,0,1,7.21,26.28c-.29-1.6.3-3.38,0-5a155.38,155.38,0,0,0-7.21-26.28c-.89-2.36-2.35-7.83-5.68-7.65-3.15.16-3.81,6.06-4.38,8.18-3.26,12.08-3.89,24.65-3.13,37.09v.09a24.55,24.55,0,0,0,.8-10.86c-1-8.37-8.35-14.17-9.73-22.48.27,1.62-.27,3.38,0,5Z"/><path class="cls-2" d="M1137,107.37c7.29-.33,15.94-.9,20.66-7.34,2.36-3.22,2.29-7,2.21-10.72-.05-2.84-2.82-13.22-6.69-9-2,2.19-2.57,8.16-3,11a57.65,57.65,0,0,0-.56,7.65c-.05,4.07-.38,8.64.88,12.55,1,3,3.57,6.25,7.1,5.9,3.7-.37,5.55-4.54,7-7.47a51.69,51.69,0,0,0,4-11.07c.37-1.57.56-8.67,2-8.58,1.76.09,2.13,9.08,1.93,10.39a23.86,23.86,0,0,1-1.21,4.55c.09-.23-1.16,2.92-1.26,2.88-.31-.12-.68-2.25-.77-2.6-3.64-14.28,6-29.83,18.3-36.65.74-.41-.67-4.63,0-5-14.07,7.81-19.65,22.47-19.35,37.88a37.93,37.93,0,0,0,1.23,9.42c.45,1.67,0,2.5,1.27.53a14.18,14.18,0,0,0,1.28-3.71,27.11,27.11,0,0,0,.86-5.52c.36-6.42-.09-12.73-3-18.59V84a53.06,53.06,0,0,1-5.31,21c-2.5,5.08-7.8,11.16-12.73,4.47-4.22-5.71-1.82-15.4.3-21.53,2.85-8.25,7.47,1.16,7.67,5.62V88.58C1159,100.17,1146.3,102,1137,102.37c-.11,0,0,5,0,5Z"/><path class="cls-2" d="M1018,172.44a8.57,8.57,0,0,1-6.41-1.59v5c3.29-4.23,18.06-18.65,22.89-9.84,4.28,7.79-4,19.76-9.47,24.7v5c7-11.58,29.61-13.34,31.23,3.31v-4.27c-.07,6.67-4.37,12-9.48,15.78-2.14,1.59-12.73,9.85-13.6,4v5a1.18,1.18,0,0,1,.86-1.17c.81-.57-.75-4.48,0-5-1.39,1-.93,3.4-.88,4.93.15,4.06,2.82,3.74,6.1,1.92,8.08-4.48,16.55-10.41,17-20.51.32-7.09-.88-13.63-8.21-16.81-8.38-3.62-18.44.14-23,7.78-.61,1,.79,4.28,0,5,8.1-7.38,10.7-16.93,10.54-27.52-.07-4.9-.8-11-7.38-9.46s-12.52,6.89-16.58,12.12a17.81,17.81,0,0,0,0,5,8.56,8.56,0,0,0,6.41,1.59c.23,0-.15-5,0-5Z"/><path class="cls-2" d="M1057.14,159.28l-4.72-2.94v5c6.6-3.17,26.5-14.83,26.77-.22v-4.66c-.59,6-2.7,11.91-3.65,17.9a128,128,0,0,0-1.54,17.7,162.89,162.89,0,0,0,1.08,23.47c-.2-1.63.21-3.35,0-5a109.51,109.51,0,0,1,.61-32.08c1-6.15,3.39-12.28,3.53-18.53.08-3.76.44-8.81-3.58-10.77-3.41-1.67-7.78.67-11,1.9-4.16,1.58-8.23,3.36-12.24,5.29a24.57,24.57,0,0,0,0,5l4.72,2.94c-.72-.45.77-4.51,0-5Z"/><path class="cls-2" d="M1063,188.46a122.76,122.76,0,0,1,29-14.94c.56-.2-.5-4.82,0-5a122.76,122.76,0,0,0-29,14.94c-.81.57.75,4.48,0,5Z"/><path class="cls-2" d="M1102,197.5h-.62s0,5,0,5h.62s0-5,0-5h-.62s0,5,0,5h.62s0-5,0-5Z"/><path class="cls-2" d="M1117.82,147.5c-.7,3.11-6.16,18.17-1,20.73,2.23,1.1,5.76,0,8.07-.37a41.62,41.62,0,0,1,9.31-.81c5.66.41,10.62,3.38,11.47,9.28v-4.66c-.18,10.26-18.47,27.71-26.61,14.79.74,1.17-.77,3.79,0,5,4.52,7.18,13.35,4.11,18.51-.52s8.1-9.67,8.13-16.44c0-5.75-2-10.12-8-11.86-4.21-1.22-8.56-.41-12.79.22-3.17.48-8.38,2.2-9.82-1.74l0,4.26c0-4.12,1.83-8.87,2.73-12.88.36-1.6-.35-3.43,0-5Z"/><path class="cls-2" d="M1113.16,149.89a1.71,1.71,0,0,1-1.11-1.54v5c.37-3.81,5.2-3.67,8.12-4.22q5.44-1,10.83-2.35,6.27-1.51,12.46-3.41c2.84-.87,7-1.41,9.34-3.32,1.74-1.4,1.94-5.19,1.45-7.32-.74-3.17-2.07-.39-3.2,1.46a35.72,35.72,0,0,0-4.09,9.6c-.9,3.47-3.56,24.24,5.73,16.31,6.41-5.47,6.28-17.93,4.72-25.61.32,1.59-.33,3.39,0,5a18.28,18.28,0,0,1-2.93,13.5c-1.58,2.31-6,6-8.13,2.09-1.45-2.68,1.1-8.32,2.15-10.87a35.06,35.06,0,0,1,3-5.7c.93-1.45,2-3.88,2.76-1.12v-5c-.46,4.73-10.63,6-14.31,7q-9.32,2.69-18.84,4.53c-3.92.76-8.56.46-9,5.13-.19,1.85-.46,4.61,1.13,5.81-.78-.59.83-4.38,0-5Z"/><path class="cls-2" d="M1094.12,221.54a5.58,5.58,0,0,1,5.46-2v-5c-1.31,10.13,1.1,19.31,5.4,28.51,2.93,6.28,6.32,12.49,7.89,19.29,1.69,7.38-1.83,14.14-6.42,19.8-10.53,13-24.59,23.55-41.53,25.12-8.86.82-17.34,1.3-25.43,5.42-7.73,3.94-14.28,9.76-20.71,15.5-.85.75.81,4.28,0,5,6.22-5.55,12.56-11.2,20-15.13,8-4.24,16.41-4.92,25.26-5.71s16.69-3,24.08-8.31A96.93,96.93,0,0,0,1106,287.71c6.91-8.28,9.18-18.59,7.18-29.09-1.29-6.83-4.61-13.09-7.56-19.32-2.73-5.77-6.85-13.2-6-19.79a46.11,46.11,0,0,0,0-5,5.56,5.56,0,0,0-5.46,2c-.85,1,.81,4.09,0,5Z"/></svg>