<svg id="Layer_1" data-name="Layer 1" xmlns="http://www.w3.org/2000/svg" viewBox="0 0 1280 1024"><defs><style>.cls-1{fill:none;stroke:red;stroke-miterlimit:10;stroke-width:17px;}</style></defs><title>heartchart1</title><path class="cls-1" d="M639.52,342.62c-8.2-42.11-27.38-81.58-53.73-115.3a325,325,0,0,0-97.48-83c-41.92-23.41-90.78-39.75-139.28-36.74-49.39,3.06-89.63,29.92-120.89,66.87-15.56,18.4-29,38.55-41.41,59.2-13.36,22.32-25.11,45.75-33.22,70.51-16.13,49.31-16.14,103.69,10.7,149.27,12.9,21.92,30,41,47,59.73,17.92,19.76,36.22,39.18,55.21,57.92,38.85,38.37,81.11,71.52,125.28,103.48A898.74,898.74,0,0,1,510.87,777.08c35.78,36.86,69.36,75.77,104.68,113.07q12.93,13.67,26.23,27"/><path class="cls-1" d="M641,342.62c8.2-42.11,27.38-81.58,53.74-115.3a324.93,324.93,0,0,1,97.79-83.2c42.08-23.44,91.17-39.77,139.83-36.51,49.47,3.32,89.63,30.6,120.79,67.73,15.42,18.38,28.83,38.47,41.1,59.06,13.32,22.34,25,45.79,33,70.59,16.08,49.72,15.59,104.25-11.84,149.9-13.12,21.82-30.31,40.83-47.37,59.6-17.94,19.74-36.26,39.14-55.28,57.85-38.93,38.32-81.33,71.31-125.51,103.3a893.33,893.33,0,0,0-119.14,103c-35.82,37-69.5,76.05-105,113.41q-13,13.63-26.29,26.92"/></svg>