<svg id="Layer_1" data-name="Layer 1" xmlns="http://www.w3.org/2000/svg" viewBox="0 0 1280 1024"><defs><style>.cls-1{fill:none;stroke:#ff7c5c;stroke-linecap:round;stroke-linejoin:round;stroke-width:3px;}</style></defs><title>pinkscrib</title><path class="cls-1" d="M1269.05,833l2.63-1.52c.06.1,1,4.86,1,5l0,0c0,.1,1.43,4.69,1.49,4.8l.08,0"/><path class="cls-1" d="M1270.35,832.21h0c.06.11.92,4.63,1,4.73l.05,0c.06.1,3.94,3.15,4,3.27l.68-.4"/><path class="cls-1" d="M1269.33,832.13l3.24-1.87c.09.16-.43,6.27-.35,6.41l.58-.33c.07.12,3,3.57,3.11,3.69l1.43-.82"/><path class="cls-1" d="M1269.37,831.78h0c.07.11.49,5.51.56,5.64l.06,0c.1.18-2.49,6.68-2.41,6.81l2.17-1.26"/><path class="cls-1" d="M1274.39,827.78l3.84-2.22c.07.12,1.17,4.88,1.24,5l4.92-2.84"/><path class="cls-1" d="M1275.86,826.77h0c.09.14,4.65,2.61,4.73,2.75l2.73-1.58c.06.11,2.79,3.51,2.84,3.61l3.67-2.11"/><path class="cls-1" d="M1274.64,827.07l4.44-2.56c.09.15,7.6.65,7.68.79l.58-.34"/><path class="cls-1" d="M1277.17,824.42h0c.09.15,6.13,2.43,6.2,2.55l7.1-4.1"/><path class="cls-1" d="M1274.63,242.33l5.06-2.92"/><path class="cls-1" d="M1278.76,239.33l.07,0"/><path class="cls-1" d="M1276.11,239.89l5.77-3.33"/><path class="cls-1" d="M1276.8,222.83l.1-.06c.1.17-4,8.34-3.89,8.56l0,0"/><path class="cls-1" d="M1271.27,224l6.3-3.64c.17.3-9.11,10.86-8.91,11.21l4.81-2.78"/><path class="cls-1" d="M1272.78,221.22l.08,0c.1.17-2.09,6.78-2,7l2.65-1.53"/><path class="cls-1" d="M1266.82,223l6.88-4c.06.11-1,6-.92,6.11l.47-.27c.13.22-4.57,8-4.45,8.24l1.6-.92"/><path class="cls-1" d="M10.62,831.89h0c.1.17-3.36,7.07-3.28,7.22l7-4c.18.3-8.68,10.18-8.49,10.5l2.41-1.39"/><path class="cls-1" d="M5.54,834.75,13,830.47c.14.25-5,8.87-4.92,9.08l.1-.06"/><path class="cls-1" d="M8.7,832.12h0c.09.15-2.57,7.26-2.47,7.42l.1-.06"/><path class="cls-1" d="M3.77,833.7l8-4.63c.17.3-9,10.5-8.79,10.82l.48-.28"/><path class="cls-1" d="M-8.92,239.39l.1-.06c.16.28,11.3-.89,11.42-.68l.37-.21"/><path class="cls-1" d="M-9.3,237.55l.92-.53c.06.1,4.2,3.11,4.26,3.22l6.86-4"/><path class="cls-1" d="M-8.36,233.49l1.49-.86c.09.15,5.41,3,5.49,3.16l.07,0c.09.16,7,1.35,7.1,1.53l1.09-.63"/><path class="cls-1" d="M9.28,220.69l.06,0c.07.13-1,6.46-.92,6.62l.34-.2c.06.12.37,5.51.43,5.61L11,231.63"/><path class="cls-1" d="M6.05,221.61l2.08-1.2c.08.12,0,5.66.08,5.8l.07,0c.09.17-3.29,7.44-3.19,7.62l2.59-1.5"/><path class="cls-1" d="M5,221.55l0,0c.1.18-2.23,6.65-2.13,6.83l4.65-2.68c.06.1.48,5.25.55,5.38l0,0"/><path class="cls-1" d="M1.62,223.08l2.67-1.54c.06.1.11,5.16.16,5.26l2.48-1.43c.07.12-1.67,6.36-1.57,6.52l4.08-2.36"/><path class="cls-1" d="M1269.82,825.89l0,0c.08.14,5.53,2.9,5.6,3l.23-.14c.07.1-.81,5.86-.75,6l0,0c0,.09,0,5.16,0,5.27l2.65-1.53"/><path class="cls-1" d="M1268.54,826.63l3.27-1.89c.1.17-1.21,6.54-1.13,6.67l6.72-3.88c.1.16-1.51,6.16-1.44,6.29l0,0c.08.13,1.69,5.06,1.77,5.19l1.12-.64"/><path class="cls-1" d="M1270.32,825.57l0,0c.06.1,3.33,3.71,3.39,3.82h0c.07.12,3.1,3.45,3.16,3.55l0,0c.06.12,3.42,3.88,3.48,4l.08-.05"/><path class="cls-1" d="M1268.78,826.4l3.87-2.23c.07.11,1.6,4.46,1.66,4.57h0c.07.11,3.48,3.13,3.55,3.25l.05,0c.06.11,3.76,3.44,3.82,3.56l.09,0"/><path class="cls-1" d="M1270.78,825.17l0,0c.07.12,2.56,3.66,2.62,3.77l.2-.12c.07.13,5.07,2.09,5.15,2.24l.06,0c.05.1,4.08,3,4.16,3.13l.09,0"/><path class="cls-1" d="M1266.76,827.41s5.16-3,5.17-3"/><path class="cls-1" d="M1271,824.94l0,0c.07.12,1.49,4.91,1.56,5l4.51-2.6c.07.12,4.29,3.57,4.36,3.69l.07,0c.08.13,4.93,2.84,5,3l.06,0"/><path class="cls-1" d="M1269.85,824.81c.19.32,17.61-10.64,17.82-10.28.11.19-6.12,9-6,9.16s9.27-5.58,9.37-5.41"/><path class="cls-1" d="M1221.45,825.25c1.06,1.84,66.3-41.08,67.51-39,.79,1.37-56.6,36.38-55.84,37.7.64,1.11,40.06-24.72,40.75-23.53.52.91-39.37,27.19-38.68,28.37s36-22.07,36.52-21.08c.44.77-34.28,24.3-33.73,25.24s40.68-24.74,41.22-23.8S1249.57,831,1250,831.71c.55,1,31.91-19.67,32.45-18.73s-29,21.25-28.58,21.95,15.14-9.57,15.5-8.95-16.25,14.65-16,15.1,12.85-7.88,13-7.53-9.23,10.28-9,10.58,9.76-6,9.93-5.74-6.3,8.9-6.18,9.11,5.12-3.08,5.18-3"/><path class="cls-1" d="M1133.2,827.82c2.39,4.13,154.41-93.42,156.26-90.22,2.3,4-148,85.92-145.93,89.46,1.7,2.94,148.29-90.15,150.26-86.75,1.69,2.93-138.66,82.15-137,85.05s128.88-79.07,130.9-75.57c2.25,3.9-135.42,78.31-133.08,82.37,1.56,2.7,117.32-71,118.76-68.56,1.78,3.09-116.48,69.44-114.81,72.32s110.52-68,112.36-64.87c1.58,2.73-102.19,61.85-100.82,64.23,1.55,2.68,101.53-62.41,103.17-59.57,1.34,2.32-105.18,62.77-103.6,65.51s111.58-68.54,113.36-65.45c1.69,2.93-110.66,65.87-108.82,69.06,1.39,2.4,111-68.14,112.76-65.1s-109.21,65-107.77,67.52c1.67,2.89,110.88-67.16,112.24-64.8"/><path class="cls-1" d="M1053.61,825.39c3.76,6.51,220.09-133.94,223.07-128.79,2.52,4.38-215.55,123.34-212.42,128.76,3,5.13,212.17-130.73,215.74-124.56,3.66,6.34-212,121.78-209.17,126.64s210.13-127.86,213-123c3.27,5.65-214.64,122.39-211.67,127.53,2.52,4.37,217.16-132.92,220.43-127.27s-220,124.83-216.76,130.38c3.11,5.38,211.26-127.65,213.72-123.39,3.06,5.29-206.73,118.35-204,123.18,2.61,4.52,186.11-113.43,188.7-108.95,2.76,4.77-192.23,109.46-189.18,114.74,2.46,4.25,189-114.43,191.27-110.43,3.11,5.37-190.16,110.11-187.71,114.35,2.87,5,186.57-114.18,189.37-109.34s-185,107.3-182.55,111.6c3,5.15,181.82-111.3,184.56-106.56"/><path class="cls-1" d="M965.36,828c3.55,6.13,304.92-185.9,309.19-178.51,4,7-295.64,166.18-291.15,174s285-173.38,288.83-166.76c4.85,8.4-292.67,165-288.44,172.33,4.13,7.16,293-180.71,298-172,4.08,7.08-296.94,166.67-292.17,174.93,4.51,7.82,293.8-177.6,297.26-171.62,4.22,7.32-297.57,167.07-293.09,174.81,4.24,7.36,292-177.3,295.73-170.74,4.15,7.19-290.92,164.76-286.94,171.65S1289,662.08,1292.69,668.47c4.72,8.17-295.4,164.43-290.44,173,3.11,5.39,261.36-159.89,265.26-153.14,3.09,5.35-266,150.14-262.07,157,3.3,5.73,262.81-160.32,266.53-153.88s-262,149-258.45,155.17c4.3,7.45,257.53-158.81,261.91-151.22"/><path class="cls-1" d="M885.78,825.53c5.07,8.79,397.72-243.7,403.81-233.15,6.27,10.85-402.11,223-395.71,234.09s369.73-226.87,375.54-216.81S899.6,815.5,905.4,825.54c5.54,9.59,360.71-221.31,366.36-211.52,4.59,8-370.19,208.93-365.51,217.05C911.13,839.51,1271.77,608,1277,617c5.11,8.85-371.74,207.27-366,217.24,5.16,9,362.36-221.08,367.5-212.18,5,8.74-365.56,204.74-360.49,213.53s365.37-220.92,369.68-213.44C1292.18,630,914,833.78,918.53,841.62c5.9,10.23,364.63-224.89,370.85-214.11,4.76,8.24-374.68,207.11-368.34,218.1,5.66,9.8,364.18-221.48,369-213.07,4.6,8-365.37,204.94-360.3,213.73,5.79,10,339.17-206.11,343.63-198.39"/><path class="cls-1" d="M797.54,828.1c6.47,11.21,485.26-298.06,493-284.64,5.73,9.93-485.64,267.1-477.56,281.1,6.09,10.55,470.87-285.36,476.71-275.23C1297,562,810.26,813.05,818.36,827.09c7.48,13,462.58-281.81,469-270.76C1295.19,570,815.88,818.09,822.9,830.26c7.56,13.08,440.46-271.36,447.84-258.56,6,10.37-449.68,249.36-442.51,261.78,6,10.38,440.51-269.65,447.14-258.15,6,10.33-447.43,249.7-441.12,260.64,6,10.44,436.73-269,444-256.37,6.16,10.67-449.36,252-443.47,262.15C841.3,853,1279.65,571.22,1285.59,581.5c6.29,10.91-453.75,254.28-447.68,264.79,5.67,9.83,446.14-270.47,451.72-260.8C1297.24,598.67,841.49,835,847.84,846c5.21,9,433.48-265.8,440.2-254.15"/><path class="cls-1" d="M718,825.67c7.93,13.73,550.4-339.63,559.86-323.24,7.75,13.41-559.37,314.07-552.8,325.45,8,13.86,551.71-337.42,559.89-323.26S725.4,817.05,732.4,829.17C741.67,845.23,1286,494.5,1292.5,505.8,1301.06,520.64,734,819,740.4,830.11c8.13,14.07,542.29-329.76,549.51-317.26C1297,525.18,736.39,817,745.46,832.69c6.83,11.83,516.55-317.61,525-303.07,6.8,11.78-528.28,292.89-520.71,306,7,12.16,512.37-314.34,520.39-300.45,8.12,14.07-527.36,293.24-519.92,306.11C757,853.06,1261.9,527.1,1270,541.14c7.87,13.64-525.86,290.92-517.75,305s522.67-315.88,528.79-305.29c8.24,14.28-526.36,291.56-518.76,304.72,6.42,11.13,517-312.42,523.06-302"/><path class="cls-1" d="M629.71,828.24c9.53,16.51,638.08-386.08,645.73-372.82,10.1,17.49-639.26,356.7-631.28,370.52,10.14,17.56,622.06-384.26,632.93-365.43C1286,476,645.32,810.67,654,825.72c7.47,12.93,618-379.76,627.93-362.53,8.82,15.27-633.62,351-624.89,366.11,7.94,13.77,616.87-378.66,626.62-361.78,7.85,13.6-631.63,345.94-621,364.38,7.82,13.55,619.9-382.47,630.54-364,7.91,13.7-636.56,352-627.3,368.1,8.34,14.44,613.52-374.86,622.46-359.38,10.79,18.68-631.46,348.34-621.94,364.83,10.44,18.09,595.28-360.35,602.5-347.86,9.68,16.77-599.53,335.51-592.42,347.83,7.7,13.34,587.36-362.18,597.35-344.88,8.65,15-602.4,333.43-593.53,348.8,7.65,13.26,583.59-355.72,591.72-341.64"/><path class="cls-1" d="M550.12,825.8c11.67,20.21,730.54-443.87,740.11-427.3,8.86,15.35-736.67,408.63-726.93,425.5,8.51,14.73,700.4-427.32,710.34-410.12,9.68,16.77-717.43,394.75-706.67,413.39,9,15.58,694.91-424.11,704.83-406.94,8.86,15.36-708.62,389.15-697.26,408.83,11.47,19.86,691.7-419,700.22-404.27S563.69,822.43,572,836.83c8.42,14.58,702.6-425.44,711.17-410.6s-711.54,391.87-701,410.08c9.33,16.16,692.41-421.35,701.75-405.16S571.28,821.71,582.73,841.54c11.19,19.39,698.09-426.2,708.12-408.83,8.17,14.14-708.59,391.82-698.71,408.93,11.08,19.19,688.55-423.22,699.67-404C1301,453.64,586,826.6,596.6,844.93c9,15.63,662.62-407.07,673.23-388.69"/><path class="cls-1" d="M461.87,828.37c13.6,23.57,809.7-493.73,821.07-474,11.47,19.88-820.61,452.89-809.16,472.72,11.11,19.26,807.06-497,820.49-473.71,10.66,18.46-827.79,452.2-814.35,475.48,11,19.07,797.11-483.15,807-465.95,13.61,23.58-806,447.82-795.78,465.48,11.09,19.19,765.6-468.17,776.93-448.56,9.17,15.89-789.23,438.91-779.64,455.53,13.44,23.27,771.64-469.22,781.91-451.43,9,15.67-784.56,431.66-772.78,452.06,10.24,17.74,766.46-464.49,776-448,11.64,20.17-788.91,429.8-775.46,453.09,11.27,19.52,775-477.21,787.91-454.9C1296,403.46,494,819.42,506.64,841.38,516.83,859,1278.2,368.65,1290,389.1c9.29,16.09-790.9,434.35-778.82,455.27,10.84,18.77,772.2-467.53,781.59-451.25C1303.11,411,509.7,822.15,522,843.37c.24.42,16.8-10.13,17-9.8"/><path class="cls-1" d="M382.28,825.94c10.4,18,883.44-540.61,896.67-517.69,14.34,24.82-899.32,494-886.1,516.9,13.67,23.68,875.44-532.71,887.25-512.26,11,19-889.14,494.23-878.6,512.49,12.93,22.39,875.76-539.16,890.29-514,14,24.27-906.14,497.76-892.63,521.16,10.67,18.48,873-538.53,887.95-512.66C1302.2,346,394.41,815,405.69,834.54c14.42,25,856.86-523,869.09-501.77,14.68,25.43-875,479.72-861.72,502.82,11.17,19.34,846.66-522.37,861.19-497.21,14.42,25-871.54,483.38-860.71,502.13,11.09,19.22,846-514,857.11-494.85,11.87,20.55-859.09,477.44-848.4,496,13.72,23.76,847.4-517.54,859.65-496.31C1295.92,369.58,414,820.57,427.53,844c12.36,21.41,841.29-513.72,853.42-492.72,12,20.84-851.4,474.37-841.45,491.61.22.38,11.91-7.3,12.1-7"/><path class="cls-1" d="M294,828.51C306.1,849.43,1252.41,240,1267.67,266.38c11.81,20.47-969.08,531.17-954.12,557.08C330,851.92,1258,243,1273.27,269.36,1284.63,289,303.92,806,316.63,828c14.89,25.78,952.45-582.39,966.52-558C1297,293.87,306.24,813.55,317.5,833.06c15.14,26.22,951.88-579.54,964.86-557.07,16,27.7-970.66,537.15-957.93,559.19,15.61,27,950.27-582.42,964.9-557.09,15.9,27.55-973.56,533.17-958.49,559.26,12.37,21.43,945.64-581.12,960.86-554.76,12.18,21.11-972.24,537.35-959.19,560,16.14,28,923.72-566.09,937.91-541.5,14.06,24.35-942.66,518.5-929,542.22,12.29,21.29,923.16-562,935.73-540.25,14,24.2-940.95,515.11-926,540.93.33.57,20-12.39,20.4-11.77"/><path class="cls-1" d="M1277.37,229.49s.78-.45.78-.45c.16.28-6.72,8.72-6.55,9l0,0"/><path class="cls-1" d="M1280.4,225.3l1-.58c.18.32-11.69,11.83-11.51,12.13l4.35-2.51"/><path class="cls-1" d="M1274.41,226.42l1.25-.72c.08.14-1.84,6.13-1.76,6.26l2.21-1.28"/><path class="cls-1" d="M1250.77,226.58c.17.31,12-7.26,12.1-7"/><path class="cls-1" d="M218.16,823.93c17.57,30.42,994.48-610.35,1010.15-583.21C1241.16,263,208.34,801.9,222.89,827.1c16.19,28,1035.7-630.6,1049.83-606.12,14.6,25.29-1056.81,579.4-1041,606.83,15.54,26.91,1017.87-625.11,1034.08-597,12,20.84-1042.2,573.77-1027.77,598.75,15,25.93,1014.48-624.24,1031.16-595.34C1283.75,259.38,221.39,806.5,238.1,835.44,251.71,859,1255.76,211,1271.73,238.67,1286,263.42,227.21,806.8,244.84,837.33c12.67,22,1012-620.9,1027.87-593.44C1290.51,274.71,233,817.3,247.3,842.13c14.77,25.58,1020.31-630,1038-599.3,16.76,29-1049,573-1032.51,601.56,14.1,24.41,1017.93-622.2,1032.86-596.33C1299,271.18,246.19,825.51,258.59,847s998.86-616.81,1016.23-586.72"/><path class="cls-1" d="M1166.71,226.72c.13.23,12.53-7.64,12.7-7.33"/><path class="cls-1" d="M134.12,824.07c13.34,23.1,993.2-613.94,1010.74-583.56,16.77,29-1015.93,555-999.94,582.73C158.66,847,1174,198.09,1187.41,221.36c13.29,23-1049.75,583-1037.31,604.54,17.58,30.45,1034.67-626.76,1047.4-604.72,15.32,26.53-1055,584.13-1041.53,607.39,16.81,29.12,1028.39-630.4,1044.27-602.9,13.82,23.94-1061.83,577.14-1043.9,608.19,12.73,22,1034.65-625.63,1046.89-604.43C1216.81,253,147.93,815.9,160.3,837.32,173,859.24,1196.89,206.73,1210.8,230.82c15.77,27.31-1064.89,581.87-1048.09,611,17.89,31,1036.23-636.4,1052.74-607.8C1228.82,257.13,152.68,818.68,167.81,844.9,182.27,870,1203.86,215.63,1217.33,239,1234.17,268.13,161.68,823.4,174.88,846.27c14,24.25,1036.89-636.48,1053.28-608.1"/><path class="cls-1" d="M1082.66,226.86c.15.26,13.17-7.91,13.3-7.68"/><path class="cls-1" d="M50.06,824.21c15,26,997.8-607.35,1011.34-583.9,15,26-1013.29,564-1001.54,584.31C77.11,854.5,1094,198.36,1106.61,220.28c12.14,21-1061,582.88-1045.75,609.25C74.26,852.73,1094.64,197.77,1109.75,224,1122.19,245.5,53,811.35,65.23,832.62S1100.29,200.83,1115.1,226.48C1128,248.79,62.47,810.73,75.33,833,93.05,863.7,1107.51,203.91,1121.87,228.77,1134.55,250.74,63.64,815.67,76.54,838,89,859.57,1107.53,201.74,1125.3,232.51,1138.63,255.59,66.2,819.77,79.06,842.05c14.82,25.67,1034.11-632,1049.27-605.79C1144.07,263.51,69.29,822,82.81,845.41c14.62,25.34,1033.58-638,1051.43-607C1148.33,262.77,79.17,821.74,93,845.66c15.09,26.15,1035.62-631.89,1050.33-606.41"/><path class="cls-1" d="M9.57,826.73c16,27.74,1018.58-621.92,1033.24-596.54C1060.36,260.6-4.76,811,8.17,833.36c12.76,22.1,1022.14-624.91,1037.2-598.82C1062.69,264.53-2.34,807.1,14,835.41,28.19,860,1039.69,212.87,1052.83,235.64,1069.85,265.11-5.95,818.36,8.75,843.82,24.88,871.76,1035.82,211,1053.06,240.89,1065.41,262.29,6,820.16,19.24,843.17c.27.46,9.93-6.29,10.17-5.88"/><path class="cls-1" d="M9.87,826.34l.05,0c.11.2-5.13,8.29-5,8.49l2.16-1.25"/><path class="cls-1" d="M8.49,826.91l3.88-2.24c.14.25-6.68,8.88-6.54,9.11l0,0"/><path class="cls-1" d="M8.81,826.48l.07,0C9.14,826.9-4,838.8-3.77,839.2l6.63-3.83"/><path class="cls-1" d="M998.14,227.27c.14.24,15-8.93,15.09-8.71"/><path class="cls-1" d="M918.55,224.84c.15.26,6.59-4.12,6.73-3.88"/><path class="cls-1" d="M830.3,227.41c.15.27,15.53-9.31,15.68-9"/><path class="cls-1" d="M750.71,225c.16.29,7.16-4.5,7.32-4.23"/><path class="cls-1" d="M662.46,227.55c.17.3,16.11-9.69,16.28-9.4"/><path class="cls-1" d="M582.87,225.12c.18.31,7.74-4.88,7.92-4.57"/><path class="cls-1" d="M494.63,227.69c.13.22,16.75-10,16.88-9.75"/><path class="cls-1" d="M415.05,225.26c.14.24,8.38-5.16,8.51-4.92"/><path class="cls-1" d="M326.8,227.83c.15.25,8.67-5.35,8.82-5.09"/><path class="cls-1" d="M247.21,225.4c.16.26,9-5.54,9.12-5.26"/><path class="cls-1" d="M159,228c.16.28,9.24-5.73,9.41-5.44"/><path class="cls-1" d="M79.38,225.54c.17.29,9.53-5.91,9.71-5.61"/><path class="cls-1" d="M-13,243.82c0,.05.79-.49.81-.46s.7,4.82.76,4.92S1.15,240.75,1.28,241s-6.77,8.88-6.64,9.1c.58,1,39.48-23.91,40-23.07S3.43,250.05,4,251s35.11-21.38,35.59-20.55c.66,1.16-38.12,26-37.52,27,.47.82,41.39-24.95,41.85-24.17.67,1.16-39.4,27.22-38.72,28.41.58,1,38.7-23.73,39.3-22.69.77,1.34-56.08,36.56-55.36,37.8s62.57-37.85,63.32-36.55C53.62,242.27-14,282-13,283.65-11.69,286,95,217.53,96.63,220.33,98.15,223-8.31,283.24-7,285.53s108-66.18,109.62-63.29c1.84,3.19-109.94,66.21-108.43,68.84S108.34,222,109.74,224.38C111.53,227.47-2.37,291-.86,293.61c1.37,2.37,115.08-70.8,117-67.53C117.59,228.64,2.44,293.52,4,296.21c1.39,2.41,108.26-65.48,109.54-63.25,1.65,2.85-107,63.36-105.15,66.5,1.65,2.86,112.92-68.7,114.43-66.07,1.91,3.3-131.29,76.18-129.2,79.8,1.65,2.86,130-80.12,132.23-76.34,2,3.48-138,80.45-135.88,84.2,2.43,4.22,141.62-86.7,143.75-83C136,242-10.15,321.28-7.81,325.32s149.45-91.5,151.71-87.59c1.79,3.1-147,86.59-145.22,89.7,3,5.2,185.86-114.54,189-109.11,2.49,4.3-192,109.22-189,114.38C1.35,337.42,186.79,219,189,222.81,191.68,227.5,1.9,330.92,4.29,335.05c3.07,5.34,184.22-111.64,186.51-107.68S3.64,334.34,6.66,339.56c2.65,4.59,192-117.8,195-112.59C204.1,231.22-8.79,348.08-6.13,352.69c2.55,4.42,206-126.49,209.26-120.82,2.71,4.68-214.54,121.63-211,127.8,3.75,6.51,210.46-129.22,213.8-123.43C208.68,241-7.38,358.61-4.78,363.11c3.49,6,215.36-131.35,218.4-126.09,2.59,4.5-222.7,126.57-219.19,132.65C-2.82,374.43,218.07,234.52,220.68,239,223.47,243.86,4.81,362,7.82,367.23,12.27,375,262,211.71,265.78,218.3,270.06,225.71,2.72,366.56,6.71,373.47c3.13,5.43,259.54-158,263.05-151.87,3.39,5.87-265.5,148.23-261,156.09S271.26,216.78,275.32,223.81c4.39,7.61-291,164-286.77,171.34,4.38,7.58,286.33-174.53,290.32-167.62,4.24,7.35-289,163.22-284.7,170.71,3.91,6.77,289.19-177,293.55-169.48C292.65,237.29-8.73,396.44-4.76,403.3c3.68,6.37,292.51-177,296-170.92C294.71,238.33-.58,399.14,2.83,405,6.94,412.17,292.88,228.3,296.9,235.26,300.53,241.55-3.36,403.67,1.09,411.38s296-181.8,300.68-173.6c4.08,7.06-299.65,167.88-295.1,175.75,3.89,6.74,300.79-182,304.39-175.74C315.45,245.39,2.51,411.5,7,419.24c5.86,10.15,336.85-204.72,341.29-197S-13.94,425.29-8.66,434.43C-2.57,445,350,214.72,355.48,224.2,360.54,233-16.67,432-11.31,441.29c4.34,7.5,369.58-225.7,374.91-216.46S-5.18,432.51-.48,440.66c5.62,9.72,364-223.28,369.69-213.43C374.67,236.68-4.09,437.55.79,446,5.08,453.44,364,222.57,369.93,232.87c4.44,7.69-373.17,209.67-368,218.61,5.55,9.61,368.72-225.17,374-216S5.78,440.81,11.72,451.1C16.62,459.58,372,230.76,377.33,240,382.87,249.6,1.42,450.68,6.56,459.59c6.13,10.61,378.13-228.76,382.65-220.93C393.91,246.79-13.44,464.33-8,473.78c7.44,12.88,432.55-263.1,438.34-253.08,5.42,9.39-447.73,250.75-442,260.62,5.86,10.15,440.74-269.14,447.1-258.13,5.74,9.95-448.79,247.5-441.19,260.67C1.45,496.37,437.92,212.78,444.38,224c5.71,9.88-452,253.18-446,263.61,7.49,13,443-272,450-259.8C455,239.18-.33,480.91,4.85,489.87c7.66,13.27,438.24-268.18,444.8-256.81,7,12.19-448.55,252.72-443.38,261.67,5.64,9.77,441.89-270.52,448.56-259,7.51,13-472.93,264.35-466.51,275.46S457.71,223.56,464.92,236c6.34,11-484.63,271.62-478.76,281.79,6.34,11,474-290.63,481.33-277.9,5.89,10.22-486,267.79-477.92,281.87,6.7,11.6,484.48-297.16,492-284.08C487.91,248.65-5.07,510.1,1,520.66c7,12.15,508.71-310.49,516-297.9,8.08,14-520.12,289-512.79,301.69,7.44,12.87,512.27-316.6,521.29-301C531.69,234.17.17,513.48,8.23,527.43c6.53,11.32,518.59-316.38,525.94-303.65,8.3,14.36-527.95,295.33-521.58,306.38C21.53,545.63,531,213.93,538.35,226.61c8.24,14.29-558.45,308-549.92,322.79,6.91,12,539.26-331,547.76-316.25C543.06,245.06-17.32,540.58-9.43,554.24-3,565.43,534.49,225.17,541,236.45c9.51,16.47-560.48,308-551.33,323.83,7.28,12.6,550.73-334.77,558-322.16S-12.09,550.23-5,562.55c7.8,13.52,549.05-336.65,557.56-321.91C561.9,256.76-8.22,550.4.53,565.56c8.56,14.81,586-362.14,596.31-344.28C605.3,235.94,1,552.42,9,566.28c8.2,14.21,587.5-358.36,595.8-344,9.8,17-604.63,333-595.38,349,9,15.58,592.22-363.91,601.75-347.41,9.66,16.73-629.54,351.47-621.9,364.7C-1.64,604.31,603,214.14,611.69,229.19c10.76,18.64-629.38,347.26-620,363.5,7.51,13,619.59-379.32,628.94-363.13,8,13.86-637.36,350.52-627.27,368,8.19,14.18,620.19-381,630.11-363.79C632.91,250.11-14,584.43-3.83,602.07c10.42,18,629.24-380.23,636.58-367.53C641.87,250.35-1,587,7.25,601.29c8.73,15.12,616.17-376.81,625.29-361C640,253.17-3.18,593.15,5.66,608.45c7.44,12.89,634.39-384.33,642.21-370.78C656.78,253.11,2,594.54,11.35,610.67c11.58,20.06,671.55-407,679.89-392.53C701.48,235.87-24,615.55-14.55,631.9c12.09,20.94,695.19-424.12,705.05-407S-22.16,617.8-11.69,635.92C-3.09,650.83,687.49,208,698,226.18,708.76,244.81-12.85,619.74-2.88,637,6.55,653.35,693,208,704.83,228.42,713.63,243.66-10.73,622.2.16,641.05,11.21,660.2,700.63,215.5,709.78,231.35,722.05,252.6-7.7,626.68,3.19,645.54c11.91,20.64,699.7-423.4,708.11-408.83C719.85,251.52-2,631.71,7.72,648.62c10.13,17.55,696.95-426.56,707.41-408.43C727.15,261-18.8,649-9.69,664.75c12.13,21,725.85-445.5,737.29-425.68C740.17,260.84-22.58,652.33-11.25,672,1.82,694.59,753.8,199.21,767.24,222.5,776.35,238.27-15.36,659-6.14,675,5.29,694.76,769,203.38,779.42,221.42,790.75,241-13.37,660.29-2.63,678.9,10.8,702.17,771.65,206.51,782.63,225.52,796.06,248.79-2.93,661.5,7.26,679.15c11.26,19.5,768.87-468.42,779.48-450C796.66,246.29-1.95,665.64,8.59,683.9c9.15,15.85,772.6-470,783-452C801.35,248.78,0,672.94,9.31,689.1,20.66,708.76,780.7,213.66,793.73,236.22,807.38,259.87-21.47,683.48-8.83,705.37c10,17.39,801.52-486.08,811.62-468.59C812.46,253.53-19.53,694.58-9.8,711.44,3.12,733.82,793.08,224.41,803.25,242,816.1,264.29-17.31,693.35-4.88,714.87c10.72,18.56,844.24-521.55,859-496C864.63,237.09-9.07,693.22,4.06,716,14.21,733.54,844.51,203,856.52,223.8,869,245.35-2.86,696.64,9.72,718.44,20,736.27,848.48,203,862,226.37,874.24,247.57-.38,703.42,11.26,723.58c13.2,22.87,846.29-519.81,859.81-496.41C885,251.33-2.8,703.53,11.76,728.75c13.38,23.18,849.37-522.11,863.11-498.31,12,20.76-901.36,494.37-887.47,518.43S868.16,213.52,879.78,233.65C891,253.09-18.77,731.94-7.56,751.36c12.76,22.09,882.48-535.65,893.8-516,10.67,18.48-896.56,497.16-885,517.21C16.11,778.28,877.52,211,892.93,237.72,908.14,264.07-8.82,732.13,5.11,756.26,20.84,783.5,922.22,194.14,936.34,218.61c15,26-947.49,518.06-932.64,543.78,13.3,23,924.43-559.69,935.67-540.21C955.16,249.53-5.44,742.43,8,765.78c15.46,26.79,920.69-564.86,935.1-539.89C958.53,252.55-23,763.66-11.77,783.14-.18,803.23,938.63,199.9,953.58,225.8,967.68,250.21-22.11,767.64-10.2,788.26,5.92,816.18,944.34,211,955.65,230.63S-16.5,766.74-3,790.1c16.55,28.66,947.32-578.26,960.89-554.77C970.32,256.88-12.3,764.83,3.45,792.11,16.65,815,952.62,218.31,963.79,237.66c12.47,21.59-974.74,536-960.61,560.46,16,27.77,951.05-587.66,967.75-558.74C985.25,264.19-5.26,777,8.65,801.12c13.08,22.66,961.53-586.5,975.11-563C999,264.57-1.43,782.57,11.53,805c16.28,28.19,996.93-612.79,1013.05-584.89C1037.24,242.08-21,797.94-7.18,822c17.07,29.56,1021-622.84,1035.43-597.81C1044.72,252.67-12.89,801.19,0,823.52,14.63,848.85,1018.32,199,1034.15,226.45c13.06,22.62-1037,573.76-1023.83,596.61C24.25,847.2,1018.63,201.07,1035.88,231,1053.63,261.7-15.23,813.16-2.18,835.76c0,0,.38-.24.39-.22"/><path class="cls-1" d="M-6.61,231.05l.06,0c.09.15,5.36,3,5.43,3.14l2-1.14c.07.13-.83,6.62-.75,6.77l5-2.9c.09.16,6.17,2.38,6.24,2.51s1.34-.82,1.36-.78"/><path class="cls-1" d="M8.63,222.05s1.29-.78,1.31-.75,4.78,3.09,4.86,3.22,8.78-5.36,8.91-5.14-10.93,12-10.71,12.43,11.64-7.25,11.87-6.85-9.67,11-9.47,11.37,17.2-10.51,17.44-10.08"/><path class="cls-1" d="M-4.08,228.41l.28-.16c.06.11.63,5.25.7,5.38L3.18,230c.08.15.45,5.72.54,5.87l0,0c.06.11.37,5.33.42,5.42L9.8,238"/><path class="cls-1" d="M-7.18,229.26l.57-.33c.09.16,6.15,1.78,6.24,1.94l.08-.05c.08.14,4,3.65,4.07,3.75l0,0c.08.13.55,5,.61,5.09l4.1-2.37"/><path class="cls-1" d="M-1.44,225.27l.87-.5c.08.15-3.2,6.88-3.09,7.07l1.93-1.11c.09.15,5.79,2.49,5.87,2.63l0,0c.06.12.8,4.59.87,4.71l2.57-1.49"/><path class="cls-1" d="M-4.2,226.45l1.16-.67c.08.14,5.27,3,5.33,3.13l.07,0c.07.12,1.33,5,1.4,5.13l.09-.05c.07.12,3.26,4.11,3.32,4.22l1.05-.61"/><path class="cls-1" d="M10.94,237.69l1.42-.82"/><path class="cls-1" d="M-2.61,225.39l1.76-1c.06.09,1.11,4.93,1.17,5l4.06-2.34c.06.1,2.7,4.09,2.75,4.18l1.58-.91c.06.1-.33,5.73-.27,5.83h0"/></svg>