<svg id="Layer_1" data-name="Layer 1" xmlns="http://www.w3.org/2000/svg" viewBox="0 0 1280 1024"><defs><style>.cls-1{fill:none;stroke:#ff7c5c;stroke-linecap:round;stroke-linejoin:round;stroke-width:3px;}</style></defs><title>redcover</title><path class="cls-1" d="M1269.55,603.53l2.63-1.52c.06.1,1,4.86,1,5l0,0c0,.1,1.43,4.69,1.49,4.8l.08,0"/><path class="cls-1" d="M1270.85,602.71h0c.06.11.92,4.63,1,4.73l.05,0c.06.1,3.94,3.15,4,3.27l.68-.4"/><path class="cls-1" d="M1269.83,602.63l3.24-1.87c.09.16-.43,6.27-.35,6.41l.58-.33c.07.12,3,3.57,3.11,3.69l1.43-.82"/><path class="cls-1" d="M1269.87,602.28h0c.07.11.49,5.51.56,5.64l.06,0c.1.18-2.49,6.68-2.41,6.81l2.17-1.26"/><path class="cls-1" d="M1274.89,598.28l3.84-2.22c.07.12,1.17,4.88,1.24,5l4.92-2.84"/><path class="cls-1" d="M1276.36,597.27h0c.09.14,4.65,2.61,4.73,2.75l2.73-1.58c.06.11,2.79,3.51,2.84,3.61l3.67-2.11"/><path class="cls-1" d="M1275.14,597.57l4.44-2.56c.09.15,7.6.65,7.68.79l.58-.34"/><path class="cls-1" d="M1277.67,594.92h0c.09.15,6.13,2.43,6.2,2.55l7.1-4.1"/><path class="cls-1" d="M1275.13,12.83l5.06-2.92"/><path class="cls-1" d="M1279.26,9.83l.07,0"/><path class="cls-1" d="M1276.61,10.39l5.77-3.33"/><path class="cls-1" d="M1277.3-6.67l.1-.06c.1.17-4,8.34-3.89,8.56l0,0"/><path class="cls-1" d="M1271.77-5.53l6.3-3.64c.17.3-9.11,10.86-8.91,11.21L1274-.74"/><path class="cls-1" d="M1273.28-8.28l.08,0c.1.17-2.09,6.78-2,7L1274-2.88"/><path class="cls-1" d="M1267.32-6.5l6.88-4c.06.11-1,6-.92,6.11l.47-.27c.13.22-4.57,8-4.45,8.24l1.6-.92"/><path class="cls-1" d="M11.12,602.39h0c.1.17-3.36,7.07-3.28,7.22l7-4c.18.3-8.68,10.18-8.49,10.5l2.41-1.39"/><path class="cls-1" d="M6,605.25,13.46,601c.14.25-5,8.87-4.92,9.08l.1-.06"/><path class="cls-1" d="M9.2,602.62h0c.09.15-2.57,7.26-2.47,7.42l.1-.06"/><path class="cls-1" d="M4.27,604.2l8-4.63c.17.3-9,10.5-8.79,10.82l.48-.28"/><path class="cls-1" d="M-8.42,9.89l.1-.06c.16.28,11.3-.89,11.42-.68l.37-.21"/><path class="cls-1" d="M-8.8,8.05l.92-.53c.06.1,4.2,3.11,4.26,3.22l6.86-4"/><path class="cls-1" d="M-7.86,4l1.49-.86c.09.15,5.41,3,5.49,3.16l.07,0c.09.16,7,1.35,7.1,1.53l1.09-.63"/><path class="cls-1" d="M9.78-8.81l.06,0c.07.13-1,6.46-.92,6.62l.34-.2c.06.12.37,5.51.43,5.61l1.84-1.06"/><path class="cls-1" d="M6.55-7.89l2.08-1.2c.08.12,0,5.66.08,5.8l.07,0c.09.17-3.29,7.44-3.19,7.62l2.59-1.5"/><path class="cls-1" d="M5.47-7.95l0,0c.1.18-2.23,6.65-2.13,6.83L8-3.83c.06.1.48,5.25.55,5.38l0,0"/><path class="cls-1" d="M2.12-6.42,4.79-8c.06.1.11,5.16.16,5.26L7.43-4.13C7.5-4,5.76,2.23,5.86,2.39L9.94,0"/><path class="cls-1" d="M1270.32,596.39l0,0c.08.14,5.53,2.9,5.6,3l.23-.14c.07.1-.81,5.86-.75,6l0,0c0,.09,0,5.16,0,5.27l2.65-1.53"/><path class="cls-1" d="M1269,597.13l3.27-1.89c.1.17-1.21,6.54-1.13,6.67l6.72-3.88c.1.16-1.51,6.16-1.44,6.29l0,0c.08.13,1.69,5.06,1.77,5.19l1.12-.64"/><path class="cls-1" d="M1270.82,596.07l0,0c.06.1,3.33,3.71,3.39,3.82h0c.07.12,3.1,3.45,3.16,3.55l0,0c.06.12,3.42,3.88,3.48,4l.08-.05"/><path class="cls-1" d="M1269.28,596.9l3.87-2.23c.07.11,1.6,4.46,1.66,4.57h0c.07.11,3.48,3.13,3.55,3.25l.05,0c.06.11,3.76,3.44,3.82,3.56l.09,0"/><path class="cls-1" d="M1271.28,595.67l0,0c.07.12,2.56,3.66,2.62,3.77l.2-.12c.07.13,5.07,2.09,5.15,2.24l.06,0c.05.1,4.08,3,4.16,3.13l.09,0"/><path class="cls-1" d="M1267.26,597.91s5.16-3,5.17-3"/><path class="cls-1" d="M1271.5,595.44l0,0c.07.12,1.49,4.91,1.56,5l4.51-2.6c.07.12,4.29,3.57,4.36,3.69l.07,0c.08.13,4.93,2.84,5,3l.06,0"/><path class="cls-1" d="M1270.35,595.31c.19.32,17.61-10.64,17.82-10.28.11.19-6.12,9-6,9.16s9.27-5.58,9.37-5.41"/><path class="cls-1" d="M1222,595.75c1.06,1.84,66.3-41.08,67.51-39,.79,1.37-56.6,36.38-55.84,37.7.64,1.11,40.06-24.72,40.75-23.53.52.91-39.37,27.19-38.68,28.37s36-22.07,36.52-21.08c.44.77-34.28,24.3-33.73,25.24s40.68-24.74,41.22-23.8-29.63,21.79-29.19,22.54c.55,1,31.91-19.67,32.45-18.73s-29,21.25-28.58,21.95,15.14-9.57,15.5-8.95-16.25,14.65-16,15.1,12.85-7.88,13-7.53-9.23,10.28-9,10.58,9.76-6,9.93-5.74-6.3,8.9-6.18,9.11,5.12-3.08,5.18-3"/><path class="cls-1" d="M1133.7,598.32c2.39,4.13,154.41-93.42,156.26-90.22,2.3,4-148,85.92-145.93,89.46,1.7,2.94,148.29-90.15,150.26-86.75,1.69,2.93-138.66,82.15-137,85.05s128.88-79.07,130.9-75.57c2.25,3.9-135.42,78.31-133.08,82.37,1.56,2.7,117.32-71,118.76-68.56,1.78,3.09-116.48,69.44-114.81,72.32s110.52-68,112.36-64.87c1.58,2.73-102.19,61.85-100.82,64.23,1.55,2.68,101.53-62.41,103.17-59.57,1.34,2.32-105.18,62.77-103.6,65.51s111.58-68.54,113.36-65.45c1.69,2.93-110.66,65.87-108.82,69.06,1.39,2.4,111-68.14,112.76-65.1s-109.21,65-107.77,67.52c1.67,2.89,110.88-67.16,112.24-64.8"/><path class="cls-1" d="M1054.11,595.89c3.76,6.51,220.09-133.94,223.07-128.79,2.52,4.38-215.55,123.34-212.42,128.76,3,5.13,212.17-130.73,215.74-124.56,3.66,6.34-212,121.78-209.17,126.64s210.13-127.86,213-123c3.27,5.65-214.64,122.39-211.67,127.53,2.52,4.37,217.16-132.92,220.43-127.27s-220,124.83-216.76,130.38C1079.4,611,1287.55,478,1290,482.24c3.06,5.29-206.73,118.35-204,123.18,2.61,4.52,186.11-113.43,188.7-108.95,2.76,4.77-192.23,109.46-189.18,114.74,2.46,4.25,189-114.43,191.27-110.43,3.11,5.37-190.16,110.11-187.71,114.35,2.87,5,186.57-114.18,189.37-109.34s-185,107.3-182.55,111.6c3,5.15,181.82-111.3,184.56-106.56"/><path class="cls-1" d="M965.86,598.46c3.55,6.13,304.92-185.9,309.19-178.51,4,7-295.64,166.18-291.15,174s285-173.38,288.83-166.76c4.85,8.4-292.67,165-288.44,172.33,4.13,7.16,293-180.71,298-172,4.08,7.08-296.94,166.67-292.17,174.93,4.51,7.82,293.8-177.6,297.26-171.62,4.22,7.32-297.57,167.07-293.09,174.81,4.24,7.36,292-177.3,295.73-170.74,4.15,7.19-290.92,164.76-286.94,171.65S1289.51,432.58,1293.19,439c4.72,8.17-295.4,164.43-290.44,173,3.11,5.39,261.36-159.89,265.26-153.14,3.09,5.35-266,150.14-262.07,157,3.3,5.73,262.81-160.32,266.53-153.88s-262,149-258.45,155.17c4.3,7.45,257.53-158.81,261.91-151.22"/><path class="cls-1" d="M886.28,596c5.07,8.79,397.72-243.7,403.81-233.15,6.27,10.85-402.11,223-395.71,234.09s369.73-226.87,375.54-216.81S900.1,586,905.9,596c5.54,9.59,360.71-221.31,366.36-211.52,4.59,8-370.19,208.93-365.51,217.05,4.88,8.44,365.52-223.07,370.73-214,5.11,8.85-371.74,207.27-366,217.24,5.16,9,362.36-221.08,367.5-212.18,5,8.74-365.56,204.74-360.49,213.53s365.37-220.92,369.68-213.44c4.49,7.78-373.69,211.6-369.16,219.44,5.9,10.23,364.63-224.89,370.85-214.11,4.76,8.24-374.68,207.11-368.34,218.1,5.66,9.8,364.18-221.48,369-213.07,4.6,8-365.37,204.94-360.3,213.73,5.79,10,339.17-206.11,343.63-198.39"/><path class="cls-1" d="M798,598.6c6.47,11.21,485.26-298.06,493-284.64,5.73,9.93-485.64,267.1-477.56,281.1,6.09,10.55,470.87-285.36,476.71-275.23,7.33,12.68-479.44,263.72-471.34,277.76,7.48,13,462.58-281.81,469-270.76,7.87,13.63-471.44,261.76-464.42,273.93C831,613.84,1263.86,329.4,1271.24,342.2c6,10.37-449.68,249.36-442.51,261.78,6,10.38,440.51-269.65,447.14-258.15,6,10.33-447.43,249.7-441.12,260.64,6,10.44,436.73-269,444-256.37,6.16,10.67-449.36,252-443.47,262.15,6.48,11.23,444.83-270.53,450.77-260.25,6.29,10.91-453.75,254.28-447.68,264.79,5.67,9.83,446.14-270.47,451.72-260.8,7.61,13.18-448.14,249.54-441.79,260.53,5.21,9,433.48-265.8,440.2-254.15"/><path class="cls-1" d="M718.46,596.17c7.93,13.73,550.4-339.63,559.86-323.24C1286.07,286.34,719,587,725.52,598.38c8,13.86,551.71-337.42,559.89-323.26S725.9,587.55,732.9,599.67C742.17,615.73,1286.48,265,1293,276.3c8.56,14.84-558.52,313.18-552.1,324.31,8.13,14.07,542.29-329.76,549.51-317.26,7.12,12.33-553.52,304.13-544.45,319.84,6.83,11.83,516.55-317.61,525-303.07,6.8,11.78-528.28,292.89-520.71,306,7,12.16,512.37-314.34,520.39-300.45,8.12,14.07-527.36,293.24-519.92,306.11,6.8,11.79,511.73-314.17,519.84-300.13,7.87,13.64-525.86,290.92-517.75,305s522.67-315.88,528.79-305.29c8.24,14.28-526.36,291.56-518.76,304.72,6.42,11.13,517-312.42,523.06-302"/><path class="cls-1" d="M630.21,598.74c9.53,16.51,638.08-386.08,645.73-372.82,10.1,17.49-639.26,356.7-631.28,370.52C654.8,614,1266.72,212.18,1277.59,231c8.92,15.44-631.77,350.16-623.08,365.21,7.47,12.93,618-379.76,627.93-362.53,8.82,15.27-633.62,351-624.89,366.11,7.94,13.77,616.87-378.66,626.62-361.78,7.85,13.6-631.63,345.94-621,364.38,7.82,13.55,619.9-382.47,630.54-364,7.91,13.7-636.56,352-627.3,368.1C674.77,620.9,1280,231.6,1288.89,247.08,1299.68,265.76,657.43,595.42,667,611.91c10.44,18.09,595.28-360.35,602.5-347.86,9.68,16.77-599.53,335.51-592.42,347.83,7.7,13.34,587.36-362.18,597.35-344.88C1283,282,672,600.43,680.85,615.8c7.65,13.26,583.59-355.72,591.72-341.64"/><path class="cls-1" d="M550.62,596.3c11.67,20.21,730.54-443.87,740.11-427.3,8.86,15.35-736.67,408.63-726.93,425.5,8.51,14.73,700.4-427.32,710.34-410.12,9.68,16.77-717.43,394.75-706.67,413.39,9,15.58,694.91-424.11,704.83-406.94C1281.16,206.19,563.68,580,575,599.66c11.47,19.86,691.7-419,700.22-404.27S564.19,592.93,572.51,607.33c8.42,14.58,702.6-425.44,711.17-410.6s-711.54,391.87-701,410.08C592,623,1275.07,185.46,1284.41,201.65S571.78,592.21,583.23,612c11.19,19.39,698.09-426.2,708.12-408.83,8.17,14.14-708.59,391.82-698.71,408.93,11.08,19.19,688.55-423.22,699.67-404,9.21,16-705.8,388.92-695.21,407.25,9,15.63,662.62-407.07,673.23-388.69"/><path class="cls-1" d="M462.37,598.87c13.6,23.57,809.7-493.73,821.07-474,11.47,19.88-820.61,452.89-809.16,472.72,11.11,19.26,807.06-497,820.49-473.71C1305.43,142.3,467,576,480.42,599.32c11,19.07,797.11-483.15,807-465.95,13.61,23.58-806,447.82-795.78,465.48,11.09,19.19,765.6-468.17,776.93-448.56C1277.78,166.18,479.38,589.2,489,605.82c13.44,23.27,771.64-469.22,781.91-451.43,9,15.67-784.56,431.66-772.78,452.06,10.24,17.74,766.46-464.49,776-448,11.64,20.17-788.91,429.8-775.46,453.09,11.27,19.52,775-477.21,787.91-454.9,10,17.33-792.06,433.29-779.39,455.25,10.19,17.64,771.56-472.73,783.37-452.28,9.29,16.09-790.9,434.35-778.82,455.27,10.84,18.77,772.2-467.53,781.59-451.25,10.33,17.88-783.08,429-770.83,450.25.24.42,16.8-10.13,17-9.8"/><path class="cls-1" d="M382.78,596.44c10.4,18,883.44-540.61,896.67-517.69,14.34,24.82-899.32,494-886.1,516.9C407,619.33,1268.79,62.94,1280.6,83.39c11,19-889.14,494.23-878.6,512.49,12.93,22.39,875.76-539.16,890.29-514,14,24.27-906.14,497.76-892.63,521.16,10.67,18.48,873-538.53,887.95-512.66C1302.7,116.52,394.91,585.5,406.19,605c14.42,25,856.86-523,869.09-501.77C1290,128.7,400.23,583,413.56,606.09c11.17,19.34,846.66-522.37,861.19-497.21C1289.17,133.85,403.21,592.26,414,611c11.09,19.22,846-514,857.11-494.85,11.87,20.55-859.09,477.44-848.4,496,13.72,23.76,847.4-517.54,859.65-496.31,14,24.27-867.88,475.26-854.37,498.65,12.36,21.41,841.29-513.72,853.42-492.72,12,20.84-851.4,474.37-841.45,491.61.22.38,11.91-7.3,12.1-7"/><path class="cls-1" d="M294.53,599c12.07,20.92,958.38-588.56,973.64-562.13C1280,57.35,299.09,568.05,314.05,594c16.43,28.46,944.49-580.48,959.72-554.1,11.36,19.68-969.35,536.6-956.64,558.62,14.89,25.78,952.45-582.39,966.52-558C1297.46,64.37,306.74,584.05,318,603.56,333.14,629.78,1269.88,24,1282.86,46.49c16,27.7-970.66,537.15-957.93,559.19,15.61,27,950.27-582.42,964.9-557.09,15.9,27.55-973.56,533.17-958.49,559.26C343.71,629.28,1277,26.73,1292.2,53.09,1304.38,74.2,320,590.44,333,613.05,349.15,641,1256.73,47,1270.92,71.55,1285,95.9,328.26,590.05,342,613.77c12.29,21.29,923.16-562,935.73-540.25,14,24.2-940.95,515.11-926,540.93.33.57,20-12.39,20.4-11.77"/><path class="cls-1" d="M1277.87,0s.78-.45.78-.45c.16.28-6.72,8.72-6.55,9l0,0"/><path class="cls-1" d="M1280.9-4.2l1-.58c.18.32-11.69,11.83-11.51,12.13l4.35-2.51"/><path class="cls-1" d="M1274.91-3.08l1.25-.72c.08.14-1.84,6.13-1.76,6.26l2.21-1.28"/><path class="cls-1" d="M218.66,594.43c17.57,30.42,994.48-610.35,1010.15-583.21,12.85,22.25-1020,561.18-1005.42,586.38,16.19,28,1035.7-630.6,1049.83-606.12,14.6,25.29-1056.81,579.4-1041,606.83,15.54,26.91,1017.87-625.11,1034.08-597,12,20.84-1042.2,573.77-1027.77,598.75C253.52,626,1253-24.21,1269.71,4.69,1284.25,29.88,221.89,577,238.6,605.94,252.21,629.51,1256.26-18.49,1272.23,9.17,1286.52,33.92,227.71,577.3,245.34,607.83c12.67,22,1012-620.9,1027.87-593.44C1291,45.21,233.47,587.8,247.8,612.63c14.77,25.58,1020.31-630,1038-599.3,16.76,29-1049,573-1032.51,601.56C267.41,639.3,1271.24-7.31,1286.17,18.56,1299.52,41.68,246.69,596,259.09,617.5S1258,.69,1275.32,30.78"/><path class="cls-1" d="M134.62,594.57C148,617.67,1127.82-19.37,1145.36,11c16.77,29-1015.93,555-999.94,582.73C159.16,617.53,1174.47-31.41,1187.91-8.14c13.29,23-1049.75,583-1037.31,604.54C168.18,626.85,1185.27-30.36,1198-8.32,1213.32,18.21,143,575.81,156.47,599.07c16.81,29.12,1028.39-630.4,1044.27-602.9,13.82,23.94-1061.83,577.14-1043.9,608.19,12.73,22,1034.65-625.63,1046.89-604.43C1217.31,23.46,148.43,586.4,160.8,607.82,173.45,629.74,1197.39-22.77,1211.3,1.32c15.77,27.31-1064.89,581.87-1048.09,611C181.1,643.27,1199.44-24.11,1216,4.49,1229.32,27.63,153.18,589.18,168.31,615.4,182.77,640.45,1204.36-13.87,1217.83,9.46,1234.67,38.63,162.18,593.9,175.38,616.77,189.38,641,1212.27-19.71,1228.66,8.67"/><path class="cls-1" d="M50.56,594.71c15,26,997.8-607.35,1011.34-583.9,15,26-1013.29,564-1001.54,584.31C77.61,625,1094.46-31.14,1107.11-9.22,1119.25,11.8,46.14,573.66,61.36,600,74.76,623.23,1095.14-31.73,1110.25-5.54,1122.69,16,53.45,581.85,65.73,603.12S1100.79-28.67,1115.6-3C1128.48,19.29,63,581.23,75.83,603.49,93.55,634.2,1108-25.59,1122.37-.73,1135.05,21.24,64.14,586.17,77,608.52,89.48,630.07,1108-27.76,1125.8,3,1139.13,26.09,66.7,590.27,79.56,612.55,94.38,638.22,1113.67-19.5,1128.83,6.76,1144.57,34,69.79,592.51,83.31,615.91c14.62,25.34,1033.58-638,1051.43-607C1148.83,33.27,79.67,592.24,93.48,616.16,108.57,642.31,1129.1-15.73,1143.81,9.75"/><path class="cls-1" d="M10.07,597.23C26.08,625,1028.65-24.69,1043.31.69,1060.86,31.1-4.26,581.47,8.67,603.86,21.43,626,1030.81-21,1045.87,5,1063.19,35-1.84,577.6,14.51,605.91,28.69,630.46,1040.19-16.63,1053.33,6.14,1070.35,35.61-5.45,588.86,9.25,614.32,25.38,642.26,1036.32-18.46,1053.56,11.39,1065.91,32.79,6.46,590.66,19.74,613.67c.27.46,9.93-6.29,10.17-5.88"/><path class="cls-1" d="M10.37,596.84l.05,0c.11.2-5.13,8.29-5,8.49l2.16-1.25"/><path class="cls-1" d="M9,597.41l3.88-2.24c.14.25-6.68,8.88-6.54,9.11l0,0"/><path class="cls-1" d="M9.31,597l.07,0c.26.46-12.87,12.36-12.65,12.76l6.63-3.83"/><path class="cls-1" d="M-12.47,14.32s.79-.49.81-.46.7,4.82.76,4.92S1.65,11.25,1.78,11.46-5,20.34-4.86,20.56c.58,1,39.48-23.91,40-23.07S3.93,20.55,4.49,21.51,39.6.13,40.08,1c.66,1.16-38.12,26-37.52,27C3,28.76,44,3,44.41,3.77,45.08,4.93,5,31,5.69,32.18c.58,1,38.7-23.73,39.3-22.69.77,1.34-56.08,36.56-55.36,37.8S52.2,9.44,53,10.74c1.17,2-66.47,41.71-65.48,43.41C-11.19,56.47,95.52-12,97.13-9.17,98.65-6.54-7.81,53.74-6.49,56s108-66.18,109.62-63.29C105-4.07-6.81,59-5.3,61.58S108.84-7.54,110.24-5.12C112-2-1.87,61.49-.36,64.11,1,66.48,114.72-6.69,116.61-3.42,118.09-.86,2.94,64,4.49,66.71,5.88,69.12,112.75,1.23,114,3.46,115.68,6.31,7.07,66.82,8.88,70,10.53,72.82,121.8,1.26,123.31,3.89,125.22,7.19-8,80.07-5.89,83.69c1.65,2.86,130-80.12,132.23-76.34,2,3.48-138,80.45-135.88,84.2,2.43,4.22,141.62-86.7,143.75-83C136.47,12.47-9.65,91.78-7.31,95.82S142.14,4.32,144.4,8.23c1.79,3.1-147,86.59-145.22,89.7,3,5.2,185.86-114.54,189-109.11C190.66-6.88-3.85,98-.87,103.2,1.85,107.92,187.29-10.47,189.47-6.69,192.18-2,2.4,101.42,4.79,105.55,7.86,110.89,189-6.09,191.3-2.13S4.14,104.84,7.16,110.06c2.65,4.59,192-117.8,195-112.59C204.6,1.72-8.29,118.58-5.63,123.19c2.55,4.42,206-126.49,209.26-120.82C206.34,7.05-10.91,124-7.34,130.17-3.59,136.68,203.12,1,206.46,6.74,209.18,11.46-6.88,129.11-4.28,133.61c3.49,6,215.36-131.35,218.4-126.09C216.71,12-8.58,134.09-5.07,140.17-2.32,144.93,218.57,5,221.18,9.54,224,14.36,5.31,132.52,8.32,137.73c4.45,7.72,254.15-155.52,258-148.93C270.56-3.79,3.22,137.06,7.21,144,10.34,149.4,266.75-14,270.26-7.9,273.65-2,4.76,140.33,9.29,148.19S271.76-12.72,275.82-5.69c4.39,7.61-291,164-286.77,171.34C-6.57,173.23,275.38-8.88,279.37-2c4.24,7.35-289,163.22-284.7,170.71,3.91,6.77,289.19-177,293.55-169.48C293.15,7.79-8.23,166.94-4.26,173.8c3.68,6.37,292.51-177,296-170.92C295.21,8.83-.08,169.64,3.33,175.54,7.44,182.67,293.38-1.2,297.4,5.76,301,12.05-2.86,174.17,1.59,181.88S297.54.08,302.27,8.28C306.35,15.34,2.62,176.16,7.17,184,11.06,190.77,308,2.05,311.56,8.29,316,15.89,3,182,7.48,189.74,13.34,199.89,344.33-15,348.77-7.3S-13.44,195.79-8.16,204.93C-2.07,215.49,350.51-14.78,356-5.3,361,3.47-16.17,202.5-10.81,211.79c4.34,7.5,369.58-225.7,374.91-216.46S-4.68,203,0,211.16C5.64,220.88,364-12.12,369.71-2.27,375.17,7.18-3.59,208.05,1.29,216.5,5.58,223.94,364.48-6.93,370.43,3.37,374.87,11.06-2.74,213,2.42,222,8,231.59,371.14-3.19,376.46,6S6.28,211.31,12.22,221.6c4.9,8.48,360.27-220.34,365.61-211.08C383.37,20.1,1.92,221.18,7.06,230.09,13.19,240.7,385.19,1.33,389.71,9.16c4.7,8.13-402.65,225.67-397.2,235.12C0,257.16,425.06-18.82,430.85-8.8,436.27.59-16.88,242-11.18,251.82-5.32,262,429.56-17.32,435.92-6.31c5.74,10-448.79,247.5-441.19,260.67C2,266.87,438.42-16.72,444.88-5.53c5.71,9.88-452,253.18-446,263.61,7.49,13,443-272,450-259.8C455.46,9.68.17,251.41,5.35,260.37,13,273.64,443.59-7.81,450.15,3.56,457.19,15.75,1.6,256.28,6.77,265.23,12.41,275,448.66-5.29,455.33,6.25c7.51,13-472.93,264.35-466.51,275.46S458.21-5.94,465.42,6.54c6.34,11-484.63,271.62-478.76,281.79C-7,299.31,460.63-2.3,468,10.43c5.89,10.22-486,267.79-477.92,281.87,6.7,11.6,484.48-297.16,492-284.08C488.41,19.15-4.57,280.6,1.53,291.16c7,12.15,508.71-310.49,516-297.9C525.59,7.25-2.61,282.25,4.72,295,12.16,307.82,517-21.65,526-6,532.19,4.67.67,284,8.73,297.93,15.26,309.25,527.32-18.45,534.67-5.72,543,8.64,6.72,289.61,13.09,300.66,22,316.13,531.53-15.57,538.85-2.89,547.09,11.4-19.6,305.14-11.07,319.9c6.91,12,539.26-331,547.76-316.25C543.56,15.56-16.82,311.08-8.93,324.74-2.47,335.93,535-4.33,541.5,7,551,23.42-19,314.93-9.83,330.78-2.55,343.38,540.9-4,548.18,8.62S-11.59,320.73-4.47,333.05C3.33,346.57,544.58-3.6,553.09,11.14,562.4,27.26-7.72,320.9,1,336.06,9.59,350.87,587-26.08,597.34-8.22,605.8,6.44,1.5,322.92,9.5,336.78,17.7,351,597-21.58,605.3-7.21c9.8,17-604.63,333-595.38,349,9,15.58,592.22-363.91,601.75-347.41,9.66,16.73-629.54,351.47-621.9,364.7C-1.14,374.81,603.5-15.36,612.19-.31,623,18.33-17.19,347-7.81,363.19-.3,376.2,611.78-16.13,621.13.06c8,13.86-637.36,350.52-627.27,368C2.05,382.23,614.05-12.92,624,4.26,633.41,20.61-13.52,354.93-3.33,372.57,7.09,390.61,625.91-7.66,633.25,5,642.37,20.85-.5,357.51,7.75,371.79,16.48,386.91,623.92-5,633,10.78,640.48,23.67-2.68,363.65,6.16,379,13.6,391.84,640.55-5.38,648.37,8.17,657.28,23.61,2.53,365,11.85,381.17c11.58,20.06,671.55-407,679.89-392.53C702,6.37-23.49,386.05-14,402.4-2,423.34,681.14-21.72,691-4.65S-21.66,388.3-11.19,406.42C-2.59,421.33,688-21.53,698.5-3.32,709.26,15.31-12.35,390.24-2.38,407.52c9.43,16.33,695.92-429,707.71-408.6C714.13,14.16-10.23,392.7.66,411.55,11.71,430.7,701.13-14,710.28,1.85,722.55,23.1-7.2,397.18,3.69,416,15.6,436.68,703.39-7.36,711.8,7.21,720.35,22-1.55,402.21,8.22,419.12,18.35,436.67,705.17-7.44,715.63,10.69,727.65,31.5-18.3,419.47-9.19,435.25,2.94,456.26,716.66-10.25,728.1,9.57,740.67,31.34-22.08,422.83-10.75,442.46,2.32,465.09,754.3-30.29,767.74-7,776.85,8.77-14.86,429.5-5.64,445.47,5.79,465.26,769.51-26.12,779.92-8.08,791.25,11.53-12.87,430.79-2.13,449.4,11.3,472.67,772.15-23,783.13-4,796.56,19.29-2.43,432,7.76,449.65,19,469.15,776.63-18.77,787.24-.39,797.16,16.79-1.45,436.14,9.09,454.4c9.15,15.85,772.6-470,783-452C801.85,19.28.48,443.44,9.81,459.6,21.16,479.26,781.2-15.84,794.23,6.72,807.88,30.37-21,454-8.33,475.87,1.71,493.26,793.19-10.21,803.29,7.28,813,24-19,465.08-9.3,481.94,3.62,504.32,793.58-5.09,803.75,12.53,816.6,34.79-16.81,463.85-4.38,485.37c10.72,18.56,844.24-521.55,859-496C865.13,7.59-8.57,463.72,4.56,486.47,14.71,504,845-26.51,857-5.7,869.46,15.85-2.36,467.14,10.22,488.94,20.52,506.77,849-26.55,862.51-3.13,874.74,18.07.12,473.92,11.76,494.08,25,517,858.05-25.73,871.57-2.33,885.51,21.83-2.3,474,12.26,499.25,25.64,522.43,861.63-22.86,875.37.94,887.36,21.7-26,495.31-12.1,519.37S868.66-16,880.28,4.15C891.51,23.59-18.27,502.44-7.06,521.86,5.7,544,875.42-13.79,886.74,5.83,897.41,24.31-9.82,503,1.75,523,16.61,548.78,878-18.48,893.43,8.22,908.64,34.57-8.32,502.63,5.61,526.76,21.34,554,922.72-35.36,936.84-10.89,951.88,15.16-10.65,507.17,4.2,532.89,17.5,555.93,928.63-26.8,939.87-7.32,955.66,20-4.94,512.93,8.54,536.28,24,563.07,929.23-28.58,943.64-3.61,959,23.05-22.52,534.16-11.27,553.64.32,573.73,939.13-29.6,954.08-3.7,968.18,20.71-21.61,538.14-9.7,558.76,6.42,586.68,944.84-18.46,956.15,1.13S-16,537.24-2.51,560.6C14,589.26,944.81-17.66,958.38,5.83,970.82,27.38-11.8,535.33,4,562.61,17.15,585.48,953.12-11.19,964.29,8.16c12.47,21.59-974.74,536-960.61,560.46C19.72,596.39,954.73-19,971.43,9.88,985.75,34.69-4.76,547.53,9.15,571.62c13.08,22.66,961.53-586.5,975.11-563C999.52,35.07-.93,553.07,12,575.52,28.31,603.71,1009-37.27,1025.08-9.37,1037.74,12.58-20.55,568.44-6.68,592.46,10.39,622,1014.3-30.38,1028.75-5.35,1045.22,23.17-12.39,571.69.5,594,15.13,619.35,1018.82-30.47,1034.65-3,1047.71,19.57-2.38,570.71,10.82,593.56,24.75,617.7,1019.13-28.43,1036.38,1.45,1054.13,32.2-14.73,583.66-1.68,606.26c0,0,.38-.24.39-.22"/><path class="cls-1" d="M-6.11,1.55l.06,0c.09.15,5.36,3,5.43,3.14l2-1.14c.07.13-.83,6.62-.75,6.77l5-2.9c.09.16,6.17,2.38,6.24,2.51s1.34-.82,1.36-.78"/><path class="cls-1" d="M9.13-7.45s1.29-.78,1.31-.75S15.22-5.11,15.3-5s8.78-5.36,8.91-5.14S13.28,1.92,13.5,2.31,25.14-4.94,25.37-4.54,15.7,6.48,15.9,6.83,33.1-3.68,33.34-3.25"/><path class="cls-1" d="M-3.58-1.09l.28-.16c.06.11.63,5.25.7,5.38L3.68.5c.08.15.45,5.72.54,5.87l0,0c.06.11.37,5.33.42,5.42L10.3,8.52"/><path class="cls-1" d="M-6.68-.24l.57-.33C-6-.41,0,1.21.13,1.37l.08-.05c.08.14,4,3.65,4.07,3.75l0,0c.08.13.55,5,.61,5.09L9,7.77"/><path class="cls-1" d="M-.94-4.23l.87-.5c.08.15-3.2,6.88-3.09,7.07l1.93-1.11c.09.15,5.79,2.49,5.87,2.63l0,0c.06.12.8,4.59.87,4.71L8.12,7.05"/><path class="cls-1" d="M-3.7-3l1.16-.67c.08.14,5.27,3,5.33,3.13l.07-.05c.07.12,1.33,5,1.4,5.13l.09,0c.07.12,3.26,4.11,3.32,4.22l1.05-.61"/><path class="cls-1" d="M11.44,8.19l1.42-.82"/><path class="cls-1" d="M-2.11-4.11l1.76-1C-.29-5,.76-.19.82-.09L4.88-2.43c.06.1,2.7,4.09,2.75,4.18L9.21.84c.06.1-.33,5.73-.27,5.83h0"/><path class="cls-1" d="M1275.18,611.82l5.06-2.92"/><path class="cls-1" d="M1279.28,608.83l.07,0"/><path class="cls-1" d="M1276.62,609.39l5.77-3.33"/><path class="cls-1" d="M1277.3,592.33l.1-.06c.1.17-4,8.34-3.89,8.56l0,0"/><path class="cls-1" d="M1271.77,593.47l6.3-3.64c.17.3-9.11,10.86-8.91,11.21l4.81-2.78"/><path class="cls-1" d="M1273.28,590.72l.08,0c.1.17-2.09,6.78-2,7l2.65-1.53"/><path class="cls-1" d="M1267.32,592.5l6.88-4c.06.11-1,6-.92,6.11l.47-.28c.13.22-4.57,8-4.45,8.25l1.6-.92"/><path class="cls-1" d="M962.38,1197.51c3.57,6.19,307.89-187.72,312.2-180.25,4.07,7.06-298.58,167.76-294,175.63S1267.45,1018.36,1271.3,1025c4.88,8.46-294.56,166-290.3,173.4,4.16,7.2,294.44-181.6,299.46-172.89,4.11,7.11-298.37,167.44-293.58,175.74,4.54,7.85,295.3-178.51,298.77-172.49,4.25,7.35-299.05,167.87-294.56,175.65,4.28,7.41,294-178.53,297.79-171.92,4.18,7.24-293,165.88-289,172.82s289.73-175.89,293.46-169.43c4.77,8.26-298.81,166.27-293.8,174.95,3.16,5.47,265.45-162.39,269.41-155.54,3.14,5.44-270.29,152.46-266.26,159.43,3.33,5.78,265.18-161.76,268.93-155.27s-264.59,150.38-261,156.63c4.33,7.51,259.23-159.85,263.64-152.21"/><path class="cls-1" d="M881.86,1195.07C887,1204,1284,948.7,1290.11,959.37c6.33,11-406.5,225.38-400,236.58s375.78-230.58,381.68-220.36-376,209.17-370.08,219.38c5.58,9.68,363.85-223.23,369.55-213.36,4.63,8-373.36,210.67-368.64,218.85,4.91,8.5,367.62-224.35,372.87-215.27,5.14,8.91-373.87,208.43-368.08,218.45,5.19,9,364.12-222.14,369.28-213.2,5.07,8.78-367.34,205.71-362.25,214.54s367.33-222.1,371.67-214.58c4.51,7.81-375.71,212.7-371.16,220.58,6,10.31,367.57-226.7,373.85-215.84,4.79,8.31-377.78,208.78-371.38,219.86,5.74,9.94,369.23-224.55,374.15-216,4.66,8.08-370.7,207.84-365.55,216.76,5.86,10.15,343.61-208.82,348.13-201"/><path class="cls-1" d="M792.68,1197.64c6.51,11.28,488-299.76,495.84-286.27,5.76,10-488.42,268.6-480.29,282.68,6.14,10.63,474.58-287.61,480.47-277.4,7.39,12.78-483.16,265.73-475,279.87,7.58,13.13,468.49-285.41,475-274.21,8,13.8-477.46,265-470.35,277.35,7.65,13.24,446.14-274.86,453.62-261.9,6.07,10.5-455.51,252.52-448.24,265.1,6,10.45,443.79-271.67,450.48-260.09,6,10.41-450.8,251.54-444.44,262.56,6.06,10.5,439.07-270.46,446.41-257.74,6.19,10.72-451.77,253.28-445.85,263.53,6.51,11.28,447-271.88,453-261.54,6.33,11-456,255.54-449.95,266.1,5.71,9.9,449.1-272.27,454.72-262.53,7.66,13.27-451.32,251.27-444.93,262.34,5.27,9.12,437.93-268.53,444.72-256.76"/><path class="cls-1" d="M712.17,1195.21c8,13.81,553.52-341.55,563-325.07,7.79,13.49-562.46,315.77-555.85,327.21,8,13.93,554.53-339.15,562.75-324.9s-562.33,314-555.3,326.15c9.33,16.16,557-336.72,563.54-325.36,8.62,14.93-561.94,315.07-555.48,326.27,8.2,14.2,547.27-332.79,554.55-320.17,7.19,12.44-558.6,306.87-549.45,322.73,7.15,12.38,540.88-332.57,549.66-317.35,7.13,12.34-553.32,306.53-545.4,320.25,7.1,12.3,518-317.79,526.12-303.75,8.21,14.22-533.15,296.4-525.64,309.41,6.85,11.86,515.3-316.36,523.47-302.22,7.93,13.73-529.61,292.95-521.44,307.11S1272.13,898,1278.28,908.63C1286.57,923,749,1201.79,756.63,1215c6.47,11.19,519.87-314.14,525.93-303.65C1291,926,760.29,1198.78,768.8,1213.51c.17.29,13.84-8.37,14-8.09"/><path class="cls-1" d="M623,1197.78c9.63,16.68,644.56-390,652.29-376.6,10.21,17.67-645.77,360.27-637.71,374.23,10.21,17.68,626.2-386.82,637.15-367.86,9,15.55-636,352.45-627.22,367.6,7.51,13,621.19-381.73,631.19-364.42,8.86,15.36-636.86,352.78-628.1,368,8,13.83,620-380.6,629.83-363.63,7.89,13.66-634.85,347.67-624.15,366.21,7.88,13.64,624-385,634.71-366.45,8,13.79-640.77,354.34-631.44,370.49,8.42,14.59,619.87-378.74,628.91-363.1,10.89,18.88-638,351.89-628.39,368.55C670.94,1229.63,1280.82,835,1288.34,848c10.11,17.5-625.69,349.9-618.27,362.75,7.78,13.47,592.91-365.6,603-348.13,8.74,15.13-608.25,336.61-599.3,352.12,7.71,13.35,587.42-358,595.6-343.87"/><path class="cls-1" d="M542.46,1195.35c11.79,20.42,738.25-448.56,747.92-431.81,9,15.51-744.45,412.89-734.61,429.93,8.83,15.3,727-443.54,737.3-425.68,10,17.4-744.73,409.57-733.56,428.91,9.08,15.73,701.29-428,711.3-410.67,9,15.5-715.13,392.67-703.67,412.52S1263,777,1271.6,791.84,556.29,1191.71,564.66,1206.2c8.46,14.65,706.07-427.53,714.68-412.62s-715.08,393.79-704.51,412.09c9.38,16.25,696.25-423.68,705.64-407.41S563.88,1191,575.39,1210.91c11.28,19.53,703.4-429.45,713.5-411.95,8.23,14.26-714.09,394.83-704.14,412.07,11.22,19.43,697.18-428.52,708.44-409,9.33,16.16-714.83,393.82-704.11,412.39,9.15,15.86,672.58-413.19,683.36-394.54"/><path class="cls-1" d="M453.28,1197.92c13.68,23.7,814.34-496.56,825.77-476.76,11.54,20-825.28,455.44-813.76,475.38,11.2,19.4,813.17-500.74,826.71-477.3,10.73,18.6-834,455.56-820.47,479,11.14,19.3,806.64-488.92,816.69-471.51,13.77,23.85-815.69,453.13-805.37,471C494.3,1217.58,1274,713.94,1285.74,734.2c9.47,16.41-815.48,453.33-805.56,470.5,13.54,23.46,778.11-473.16,788.46-455.22,9.13,15.8-791.18,435.26-779.3,455.83,10.3,17.84,770.91-467.19,780.48-450.61,11.71,20.29-793.49,432.26-780,455.69,11.33,19.62,778.88-479.58,791.83-457.16,10,17.41-796.07,435.45-783.33,457.52,10.24,17.75,775.9-475.39,787.77-454.82,9.34,16.18-795.46,436.81-783.31,457.86,10.92,18.92,778.26-471.2,787.73-454.79,10.41,18-789.79,432.66-777.43,454.06.27.48,19.26-11.63,19.48-11.25"/><path class="cls-1" d="M372.75,1195.49c10.46,18.12,888.56-543.74,901.87-520.69,14.41,25-904.48,496.82-891.2,519.84,13.74,23.8,880-535.47,891.86-514.91,11,19.08-893.73,496.75-883.13,515.1,13,22.52,880.82-542.28,895.43-517,14.1,24.41-911.29,500.57-897.7,524.1C400.64,1220.58,1270,659,1285.08,685.1c15.22,26.35-900,499.12-888.62,518.81,14.89,25.8,884.52-539.84,897.15-518,15.16,26.26-903.52,495.16-889.75,519C415.18,1224.55,1262,675.51,1276.7,701c14.61,25.31-883.33,489.86-872.36,508.86,11.18,19.37,852.91-518.23,864.08-498.88,12,20.73-866.17,481.33-855.38,500,13.79,23.89,852.21-520.49,864.54-499.15,14.09,24.41-872.94,478-859.36,501.53,12.43,21.52,845.71-516.42,857.9-495.31s-856.4,477.13-846.39,494.47c.25.45,14.37-8.8,14.58-8.42"/><path class="cls-1" d="M283.57,1198.06c12.21,21.15,968.94-595,984.36-568.32,12,20.69-979.84,537-964.71,563.19,16.54,28.66,951-584.49,966.37-557.93,11.44,19.81-976,540.24-963.21,562.41,15,25.91,957.42-585.44,971.57-560.94,13.88,24-982,546.37-970.64,566,15.22,26.37,956.91-582.6,970-560,16.07,27.85-975.78,540-963,562.11,15.72,27.23,957-586.56,971.77-561,16,27.75-980.51,536.93-965.34,563.21,12.52,21.68,956.53-587.81,971.93-561.15C1305,666.92,309.18,1189,322.38,1211.91,339,1240.75,1275,628.09,1289.68,653.44c14.5,25.12-972.53,534.75-958.4,559.22,12.39,21.47,931-566.79,943.65-544.82,14.1,24.42-949.27,519.6-934.23,545.66.38.64,23-14.21,23.4-13.51"/><path class="cls-1" d="M1277.87,599s.78-.45.78-.45c.16.28-6.72,8.72-6.55,9l0,0"/><path class="cls-1" d="M1280.9,594.8l1-.58c.18.32-11.69,11.83-11.51,12.13l4.35-2.51"/><path class="cls-1" d="M1274.91,595.92l1.25-.72c.08.14-1.84,6.13-1.76,6.26l2.21-1.28"/><path class="cls-1" d="M1251,596.18c.18.31,12-7.31,12.2-7"/><path class="cls-1" d="M206.77,1193.48c17.58,30.44,995.17-610.78,1010.85-583.62,12.86,22.27-1020.54,561.5-1006,586.71,15.76,27.3,1008.38-614,1022.14-590.13,14.22,24.62-1028.63,564.11-1013.22,590.8,15.72,27.21,1029.39-632.18,1045.79-603.79,12.16,21.07-1054,580.22-1039.42,605.48,15.14,26.22,1025.95-631.3,1042.82-602.08,14.71,25.48-1059.62,578.7-1042.73,608,13.68,23.69,1022.58-627.44,1038.62-599.65C1280,630,216.06,1176,233.77,1206.69,246.65,1229,1262.44,575.57,1278.56,603.48c18.09,31.34-1056.9,582.78-1042.33,608,14.77,25.57,1020-629.78,1037.71-599.13,16.76,29-1048.72,572.87-1032.25,601.41,14.22,24.63,1027-627.72,1042-601.62,13.47,23.32-1048.91,582.62-1036.39,604.31C260.13,1238.61,1276.09,581.2,1294,612.19"/><path class="cls-1" d="M1166,596.32c.13.23,12.61-7.69,12.79-7.39"/><path class="cls-1" d="M121.79,1193.62c13.35,23.12,993.89-614.36,1011.45-584C1150,638.72,116.7,1165,132.7,1192.73c13.3,23,995.88-605,1008.88-582.48C1154.45,632.53,125.94,1174.49,138,1195.34c17.65,30.56,1038.56-629.13,1051.34-607C1204.68,615,130.43,1174.62,143.91,1198c16.91,29.29,1034.34-634.05,1050.3-606.39,13.91,24.08-1067.93,580.42-1049.9,611.65,12.82,22.2,1041.53-629.78,1053.85-608.44,13.67,23.68-1062.31,590.33-1049.86,611.89C161,1228.75,1192,571.78,1206,596c15.87,27.5-1072.18,585.81-1055.26,615.11,18,31.18,1042.85-640.47,1059.47-611.69,13.45,23.3-1069.68,588.46-1054.44,614.84,14.53,25.18,1041.42-632.53,1055-609.08,16.93,29.32-1061.3,587.54-1048,610.53,14,24.32,1039.87-638.31,1056.3-609.86C1236.41,636,159.41,1185,175.81,1213.44c.16.27,11.37-6.93,11.52-6.66"/><path class="cls-1" d="M1081,596.46c.15.26,13.26-8,13.39-7.73"/><path class="cls-1" d="M36.81,1193.75c15,26,998.49-607.76,1012-584.3,15,26-1013.88,564.28-1002.12,584.65C63.44,1223,1048,587.7,1060.28,608.92,1072,629.28,33.07,1173.43,47.81,1199c13.45,23.29,1037.86-634.25,1053-608,12.49,21.63-1060.94,589.68-1048.62,611,12.44,21.53,1041-635.43,1055.92-609.64,13,22.44-1058.71,587.59-1045.78,610,17.85,30.9,1039.1-633.3,1053.56-608.27,12.76,22.11-1065.31,590.78-1052.32,613.28,12.53,21.69,1038-640.63,1055.93-609.64C1133,621,53.17,1189,66.13,1211.42c14.91,25.83,1040.72-636.09,1056-609.67,15.84,27.43-1065.88,589.5-1052.28,613.06,14.71,25.46,1039-641.3,1056.93-610.22C1140.91,629.12,66,1191.08,79.86,1215.13,95,1241.35,1118.23,581.56,1133,607.11"/><path class="cls-1" d="M-3.93,1196.23c16.12,27.93,1025.55-626.18,1040.3-600.62,17.68,30.62-1054.71,584.71-1041.7,607.25,12.84,22.24,1028.79-629,1043.95-602.72C1056.05,630.33-15.94,1176.41.51,1204.91c14.26,24.69,1031.39-626,1044.61-603.11C1062.23,631.43-19.53,1187.72-4.75,1213.32c16.19,28,1030.82-635.09,1048.11-605.13,12.4,21.48-1051,581.4-1037.64,604.49.27.48,10.55-6.67,10.8-6.23"/><path class="cls-1" d="M995.53,596.87c.14.25,15.05-9,15.18-8.76"/><path class="cls-1" d="M915,594.44c.15.26,6.68-4.18,6.82-3.93"/><path class="cls-1" d="M825.82,597c.16.27,15.62-9.37,15.77-9.11"/><path class="cls-1" d="M745.3,594.58c.16.29,7.25-4.56,7.41-4.28"/><path class="cls-1" d="M656.12,597.15c.17.3,16.2-9.75,16.37-9.45"/><path class="cls-1" d="M575.59,594.72c.19.32,7.83-4.94,8-4.62"/><path class="cls-1" d="M486.42,597.29c.13.22,16.84-10,17-9.8"/><path class="cls-1" d="M405.9,594.86c.14.24,8.47-5.21,8.61-5"/><path class="cls-1" d="M316.72,597.43c.15.25,8.76-5.4,8.91-5.14"/><path class="cls-1" d="M236.2,595c.16.27,9.05-5.59,9.2-5.32"/><path class="cls-1" d="M147,597.57c.17.28,9.34-5.78,9.5-5.49"/><path class="cls-1" d="M66.5,595.14c.17.3,9.62-6,9.8-5.66"/><path class="cls-1" d="M-26.47,613.32s.79-.49.81-.46.71,4.82.76,4.92,12.55-7.53,12.68-7.32-6.77,8.88-6.64,9.1c.58,1,39.62-24,40.1-23.15.58,1-31.31,23.13-30.75,24.1S25.76,599,26.24,599.87c.67,1.16-38.28,26-37.68,27.07.47.82,41.56-25.05,42-24.26C31.24,603.84-9,630-8.3,631.18c.57,1,38.82-23.81,39.43-22.77.77,1.35-56.22,36.64-55.5,37.89s62.55-37.85,63.3-36.55c1.17,2-66.45,41.7-65.46,43.4,1.34,2.32,108.14-66.17,109.75-63.37,1.52,2.63-105,63-103.71,65.25s108.33-66.41,110-63.51c1.85,3.2-110.33,66.42-108.81,69.06s114.72-69.46,116.12-67c1.8,3.12-112.7,66.94-111.18,69.57C-13,665.5,101.4,591.89,103.3,595.18,104.79,597.76-11.07,663-9.51,665.71c1.4,2.42,109-65.91,110.27-63.67C102.42,604.91-6.95,665.8-5.12,669c1.66,2.87,113.61-69.12,115.13-66.48,1.92,3.32-132,76.58-129.9,80.21,1.66,2.87,130.62-80.48,132.82-76.68,2,3.5-138.65,80.77-136.47,84.54,2.44,4.23,142-86.9,144.09-83.19,2.26,3.92-144.2,83.41-141.86,87.46s149.17-91.34,151.43-87.43c1.79,3.1-146.73,86.43-144.94,89.54,3,5.21,186.33-114.83,189.47-109.39C177.15,591.86-17.86,697-14.87,702.2c2.73,4.74,189.06-114.22,191.25-110.42,2.73,4.72-188,108.62-185.59,112.77,3.09,5.37,185.38-112.34,187.68-108.36S-9.88,703.8-6.84,709.06c2.67,4.63,193.25-118.58,196.28-113.33C191.91,600-22.31,717.55-19.63,722.19c2.57,4.45,207.26-127.27,210.55-121.57C193.64,605.34-24.93,723-21.34,729.17c3.77,6.54,211.59-129.92,215-124.1,2.74,4.75-214.5,123-211.89,127.54C-14.78,738.67,198,600.72,201,606c2.61,4.52-223.61,127.07-220.09,133.17,2.75,4.76,223.86-135.28,226.47-130.76C210.19,613.24-8.69,731.52-5.68,736.73-1.79,743.47,216.05,601,219.37,606.8,223.12,613.28-10.28,736.93-6.79,743c3.14,5.45,260.49-158.53,264-152.43,3.4,5.89-266.48,148.77-261.93,156.65s263.94-161.8,268-154.74c4.42,7.65-292.51,164.82-288.25,172.2,4.4,7.63,288.08-175.6,292.09-168.65,4.28,7.4-290.83,164.2-286.47,171.74,3.93,6.81,291.05-178.16,295.43-170.57,5,8.59-298.35,168.72-294.36,175.63,3.7,6.41,294.29-178.11,297.84-172,3.45,6-293.68,167.77-290.25,173.7,4.14,7.16,291.51-177.63,295.55-170.63,3.65,6.32-301.76,169.22-297.29,177S284.42,598.54,289.17,606.77c4.08,7.08-300.56,168.37-296,176.26,3.88,6.74,300.41-181.75,304-175.52C301.56,615.1-11,781-6.52,788.74-.65,798.91,331,583.61,335.46,591.3S-27.45,794.77-22.16,803.93C-16,814.54,338.25,583.15,343.75,592.67c5.09,8.82-373.94,208.78-368.56,218.11,4.36,7.56,371.76-227,377.13-217.73S-18.71,802-14,810.16c5.65,9.78,366.39-224.75,372.12-214.84C363.63,604.84-17.62,807-12.71,815.5-8.39,823,352.87,590.6,358.86,601c4.47,7.74-375.64,211-370.44,220C-6,830.65,359.27,594.5,364.62,603.77S-7.76,810.25-1.78,820.6c4.92,8.52,361.89-221.33,367.26-212C371,618.2-12.1,820.14-6.94,829.09-.8,839.72,371.73,600,376.26,607.85,381,616-26.95,833.82-21.49,843.28c6.88,11.91,399.72-243.13,405.07-233.87,5,8.68-414,232.28-408.76,241.41,5.88,10.19,442.25-270.06,448.63-259,5.76,10-450.35,248.34-442.72,261.55C-12,865.94,426.85,580.79,433.35,592c5.74,10-454.53,254.55-448.48,265C-7.59,870.14,430.7,583.3,437.8,595.59,444.43,607.07-13.86,850.35-8.65,859.37c7.71,13.36,441.23-270,447.84-258.56C446.28,613.08-12.44,855.22-7.23,864.23-1.56,874.06,437.5,592,444.2,603.59c7.56,13.09-475.84,265.94-469.38,277.12s471.7-289.06,478.94-276.52c6.38,11-487,272.92-481.1,283.14C-21,898.34,448,595.88,455.35,608.64,461.27,618.89-32.08,877.18-23.93,891.3c6.67,11.54,482.25-295.78,489.76-282.77,6.28,10.88-484.37,271.12-478.3,281.63,7,12.18,509.9-311.21,517.18-298.6,8.1,14-521.34,289.66-514,302.39,7.47,12.94,514.82-318.17,523.88-302.47,6.21,10.75-528,291.43-519.87,305.45,6.57,11.39,521.8-318.34,529.2-305.53C532.27,605.85-7.32,888.54-.91,899.66c9,15.58,521.95-318.37,529.32-305.6,8.3,14.37-562.06,310-553.48,324.84,7,12.06,542.8-333.13,551.35-318.32C533.2,612.56-30.87,910-22.93,923.74c6.49,11.25,547.16-331,553.71-319.68C540.35,620.62-33,913.83-23.83,929.78c7.31,12.66,553.25-336.3,560.56-323.64S-25.62,919.67-18.47,932.05c7.82,13.55,550.17-337.33,558.69-322.57,9.33,16.16-562,310.39-553.19,325.58,8.07,14,552.46-341.42,562.19-324.58C557.19,624.3-12,922.72-4.5,935.78,3.73,950,585,576.2,593.32,590.62c9.83,17-606.68,334.07-597.4,350.15,9,15.65,595.42-365.89,605-349.3,9.71,16.82-632.83,353.28-625.15,366.58,9.15,15.86,617.61-376.77,626.36-361.63C613,615.17-31.25,945.85-21.82,962.19c7.57,13.09,623.73-381.84,633.14-365.54,8,14-641.61,352.81-631.46,370.4C-11.9,981.32,604.06,583.62,614,600.91c9.51,16.46-641.62,352.9-631.37,370.66C-6.86,989.71,615.35,589.26,622.72,602c9.18,15.9-637.27,354.4-629,368.76C2.51,986,612.17,592.6,621.32,608.46,628.79,621.39-16.71,962.6-7.84,978-.41,990.83,625.69,594.14,633.5,607.67c8.9,15.42-645,356.39-635.65,372.5C9.45,1000.26,670.44,572.54,678.8,587,689.05,604.78-37.5,985-28,1001.41c12.14,21,698.39-426.08,708.29-408.93S-35.71,987.21-25.19,1005.42c8.65,15,703.38-430.51,714-412.2C699.58,612-26.41,989.14-16.38,1006.52-6.89,1023,684.19,574.64,696.06,595.19c8.85,15.34-720.36,396.38-709.4,415.36C-2.21,1029.83,691.78,582.17,701,598.13,713.35,619.52-21.27,996.05-10.31,1015,1.67,1035.8,693.51,589.14,702,603.8c8.6,14.89-717.57,397.31-707.75,414.32C4.39,1035.74,694.11,589.76,704.62,608c12.07,20.9-737,410.44-727.81,426.29,12.13,21,726.07-445.63,737.51-425.8,12.57,21.76-750.41,413.38-739.07,433,12.54,21.72,734.17-453.67,747.08-431.32,8.73,15.13-750.82,419-742,434.33C-8.16,1064.35,759,570.78,769.43,588.89,780.81,608.6-26.92,1029.71-16.13,1048.4c13.51,23.41,778.94-475.23,790-456.11,13.51,23.41-790.35,438.6-780.1,456.36C5.1,1068.28,767.83,577.06,778.52,595.57c10,17.29-794,439.45-783.43,457.83,9.21,15.95,777.83-473.22,788.28-455.12,9.85,17.06-796.95,444.05-787.56,460.32C7.23,1078.38,772,580.22,785.08,602.92,798.81,626.71-35,1052.85-22.33,1074.87c10.09,17.47,805.2-488.32,815.35-470.74C802.73,621-33.08,1064-23.3,1080.94c13,22.42,804.47-488,814.66-470.34,12.88,22.3-822.19,452.2-809.74,473.77,10.29,17.82,810.76-500.87,825-476.29,10.07,17.45-828.62,455.55-816,477.39,10.19,17.64,843.61-514.91,855.67-494,12.49,21.64-862.64,474.62-850,496.5C6.58,1105.87,839.78,569.5,853.38,593.06c12.31,21.32-867.33,479.75-855.62,500,13.29,23,851.92-523.27,865.52-499.71,14,24.32-879.68,479.5-865,504.88,13.48,23.34,855.19-525.69,869-501.73,12.06,20.9-907.37,497.63-893.39,521.85s886.26-538.7,898-518.44C883.15,619.5-32.34,1101.32-21,1120.86-8.24,1143.06,866,582.41,877.41,602.13,888.13,620.71-23.88,1101.88-12.25,1122c14.9,25.81,878.61-543,894.07-516.19,15.25,26.41-904.18,495.71-890.21,519.91C6.76,1152,874.84,584.41,888.44,608,902.93,633.06-24.1,1107.12-9.8,1131.89c13.33,23.09,926.68-561.05,938-541.53C944,617.78-19,1111.87-5.46,1135.28,10.08,1162.2,919.91,567.55,934.4,592.64c15.47,26.79-971,540.42-959.67,560C-13.6,1172.85,931,565.77,946.08,591.83,960.26,616.4-35.68,1137-23.7,1157.76c16.23,28.11,960.94-581.08,972.32-561.36S-30.09,1136.08-16.51,1159.6C.15,1188.45,937,577.55,950.67,601.19c12.53,21.7-976.58,533-960.72,560.42,13.28,23,954.58-577.07,965.81-557.61,12.54,21.72-980.29,539-966.08,563.62,16.1,27.88,954.64-589.87,971.4-560.84,14.38,24.9-979.9,539.66-965.93,563.84C8.2,1193.23,954.7,585.32,968.25,608.8,983.48,635.17-14.9,1152.12-2,1174.52,13.8,1201.83,963.61,581,979.22,608c12.28,21.26-1013.34,560.15-999.9,583.43C-3.54,1221.16,1005,565.75,1019.52,590.9c16.55,28.65-1046,579.68-1033,602.11C1.22,1218.5,1011,564.72,1027,592.3,1040.11,615.07-16.46,1169.57-3.19,1192.56c14,24.3,1015.16-626.21,1032.53-596.13,17.87,31-1058.16,586.08-1045,608.83,0,0,.38-.24.39-.22"/><path class="cls-1" d="M-20.11,600.55l.06,0c.09.16,5.36,3,5.43,3.14l2-1.13c.07.12-.83,6.62-.75,6.77l5-2.9c.09.15,6.16,2.38,6.24,2.51s1.34-.82,1.36-.78"/><path class="cls-1" d="M-4.87,591.55s1.29-.78,1.31-.75S1.22,593.89,1.3,594s8.82-5.39,9-5.17S-.72,600.92-.5,601.31s11.72-7.31,12-6.9S1.7,605.48,1.9,605.82s17.32-10.58,17.57-10.14"/><path class="cls-1" d="M-2.63,607l1.43-.82"/></svg>