<svg id="Layer_1" data-name="Layer 1" xmlns="http://www.w3.org/2000/svg" viewBox="0 0 1280 1024"><defs><style>.cls-1{opacity:0.51;}.cls-2{fill:#ff7c5c;}.cls-3{fill:#fff;}</style></defs><title>breakup_boysquig</title><g class="cls-1"><path class="cls-2" d="M255.2,268.52A84.24,84.24,0,0,0,222,275.45c-1,.43.83,9.82,0,10a270.36,270.36,0,0,1,59.56-6.08v-10L216.38,290c-.46.14.12,10,0,10a390.18,390.18,0,0,0,53.95,1.28v-10l-64.59,14c-.61.13.41,10,0,10L267,309V299a328.22,328.22,0,0,0-51.59,25.37c-.4.25-.4,9.69,0,10,19.64,15.22,46.78-1.62,67.92,9.76v-10L230,356.77c-.65.27.32,10,0,10a450.1,450.1,0,0,1,55.84,4.69v-10a142.79,142.79,0,0,1-40.66,19.83c-.83.25.65,9.89,0,10l59.17-10.45c.58-.1-.41-9.95,0-10a659.86,659.86,0,0,0-86.53,17.08c-.58.15.34,10,0,10l117.74-4.3v-10l-109.07,30c-.52.15.24,10,0,10l136.07,1.7v-10c-34.53,21.28-78.34,12.54-113.77,31.56-.8.42.52,10,0,10q66.66-3.75,132.93-12.33v-10A573.87,573.87,0,0,1,293,445.85v10a842.61,842.61,0,0,1,108.54-20.77c.46-.06-.32-10,0-10a657.23,657.23,0,0,0-80.84,14.4c-.49.13.24,10,0,10l54.33.11c8.89,0,17.78,0,26.67.05,6.29,0,13.48-.14,17.63,5.39V445L272,476.33c-.49.1.24,10,0,10l59.26-1.22c.14,0,0-10,0-10L272,476.33v10L419.36,455c.1,0,.44-9.41,0-10-4.15-5.53-11.34-5.36-17.63-5.39-8.89,0-17.78,0-26.67-.05l-54.33-.11v10a657.23,657.23,0,0,1,80.84-14.4v-10A842.61,842.61,0,0,0,293,445.85c-.59.15.35,10,0,10a573.87,573.87,0,0,0,88.66-11.34c.63-.13-.45-9.94,0-10q-66.22,8.58-132.93,12.33v10c35.43-19,79.24-10.28,113.77-31.56.72-.43-.38-10,0-10l-136.07-1.7v10l109.07-30c.59-.16-.35-10,0-10l-117.74,4.3v10a659.86,659.86,0,0,1,86.53-17.08v-10l-59.17,10.45v10a142.79,142.79,0,0,0,40.66-19.83c.59-.41-.13-10,0-10A450.1,450.1,0,0,0,230,356.77v10l53.35-22.67c.29-.12.33-9.82,0-10-21.14-11.38-48.28,5.47-67.92-9.76v10A328.22,328.22,0,0,1,267,309c.79-.3-.57-9.94,0-10l-61.25,6.31v10l64.59-14c.52-.11-.31-10,0-10A390.18,390.18,0,0,1,216.38,290v10l65.15-20.6c.57-.18-.28-10,0-10A270.36,270.36,0,0,0,222,275.45v10a84.24,84.24,0,0,1,33.23-6.93c.08,0,.06-10,0-10Z"/></g><g class="cls-1"><path class="cls-2" d="M189.39,587.77l-15.55-.52v10q78-15.39,157.14-23.58c.38,0-.22-10,0-10q-65.14,5-130.54,4.61v10a509.34,509.34,0,0,0,109.3-12.2c.48-.11-.23-10,0-10l-79.2.3q-19.31.07-38.61.15c-8.67,0-19.44-.34-24.23-8.83v10l130.41-30.26c.5-.12-.26-10,0-10a1411.5,1411.5,0,0,0-161.24,11.32v10l159.55-21.9c.42-.06-.24-10,0-10L127.86,517.61v10a1170,1170,0,0,1,140.17-22v-10c-57.15,9.55-114.61,19-172.73,18.81v10l165-37.81c.6-.13-.38-10,0-10L108.66,488.68v10q76.72-14.93,154.43-23.89c.42,0-.26-10,0-10L140.15,475.93v10l133.7-24c.56-.1-.39-10,0-10q-57.63,6.51-115.64,8v10l155.47-30.48c.45-.09-.2-10,0-10l-100.87.7v10l91.39-13.45c.51-.08-.35-10,0-10a631.6,631.6,0,0,1-97.42,3.73v10q42.51-13,85.77-23.28c.47-.11-.21-10,0-10q-46-.67-91.94,1.47v10l75.25-16c.49-.1-.26-10,0-10L202,384.51v10l60.36-16c.66-.18-.45-10,0-10L191,375.36v10l59.76-18.12c.66-.2-.42-10,0-10l-86,5.18v10L235.19,356c.56-.13-.33-10,0-10a633.4,633.4,0,0,0-82.84,9.85c-.55.1.36,10,0,10q39-3.72,77.62-11v-10l-79.17,16c-.56.11.36,10,0,10l66.89-5.54c.34,0-.2-10,0-10l-66.89,5.54v10l79.17-16c.71-.14-.55-9.89,0-10q-38.53,7.29-77.62,11v10A633.4,633.4,0,0,1,235.19,356V346l-70.38,16.42c-.57.14.35,10,0,10l86-5.18v-10L191,375.36c-.71.22.49,10,0,10l71.3-6.85v-10l-60.36,16c-.57.15.31,10,0,10l73.91-1.92v-10l-75.25,16c-.52.12.3,10,0,10q45.94-2.14,91.94-1.47v-10q-43.24,10.26-85.77,23.28c-.52.16.22,10,0,10a631.6,631.6,0,0,0,97.42-3.73v-10l-91.39,13.45c-.37.06.14,10,0,10l100.87-.7v-10L158.21,459.92c-.47.09.24,10,0,10q58-1.46,115.64-8v-10l-133.7,24c-.53.09.34,10,0,10l122.94-11.14v-10q-77.64,9-154.43,23.89c-.54.1.35,10,0,10l151.59-12.09v-10L95.3,514.4c-.47.11.22,10,0,10,58.12.23,115.58-9.26,172.73-18.81.52-.08-.34-10,0-10a1170,1170,0,0,0-140.17,22c-.56.12.34,10,0,10l168.56-10.75v-10l-159.55,21.9c-.51.07.36,10,0,10a1411.5,1411.5,0,0,1,161.24-11.32v-10L167.7,547.7c-.17,0-.38,9.32,0,10,4.61,8.18,14.83,8.79,23.24,8.83,13.2.06,26.4-.1,39.6-.15l79.2-.3v-10a509.34,509.34,0,0,1-109.3,12.2c-.07,0-.08,10,0,10q65.34.38,130.54-4.61v-10q-79.07,8.18-157.14,23.58c-.39.07.13,10,0,10l15.55.52s.19-10,0-10Z"/></g><g class="cls-1"><path class="cls-2" d="M231.86,433.58l29.25-12.91c.6-.26-.25-10,0-10q-30.18-1.82-60.4-.9v10A641.47,641.47,0,0,0,291.05,403c.43-.11-.11-10,0-10-31.57-2.4-63.13.4-94.57,3.3v10l94.8-17.73c.5-.09-.29-10,0-10L230.42,382l-29.93,1.71c-8.54.49-18.75,2.65-26.84-.9v10L241,372.31c.72-.21-.49-9.95,0-10l-34.8,3.47-16.9,1.68-8,.8c-2.29.22-6.18,1.44-8-.2v10c.28-.45.92-.87,1-.07-.29-3.3.28-6.68,0-10-.07-.8-.71-.38-1,.07-.5.84-.59,9.48,0,10,2.61,2.3,11.54-.15,15-.5l17.9-1.78,34.8-3.47v-10l-67.31,20.51c-.2.06-.33,9.86,0,10,7.84,3.44,17.56,1.43,25.84,1L230.42,392l60.86-3.48v-10l-94.8,17.73c-.55.1.36,10,0,10,31.44-2.9,63-5.7,94.57-3.3V393a641.47,641.47,0,0,1-90.34,16.81c-.33,0,.14,10,0,10q30.21-.91,60.4.9v-10l-29.25,12.91c-1.29.57,1.17,9.48,0,10Z"/></g><path class="cls-3" d="M529.13,444.15c66.26-17.39,119.68-65.54,167-115s92.76-103,152.52-136.45a296.37,296.37,0,0,1,113.93-35.82c51.4-5.35,104.72,2.77,150.42,26.91s83.21,64.84,99.82,113.78c5.77,17,9.05,35.06,7.94,53-2.19,35.39-21.58,68.28-48.06,91.86s-59.58,38.6-93.51,48.9c-86.12,26.12-178.61,23.31-267.54,9.46s-175.83-38.39-264.23-55.31c-8.55-1.64-18.36-2.92-25.14,2.55"/><path d="M529.13,446c103.32-27.55,167-121,240.48-191,39.09-37.23,83-68.31,135.06-84.43,52.4-16.23,109.81-18.35,162.73-3.19,47.92,13.73,91.26,42.4,120.3,83.22,14.56,20.46,25.49,43.89,30.54,68.56,5.72,28,.91,55.63-12.75,80.57-25.78,47-75,73.91-124.63,89.2-55.13,17-113.26,22-170.72,19.85-119.54-4.49-234.64-39.79-351.25-63-11.39-2.27-26.2-7.27-36.58.32-.62.45.57,3.33,0,3.75,10.81-7.91,26.62-2.32,38.49.06,15.24,3,30.44,6.29,45.61,9.64,29.73,6.56,59.36,13.53,89.07,20.19C754.62,493,814.22,505.16,874.7,510.33c58.62,5,118.26,3.59,175.79-9.54,52.15-11.91,106.55-33.14,140.86-76.15,15.78-19.78,26.88-43.71,29.19-69.06,2-22.34-1.87-44.8-9.77-65.7-17.22-45.6-52.51-83.32-95-106.55-49-26.8-107-34.69-162-27.31-55.89,7.5-107.2,31-151,66.13C720.63,287.9,663,385.51,564.45,429.74a233.5,233.5,0,0,1-35.32,12.54c-.33.09.29,3.67,0,3.75Z"/><path d="M750.78,380.91c.88-.2,1-3.53.62-4.35-1.56-3.34-2.37,1.13-2.36,2.63,0,4.43,1.48,8.64,2.12,13A85.43,85.43,0,0,1,750,422.32c-.26,1.2.25,2.56,0,3.75a109.32,109.32,0,0,0,2.19-23c0-2.67-.09-5.33-.29-8-.46-6-2.58-12-2.83-17.91v3.69c.4-1.61,1.58-2.4,2.33-.58v-3.75c.11.51-.1.73-.61.67-.29.06.24,3.69,0,3.75Z"/><path d="M831.4,278.6c1.18-2,1.19-4.26,1.07-6.56a8.61,8.61,0,0,0-1.06-4.27,5.62,5.62,0,0,0-2.42-2.38c-2.28-.92-2.13.73-2.86,2.82a118,118,0,0,0-6.31,38.57c0,7.75-.52,20.23,8.59,23.18,10.16,3.3,19.72-6.69,19.86-16.23.06-3.88-.28-7.39-3.11-10.37-3.89-4.1-10.2-5.45-14.88-2-.48.35.47,3.56,0,3.75,6.93-2.76,15.35-5.89,22.17-1.13a10.9,10.9,0,0,1,4.46,7.05c.54,2.27.91,5.88,4,5.61.14,0-.08-3.75,0-3.75-3,.27-3.41-3.34-4-5.61a11,11,0,0,0-4.46-7.05c-6.81-4.75-15.24-1.63-22.17,1.13v3.75c7.3-5.41,17.87,1,18,9.67l0-3.2a17,17,0,0,1-12.58,14.6c-8.27,2.19-13.55-3.13-15.12-10.79-2.09-10.24-.09-22,2.28-32.05.89-3.82,1.62-9.88,3.91-13.12q0-2.5,1.74-1.38a5.92,5.92,0,0,1,1.88,1.28,7.51,7.51,0,0,1,2.08,5.18v-3.69a7.19,7.19,0,0,1-1.06,3.22c-.55.95.53,2.83,0,3.75Z"/><path d="M882,276.5c.49-1.46.82-4.18.13-5.63-1.38-2.89-4.92-2.17-6.54,0s-2,5.74-2.54,8.47c-2,9.81-3.58,21.17-.75,31,.78,2.71,1.84,6.21,4.8,7.24s6.33-.93,8.33-3c3.68-3.86,4.71-9.19,4.75-14.32.09-11.68-5.62-20.45-14-28.27.61.57-.64,3.15,0,3.75,6,5.62,11.94,12.44,13.5,20.8,1.18,6.32-3.38,19.37-12,17.46-3.9-.87-5.09-5.7-5.86-9.07-1.32-5.8-.68-11.62.34-17.41.68-3.84,1-9,3.07-12.34,1.76-2.83,6.21-3.73,7.05.35v-3.75l-.32,1c-.38,1.13.37,2.63,0,3.75Z"/><path d="M906.31,273.64c-1.07-.8-2.51-1.85-4-1.75-2.18.14-1.78,1.46-2.06,3.55a49,49,0,0,0-.42,5.68,76.75,76.75,0,0,0,.2,8.58c.47,5.32,1.61,11.43,4.86,15.82,2.81,3.8,8.85,6.44,12.83,2.65s2.38-14,1.82-18.91c-1.13-10-7.61-25-20.43-20-.45.18.4,3.6,0,3.75,6.88-2.69,13.89,1.52,17.18,7.68,2,3.78,2.78,8.07,3.25,12.28.42,3.66,1.26,7.84-1.39,10.9-5.35,6.17-13-.41-15.32-5.85A38.65,38.65,0,0,1,900,284.32c0-.79-.1-7.89.94-8.62,1.48-1,4.35.88,5.42,1.69-.59-.44.62-3.28,0-3.75Z"/><path d="M919.89,274.6l8.9,41.29v-3.75c-3.06-12.34-6.22-25.42,0-37.31a26,26,0,0,1,9-10c.83-.52,2.12-1.53,3.15-1.64,1.84-.19,1.52-.27,2.43,1.78a43.5,43.5,0,0,1,2.58,7.88c2.8,12.41-.07,25.33-2.84,37.51-.89,4-1.8,9.31-5.61,11.59-3.28,2-7.14-.25-7.86-3.83v3.75a3,3,0,0,1,1.14-2.34c.64-.64-.61-3.14,0-3.75-1.46,1.46-1.62,5-1,7a5.46,5.46,0,0,0,6.56,3.52c3.3-1.07,4.82-5,5.71-8A124.24,124.24,0,0,0,947.22,280a56.94,56.94,0,0,0-1.09-10.08,44,44,0,0,0-1.82-6.36c-.38-1-.81-2.07-1.28-3.08-.18-1.64-.88-2-2.09-1-3.22.34-7.05,4.5-9,6.83a31,31,0,0,0-5.41,10.24c-4,12.63-.86,27,2.21,39.4-.29-1.18.26-2.56,0-3.75l-8.9-41.29c.25,1.19-.26,2.55,0,3.75Z"/><path d="M960.74,269.29a405.77,405.77,0,0,1,9.54,50.11v-3.75l-1.76-8.42c.25,1.19-.25,2.55,0,3.75l1.76,8.42c-.25-1.19.15-2.54,0-3.75a405.77,405.77,0,0,0-9.54-50.11c.3,1.16-.3,2.57,0,3.75Z"/><path d="M955.21,277.23c-.72-8,3.18-18.3,9.45-23.48,5.09-4.2,14.47-5.64,14.89,3.29v-3.68c-.66,7.63-4.21,15.42-6.48,22.7l-7.68,24.63c-.25.79.52,3.21,0,3.75l15.17-15.72c1.55-1.59,3.88-4.92,6.54-4.12,2.22.66,2.71,3.71,2.73,5.63V287a54.17,54.17,0,0,1-5.48,18.64,58.9,58.9,0,0,1-4.9,8.28q-1.38,2-2.93,3.82c-1.16,1.39-2.54,4.63-2.81,1.28v3.68a19,19,0,0,1,1.93-8.18c.48-1-.48-2.73,0-3.75a21.94,21.94,0,0,0-2,9.63c0,.65,0,1.31,0,2,.09,2.26.11,2.22,1.78.33A59.43,59.43,0,0,0,989.21,295c.66-3.31,1.63-9.14-.13-12.29-3-5.32-8.19,1.9-10.5,4.29l-13.19,13.67v3.75c4.23-13.58,8.52-27.14,12.7-40.74,1.28-4.15,3.38-12.73-1-16-3.41-2.57-8.38-.62-11.45,1.53-4.15,2.91-6.9,7.85-8.59,12.53-2.22,6.13-2.46,12.78-1.88,19.22-.11-1.24.11-2.51,0-3.75Z"/><path d="M993.62,257.68a73.83,73.83,0,0,0,9.72,14.94c.87,1,1.78,2,2.72,3,1.78,1.87,1.19,1.89,2.28,0,1.48-2.57,1.78-6.82,2.19-9.71a79.55,79.55,0,0,0,0-20.91c.15,1.23-.16,2.52,0,3.75a51.09,51.09,0,0,1-.47,16.09c-.34,1.78-.76,3.55-1.25,5.29-.78,2.79-.48,4.15-2.79,1.72a72.24,72.24,0,0,1-12.44-17.95c.49,1-.5,2.74,0,3.75Z"/><path d="M1006,277.45l3.84,40.74c-.12-1.24.12-2.51,0-3.75L1006,273.7c.12,1.23-.11,2.51,0,3.75Z"/><path d="M1034.56,250.59l-1.65,37.75c-.25,5.8-1.13,12.09-.34,17.93,1.79,13.19,15.14.94,19.66-3.91a61.4,61.4,0,0,0,14.47-26.69c.31-1.18-.3-2.58,0-3.75a61.48,61.48,0,0,1-10.52,22,60.54,60.54,0,0,1-8.35,9c-2.72,2.36-7.27,6.93-11.26,5.79-3.46-1-4-5-4-8-.11-5.12.45-10.36.67-15.48l1.35-31c0-1.13,0-2.73,0-3.62Z"/><path d="M1025.21,271.76a4.59,4.59,0,0,1-4.65-2.17v3.75c4.64-8.94,13.08-14.28,21.4-19.43q15.29-9.49,30.59-19c.58-.36-.54-3.41,0-3.75q-15.3,9.48-30.59,19c-8.32,5.16-16.76,10.49-21.4,19.43a9.66,9.66,0,0,0,0,3.75,4.59,4.59,0,0,0,4.65,2.17c.1,0,0-3.75,0-3.75Z"/><path d="M1022.64,290.47A499.34,499.34,0,0,1,1077.42,252c.57-.35-.53-3.43,0-3.75a499.34,499.34,0,0,0-54.78,38.45c-.62.51.6,3.27,0,3.75Z"/><path d="M736.32,388.94a2.64,2.64,0,0,1-1.23-2.64V390c1-4,4.33-6,7.56-8.24l12.05-8.24,24.93-17.05c.6-.41-.57-3.36,0-3.75l-37,25.29c-3.3,2.26-7.08,4.47-7.57,8.79-.24,2-.27,4.45,1.25,5.9-.61-.58.64-3.14,0-3.75Z"/><path d="M741.61,413.25a2.36,2.36,0,0,1-1.34-2.31v3.75c.83-4.1,4.45-6.32,7.46-8.86L759,396.28l23.39-19.75c.63-.53-.6-3.24,0-3.75l-34.7,29.3c-3.15,2.65-7,5-7.48,9.41-.19,1.89-.29,4.39,1.36,5.51-.56-.38.6-3.34,0-3.75Z"/><path d="M803.66,372.11l.43-.46c.32-.34.15-3.27,0-3.75-1.16-3.84-5.24,5.86-5.72,6.94a120.38,120.38,0,0,0-9.87,37.77c-.53,5.66-3.1,27.87,8.91,21.72,11.48-5.88,15.32-20.86,15.27-32.66S806,374.4,791.43,378.51c-.35.1.3,3.67,0,3.75,11.58-3.27,20.11,7.52,21.05,18.07.95,10.77-5.21,25.06-15.07,30.25-14,7.37-7.94-22.76-6.75-28.31A121.21,121.21,0,0,1,796,384.36c1.17-3.05,2.46-6.06,3.88-9,.44-.91,3.17-7.16,4.22-3.71V367.9l-.43.46c-.63.67.61,3.1,0,3.75Z"/><path d="M822.18,380.5a218.84,218.84,0,0,1,8.74,28q1.7,7.13,2.91,14.36.6,3.62,1.08,7.25c.16,1.21.31,2.42.44,3.64l2.25-1.79c.63-.5-.59-3.28,0-3.75L835.35,430c-.13-1.22-.28-2.43-.44-3.64q-.48-3.63-1.08-7.25-1.22-7.23-2.91-14.36a218.84,218.84,0,0,0-8.74-28c.42,1.08-.42,2.66,0,3.75Z"/><path d="M821.23,385.5a10.16,10.16,0,0,1-1.34-5.08v3.68c.69-6.83,6-12.59,11.23-16.63,5.9-4.55,12.93-2.15,13,6v-3.2c-.8,7.22-5,14.19-7.87,20.76l-9.77,22.21c-.35.78.56,3.21,0,3.75l11.61-11.16c2.32-2.23,7.36-9.29,11.1-7.56,3.21,1.49,5.62,7.84,7.41,10.68l9.21,14.65c-.56-.89.57-2.85,0-3.75L857.13,406,853,399.51c-.95-1.5-2.1-4.18-3.83-5-3.62-1.68-8.18,4.75-10.41,6.9l-12.3,11.82V417c5.27-12,10.92-23.86,15.81-36,1.77-4.42,3.18-11.4.75-16-5.62-10.54-17.73,2.89-21,8.75-2.5,4.42-3.16,10.85-.78,15.47-.5-1,.52-2.75,0-3.75Z"/><path d="M868.3,369.37l3.27,27.27c.89,7.41.75,16,3,23.13,4.87,15.18,27.1-12.42,30.87-17.83.6-.85-.58-2.92,0-3.75-3.79,5.44-26,33-30.87,17.83-2.29-7.12-2.15-15.72-3-23.13l-3.27-27.27c.15,1.23-.15,2.52,0,3.75Z"/><path d="M857.57,384.54a153.25,153.25,0,0,1,43.78-36c.55-.31-.5-3.48,0-3.75a153.25,153.25,0,0,0-43.78,36c-.63.75.6,3,0,3.75Z"/><path d="M867.67,401.55l24.42-23.44c.64-.62-.61-3.17,0-3.75L867.67,397.8c-.64.61.6,3.16,0,3.75Z"/><path d="M908.28,359.76a200.93,200.93,0,0,0,16.05,28.68q4.6,6.82,9.78,13.23c1.31,1.64,2.85,4.84,5,4.38,1.77-.37,2.88-2.72,3.39-4.23,1.52-4.51.75-10.25.64-14.89q-.47-19.41-.92-38.81c0,.89,0,2.48,0,3.61q.38,15.93.76,31.85c.1,4.26.83,9.08-.15,13.28a8.87,8.87,0,0,1-2,4.23,4.63,4.63,0,0,1-1.75,1.21c-1.05.62-1.8.28-2.23-1-3.33-2.53-6.1-7.54-8.55-10.91s-4.66-6.6-6.83-10A201.37,201.37,0,0,1,908.28,356c.46,1-.48,2.7,0,3.75Z"/><path d="M961.82,349.17c-.52,0-.71-.31-.59-.81v3.75c1.14-2.42,2.56-.22,2.71,1.5v-3.69c-.69,10.7-2.43,21.43-3.66,32.08-.53,4.61-1.48,9.45-1.06,14.13.84,9.38,10.85,3.2,15.17.21a62.5,62.5,0,0,0,17.17-18.06c.58-.9-.55-2.87,0-3.75a62.49,62.49,0,0,1-15.9,17.15c-4.18,3.06-15.23,10.66-16.43,1v3.49c.21-14.68,4.52-29.22,4.73-43.9,0-1.64-.83-7.55-2.73-3.87-.43.84-.23,4.21.59,4.56-.43-.18.47-3.54,0-3.75Z"/><path d="M937.49,368.34a466,466,0,0,1,54.41-37.27c.57-.34-.52-3.45,0-3.75a466,466,0,0,0-54.41,37.27c-.63.5.59,3.28,0,3.75Z"/><path d="M947.51,381.55l-.14-1.36v3.69c.6-8.66,11.1-13.17,17.46-17.15l25.52-16c.58-.36-.54-3.41,0-3.75-11.9,7.44-24.66,14.26-35.93,22.61-5.67,4.21-7.59,8.95-6.91,15.66-.13-1.23.12-2.51,0-3.75Z"/><path d="M1007.16,339.55A440.86,440.86,0,0,0,1017,391.9c-.29-1.15.16-2.56,0-3.75l-.65-4.71c.17,1.23-.17,2.52,0,3.75l.65,4.71v-3.75a440.86,440.86,0,0,1-9.86-52.35c.16,1.23-.16,2.52,0,3.75Z"/><path d="M1002.08,346.35A41.92,41.92,0,0,1,1021.26,330c6.19-2.58,16.55-3.93,17.49,5.14v-3.75c-.67,7.46-6.41,14.95-10.31,21.14a231.83,231.83,0,0,1-14.05,19.81c-.48.61.57,3.37,0,3.75,11-7.38,23.13-13.87,35.71-6.27,8.63,5.22,15.77,14.72,26.73,14.37.07,0,0-3.75,0-3.75-11,.35-18.1-9.16-26.73-14.37-12.57-7.6-24.75-1.11-35.71,6.27v3.75a229.22,229.22,0,0,0,18.24-26.74c3.2-5.5,6.65-11,6.13-17.56-.66-8.25-9.08-8.49-15.39-6.35a41.5,41.5,0,0,0-21.29,17.19c-.57.9.56,2.88,0,3.75Z"/><path d="M1070.33,324.61,1098.06,364c-.58-.82.6-2.9,0-3.75l-27.73-39.43c.58.82-.6,2.9,0,3.75Z"/><path d="M1106.47,385.51l-3.54-3.55a4.36,4.36,0,0,1,0,.55v2.65c0,.1,0,.49,0,.55l3.54,3.55a4.28,4.28,0,0,1,0-.55v-2.65c0-.1,0-.49,0-.55Z"/><g class="cls-1"><path class="cls-2" d="M364.89,610A269.4,269.4,0,0,0,251.1,644.76c-1.11.64,1,9.75,0,10L363,625.46v-10l-73,22.63c-17.57,5.45-41.38,9.63-50.71,27.6-.42.8-.46,9.75,0,10,11,5.81,25.87-.29,37.08-2.81L319,663.32l85.18-19.13v-10c-24.94,26.66-68.22,15.43-95.06,39.18-.95.84.85,9.81,0,10a823.89,823.89,0,0,1,151.39-18.19v-10c-32.7,14.22-67.65,21.61-102.41,28.82-.41.08.15,10,0,10a416.05,416.05,0,0,0,86.15-6.56v-10A80.23,80.23,0,0,1,402.85,682v10l77-26.15c.51-.18-.17-10,0-10l-48.22-3.64v10A382.64,382.64,0,0,1,495.39,642V632a607.3,607.3,0,0,1-80.64,13.11v10a406.67,406.67,0,0,0,50.37-22.26c.4-.21.21-9.92,0-10-31.47-12.6-64.8,7.14-97-.55v10a412.35,412.35,0,0,1,69.37-19.56c.27,0,0-10,0-10a193.55,193.55,0,0,0-63,2.78c-.69.14.52,9.91,0,10l42.56-7.11v-10a586.1,586.1,0,0,1-117.3,23.34v10l72.43-33.56c.42-.2.09-10,0-10a216.16,216.16,0,0,0-55.51-7.87v10a176.15,176.15,0,0,1,68.48-21.46v-10A595.27,595.27,0,0,0,242.1,596.15c-.73.29.47,10,0,10l119.78-6.54v-10a1132.39,1132.39,0,0,1-140,31v10l84.1-21.9c.81-.21-.65-9.86,0-10q-55.42,11.36-111.37,20c-.55.08.39,9.94,0,10a448.29,448.29,0,0,0,80.95-18.58c.67-.22-.41-10,0-10a788,788,0,0,0-101.72,11.7v10l82.83-16.94c.56-.11-.37-10,0-10a256.52,256.52,0,0,0-82.51,21.36c-.85.37.61,9.93,0,10q46.08-5.13,91.86-12.5v-10L164.3,640.2c-.73.26.5,10,0,10l85.27-6.63v-10a931.41,931.41,0,0,0-101,31.73c-.77.29.55,10,0,10l97.89-9.45v-10a857.33,857.33,0,0,1-93.69,26.73c-.73.16.58,9.89,0,10a877.58,877.58,0,0,0,134.61-36.45c.76-.27-.52-10,0-10q-70.32,6.58-140,18.52c-.51.09.33,10,0,10l116-10v-10l-143.87,45.2c-.85.26.66,9.88,0,10l145.53-26.26v-10l-84.22,27.58c-.72.23.49,10,0,10q69.62-6,138.55-17.84v-10L180.78,709.94c-.6.12.42,9.95,0,10l137.48-17v-10a344.05,344.05,0,0,1-92.62,22.69v10l119.12-32.35c.84-.23-.68-9.86,0-10L221.94,709.57c-.46.1.19,10,0,10q46.59.24,93-4.05v-10L225.19,725c-.53.12.32,10,0,10l83.74-4.47v-10q-50.65,14.87-100.7,31.76c-.64.21.37,10,0,10a641.64,641.64,0,0,0,92.48-9c.59-.1-.44-9.94,0-10l-71.1,10.44v10a232.06,232.06,0,0,1,50.89-5.19v-10a163.56,163.56,0,0,0-46,17.77c-.39.22-.29,9.85,0,10a46.51,46.51,0,0,0,29.42,4.38v-10l-67.48,22.48c-.63.21.34,10,0,10a486.16,486.16,0,0,0,97.2-11.42v-10l-68.07,15.12c-.47.11.22,10,0,10l60.64,0v-10l-67.06,29.38c-.71.31.43,10,0,10l104.59-2.74v-10l-93.51,31.47c-.52.17.18,10,0,10a887.77,887.77,0,0,0,93.43,1.19v-10a291,291,0,0,1-81.23,10.51v10l98.24-25.34c.56-.15-.3-10,0-10L272,842.94v10l93.46-29.7c.58-.18-.29-10,0-10a428.43,428.43,0,0,0-84.46,8c-.69.13.55,9.89,0,10l95.42-18.21c.67-.13-.52-9.91,0-10l-78.62,14v10a366.12,366.12,0,0,0,67.16-19c.63-.24-.33-10,0-10l-85.67-.73v10L334,785.79c.79-.31-.56-9.94,0-10l-85.87,8.38v10a376.59,376.59,0,0,0,77.13-25.6c.72-.33-.42-10,0-10l-96.88,1.94v10l88.77-35c.67-.26-.37-10,0-10l-66.45.77v10l50.46-23.92c.59-.27-.2-10,0-10l-12.3-1.13v10A456.41,456.41,0,0,1,386,683.13c.57-.09-.41-9.94,0-10Q317.28,682,249.34,695.77c-.7.14.55,9.89,0,10l171.92-32.63c.48-.09-.27-10,0-10l-179.39,8.15v10c49.4-17.06,100.82-26.85,152.07-36.51.68-.13-.53-9.9,0-10Q312.7,649.94,230.25,657v10l173.47-39c.65-.14-.46-9.94,0-10q-71,8.8-141.46,21.18c-.63.12.48,9.92,0,10q81-13.59,162.93-21.14v-10a305.49,305.49,0,0,1-120.11,18.07v10c19.09-27.19,60.23-22,80-48.47.54-.71-.14-10,0-10q-40.51-3.44-81.21-3.78v10L391,564.25c.72-.25-.49-10,0-10l-64.66,5.2v10l63.34-13.53c.63-.13-.45-9.94,0-10l-61,7.49v10a264.18,264.18,0,0,1,81.71-22.72v-10L336.83,541v10c27.89-19.89,68.4-14.46,92.68-40.28.68-.72-.41-10,0-10q-48.17,1.53-96.11,6.73v10L448.63,485.7c.68-.19-.46-10,0-10L324.27,487.59v10l94.9-25c.72-.19-.53-9.93,0-10q-65.54,8.86-130.29,22.5v10L395,471.91c.64-.14-.45-9.94,0-10a1090.73,1090.73,0,0,0-132.82,24.88c-.77.19.59,9.89,0,10L381,475.47v-10a1373.67,1373.67,0,0,0-142.18,36.59c-.71.22.47,10,0,10l68.27-5.8c19.59-1.66,42.44-6.62,60.95,2.25v-10c-38.45,30.39-92.16,29.8-130.37,60.58-.74.6.45,10,0,10A623.9,623.9,0,0,0,364.89,552.6v-10a75,75,0,0,1-30.14,8.74c-.31,0,.17,10,0,10a75,75,0,0,0,30.14-8.74c1.06-.57-.91-9.79,0-10a623.9,623.9,0,0,1-127.27,16.49v10c38.21-30.78,91.92-30.19,130.37-60.58.46-.37.27-9.87,0-10-18.51-8.87-41.36-3.91-60.95-2.25l-68.27,5.8v10A1373.67,1373.67,0,0,1,381,475.47c.69-.14-.54-9.9,0-10L262.19,486.79v10A1090.73,1090.73,0,0,1,395,471.91v-10l-106.13,23.2c-.75.17.61,9.88,0,10q64.71-13.64,130.29-22.5v-10l-94.9,25c-.66.17.45,10,0,10L448.63,485.7v-10L333.4,507.45c-.7.19.48,9.95,0,10q47.91-5.19,96.11-6.73v-10c-24.28,25.82-64.79,20.39-92.68,40.28-.91.64.71,9.9,0,10l73.53-10.31c.49-.07-.33-10,0-10a264.18,264.18,0,0,0-81.71,22.72c-.87.4.64,9.92,0,10l61-7.49v-10l-63.34,13.53c-.57.12.37,10,0,10l64.66-5.2v-10l-87.07,29.69c-.6.2.3,10,0,10q40.67.34,81.21,3.78v-10c-19.78,26.44-60.92,21.28-80,48.47-.53.75.18,10,0,10a305.49,305.49,0,0,0,120.11-18.07c.76-.28-.53-10,0-10q-81.82,7.53-162.93,21.14v10q70.46-12.37,141.46-21.18v-10L230.25,657c-.6.14.39,10,0,10q82.33-7.08,163.69-22.26v-10c-51.25,9.66-102.67,19.45-152.07,36.51-.68.23.41,10,0,10l179.39-8.15v-10L249.34,695.77v10Q317.25,692,386,683.13v-10a456.41,456.41,0,0,0-97.17,28.07c-.54.23.18,10,0,10l12.3,1.13v-10l-50.46,23.92c-.71.33.41,10,0,10l66.45-.77v-10l-88.77,35c-.68.27.4,10,0,10l96.88-1.94v-10a376.59,376.59,0,0,1-77.13,25.6c-.59.13.41,10,0,10L334,785.79v-10L279.3,797.37c-.64.25.34,10,0,10l85.67.73v-10a366.12,366.12,0,0,1-67.16,19c-.66.12.5,9.91,0,10l78.62-14v-10L281,821.27v10a428.43,428.43,0,0,1,84.46-8v-10L272,842.94c-.62.2.36,10,0,10l68.65-1.64v-10l-98.24,25.34c-.51.13.23,10,0,10a291,291,0,0,0,81.23-10.51c.6-.17-.35-10,0-10a887.77,887.77,0,0,1-93.43-1.19v10l93.51-31.47c.65-.21-.37-10,0-10l-104.59,2.74v10l67.06-29.38c.68-.3-.37-10,0-10l-60.64,0v10l68.07-15.12c.77-.18-.63-9.86,0-10a486.16,486.16,0,0,1-97.2,11.42v10l67.48-22.48c.86-.28-.67-9.88,0-10a46.51,46.51,0,0,1-29.42-4.38v10a163.56,163.56,0,0,1,46-17.77c.45-.1-.2-10,0-10a232.06,232.06,0,0,0-50.89,5.19c-.67.14.49,9.93,0,10l71.1-10.44v-10a641.64,641.64,0,0,1-92.48,9v10q50-16.89,100.7-31.76c.64-.19-.39-10,0-10L225.19,725v10L315,715.52c.59-.13-.39-10,0-10q-46.4,4.29-93,4.05v10l122.82-26.33v-10L225.64,715.59c-.68.18.47,9.95,0,10a344.05,344.05,0,0,0,92.62-22.69c.84-.33-.61-9.92,0-10l-137.48,17v10l138.66-26.59c.66-.12-.51-9.91,0-10q-68.88,11.79-138.55,17.84v10l84.22-27.58c.85-.28-.68-9.88,0-10L119.58,699.87v10l143.87-45.2c.71-.22-.47-10,0-10l-116,10v10q69.61-11.94,140-18.52v-10a877.58,877.58,0,0,1-134.61,36.45v10a857.33,857.33,0,0,0,93.69-26.73c.76-.26-.52-10,0-10l-97.89,9.45v10a931.41,931.41,0,0,1,101-31.73c.62-.16-.4-10,0-10L164.3,640.2v10L266,613.69c.86-.31-.67-9.9,0-10q-45.78,7.37-91.86,12.5v10a256.52,256.52,0,0,1,82.51-21.36v-10L173.8,611.77c-.7.15.54,9.9,0,10a788,788,0,0,1,101.72-11.7v-10a448.29,448.29,0,0,1-80.95,18.58v10q55.92-8.62,111.37-20v-10l-84.1,21.9c-.75.2.56,9.91,0,10a1132.39,1132.39,0,0,0,140-31c.63-.18-.39-10,0-10L242.1,596.15v10a595.27,595.27,0,0,1,143.07-37.27c.46-.06-.3-10,0-10a176.15,176.15,0,0,0-68.48,21.46c-.7.39.38,10,0,10a216.16,216.16,0,0,1,55.51,7.87v-10l-72.43,33.56c-.83.38.58,9.94,0,10a586.1,586.1,0,0,0,117.3-23.34c.81-.25-.64-9.9,0-10l-42.56,7.11v10a193.55,193.55,0,0,1,63-2.78v-10a412.35,412.35,0,0,0-69.37,19.56c-.39.14-.08,10,0,10,32.17,7.69,65.5-12.05,97,.55v-10a406.67,406.67,0,0,1-50.37,22.26c-.76.28.53,10,0,10A607.3,607.3,0,0,0,495.39,642c.79-.18-.65-9.86,0-10a382.64,382.64,0,0,0-63.76,20.15c-.57.24.21,10,0,10l48.22,3.64v-10l-77,26.15c-.42.15,0,10,0,10a80.23,80.23,0,0,0,41.35-4.52c.92-.35-.73-9.87,0-10A416.05,416.05,0,0,1,358.05,684v10c34.76-7.21,69.71-14.6,102.41-28.82.72-.31-.43-10,0-10a823.89,823.89,0,0,0-151.39,18.19v10c26.84-23.75,70.12-12.52,95.06-39.18.88-.93-.82-9.82,0-10L319,653.32l-42.59,9.56c-11.22,2.52-26.09,8.62-37.08,2.81v10c9.33-18,33.14-22.15,50.71-27.6l73-22.63c1-.29-.8-9.79,0-10L251.1,644.76v10A269.4,269.4,0,0,1,364.89,620c.32,0-.17-10,0-10Z"/></g><g class="cls-1"><path class="cls-2" d="M262.13,569.3l-39,10.61c-.91.25.77,9.79,0,10l39-10.61c.91-.25-.78-9.79,0-10Z"/></g><g class="cls-1"><path class="cls-2" d="M332.91,546.19,261,547.54v10l121.09-33.87c.51-.15-.23-10,0-10a1140.15,1140.15,0,0,0-149.64,6.49v10l164.21-28.44c.47-.08-.28-10,0-10a1123.65,1123.65,0,0,0-222.28,35.59c-.17,0-.3,9.88,0,10C233.85,560,298.23,530,358.57,547.62v-10L230.39,585.13c-.57.22.24,10,0,10,45,2.11,90-.93,134.89-4v-10L232.46,602.92c-.48.08.28,10,0,10l183.62-12.81v-10l-205,28c-.4.05.19,10,0,10l162.46-6.69v-10L172.69,648.56s-.45,9.77,0,10c13.36,6.82,28.43,6,43,5.34l50.61-2.43,102.22-4.91v-10l-100,13.14c-16.25,2.13-32.52,4.15-48.76,6.43-15.62,2.19-31.15,5.07-45.86,10.94-.69.28.41,10,0,10l169.52-4.43v-10L185.28,696.09c-.41.06.2,10,0,10a1390.87,1390.87,0,0,0,154.64-14.26c.47-.07-.29-10,0-10L184.1,694.89c-.35,0,.2,10,0,10l155.82-13.06v-10a1390.87,1390.87,0,0,1-154.64,14.26v10l158.09-23.45c.39-.06-.18-10,0-10l-169.52,4.43v10c14.42-5.75,29.63-8.64,44.94-10.81,16.54-2.35,33.12-4.39,49.68-6.56l100-13.14c.39,0-.2-10,0-10l-102.22,4.91-50.61,2.43c-14.56.7-29.63,1.48-43-5.34v10l200.83-37.09c.47-.08-.26-10,0-10l-162.46,6.69v10l205-28c.43-.06-.25-10,0-10L232.46,602.92v10l132.82-21.84c.48-.08-.29-10,0-10-44.89,3.12-89.88,6.16-134.89,4v10l128.18-47.51c.34-.13.15-10,0-10C298.23,520,233.85,550,174.38,527.31v10a1123.65,1123.65,0,0,1,222.28-35.59v-10L232.45,520.16c-.54.1.38,10,0,10a1140.15,1140.15,0,0,1,149.64-6.49v-10L261,547.54c-.57.16.31,10,0,10l71.91-1.35c.13,0,0-10,0-10Z"/></g><g class="cls-1"><path class="cls-2" d="M283.36,770.58l5.36-5.83c.58-.63.53-9.35,0-10-3.27-3.93-9.46-2.37-13.89-1.91q-9.33.95-18.58,2.48a313.17,313.17,0,0,0-36.53,8.4c-.2.07-.28,9.9,0,10,7,2.63,14.37,1.38,21.59.75l22.47-2,45.91-4v-10l-52.42,9.2L232,772.16c-4.52.8-9.11,1.44-13.59,2.39-3,.63-5.92,1.38-7,4.53-.32.87-.07,10,0,10,20,2.12,40.31.45,60.35-.22l61-2v-10a1099.87,1099.87,0,0,0-116.13,11.53c-.34,0,.11,10,0,10l36.58.58s.13-10,0-10l-36.58-.58v10a1099.87,1099.87,0,0,1,116.13-11.53c.2,0-.06-10,0-10l-61,2c-20,.67-40.37,2.34-60.35.22v10c1.13-3.16,4-3.9,7-4.53,4.49-.95,9.07-1.59,13.59-2.39l25.24-4.42,52.42-9.2c.52-.09-.33-10,0-10l-45.91,4-22.47,2c-7.22.63-14.62,1.88-21.59-.75v10a313.17,313.17,0,0,1,36.53-8.4q8.78-1.46,17.64-2.39c4.6-.48,11.41-2.29,14.83,1.82v-10l-5.36,5.83c-.56.61-.05,4.15-.05,5s.62,4.38.05,5Z"/></g><g class="cls-1"><path class="cls-2" d="M253.1,809.83c-14.47-3.18-32.6-6.2-43,7.29-.54.7.15,10,0,10a292.12,292.12,0,0,0,67.51-2c.44-.07-.24-10,0-10-21.62,1.3-43.53,2.81-63.73,11.3-.78.33.54,10,0,10l74.16-5.89v-10l-83.93,11.75c-.42.06.23,10,0,10L311.75,836V826c-.45,4.29-5.67,4.71-9.06,5.33l-17.39,3.15-33.8,6.13c-.65.11.51,9.9,0,10l33.8-6.13,16.42-3c3.57-.65,9.55-.92,10-5.5.1-1,0-10,0-10l-107.6,6.25v10l83.93-11.75c.45-.07-.27-10,0-10l-74.16,5.89v10c20.2-8.49,42.11-10,63.73-11.3v-10a292.12,292.12,0,0,1-67.51,2v10c10.35-13.48,28.49-10.47,43-7.29-.63-.13.77-9.83,0-10Z"/></g><g class="cls-1"><path class="cls-2" d="M276.27,846.79a177.43,177.43,0,0,0,54.58-.2v-10l-42.72,9.1-11.65,2.48c-2.68.57-5.83.81-8.29,2.13-4,2.12-2.9,6.47-2.88,10.34,0,.85-.35,3.33.38,4.11s9.6-.5,10.84-.56l21.67-1.13,44.33-2.29v-10l-73.65,10.5c-.54.08.39,10,0,10l73.65-10.5c.42-.06-.22-10,0-10l-39.4,2-18.72,1-9.85.51-4.93.25c-1.65.09-3.68,1-4.27-.83v10c.85-4.51,7.56-4.78,11.12-5.54l18.45-3.93,35.92-7.65c.68-.14-.51-9.92,0-10a177.43,177.43,0,0,1-54.58.2c.42.06-.57,9.91,0,10Z"/></g><g class="cls-1"><path class="cls-2" d="M341.92,840.13,319,832v10a271.73,271.73,0,0,0,44.23-5.22c.35-.07-.06-10,0-10q-36.16-2.55-72.41-3.12v10c28.84-2.82,57.94-5.83,85.28-16,.61-.22-.3-10,0-10a851.45,851.45,0,0,0-108.64,5c-.44.05.29,10,0,10a851.45,851.45,0,0,1,108.64-5v-10c-27.34,10.21-56.44,13.22-85.28,16-.25,0,0,10,0,10q36.24.57,72.41,3.12v-10A271.73,271.73,0,0,1,319,832c.21,0-.52,9.81,0,10l22.88,8.11c-1-.35,1.12-9.6,0-10Z"/></g><g class="cls-1"><path class="cls-2" d="M268.36,768.1a8.47,8.47,0,0,1-1.4-4.71l0,9.82c1.71-16.94,25.92-11.49,32-25.43.36-.82.16-10,0-10a263.36,263.36,0,0,0-62.71-4.85c-.2,0,0,10,0,10A825.91,825.91,0,0,0,328,734.86c.46-.07-.28-10,0-10l-89,7.31c-.35,0,.19,10,0,10l89-7.31v-10a825.91,825.91,0,0,1-91.84,8.07v10a263.36,263.36,0,0,1,62.71,4.85v-10c-5.16,11.88-20.53,9-28.46,17.52-3,3.19-3.53,6.84-3.55,11,0,4-.62,8.3,1.46,11.82-1.44-2.44,1.48-7.5,0-10Z"/></g><g class="cls-1"><path class="cls-2" d="M303.05,710.55l4.76-3.94c.9-.74-.74-9.88,0-10-15.89,2.54-31.86,4.93-48,3.22v10l91.61-9.77v-10l-43.11,8.86-21.08,4.33c-5.74,1.18-13.11,1.45-17.5,5.77-.77.75.56,9.94,0,10l105.67-10.15v-10a383.39,383.39,0,0,1-46,6.49c-.34,0,.19,10,0,10a383.39,383.39,0,0,0,46-6.49c.58-.11-.38-10,0-10L269.75,709v10c4.18-4.12,11.06-4.45,16.54-5.58l22-4.52,43.11-8.86c.59-.12-.41-9.95,0-10l-91.61,9.77c-.15,0-.12,10,0,10,16.11,1.71,32.09-.68,48-3.22v-10l-4.76,3.94c-1.68,1.39,1.59,8.68,0,10Z"/></g><g class="cls-1"><path class="cls-2" d="M398.59,665.84l-40.33-1.36v10a624.07,624.07,0,0,1,89.34-2v-10l-87.41,11.06c-.35,0,.16,10,0,10q50-1.38,99.8-7v-10q-32.37,3.72-64.93,4.85c-.19,0,0,10,0,10q32.55-1.14,64.93-4.85c.45-.05-.3-10,0-10q-49.74,5.63-99.8,7v10l87.41-11.06c.26,0,0-10,0-10a624.07,624.07,0,0,0-89.34,2c-.21,0,0,10,0,10l40.33,1.36s.19-10,0-10Z"/></g><g class="cls-1"><path class="cls-2" d="M449.81,640.42a65.48,65.48,0,0,0-51.89,2.52c-.67.32.34,10,0,10a131.94,131.94,0,0,0,60.82-13.22c.74-.36-.44-10,0-10a881.29,881.29,0,0,0-89.34,7c-.46.06.29,10,0,10l111-10.88c.38,0-.22-10,0-10L361.31,636.06c-.36,0,.2,10,0,10L480.4,635.85v-10l-111,10.88v10a881.29,881.29,0,0,1,89.34-7v-10a131.94,131.94,0,0,1-60.82,13.22v10a65.48,65.48,0,0,1,51.89-2.52c-1-.39,1.16-9.57,0-10Z"/></g><g class="cls-1"><path class="cls-2" d="M428.74,616l-78.09-3.51v10l74.53-18.51c.54-.13-.28-10,0-10l-103.91,2.15v10l82.1-11.72c.35-.05-.13-10,0-10l-84.18.18v10l37.52-9.92L375,579.79c4.46-1.18,11-1.74,13.06-6.56.37-.88-.12-10,0-10l-65-1.05v10L403.16,558c.54-.09-.35-10,0-10l-80.65,7.71v10q29.92-4.86,60.09-7.9c.4,0-.26-10,0-10q-30.17,3-60.09,7.9c-.51.08.34,10,0,10L403.16,558V548L323,562.18c-.38.06.13,10,0,10l65,1.05v-10c-2.05,4.83-8.57,5.38-13.06,6.56l-18.27,4.83-37.52,9.92c-.53.14.26,10,0,10l84.18-.18v-10l-82.1,11.72c-.38,0,.16,10,0,10l103.91-2.15v-10l-74.53,18.51c-.44.11.16,10,0,10L428.74,626c-.07,0,.23-10,0-10Z"/></g><g class="cls-1"><path class="cls-2" d="M414.46,502.2a61.28,61.28,0,0,0-44.09,11.58c-.86.64.65,9.93,0,10l63.75-7.23v-10A690,690,0,0,1,364.05,519v10L466,506c.47-.1-.22-10,0-10l-100.87-.24v10l46.44-9.18,23.23-4.6c4.95-1,14.1-1,16.79-6.13.43-.81-.07-10,0-10l-94-7.46v10c.53-6,7.13-7.65,12.12-8.49,9.19-1.53,18.46-2.66,27.68-4l55.37-8c.4-.05-.2-10,0-10a1021.29,1021.29,0,0,0-105.07,9.49c-.46.07.29,10,0,10,30.05-2.57,60.24-5.28,89.32-13.71.64-.18-.39-10,0-10q-49.87,2.76-99.84,2.9v10c23.27-18.57,57.24-10.82,80.32-29.74.52-.42.06-10,0-10-33.14-9-67.86,1.43-101.13-6.62v10A497.05,497.05,0,0,1,387.56,400c.57-.12-.38-10,0-10Q348,393.59,309,400.79v10a407.32,407.32,0,0,1,71.26-10.57v-10A639.41,639.41,0,0,1,305.17,399v10q41.25-6.75,82.9-10.49c.37,0-.22-10,0-10q-41.62,3.74-82.9,10.49c-.46.07.26,10,0,10a639.41,639.41,0,0,0,75.05-8.82c.48-.09-.28-10,0-10A407.32,407.32,0,0,0,309,400.79c-.75.18.59,9.89,0,10q39-7.2,78.6-10.79V390a497.05,497.05,0,0,0-71.21,20.27c-.37.13-.09,10,0,10,33.27,8.05,68-2.42,101.13,6.62v-10c-23.08,18.92-57.05,11.17-80.32,29.74-.72.57.4,10,0,10q49.95-.15,99.84-2.9v-10c-29.08,8.43-59.27,11.14-89.32,13.71v10A1021.29,1021.29,0,0,1,452.75,458V448l-55.37,8c-9.22,1.33-18.49,2.46-27.68,4-5,.84-11.59,2.51-12.12,8.49-.09.95-.19,10,0,10l94,7.46v-10c-2.7,5.17-11.81,5.15-16.79,6.13l-23.23,4.6-46.44,9.18c-.43.09.19,10,0,10L466,506V496L364.05,519c-.65.14.46,9.94,0,10a690,690,0,0,0,70.07-12.41c.64-.15-.45-9.95,0-10l-63.75,7.23v10a61.28,61.28,0,0,1,44.09-11.58c-.33,0,.48-9.94,0-10Z"/></g><g class="cls-1"><path class="cls-2" d="M218.28,733.47l2.18-6.45c.32-.92-.13-10,0-10l-64.27,1.39v10l85.86-11.22c.29,0-.05-10,0-10l-109.42-3.51v10l102-24.52c.42-.1-.12-10,0-10l-49.79-2.95c-7.86-.46-15.72-.87-23.58-1.39-7.26-.49-14.36-1.36-20.69-5.21v10a603.28,603.28,0,0,1,97.53-18.69c.3,0-.11-10,0-10l-87.7,1.21v10l89.51-19.77c.51-.11-.27-10,0-10l-71.08,2v10l88-12.25c.42-.06-.23-10,0-10l-44.18,2.64L191,626c-6.64.4-13.16.71-19.5-1.59v10L244,617.63c.41-.1-.12-10,0-10l-71.22-3.9v10L282.51,589a81.38,81.38,0,0,0,0-10c-24.37-6.69-49.68-5.38-74.63-3.87v10l67.57-18.62c.43-.12-.11-10,0-10a301.24,301.24,0,0,0-57.6.78c-.43,0,.29,10,0,10a301.24,301.24,0,0,1,57.6-.78v-10l-67.57,18.62c-.63.17.39,10,0,10,25-1.51,50.26-2.82,74.63,3.87V579l-109.69,24.7c-.4.09.12,10,0,10l71.22,3.9v-10l-72.55,16.81c-.14,0-.31,9.89,0,10,6,2.19,12.2,2,18.52,1.65,7.52-.42,15.05-.9,22.58-1.34l44.18-2.64v-10l-88,12.25c-.37,0,.18,10,0,10l71.08-2v-10l-89.51,19.77c-.49.11.25,10,0,10l87.7-1.21v-10a603.28,603.28,0,0,0-97.53,18.69c-.13,0-.42,9.75,0,10,6.07,3.69,12.88,4.67,19.86,5.15,8.13.56,16.27,1,24.41,1.45l49.79,2.95v-10l-102,24.52c-.45.11.18,10,0,10l109.42,3.51v-10l-85.86,11.22c-.35,0,.15,10,0,10L220.46,727V717l-2.18,6.45c-1,3,1,7,0,10Z"/></g><g class="cls-1"><path class="cls-2" d="M193.23,522.24c-22.24-6.74-45.39-8.7-68.45-10.52v10A334.57,334.57,0,0,1,212,507.31v-10L103,507.66v10l133.5-16.56v-10L117.25,507.85v10l148.92-22.07c.41-.06-.21-10,0-10l-152.92,6.06v10c6.68-5.8,15.22-7.5,23.7-9,11.43-2,22.86-3.91,34.29-5.86l67.6-11.54c.46-.08-.26-10,0-10l-124.32,6.16v10c32.71-10.34,67-12.9,101-15.3v-10Q164,466.06,112,472.45v10L251.3,461.76v-10a983.07,983.07,0,0,1-106.94,13v10c39.7-6.73,79.73-12.07,120.06-12v-10a835.48,835.48,0,0,1-91,15.26c-.44.05.29,10,0,10a835.48,835.48,0,0,0,91-15.26c.48-.1-.22-10,0-10-40.33-.06-80.36,5.28-120.06,12-.48.08.29,10,0,10a983.07,983.07,0,0,0,106.94-13c.6-.11-.45-9.94,0-10L112,472.45c-.53.08.36,10,0,10q52-6.39,103.56-16.11c.52-.09-.32-10,0-10-34,2.4-68.32,5-101,15.3-.65.21.41,10,0,10l124.32-6.16v-10L171.24,477l-33.31,5.69c-8.79,1.51-17.74,3.1-24.68,9.13-.74.65.47,10,0,10l152.92-6.06v-10L117.25,507.85c-.54.08.4,9.94,0,10L236.47,501.1c.51-.07-.36-10,0-10L103,507.66c-.44.06.28,10,0,10L212,507.31c.3,0-.12-10,0-10a334.57,334.57,0,0,0-87.24,14.41c-.47.14.14,10,0,10,23.06,1.82,46.21,3.78,68.45,10.52-.86-.26,1-9.7,0-10Z"/></g><g class="cls-1"><path class="cls-2" d="M292.22,466.38c-.6-.77-1.55-4.35-1.92-4.6s-5.15,1.11-5.66,1.22q-6.61,1.33-13.31,2.29a239.92,239.92,0,0,1-26.91,2.26v10l92.06-8c.08,0,.18-10,0-10-27.05-3.57-54.31-2-81.44-.31v10l101.51-13.86c.44-.06-.26-10,0-10l-137,10.37c-.32,0,.18,10,0,10l137-10.37v-10L255,459.2c-.42.05.24,10,0,10,27.13-1.69,54.39-3.26,81.44.31v-10l-92.06,8c-.28,0,.11,10,0,10a239.92,239.92,0,0,0,26.91-2.26q6.69-.94,13.31-2.29c1-.21,5.13-1.66,5.66-1.22s1.21,3.69,1.92,4.6c-.5-.64,0-4.12,0-5s.6-4.17,0-5Z"/></g><g class="cls-1"><path class="cls-2" d="M187.63,356.31a12.18,12.18,0,0,1-9.58-3.29c-2-1.91-2.39-1.36-5.16-.75l-7.56,1.65v10a198.53,198.53,0,0,1,30.39-4.58v-10Q173,354.11,149.9,356.9v10l59.21-15.52c.65-.16-.43-10,0-10l-70.44,6v10a497.72,497.72,0,0,1,68.48-6.88c.17,0,0-10,0-10a497.72,497.72,0,0,0-68.48,6.88c-.51.09.32,10,0,10l70.44-6v-10L149.9,356.9c-.7.18.5,9.94,0,10q23.07-2.79,45.82-7.56c.56-.12-.35-10,0-10a198.53,198.53,0,0,0-30.39,4.58c-.79.18.64,9.86,0,10l7.56-1.65c2.77-.61,3.2-1.16,5.16.75a12.18,12.18,0,0,0,9.58,3.29c.28,0-.12-10,0-10Z"/></g><g class="cls-1"><path class="cls-2" d="M260.17,327.79l-19.06,8.39c-.73.32.45,10,0,10q21.63-.81,43.14-3.27v-10a52.71,52.71,0,0,1-26.88,2v10l47-10.14c.59-.13-.4-10,0-10-21.65,2.06-43.36,4-65.11,2.5v10a610.18,610.18,0,0,0,60.49-14.94c.31-.09.11-10,0-10-22.48-5.27-45,4.39-67.6,1.44v10l63.19-12.29v-10q-30.24,6.67-60.91,11v10a253.39,253.39,0,0,1,50.65-9.43c.35,0-.2-10,0-10a253.39,253.39,0,0,0-50.65,9.43c-.77.23.56,9.92,0,10q30.66-4.31,60.91-11c.74-.16-.59-9.89,0-10l-63.19,12.29c-.27.05-.05,10,0,10,22.62,3,45.12-6.71,67.6-1.44v-10a610.18,610.18,0,0,1-60.49,14.94c-.33.06.06,10,0,10,21.75,1.52,43.46-.44,65.11-2.5v-10l-47,10.14c-.25.05-.11,10,0,10a52.71,52.71,0,0,0,26.88-2c.77-.27-.56-9.94,0-10q-21.51,2.44-43.14,3.27v10l19.06-8.39c1.29-.57-1.17-9.48,0-10Z"/></g><g class="cls-1"><path class="cls-2" d="M274.49,299a9.8,9.8,0,0,0,6.71-6.74c.31-.92-.14-10,0-10l-47.13,1.43v10l58.7-8.29c.43-.06-.24-10,0-10l-78.54,4.89v10l67.09-12.61c.52-.09-.31-10,0-10-20.78,1.43-41.61,2.76-62.4.85v10a138.85,138.85,0,0,1,51.51-9.65v-10l-10,4c-1.2.47,1.07,9.57,0,10l10-4c.65-.25-.34-10,0-10a138.85,138.85,0,0,0-51.51,9.65c-.53.21.17,10,0,10,20.79,1.91,41.62.58,62.4-.85v-10l-67.09,12.61c-.51.09.3,10,0,10l78.54-4.89v-10l-58.7,8.29c-.38.06.18,10,0,10l47.13-1.43v-10a9.8,9.8,0,0,1-6.71,6.74c-1.07.36.93,9.69,0,10Z"/></g><g class="cls-1"><path class="cls-2" d="M235.61,294l6.67-4.68c1-.73-.92-9.79,0-10a359.57,359.57,0,0,0-38.66,11.19c-.29.1-.22,9.92,0,10,21.5,7.52,44.29-4.67,65.81,2.73v-10l-60.92,14.64c-.58.14.35,10,0,10l49.86-2.78,23.94-1.33c4.29-.24,13.33-1.91,15,3.78l-.05-6.33v1l0-3.67-82.16,22.11c-.51.14.22,10,0,10l45.88.95,21.94.46c3.58.07,16.48-1.81,17,3.76v-10l-.5.84c-1.48,2.49,1.45,7.57,0,10,1.16-1.95.55-5,.55-7.17,0-1.69.37-3.92-.69-5.33-2-2.73-7.58-1.92-10.42-2l-15-.31-58.84-1.22v10l82.16-22.11a28.2,28.2,0,0,0,.05-3.68c0-5.47,1.08-10.07-5.63-11.25-3.72-.66-7.72,0-11.45.24l-14,.78-57.84,3.22v10l60.92-14.64c.16,0,.29-9.9,0-10-21.52-7.4-44.31,4.79-65.81-2.73v10a359.57,359.57,0,0,1,38.66-11.19v-10L235.61,284c-1.61,1.14,1.52,8.94,0,10Z"/></g><g class="cls-1"><path class="cls-2" d="M290.85,362.3a47.77,47.77,0,0,0-26-.7v10a55.73,55.73,0,0,1,18.84-5.32c3.87-.35,15.29-1.64,17.15,2.62v-10c-.95,2.84-6.58,4.15-9.11,5.28l-11.44,5.09-23.76,10.58c-.3.13-.4,9.72,0,10,6.74,4.82,14.8,5.38,22.84,5.22,9.95-.2,19.9-.73,29.84-1.1l60.13-2.25v-10c-36.2,6.12-72.47,12.35-107.62,23.2-1,.31.87,9.73,0,10,35.15-10.85,71.42-17.08,107.62-23.2.44-.08-.23-10,0-10L309.21,384c-9.68.36-19.35.82-29,1.08-8.3.21-16.68-.22-23.65-5.2v10l28.16-12.53c4.11-1.83,8.24-3.6,12.32-5.49,3.2-1.48,3.84-2.07,3.87-5.41,0-2,.71-5.59,0-7.52-1.19-3-6.76-2.64-9.46-2.78a55.05,55.05,0,0,0-26.53,5.48c-1.07.51.91,9.78,0,10a47.77,47.77,0,0,1,26,.7c-.87-.27,1-9.7,0-10Z"/></g><path d="M239.91,441.89a80.67,80.67,0,0,1,25.82-12.61c.35-.1-.3-3.67,0-3.75a80.67,80.67,0,0,0-25.82,12.61c-.61.45.58,3.33,0,3.75Z"/><path d="M233.73,419.86l-5.19-4.09v3.75L274,424.86v-3.75L253.4,443.5c-3.32,3.61-6.58,7.28-10,10.84-1.77,1.87-5.16,5.7-7.67,2.81.6.7-.63,3,0,3.75,2.51,2.89,5.9-.94,7.67-2.81,3.38-3.56,6.64-7.23,10-10.84L274,424.86a29.26,29.26,0,0,0,0-3.75l-45.43-5.34c.23,0-.3,3.51,0,3.75l5.19,4.09c-.59-.46.63-3.25,0-3.75Z"/><path d="M357.8,397l4.9-7c.5-.71-.6-3.23,0-3.75a516.81,516.81,0,0,0-43.42,41.6,10.74,10.74,0,0,0,0,3.75c1.87,2.73,5.12,1.8,7.8.85,4.51-1.62,8.91-3.67,13.34-5.5L368,415.58c.46-.19-.42-3.58,0-3.75l-27.58,11.35c-4.43,1.83-8.83,3.88-13.34,5.5-2.68.95-5.93,1.88-7.8-.85v3.75A516.81,516.81,0,0,1,362.7,390v-3.75l-4.9,7c-.6.85.58,2.92,0,3.75Z"/><path d="M321.85,429.65a61.18,61.18,0,0,0,51.82,7.88c.37-.11-.32-3.65,0-3.75a61.18,61.18,0,0,1-51.82-7.88c.56.38-.6,3.35,0,3.75Z"/><path d="M220.58,344.24c-20-16.31-50.69-20.25-73.24-6.75-9,5.38-15,13.58-14.53,24.2.53,12.5,13.54,17.12,22.73,22.56A147.66,147.66,0,0,1,177.1,399.8c5.82,5,14.09,11.7,14.13,20.16l0-2.83c-1.32,10.23-13.06,15.66-21.38,19.58-9.64,4.54-19.85,7.67-30,11-18.71,6.11-37.62,13.42-50.38,29.2a44.58,44.58,0,0,0-9,38.24c4.54,18.79,22.07,31.3,39.26,37.67,11.67,4.33,23.93,6.69,36,9.62,9.72,2.36,25.42,4.4,26.56,16.85v-3.2c-.12,9.71-8.84,17.59-15.33,23.75a210.05,210.05,0,0,0-20.82,22.8c-12.3,15.65-23.43,33.44-29.22,52.61-3.76,12.45-5.45,27-2.29,39.81,4.42,17.9,19.11,28.24,36.27,32.5,10,2.48,20.24,3.4,30.4,4.73,4.84.64,9.68,1.34,14.46,2.36,5,1.06,10.52,2.19,11,8.23V759.1c-.7,7.67-4,15.46-6,22.89A184.58,184.58,0,0,0,196,805.13a104.76,104.76,0,0,0-.1,28.79c3.61,24,20.39,43.37,41.39,54.49,50.06,26.5,106.4.82,144.08-35.13,8.82-8.42,18.15-17.91,18.48-30.85.21-8.18-1.9-15.35-7.27-21.7-15.76-18.62-42.48-21.31-59.29-38.66-8-8.29-12.11-19.09-5.55-29.56,5.88-9.38,17-14.42,27.13-17.63,13.28-4.19,27.32-6.25,41-8.84,14.82-2.8,29.66-5.59,44.27-9.33a229.09,229.09,0,0,0,42.22-14.8c11.65-5.57,23.93-12.83,30.55-24.37a33.4,33.4,0,0,0,3.57-22.07c-2.11-12.22-12.65-21.23-23.43-26.15-13.53-6.17-28.79-6.86-43-10.85-10.95-3.09-25.07-9.85-27.58-22.3-1.42-7,3.74-14.63,7.27-20.36,3.36-5.45,7.08-10.67,10.89-15.81,7.47-10.09,15.41-19.89,22-30.62,10.43-17.06,15.63-37.27,8.83-56.69-4.53-12.91-13.1-24.48-22.09-34.65A163.15,163.15,0,0,0,419.3,391.6,165.31,165.31,0,0,0,346.36,364c-11.53-1.4-23.54-.21-34.83-3.23-4.69-1.25-9.49-3.34-12.5-7.32-4.64-6.15-1.83-13.4,0-20.1,6.13-22.11,13.42-48.56-1.11-69.17-14-19.85-42.12-28.67-65.45-24.23-26.11,5-34.39,29.52-35.09,53.19a234.4,234.4,0,0,0,.66,24.72c1,12.72,3.39,25.79,16.53,31.16a44.19,44.19,0,0,0,16.15,2.79,90.08,90.08,0,0,0,9.29-.39c1.41-.12,2.81-.27,4.21-.43,2.09-.24,2.36-.27,2.6,2v-3.75a5.69,5.69,0,0,1-3.95,5.19c-.43.15.37,3.61,0,3.75,3.81-1.38,4.37-5.35,3.95-8.94-.29-2.51-1-2.16-3.29-1.91s-4.24.43-6.37.57a71.79,71.79,0,0,1-12.78-.22c-7.71-.92-15.39-3.79-20.15-10.24-5.8-7.86-5.95-18.71-6.52-28.06-1-17.29-.28-37.7,11.07-51.92,11.58-14.52,31.67-16.75,48.89-13.55,15.77,2.93,31.44,11.11,40.64,24.58,13.7,20.06,5.46,43.41-.27,64.72-3.16,11.72-3.9,24.68,9.45,30,7,2.8,14.79,3.2,22.23,3.41a171.07,171.07,0,0,1,26.52,2.64,165.79,165.79,0,0,1,93.09,52.56c12.62,14.27,27,33.71,24.74,53.87-1.84,16.41-11.4,30.84-20.92,43.85-5.29,7.23-10.84,14.27-16.05,21.55s-10.74,14.86-13.68,23.24c-4.6,13.11,1.33,25.45,13.07,32.4,17.15,10.15,38.58,8.19,56.51,16.37,7.82,3.57,15.21,9.06,19.73,16.48,5.1,8.38,4.57,17.26-.6,25.45-9.86,15.63-29.39,23.84-46,30-19.63,7.24-40.18,11.56-60.69,15.5-18.66,3.58-38.58,5.7-56.35,12.68-13.12,5.16-25,14.27-25.16,29.47-.4,33.14,41.4,38.68,61.85,55.32,6,4.85,11.38,11,13.3,18.63,2.41,9.54-4.19,18.73-10.27,25.42a185.62,185.62,0,0,1-45.45,36.14c-31.51,17.86-69.45,24.3-103,8.1-14.28-6.9-27.08-17.48-35.39-31.1-11.5-18.88-11.1-40.09-6.25-61.08,1.21-5.26,2.62-10.46,4.08-15.65,1.42-5,3.63-10.31,4-15.55.28-4.15-.14-8.1-4.36-10.11C195,749.19,185.05,749,177,748c-8.47-1.06-17-2-25.29-4-16.37-3.94-30.95-13.21-36.21-30-5.51-17.58.88-37.24,8.79-53.11a204.66,204.66,0,0,1,35.47-50c9.59-10,23.48-19.35,22.67-34.75-.44-8.41-7.33-12-14.55-14.19-9.92-3-20.14-5-30.2-7.51-18.28-4.55-36.73-11.3-48.8-26.55-5.72-7.22-10.13-16.81-8.91-26.22,1.06-8.22,5.24-15.83,10.54-22.08,12.4-14.6,30.12-21.73,47.84-27.55,9.32-3.07,18.74-5.92,27.76-9.8,7.89-3.38,18.64-7.88,23.3-15.55,8.34-13.71-7.58-27-17-34.53a173.14,173.14,0,0,0-24.48-15.88c-7.21-4-14.28-8.8-15-17.71V362c.3-18.75,24.59-27.22,39.93-28.56A66.62,66.62,0,0,1,220.58,348c-.6-.48.63-3.23,0-3.75Z"/></svg>