<svg id="Layer_1" data-name="Layer 1" xmlns="http://www.w3.org/2000/svg" viewBox="0 0 1280 1024"><defs><style>.cls-1{fill:#fff;}.cls-2{opacity:0.48;}.cls-3{fill:#ff7c5c;}</style></defs><title>breakup_girlsquig</title><path class="cls-1" d="M637.82,449.08c-55.09-14.46-99.51-54.5-138.88-95.66S421.81,267.79,372.11,240a246.56,246.56,0,0,0-94.73-29.79c-42.74-4.44-87.07,2.31-125.07,22.38s-69.2,53.91-83,94.61c-4.81,14.16-7.53,29.16-6.6,44.08,1.82,29.42,17.93,56.78,39.95,76.38s49.55,32.1,77.76,40.66C252,510,328.93,507.66,402.88,496.15s146.21-31.92,219.71-46c7.11-1.36,15.27-2.43,20.91,2.12"/><path d="M637.82,447.21C550,423.72,496.93,343.4,433.86,284.58c-33.54-31.29-71.54-56.49-116.15-68.72-45.16-12.37-94.36-12.31-138.76,3.23-39.61,13.86-74.69,40.76-96.19,77.07C63.16,329.25,55.16,370.3,71,406.49c18,41.19,57.85,66.18,98.92,80.26,46.53,16,96.27,21,145.25,19.69,101.78-2.79,199.71-33.1,298.91-52.74,9.32-1.85,21-5.67,29.46.46-.58-.42.61-3.31,0-3.75-8.71-6.29-20.87-2.17-30.41-.27q-18,3.58-36,7.55c-24.59,5.4-49.09,11.15-73.64,16.68-48.27,10.88-96.86,21-146.17,25.68-48,4.59-96.9,4.19-144.32-5.44-43.14-8.77-88.68-24.66-119.36-57.72-13.92-15-24.6-33.41-28.95-53.52-5.09-23.51.68-47.78,10.62-69.26,16.83-36.36,47.4-65.57,83.33-82.86,41.54-20,89.5-24.69,134.69-17s85.82,27.86,120.94,56.83c66.15,54.56,113.92,133.59,194.42,169.57A194.31,194.31,0,0,0,637.82,451c-.29-.08.34-3.66,0-3.75Z"/><path d="M109.57,356.13c.83-.14.92-3.3.6-4.08-1.28-3.1-2.13,1.13-2.14,2.67-.11,12.07-1.71,23.17-6.47,34.36-.45,1.06.45,2.7,0,3.75a80.77,80.77,0,0,0,6.52-28.12c.08-2,.09-3.95.08-5.93,0-.78.45-6.49,2-3.38v-3.75c.15.57,0,.81-.59.73-.23,0,.18,3.72,0,3.75Z"/><path d="M192,285.85c1.71-2,1.78-4.92,1.54-7.46-.14-1.41-1.05-5.26-3.17-5.15-1.39.07-5.28,9.51-5.78,10.59-4.8,10.31-8.49,22-8,33.48.23,5.8,2.71,10.89,9.22,11.13,6.35.24,13.09-4.23,14.17-10.74,1.27-7.66-3.9-18.33-13.16-14.15-.36.16.29,3.7,0,3.75,6.49-1.19,15.53-2.45,19.55,4.36,1.43,2.41.23,9.48,3.5,10-.17,0,.23-3.71,0-3.75-3.14-.52-2.1-8.07-3.91-10.59-4.42-6.17-12.69-5-19.14-3.79v3.75c6.29-2.84,12.93,2.45,13.28,9v-3.68c-.59,6.65-6.3,11.68-12.92,12.08-8.06.5-11.22-6.09-10-13.29a93.42,93.42,0,0,1,6.74-22.23c1.52-3.42,3.16-7.85,5.59-10.69,1.21-1.42,1.15-1.85,2.62-.27a6.3,6.3,0,0,1,1.45,3.88v-3.75A5.83,5.83,0,0,1,192,282.1c-.63.74.61,3,0,3.75Z"/><path d="M233.61,292.39a7.7,7.7,0,0,0,.45-4.54c-.32-1.78-1.52-3.25-3.57-2.86-2.71.52-3.89,4.42-4.82,6.57-3.73,8.7-6.39,17.64-5.47,27.16.57,5.92,4.61,9.07,10,5.29,4.39-3.06,6.19-8.58,6.41-13.7.37-8.75-2.54-16.11-7.62-23.23.58.82-.6,2.91,0,3.75,4,5.57,8.64,12.92,7.08,20.06-1.06,4.86-5.87,12.49-11.9,11-8.36-2.1-2-18,0-23.05,1.09-2.75,2-6.51,4.18-8.68,2-2,5.26-1.9,5.66,1.41v-3.75l-.45.85c-.51,1,.51,2.78,0,3.75Z"/><path d="M253.26,293.33a5.35,5.35,0,0,0-2.38-1.85c-2.1-.55-1.39-.28-2.42,1.2-1.4,2-1.8,6-2.14,8.39a53.19,53.19,0,0,0-.4,7.57c0,5.76,1.86,19.92,11.06,15.68,5.85-2.7,4.84-14,4.76-19.62-.11-7.85-4.1-17.59-13.61-16.08-.22,0,.16,3.73,0,3.75,6.25-1,11.28,3.67,12.88,9.49,1.15,4.18,1.35,16.23-4,18.71-6.1,2.81-10-4.37-10.74-9.26-.65-4.38.28-9.08,1.65-13.25.42-1.29.65-2.84,1.83-3.15s2.83,1.37,3.54,2.17c-.61-.69.63-3,0-3.75Z"/><path d="M264.78,296.76l.29,19.5.15,9.76c0,.89.15,6.58,0,2.26-.08-3-.21-5.93-.1-8.89.38-10.42,4.46-22.18,14.55-26.92a18.09,18.09,0,0,1,2.57-1c2.33-.68,2.29-1,3.16,1.17,1.47,3.66.86,8.28.22,12.07a82,82,0,0,1-5,16.55c-1.84,4.62-3.62,10.77-7.09,14.47-3,3.2-7.76,2.9-8.57-1.94v3.75a2.47,2.47,0,0,1,1.33-2.16c.61-.44-.58-3.34,0-3.75-1.64,1.17-1.63,3.92-1.34,5.84,1.12,7.37,8.13,3.42,10.5-.76,6.22-11,10.76-24.52,10.84-37.18,0-1.77,0-3.55-.11-5.32-.09-1.2-.24-2.39-.44-3.57-.44-2.51-.12-3.77-2.85-3.09-6.19,1.55-11,6.39-13.92,11.91-5.12,9.72-4.2,21.9-3.72,32.57,0-.82,0-2.37,0-3.43l-.54-35.11c0-.16,0,2.46,0,3.24Z"/><path d="M299,299.27c.5,9.39.62,18.8.22,28.21-.1,2.55-.1,5.17-.41,7.7-.48,3.93-.24-2.88-.25-3.78,0-1.38,0,2.17,0,2.66l.06,7.14s0,.69,0,.48a371.91,371.91,0,0,0,.39-46c0,.89-.07,2.48,0,3.61Z"/><path d="M292.55,308c.84-7.43,4.27-15,10.44-19.58,4.34-3.19,12.18-4.55,13.48,2.26V286.9c-.55,6.47-5.86,13.22-8.92,18.82L297,325c-.35.65.52,3.39,0,3.75l13.82-9.57c2.76-1.91,7.61-5.88,8.58-.23v-2.82c0,5-4,10.88-6.82,14.79a50.9,50.9,0,0,1-11.93,11.82v3.75a15.58,15.58,0,0,1,3.09-7.82c.6-.83-.59-3,0-3.75a15.51,15.51,0,0,0-3.09,7.82c-.07.57.35,3.5,0,3.75,8.39-6,18.5-16.88,18.78-27.87.06-2.42.5-6.34-2.83-6.48-2.63-.11-6.77,4-8.84,5.42L297,325v3.75l14.65-26.84c2.57-4.71,5.23-9,4.81-14.47-.49-6.5-7.45-6.33-12-3.79-7.14,4-11.05,12.8-11.93,20.56-.14,1.24.14,2.52,0,3.75Z"/><path d="M327.66,295.24a63.18,63.18,0,0,0,3.69,10.24A59,59,0,0,0,334.3,311c1.44,2.37,1.42,3.24,2.86.51a52.7,52.7,0,0,0,5.78-20.8c.08-1.13-.08-2.74,0-3.62a54,54,0,0,1-2.35,12.54c-.49,1.53-1.06,3-1.69,4.51-.48,1.13-1.43,4.38-2.51,5-.37,1.14-.79.94-1.25-.6-.57-.87-1.11-1.76-1.62-2.66-.78-1.35-1.49-2.74-2.16-4.15a62.84,62.84,0,0,1-3.69-10.24c.32,1.15-.32,2.58,0,3.75Z"/><path d="M334.54,309.62,331,343.46c-.13,1.24.13,2.52,0,3.75l3.51-33.84c.13-1.24-.13-2.52,0-3.75Z"/><path d="M361.6,295.38,353.83,327c-1.21,4.93-2.65,9.66-2.37,14.76.55,10,11.7,2.93,16.28-.28a51.29,51.29,0,0,0,16.58-19.7c.5-1-.48-2.75,0-3.75a51.47,51.47,0,0,1-12.48,16.49c-3.66,3.19-11.42,9.77-16.73,8.94-3.41-.54-3.54-3.4-2.88-6.19.95-4,2-8.07,3-12.1l6.4-26.08c.3-1.18-.28-2.58,0-3.75Z"/><path d="M350.51,311.17a3.83,3.83,0,0,1-3.44-2.53v3.75c5.33-6.56,13.07-9.53,20.77-12.41l27.89-10.42c.43-.16-.39-3.61,0-3.75l-27.89,10.42c-7.7,2.88-15.44,5.85-20.77,12.41a10.06,10.06,0,0,0,0,3.75,3.83,3.83,0,0,0,3.44,2.53c-.14,0,.2-3.72,0-3.75Z"/><path d="M346,326.7a418.8,418.8,0,0,1,50.93-22.42c.43-.16-.37-3.62,0-3.75A418.8,418.8,0,0,0,346,323c-.53.28.49,3.5,0,3.75Z"/><path d="M95.86,359.63l-.66-2v3.69c1.26-3.3,4.24-4.42,7.28-5.71L114,350.72l23.06-9.82c.47-.2-.43-3.57,0-3.75-11.83,5-23.71,10-35.48,15.11-4.22,1.85-8.81,6.2-5.73,11.12-.55-.88.57-2.84,0-3.75Z"/><path d="M96.21,380.32a1.73,1.73,0,0,1-.78-1.84v3.75c1.27-3.4,4.55-4.6,7.53-6.24l11-6.09,22.09-12.18c.55-.3-.51-3.47,0-3.75l-34,18.74c-2.9,1.59-6.19,3-6.69,6.51-.22,1.5-.16,3.73.79,4.85-.6-.72.63-3,0-3.75Z"/><path d="M154.13,357.58l.42-.3c.34-.24,0-3.28,0-3.75-.32-3.33-4.92,3.5-5.32,4.05a99.3,99.3,0,0,0-5.94,9.32A100.46,100.46,0,0,0,134.38,388c-1.07,3.67-5.65,19.38,2.39,19.67,5.95.2,12-6.69,14.91-11.17a32.91,32.91,0,0,0,5.12-15.81c.5-9.37-2.55-21.33-14.3-20.59-.11,0,.05,3.75,0,3.75,11.69-.73,15.82,11.64,12.82,21.05a32.48,32.48,0,0,1-6.67,11.86c-2.68,3-7.55,7.31-11.88,7.16-9.43-.34.14-20,2-24.15a100.8,100.8,0,0,1,7.63-14.23c1.53-2.38,3.15-4.73,4.91-6.95.59-.74,3-3.91,3.28-1.32v-3.75l-.42.3c-.61.43.57,3.34,0,3.75Z"/><path d="M167.86,367.44a169.08,169.08,0,0,1,2.07,41.79c0,.46.25,3.62,0,3.75l2.12-1.1c.53-.27-.49-3.5,0-3.75l-2.12,1.1V413a199.9,199.9,0,0,0-2.07-49.29c.21,1.21-.21,2.53,0,3.75Z"/><path d="M165.66,370.67a7.38,7.38,0,0,1-.48-2.54v3.68c.61-8.57,20.31-22.67,21.92-8.56v-3.69c-.26,6.46-6.05,12.3-9.57,17.32l-12.11,17.26c-.43.61.54,3.41,0,3.75l11-7c2.4-1.54,7.3-6.25,10.29-4.67,2.63,1.39,3.74,7.82,4.73,10.41l5,13.07c-.41-1.08.42-2.65,0-3.75l-4.65-12.2c-1-2.74-2.3-9.82-5.06-11.28s-7.2,2.7-9.51,4.17l-11.77,7.51v3.75c6.43-9.16,13.6-18.13,19.37-27.72a16.74,16.74,0,0,0,2-12.44c-2.87-10.26-16.48,0-19.82,5.07-2.15,3.25-2.37,7.88-1.34,11.62-.32-1.15.32-2.58,0-3.75Z"/><path d="M207.28,362.13c-1.11,14.22-3.22,28.73-3.14,43,0,5.33,2,9.22,8.16,6.84,7.45-2.89,14.25-8,20-13.46.64-.61-.61-3.17,0-3.75-3.85,3.68-23.3,20.78-27.55,11.76-1.19-2.51-.1-6.71.11-9.41l.76-9.75,1.68-21.47c.09-1.24-.1-2.51,0-3.75Z"/><path d="M196.05,376.5a128.24,128.24,0,0,1,41.57-22.22c.39-.12-.33-3.65,0-3.75a128.24,128.24,0,0,0-41.57,22.22c-.62.5.6,3.28,0,3.75Z"/><path d="M201.51,392l23.74-15.13c.59-.37-.54-3.4,0-3.75l-23.74,15.13c-.58.38.55,3.4,0,3.75Z"/><path d="M241.44,364.56a168.83,168.83,0,0,0,7.45,23.64q2,4.94,4.27,9.74c1,2.05,3.6,9.55,6,9.35,5.58-.47,5.92-13.67,6.55-17.26q2.31-13.21,4.63-26.43c.21-1.22-.21-2.55,0-3.75q-2.31,13.22-4.63,26.43c-.59,3.37-1,16.88-6.55,17.26-2.56.17-4.61-6.4-5.66-8.55q-2.52-5.19-4.66-10.54a167.11,167.11,0,0,1-7.45-23.64c.28,1.17-.29,2.56,0,3.75Z"/><path d="M286.21,364l-.42-.38v3.75c.58-1.64,2-1.46,2.08.74v-3.5c-2.05,8.38-5.28,16.61-7.93,24.81-1.41,4.35-3.11,8.41-3,13,.25,14.2,25.54-5.14,29.4-9.14.64-.67-.61-3.12,0-3.75a52.6,52.6,0,0,1-15,11c-3.75,1.81-14,6.8-14.36-.89v3.68c1.87-11.15,7.14-22.11,10.37-32.94a14.36,14.36,0,0,0,.58-4.64c0-1.2-.94-5.4-2.1-2.15-.16.43-.29,3.49,0,3.75l.42.38c-.61-.56.64-3.17,0-3.75Z"/><path d="M263.86,376.31a391,391,0,0,1,50.44-21.52c.41-.14-.36-3.62,0-3.75a391,391,0,0,0-50.44,21.52c-.53.27.48,3.51,0,3.75Z"/><path d="M269.26,391.78c.75-7.14,9.18-9.31,14.8-11.43l25.76-9.74c.44-.16-.39-3.6,0-3.75l-25.76,9.74c-5.61,2.12-14.06,4.3-14.8,11.43-.13,1.24.13,2.51,0,3.75Z"/><path d="M325.35,360.51a401,401,0,0,0-.49,47.91c0,.09,0,.09,0,0l.24-3.94c.07-1.13-.06-2.74,0-3.62-.31,5.11-.44-.85-.48-1.83q-.35-9.75-.06-19.5c.16-5.14.44-10.27.8-15.4.08-1.12-.07-2.73,0-3.62Z"/><path d="M320.11,368.92a34.89,34.89,0,0,1,18.43-10.25c5.31-1,12.64-.71,13.42,5.95v-3.75c-.91,6.24-7.26,11.66-11.4,16.05A193.28,193.28,0,0,1,325.3,391.4c-.47.4.48,3.55,0,3.75,10.32-4.3,21.41-7.52,30.45,1,6,5.67,10.29,14.25,19.15,15.78-.19,0,.23-3.71,0-3.75-8.85-1.53-13.11-10.11-19.15-15.78-9-8.51-20.13-5.29-30.45-1v3.75a192.29,192.29,0,0,0,20.77-20.59c3.45-4,6.11-7.38,5.91-12.76-.21-5.64-4.68-7.59-9.89-7.37-8.36.35-16.28,4.86-22,10.74-.64.65.61,3.12,0,3.75Z"/><path d="M379.3,362.31,395.49,399c-.46-1,.46-2.69,0-3.75L379.3,358.56c.46,1-.46,2.69,0,3.75Z"/><path d="M398.24,417.16l-2.32-3.47a3.2,3.2,0,0,1,0,.55c0,.45,0,.89,0,1.33s0,.88,0,1.33c0,.12-.05.45,0,.54l2.32,3.47a2.45,2.45,0,0,1,0-.55v-2.65a1.68,1.68,0,0,0,0-.55Z"/><g class="cls-2"><path class="cls-3" d="M1066.13,798.07l-47.64,14.57v5a24.36,24.36,0,0,1,7.75-10.52c.49-.38-.42-4.91,0-5l-56.58,11.49c-.17,0,0,5,0,5a470.78,470.78,0,0,0,100.8-3.76v-5l-60.67,10.81s-.23,4.87,0,5a38.43,38.43,0,0,0,30.75,2.91c.39-.13-.28-5,0-5l-60.89,7.65v5l41.43-9.21c.19,0-.05-5,0-5a201.86,201.86,0,0,0-76.74,10c-.47.15.39,4.9,0,5a478.65,478.65,0,0,0,102.1-36.45c.36-.17-.2-5,0-5l-115.21,1v5a624.18,624.18,0,0,1,124.08-21v-5l-170,19.56v5L1049,762.38c.31-.07-.21-5,0-5L863.86,774.92v5l184.21-43.61c.31-.07-.21-5,0-5L859.37,748v5l217.16-36.23c.22,0-.12-5,0-5L915,718.43v5A685.15,685.15,0,0,1,1019.3,699c.25,0-.17-5,0-5q-69.52,7.47-138,21.85v5L1033,688c.35-.08-.26-5,0-5a1834.42,1834.42,0,0,1-213.82,22.55v5c66.79-26.24,138.65-33.82,209.49-41.09.16,0-.08-5,0-5L889,670.68v5a1539.27,1539.27,0,0,0,151.33-28.52c.25-.07-.12-5,0-5L871,643v5L1055.7,609.9c.25,0-.13-5,0-5a1704.69,1704.69,0,0,0-209.24,20.44v5a1703,1703,0,0,1,199.93-24.6q28.93-1.83,57.94-2.66v-5L875.78,640.79c-.29.05.2,5,0,5,73.91-8.59,148-17.19,222.42-18.75q31.58-.66,63.15.53v-5a707.83,707.83,0,0,1-167.65,25.8v5a1944.51,1944.51,0,0,1,196.52-13.21v-5l-159.84,20.48c-.21,0,.13,5,0,5l143.25-11.32v-5l-92,19.85c-.23.05.1,5,0,5l121.94.38v-5q-47.79,9.23-94.8,21.89c-.27.07.13,5,0,5l86-.48v-5l-54.34,12.24c-.26.06.13,5,0,5l55.32-1.14v-5a228.06,228.06,0,0,1-59.19,17.68c-.29,0,.21,5,0,5A157.38,157.38,0,0,0,1202.07,694c.28-.19,0-5,0-5l-45-8.56v5l56.74-18.49a41.7,41.7,0,0,0,0-5,246.46,246.46,0,0,0-78.37-.36v5a486.62,486.62,0,0,0,86.26-21.93c.22-.08,0-5,0-5a369.81,369.81,0,0,0-76.84-2.71v5l79.36-10.85c.14,0,0-5,0-5l-94.2-4.29v5a505,505,0,0,1,83-28,46.33,46.33,0,0,0,0-5,258.38,258.38,0,0,0-92.09-1.29c-.29,0,.22,5,0,5l93.68-14.22c.24,0-.15-5,0-5L1048.21,592v5l149.66-12.56c.15,0-.08-5,0-5A1119.93,1119.93,0,0,1,1025,575.64v5l148.26-31.38c.23,0-.1-5,0-5q-120.65-.4-241.2,4.87v5q94-11.93,188.79-14.48v-5c-11.35,9.59-25.75,13.32-40.06,16-17.41,3.22-34.9,6-52.34,9L922,577.93a41.7,41.7,0,0,0,0,5c69.46,25.28,146.32-3,215.36,24.21v-5a1045.16,1045.16,0,0,1-215,16.52v5c8.4-11.89,24.22-14.71,37.33-18.5L1010,590.61l101.68-29.36a26.91,26.91,0,0,0,0-5c-10.28-12.58-28.5-11.09-43.09-10.68l-61.39,1.75-124.78,3.56v5A820.37,820.37,0,0,1,1108,529v-5c-60.2,16.24-122.72,19.23-184.7,22.05v5L1041.51,536c.2,0-.11-5,0-5L814.85,544.54v5c73.77-15.85,147.83-31.86,218.58-58.59.32-.13-.18-5,0-5l-242.62.57v5A1272.57,1272.57,0,0,1,982.2,459.83c.15,0-.06-5,0-5q-105.06,4.32-209.48,17.44c-.19,0,.1,5,0,5L973.1,466.73l57.54-3v-5L788.33,488.94c-.24,0,.16,5,0,5L999.89,469.4c.2,0-.11-5,0-5L817.08,477.47v5L997.9,447.16c.22,0-.12-5,0-5l-219.82,4.09v5Q883.71,427.34,991,412.13c.19,0-.08-5,0-5q-100.53,2.72-200.55,14.1c-.19,0,.1,5,0,5A1117,1117,0,0,0,990.67,395c.28-.07-.16-5,0-5l-225.21,8.72v5l215.13-34.57c.19,0-.07-5,0-5a1704.78,1704.78,0,0,0-207.86,12v5l205.19-28.57c.19,0-.09-5,0-5q-95.35,2.54-190.34,12v5a1282.23,1282.23,0,0,0,183-34.63c.27-.07-.14-5,0-5q-79.44.72-158.66,7.22v5l148.24-22c.21,0-.11-5,0-5a1658.56,1658.56,0,0,0-167.22,16v5Q884.24,315.48,976.78,309v-5L807.4,326.25c-.25,0,.17,5,0,5l206.13-25.88c.19,0-.1-5,0-5-57.53,3.08-115.47,6.32-171.43,21-.27.07.13,5,0,5l212-.38v-5L897.74,357.76c-.22.05.08,5,0,5a713.79,713.79,0,0,0,129.08-7.38c.25,0-.18-5,0-5Q967.18,357,908.36,369.07c-.29.06.19,5,0,5q62.7-6.06,125.59-9.65v-5L917.33,377c-.27,0,.19,5,0,5l136.34-18.36c.2,0-.11-5,0-5L949.15,364v5l106.34-22.72c.25-.05-.12-5,0-5l-97.37,2.09v5a664.52,664.52,0,0,0,110.57-39.78c.31-.14-.12-5,0-5a517.41,517.41,0,0,0-108.55,4.82c-.25,0,.17,5,0,5a1314.57,1314.57,0,0,1,159.09-7.13v-5q-78.48,8.86-157.5,10.95v5l95.67-30.51c.21-.07,0-5,0-5a358.78,358.78,0,0,0-117.53,4.33c-.31.06.22,5,0,5L1063,275.6v-5q-58.66,9.21-118,12.71v5l134.54-19.87c.23,0-.14-5,0-5L949,273.35v5a785.52,785.52,0,0,1,113.78-20.86c.2,0-.14-5,0-5A609.44,609.44,0,0,1,980.51,255s-.1,5,0,5a609.44,609.44,0,0,0,82.29-2.48v-5A785.52,785.52,0,0,0,949,273.35c-.32.08.2,5,0,5l130.49-9.91v-5L945,283.31c-.21,0,.13,5,0,5q59.28-3.49,118-12.71c.27,0-.19-5,0-5L939.87,286.06v5a358.78,358.78,0,0,1,117.53-4.33v-5l-95.67,30.51c-.32.1.18,5,0,5q78.94-2.07,157.5-10.95c.13,0,0-5,0-5a1314.57,1314.57,0,0,0-159.09,7.13v5a517.41,517.41,0,0,1,108.55-4.82v-5a664.52,664.52,0,0,1-110.57,39.78c-.28.07.15,5,0,5l97.37-2.09v-5L949.15,364c-.27.06.15,5,0,5l104.52-5.39v-5L917.33,377v5L1034,364.42c.22,0-.12-5,0-5q-62.88,3.6-125.59,9.65v5q58.77-12,118.46-18.69v-5a713.79,713.79,0,0,1-129.08,7.38v5L1054.06,326c.25-.06-.11-5,0-5l-212,.38v5c56-14.71,113.9-17.95,171.43-21v-5L807.4,326.25v5L976.78,309c.21,0-.12-5,0-5q-92.41,6.51-183.86,22.16c-.29.05.22,5,0,5a1658.56,1658.56,0,0,1,167.22-16v-5l-148.24,22c-.23,0,.15,5,0,5q79.17-6.51,158.66-7.22v-5a1282.23,1282.23,0,0,1-183,34.63c-.21,0,.14,5,0,5q94.92-9.45,190.34-12v-5L772.73,376.15c-.25,0,.18,5,0,5a1704.78,1704.78,0,0,1,207.86-12v-5L765.46,398.69c-.21,0,.11,5,0,5L990.67,395v-5a1117,1117,0,0,1-200.19,31.26v5Q890.4,414.86,991,412.13v-5q-107.22,15.19-212.95,39.12c-.25.06.13,5,0,5l219.82-4.09v-5L817.08,477.47c-.26.06.17,5,0,5L999.89,469.4v-5L788.33,488.94v5l242.31-30.23c.19,0-.1-5,0-5L830.26,469.24l-57.54,3v5Q877,464.15,982.2,459.83v-5a1272.57,1272.57,0,0,0-191.39,31.69c-.26.06.12,5,0,5l242.62-.57v-5c-70.75,26.73-144.81,42.74-218.58,58.59-.27.06.17,5,0,5L1041.51,536v-5L923.27,546.07c-.19,0,.09,5,0,5,62-2.82,124.5-5.81,184.7-22.05.25-.07-.12-5,0-5a820.37,820.37,0,0,0-225.51,26.86c-.28.07.16,5,0,5l124.78-3.56,61.39-1.75c14.59-.41,32.81-1.9,43.09,10.68v-5L1010,585.61l-50.36,14.55c-13.11,3.79-28.93,6.61-37.33,18.5-.27.39.12,5,0,5a1045.16,1045.16,0,0,0,215-16.52,39.72,39.72,0,0,0,0-5c-69-27.2-145.9,1.07-215.36-24.21v5l106.5-18.29c17.18-3,34.39-5.76,51.53-8.88,14.58-2.66,29.3-6.34,40.87-16.11.36-.31-.23-5,0-5q-94.69,2.54-188.79,14.48c-.19,0,.09,5,0,5q120.53-5.28,241.2-4.87v-5L1025,575.64c-.16,0,0,5,0,5a1119.93,1119.93,0,0,0,172.87,3.83v-5L1048.21,592c-.17,0,.1,5,0,5l166.41-13.8v-5l-93.68,14.22v5a258.38,258.38,0,0,1,92.09,1.29v-5a505,505,0,0,0-83,28c-.31.13.14,5,0,5l94.2,4.29v-5l-79.36,10.85c-.22,0,.12,5,0,5a369.81,369.81,0,0,1,76.84,2.71v-5a486.62,486.62,0,0,1-86.26,21.93c-.29.05.22,5,0,5a246.46,246.46,0,0,1,78.37.36v-5l-56.74,18.49a39.72,39.72,0,0,0,0,5l45,8.56v-5a157.38,157.38,0,0,1-65.53,25.77v5a228.06,228.06,0,0,0,59.19-17.68c.35-.16-.21-5,0-5l-55.32,1.14v5L1194.75,691c.24-.06-.11-5,0-5l-86,.48v5q47-12.66,94.8-21.89c.21,0-.09-5,0-5l-121.94-.38v5l92-19.85c.28-.06-.19-5,0-5l-143.25,11.32v5l159.84-20.48c.17,0-.07-5,0-5A1944.51,1944.51,0,0,0,993.7,648.37c-.17,0,.08,5,0,5a707.83,707.83,0,0,0,167.65-25.8c.25-.07-.1-5,0-5-74.41-2.92-148.77,3.06-222.71,11.08-21,2.27-41.91,4.7-62.86,7.14v5l228.55-42.71c.23,0-.12-5,0-5a1702.58,1702.58,0,0,0-200.65,17.75q-28.7,4.26-57.22,9.51c-.32.06.24,5,0,5A1704.69,1704.69,0,0,1,1055.7,609.9v-5L871,643c-.23,0,.11,5,0,5l169.3-.83v-5A1539.27,1539.27,0,0,1,889,670.68c-.2,0,.1,5,0,5l139.62-6.22v-5c-70.84,7.27-142.7,14.85-209.49,41.09-.36.14.22,5,0,5A1834.42,1834.42,0,0,0,1033,688v-5l-151.7,32.87c-.38.08.3,4.93,0,5q68.43-14.37,138-21.85v-5A685.15,685.15,0,0,0,915,718.43c-.33.1.19,5,0,5l161.58-6.63v-5L859.37,748c-.26,0,.16,5,0,5l188.7-16.72v-5L863.86,774.92c-.31.07.21,5,0,5L1049,762.38v-5L885.3,795.11c-.32.08.23,5,0,5l170-19.56c.2,0-.1-5,0-5a624.18,624.18,0,0,0-124.08,21c-.28.08.14,5,0,5l115.21-1v-5a478.65,478.65,0,0,1-102.1,36.45v5a201.86,201.86,0,0,1,76.74-10v-5l-41.43,9.21c-.33.08.23,5,0,5l60.89-7.65v-5a38.43,38.43,0,0,1-30.75-2.91v5l60.67-10.81c.31-.05-.22-5,0-5a470.78,470.78,0,0,1-100.8,3.76v5l56.58-11.49v-5a24.42,24.42,0,0,0-7.75,10.52c-.22.58.33,4.9,0,5l47.64-14.57c.5-.15-.43-4.87,0-5Z"/></g><g class="cls-2"><path class="cls-3" d="M1078.32,745.75a98.08,98.08,0,0,0-39.82,10.64c-.4.21.26,5,0,5l48.74-3.09v-5A378.7,378.7,0,0,0,1024,771.6c-.28.11.11,5,0,5a71.08,71.08,0,0,0,57.89-24.06c.34-.38-.23-5,0-5l-88.69,5.69v5q60.52-18.72,122.15-33.54c.29-.07-.18-5,0-5l-138.72,8.46v5l125-34.44c.34-.09-.24-5,0-5L999,704.18v5l150.28-41.95c.32-.09-.21-5,0-5l-110,7.63v5l143.69-33c.29-.07-.18-5,0-5a954.67,954.67,0,0,0-192.77,32.35c-.3.09.18,5,0,5L1155,667.06v-5c-40.4,34.06-101.89,17.33-142,51.84-.36.31.22,5,0,5a610.22,610.22,0,0,1,92.92,5v-5l-61.36,22.24c-.46.17.38,4.92,0,5a188,188,0,0,1,52.82-3.28v-5A331.33,331.33,0,0,0,1017.12,754c-.21.07,0,5,0,5a111.66,111.66,0,0,0,53.22-4.47c.24-.08-.07-5,0-5a65.92,65.92,0,0,0-25,2.29v5a60.14,60.14,0,0,1,32.12-3.5v-5A398.49,398.49,0,0,0,969.58,774a32.1,32.1,0,0,0,0,5,85.48,85.48,0,0,0,64.39-3.26c.34-.16-.19-5,0-5a595.77,595.77,0,0,0-126.33,12.82v5a1155.87,1155.87,0,0,1,138.57-26.07c.19,0-.09-5,0-5a382.32,382.32,0,0,0-105.55,19.73c-.34.12.22,5,0,5q63.72-3.3,127.36-7.89v-5A618.26,618.26,0,0,0,953.1,796.28c-.29.1.15,5,0,5a566.25,566.25,0,0,0,137.4-14.9c.34-.08-.25-5,0-5a691.63,691.63,0,0,1-97.21,6.2v5l50-12.65v-5L927.31,805.07c-.27.07.14,5,0,5a655.32,655.32,0,0,0,146-17.72c.25-.06-.11-5,0-5l-144.91-.43v5c35.33-15.89,73.39-23.64,111.18-31.18.21,0-.08-5,0-5L895.1,753v5l139.36-31.84c.27-.06-.15-5,0-5l-156.24,6.17v5a671.16,671.16,0,0,0,100.25-26.51c.3-.11-.15-5,0-5a636,636,0,0,0-129.12,12.3v5l159.29-33.62c.26,0-.15-5,0-5l-152.83,7v5l114.72-32c.29-.08-.17-5,0-5q-62.94,1.95-125.55,9.17v5l157.19-25v-5Q929.77,651,856.61,657.86v5L983.38,638.3c.19,0,0-5,0-5a841.28,841.28,0,0,0-131.72,5v5l211.72-34.4c.25,0-.16-5,0-5a1385.71,1385.71,0,0,0-149,21.74c-.23,0,.12,5,0,5l51.44-1.09c.07,0,0-5,0-5l-51.44,1.09v5a1385.71,1385.71,0,0,1,149-21.74v-5l-211.72,34.4c-.27.05.19,5,0,5a841.28,841.28,0,0,1,131.72-5v-5L856.61,657.86c-.28,0,.19,5,0,5q73.11-6.87,145.56-19.13c.3-.05-.23-5,0-5L845,663.78c-.26,0,.19,5,0,5q62.57-7.21,125.55-9.17v-5l-114.72,32c-.31.08.18,5,0,5l152.83-7v-5L849.35,713.16c-.36.08.29,4.94,0,5a636,636,0,0,1,129.12-12.3v-5a671.16,671.16,0,0,1-100.25,26.51c-.23,0,.13,5,0,5l156.24-6.17v-5L895.1,753c-.23.05.09,5,0,5l144.51,2.7v-5c-37.79,7.54-75.85,15.29-111.18,31.18-.34.15.18,5,0,5l144.91.43v-5a655.32,655.32,0,0,1-146,17.72v5l115.94-30.14c.43-.11-.37-4.91,0-5l-50,12.65c-.25.07.12,5,0,5a691.63,691.63,0,0,0,97.21-6.2v-5a566.25,566.25,0,0,1-137.4,14.9v5A618.26,618.26,0,0,1,1068,774.33c.21,0-.13-5,0-5q-63.65,4.59-127.36,7.89v5a382.32,382.32,0,0,1,105.55-19.73v-5a1155.87,1155.87,0,0,0-138.57,26.07c-.41.1.32,4.93,0,5A595.77,595.77,0,0,1,1034,775.74v-5A85.48,85.48,0,0,1,969.58,774v5a398.49,398.49,0,0,1,107.85-25.7s.11-5,0-5a60.14,60.14,0,0,0-32.12,3.5c-.54.21.46,4.86,0,5a65.92,65.92,0,0,1,25-2.29v-5a111.66,111.66,0,0,1-53.22,4.47v5a331.33,331.33,0,0,1,80.23-16.09c.05,0,.05-5,0-5a188,188,0,0,0-52.82,3.28v5l61.36-22.24c.24-.08,0-5,0-5a610.22,610.22,0,0,0-92.92-5v5c40.15-34.51,101.64-17.78,142-51.84.37-.32-.24-5,0-5l-164.82,7.13v5A954.67,954.67,0,0,1,1183,641.84v-5l-143.69,33c-.29.06.18,5,0,5l110-7.63v-5L999,704.18c-.35.1.24,5,0,5l102.66-10.47v-5l-125,34.44c-.31.08.19,5,0,5l138.72-8.46v-5q-61.59,14.8-122.15,33.54c-.33.1.22,5,0,5l88.69-5.69v-5A71.08,71.08,0,0,1,1024,771.6v5a378.7,378.7,0,0,1,63.22-18.3c.26-.06-.16-5,0-5l-48.74,3.09v5a98.08,98.08,0,0,1,39.82-10.64c.12,0,0-5,0-5Z"/></g><g class="cls-2"><path class="cls-3" d="M1111.93,601.35q-87.11,17.56-172.33,43c-.41.12.31,4.94,0,5,68.62-11.63,137.6-23.21,207.4-23.58v-5a783.66,783.66,0,0,1-119.43,14.42v5q42.87-4.32,85.83-7.82c13.9-1.13,27.8-2.36,41.72-3.14,13.36-.75,26.77-.49,39.57,3.79v-5L975.85,648.62c-.15,0,.07,5,0,5l183.1-7c.1,0,0-5,0-5-52.76,1.64-105.67,3.39-157.85,12-.13,0,0,5,0,5a565.71,565.71,0,0,0,118.45-.61c.17,0-.09-5,0-5a1156.77,1156.77,0,0,0-155.27,17.6c-.28.05.19,5,0,5l218.29-24.23v-5a490.36,490.36,0,0,1-82.18,12.4c-.14,0,.07,5,0,5a490.36,490.36,0,0,0,82.18-12.4c.33-.08-.22-5,0-5L964.28,670.65v5a1156.77,1156.77,0,0,1,155.27-17.6v-5a565.71,565.71,0,0,1-118.45.61v5c52.18-8.61,105.09-10.36,157.85-12v-5l-183.1,7v5L1194.69,633s.22-4.93,0-5c-12.8-4.28-26.21-4.53-39.57-3.79-13.92.77-27.82,2-41.72,3.14q-42.95,3.48-85.83,7.82c-.16,0,.08,5,0,5A783.66,783.66,0,0,0,1147,625.75c.22,0-.1-5,0-5-69.8.37-138.78,12-207.4,23.58v5q85.14-25.4,172.33-43c.35-.07-.29-4.94,0-5Z"/></g><g class="cls-2"><path class="cls-3" d="M1173.77,685.64s0-5,0-5,0,5,0,5Z"/></g><g class="cls-2"><path class="cls-3" d="M1200.67,678.27a58.37,58.37,0,0,0-45,16.43,22.57,22.57,0,0,0,0,5c10.47,4.57,21.64,3.66,32.7,2.28,5.51-.69,11-1.49,16.57-1.75,3.56-.16,9.59-.43,10.66,4v-5c-.28,2.1-6.87,2.31-8.92,2.7l-10.73,2-21.46,4.07-42.92,8.13c-.26,0,.14,5,0,5a573.72,573.72,0,0,0,103.09-15.66c.3-.07-.2-5,0-5-37.11,2.84-74.32,5.6-111.54,3.51v5l94.73-22.83c.28-.06-.17-5,0-5-23,1.17-46.09,2.2-68.89-1.66v5a579.66,579.66,0,0,1,63.64-15.63c.27-.05-.17-5,0-5a413.48,413.48,0,0,1-82.79-.92c.15,0-.22,5,0,5a413.48,413.48,0,0,0,82.79.92v-5a579.66,579.66,0,0,0-63.64,15.63,41.7,41.7,0,0,0,0,5c22.8,3.86,45.9,2.83,68.89,1.66v-5l-94.73,22.83c-.22.06.06,5,0,5,37.22,2.09,74.43-.67,111.54-3.51v-5a573.72,573.72,0,0,1-103.09,15.66v5l46.82-8.87,22.44-4.26,11.71-2.22c2.4-.45,3-.38,3.08-2.57s.43-4.88-1.55-6.48c-4.36-3.5-12.86-1.39-17.84-.82-13.58,1.57-27.53,4.39-40.56-1.29v5a58.37,58.37,0,0,1,45-16.43c-.08,0,.16-5,0-5Z"/></g><g class="cls-2"><path class="cls-3" d="M1161.21,577.45a87.92,87.92,0,0,1,41.37-11.68v-5q-108,12.43-215.16,30.78a36.16,36.16,0,0,0,0,5c2.18,5.6,8.44,6.45,13.78,6.48,8.42.05,16.95-.81,25.35-1.35q25.42-1.62,50.77-4.18,51.67-5.19,102.86-14.19c.22,0-.1-5,0-5L979.4,583.14v5L1156.84,558c.24,0-.15-5,0-5q-114.43,8.24-228.21,23.37c-.25,0,.18,5,0,5l203.53-26.68c.2,0-.1-5,0-5l-216.11,9.64v5l223.62-29.41c.2,0-.11-5,0-5l-191.74,10.9v5l95.75-13.72c29.31-4.21,58.88-8.52,86.41-20,.35-.15-.22-5,0-5l-210.55,7.46v5L1104,487.13c.24,0-.13-5,0-5q-100.24,5.21-200.19,15c-.17,0,.08,5,0,5q95.34-5.06,190.11-17.25c.23,0-.16-5,0-5l-76.66,8.19c-.22,0,.13,5,0,5l76.66-8.19v-5q-94.7,12.18-190.11,17.25v5q99.92-9.81,200.19-15v-5L919.54,514.58c-.22,0,.12,5,0,5l210.55-7.46v-5c-27.53,11.46-57.1,15.77-86.41,20l-95.75,13.72c-.21,0,.12,5,0,5l191.74-10.9v-5L916.05,559.33c-.19,0,.1,5,0,5l216.11-9.64v-5L928.63,576.37v5q113.73-15.12,228.21-23.37v-5L979.4,583.14c-.21,0,.1,5,0,5l200.78-4.83v-5q-51.15,9-102.86,14.19-25.33,2.55-50.77,4.18c-8.21.53-16.49,1.26-24.72,1.35-5.48.06-12.16-.68-14.41-6.48v5q107.14-18.33,215.16-30.78c.17,0-.07-5,0-5a87.92,87.92,0,0,0-41.37,11.68c-.74.43.69,4.6,0,5Z"/></g><g class="cls-2"><path class="cls-3" d="M1139.41,566.64l-129.75,8.88v5q84.31-7.31,167.63-22.69a43.89,43.89,0,0,0,0-5c-74-21.35-151.58,2.59-226.55-11v5l150-34.48c.27-.06-.15-5,0-5L922.22,515v5q74.49-18,150.35-29.36c.2,0-.1-5,0-5L901,491.71v5a1275.48,1275.48,0,0,0,150.12-24.1c.25-.06-.14-5,0-5l-162.71,4.3v5L1032.54,455c.11,0,0-5,0-5-62-7.06-124.42-2-186.39,3.09v5a1261.93,1261.93,0,0,1,170.68-22.51v-5q-92.64,8-184.87,20c-.25,0,.18,5,0,5q80.19-10.21,159.14-28.07c.17,0,0-5,0-5-53.82-5.62-108-3.8-162-1.89v5l175.41-40.05c.25-.06-.13-5,0-5l-174.19,2.49v5a971.25,971.25,0,0,1,189.31-30.69v-5q-63.88,5.22-127.21,15.36c-.29,0,.22,5,0,5q63.28-10.12,127.21-15.36c.16,0-.08-5,0-5a971.25,971.25,0,0,0-189.31,30.69c-.27.08.15,5,0,5l174.19-2.49v-5L829.15,420.62c-.27.06.14,5,0,5,54-1.91,108.13-3.73,162,1.89v-5Q912.24,440.35,832,450.58v5q92.2-12,184.87-20c.16,0-.08-5,0-5a1261.93,1261.93,0,0,0-170.68,22.51c-.27.06.18,5,0,5,62-5.12,124.37-10.15,186.39-3.09v-5L888.43,471.91c-.2,0,.1,5,0,5l162.71-4.3v-5A1275.48,1275.48,0,0,1,901,491.71c-.15,0,.07,5,0,5l171.55-6.08v-5Q996.79,497,922.22,515c-.28.07.16,5,0,5l178.52-7.65v-5l-150,34.48a46.33,46.33,0,0,0,0,5c75,13.6,152.51-10.34,226.55,11v-5q-83.22,15.38-167.63,22.69c-.17,0,.09,5,0,5l129.75-8.88c.15,0-.08-5,0-5Z"/></g><g class="cls-2"><path class="cls-3" d="M921.74,603.23l-35.44,1.09v5a538.85,538.85,0,0,0,94-15.77c.3-.08-.19-5,0-5l-137.75,7.69v5l182.24-34.31c.22,0-.12-5,0-5l-132.12,3v5l117.24-16.5c.21,0-.11-5,0-5l-136,6.92v5q74.4-10.93,149.4-17c.16,0-.08-5,0-5Q915.75,545.45,808,547.5v5a1541.5,1541.5,0,0,0,176.66-24.66c.23-.05-.11-5,0-5l-170.45,3.09v5l149.75-31c.21,0-.08-5,0-5l-181.46-4.11v5L943.22,483c.15,0-.07-5,0-5a1312.6,1312.6,0,0,0-164.3,19.48c-.19,0,.06,5,0,5A544.84,544.84,0,0,0,950,479.38c.28-.09-.13-5,0-5l-168.62-2.47v5c8.9-7.69,20-11.33,31.31-13.82,13.4-2.95,27-5.22,40.45-7.78l85.51-16.23c.17,0,0-5,0-5a608.84,608.84,0,0,0-150.14,8.74c-.2,0,.07,5,0,5a755.36,755.36,0,0,0,139.83-10.27c.23,0-.12-5,0-5-56.42,2.66-113,5.25-169.39.31v5l166.88-32.57c.13,0,0-5,0-5a1002.46,1002.46,0,0,0-160.11-8.4v5l188.37-27.27c.18,0-.06-5,0-5l-181.34-.39v5a1490.16,1490.16,0,0,0,187.28-27.61c.24-.05-.12-5,0-5l-135.94,2v5l108.1-24c.18,0,0-5,0-5a816.58,816.58,0,0,0-127.44-.85v5L937.62,303.6v-5L890,308.79c-.38.08.3,4.94,0,5l47.63-10.19c.31-.07-.21-5,0-5L804.78,313.85c-.2,0,.11,5,0,5a816.58,816.58,0,0,1,127.44.85v-5l-108.1,24c-.25,0,.12,5,0,5l135.94-2v-5a1490.16,1490.16,0,0,1-187.28,27.61c-.12,0,0,5,0,5l181.34.39v-5L765.75,391.89c-.19,0,.09,5,0,5a1002.46,1002.46,0,0,1,160.11,8.4v-5L759,432.86c-.16,0,0,5,0,5,56.37,4.94,113,2.35,169.39-.31v-5a755.36,755.36,0,0,1-139.83,10.27v5a608.84,608.84,0,0,1,150.14-8.74v-5l-85.51,16.23c-13.48,2.56-27,4.83-40.45,7.78-11.32,2.49-22.41,6.13-31.31,13.82-.34.3.18,5,0,5L950,479.38v-5a544.84,544.84,0,0,1-171.11,23.07v5A1312.6,1312.6,0,0,1,943.22,483v-5L782.47,490.85c-.1,0,0,5,0,5L963.93,500v-5l-149.75,31c-.24.05.12,5,0,5l170.45-3.09v-5A1541.5,1541.5,0,0,1,808,547.5c-.13,0,0,5,0,5q107.74-2.06,215.31-9.16v-5q-75,6.1-149.4,17c-.21,0,.11,5,0,5l136-6.92v-5L892.64,565c-.19,0,.08,5,0,5l132.12-3v-5L842.52,596.24c-.25,0,.14,5,0,5l137.75-7.69v-5a538.85,538.85,0,0,1-94,15.77c-.13,0,.05,5,0,5l35.44-1.09c.09,0,0-5,0-5Z"/></g><g class="cls-2"><path class="cls-3" d="M991.35,460.56c5.08-5,9.4-11.09,9.56-18.45.14-6.15-1.07-11.07-7.91-12.9-10.86-2.92-22.87-3.49-34-4.86q-18-2.22-36.07-3.88v5A269.38,269.38,0,0,0,1017.68,410c.33-.12-.19-5,0-5A877.47,877.47,0,0,0,917.21,413v5l108.84-20.12c.28-.05-.17-5,0-5-58.33,5.41-116.81,10.76-175.46,9.53v5l163.51-32.14c.25,0-.15-5,0-5-32.83,1.65-65.92,3.15-98.43-2.81v5a1189,1189,0,0,1,135-26.25c.18,0-.08-5,0-5q-68.79,1.8-137.23,9.66v5l165.88-21.22c.15,0,0-5,0-5l-143.46-3.09v5c46.58-13.92,94.7-21.17,142.68-28.31.18,0-.07-5,0-5l-156.54,0v5q66.71-11.93,133.2-25.07c.16,0,0-5,0-5l-94.87-9.61v5a611.18,611.18,0,0,1,114.12-20.22c.13,0,0-5,0-5A596.5,596.5,0,0,0,961.26,256c-.24,0,.11,5,0,5a563.67,563.67,0,0,0,124.38-15.72c.23,0-.09-5,0-5q-69.71-2-139.39,2.26c-.14,0,.06,5,0,5q69.62-4.28,139.39-2.26v-5A563.67,563.67,0,0,1,961.26,256v5a596.5,596.5,0,0,1,113.19-12.71v-5a611.18,611.18,0,0,0-114.12,20.22c-.2.05,0,5,0,5l94.87,9.61v-5Q988.72,286.3,922,298.23c-.21,0,.08,5,0,5l156.54,0v-5c-48,7.14-96.1,14.39-142.68,28.31-.27.08.13,5,0,5l143.46,3.09v-5L913.44,350.88c-.23,0,.16,5,0,5q68.37-7.85,137.23-9.66v-5a1189,1189,0,0,0-135,26.25,43.89,43.89,0,0,0,0,5c32.51,6,65.6,4.46,98.43,2.81v-5L850.59,402.42c-.2,0,.07,5,0,5,58.65,1.23,117.13-4.12,175.46-9.53v-5L917.21,413c-.3.06.22,5,0,5A877.47,877.47,0,0,1,1017.68,410v-5a269.38,269.38,0,0,1-94.76,15.52s-.14,5,0,5q22.46,2.08,44.82,5c7.13.93,14.27,1.86,21.36,3,5.77.93,11.18,2.83,11.8,9.38l0-4.65c-.14,6.77-4.94,12.82-9.53,17.37-.85.84.81,4.19,0,5Z"/></g><g class="cls-2"><path class="cls-3" d="M1061.31,311.49c-.88,1.33-2.18.22-2.4-1v5c2-3.77,9.49-4.82,13.25-6.18l15.84-5.71,31.7-11.43c.38-.14-.28-5,0-5l-64.47,6.64L1024,297.06c-9.25.95-20.53,3.92-29.11-.92v5c19.61-6.95,40.31-9.73,60.76-13l64.67-10.38c.19,0-.08-5,0-5l-129.06.58v5c2.93-7,12.74-7.76,19.18-9.33l30-7.33,59.07-14.41c.26-.06-.13-5,0-5l-121.18,1.2c-.05,0,0,5,0,5l121.18-1.2v-5l-59.07,14.41-29.05,7.09c-6.61,1.62-17.12,2.32-20.15,9.57-.19.45.07,5,0,5l129.06-.58v-5l-64.67,10.38c-20.45,3.28-41.15,6.06-60.76,13a27.83,27.83,0,0,0,0,5c8.35,4.71,19.12,1.94,28.13,1l32.24-3.32,64.47-6.64v-5l-47.54,17.14c-4.08,1.48-12.64,2.46-13.27,7.42-.11.86.26,8,2.42,4.73.78-1.17-.75-3.86,0-5Z"/></g><path d="M990.29,355.38l5-4.29v-5L952.87,398.2c-.35.43.28,5,0,5a199.34,199.34,0,0,1,52.39.5c-.2,0,.26-5,0-5a199.34,199.34,0,0,0-52.39-.5v5l42.46-52.11c.74-.91-.82-4.3,0-5l-5,4.29c-.84.71.8,4.32,0,5Z"/><path d="M956.11,399.59l48.6-20.37c.62-.26-.56-4.76,0-5l-48.6,20.37c-.62.26.56,4.76,0,5Z"/><path d="M814.18,403.63a188.32,188.32,0,0,1,65.06-1.1v-5l-24.9,21.34-12.82,11c-3.83,3.28-9.26,6.62-12.17,10.75-1.14,1.61-2.23,8.59.3,9.15,3,.66,2.71-5.53,1.76-6.93.76,1.12-.79,3.85,0,5l.37.55v-5c-.66,2.6-3.25,1.19-3.43-.82v5c1.75-4.42,7.36-7.72,10.91-10.76l13.57-11.64,26.41-22.63c.28-.25,0-5,0-5a188.32,188.32,0,0,0-65.06,1.1c-.34.07.28,4.95,0,5Z"/><path d="M879.83,396,842,411.6l-18.46,7.63L814.3,423,809.69,425c-1.54.63-3.59,2.68-3.81.26v5a4.41,4.41,0,0,1,3.2-3.56c.56-.2-.49-4.82,0-5-3.06,1.1-4,5.14-3.21,8.22.61,2.26-1,1.16,2,.84,1.75-.19,3.87-1.6,5.54-2.29l13.84-5.72L879.83,401c.62-.26-.55-4.77,0-5Z"/><path d="M923.31,290.28c20.4-33.38,47.87-64.94,86.29-77.21,18.33-5.85,38.47-7,56.92-1A85,85,0,0,1,1108,242.15c11,14.73,17.74,33.75,15.72,52.23a85.94,85.94,0,0,1-21.13,47.71c-11,12.32-25.88,20-39.71,28.67-12.25,7.67-25.28,16.71-30.87,30.65-4.41,11-3.83,25.19,1.11,35.86,7.5,16.21,23.08,28,38.32,36.44,37.32,20.68,79.25,32,115.07,55.57,15.59,10.27,30,22.7,41,37.92,12.21,16.95,18.49,36.65,21.23,57.22,5.1,38.29,3.8,87.29-35.16,107.78-33.39,17.56-72.56,5.8-98.17-19.66a108.28,108.28,0,0,1-16.76-21.15c-4.68-7.89-9-17.62-3.09-26,8.59-12.14,27.74-7.31,36.23,2.32,13.44,15.24,6.22,38.2,1.15,55.32a246.55,246.55,0,0,1-20.77,50.44c-18.07,32.38-45.71,58.88-82.12,68.84-37.59,10.27-78.43,3.29-111.94-16-32-18.42-57.48-47.05-75.19-79.21-10.26-18.61-20-41-19.17-62.72.81-20.21,10.19-38.68,21.65-54.9,5.58-7.89,11.68-15.39,17.84-22.83,6-7.2,14.81-15.06,15.47-25,.26-4.06.23-8.51-1.67-12.2-3.64-7.09-11.82-11.12-19.06-13.47-30.61-9.93-70.29-6.58-92.37-34.22-12.57-15.73-15.18-37.38-17.26-56.76-2.49-23.14-2.2-46.48,2.08-69.39,6.89-36.81,24.4-71.51,54.79-94.25,26.74-20,62.24-30.5,95-21,5.69,1.65,19,8.33,19.89-2,.28-3,.76-8-2.9-8.85.31.07-.39,4.91,0,5,2,.46,2.75,1.72,2.89,3.8v-4.91c-.95,10.27-14.28,3.56-19.89,1.93a92,92,0,0,0-23.56-3.55,109.29,109.29,0,0,0-46,9.61c-31.23,13.71-55.15,39.34-68.62,70.45C748.86,382.48,745.58,416,746.8,449c.67,18,2.31,36.73,7.25,54.1,4.85,17,14.77,30.8,30.67,39,16.18,8.31,34.71,10.73,52.36,14.13,13.82,2.66,41.32,6.33,41.6,25.18l0-4.66c-.71,8.3-6.7,14.41-11.78,20.52s-10.24,12.3-15.14,18.64c-9.42,12.21-18.14,25.29-23.32,39.92-9.56,27.06-4.28,56.8,7.36,82.3,25,54.81,74,102.43,135.14,112.11,30.77,4.87,63.39.13,90.19-16.24,24.94-15.23,43.22-39.05,56-65A258.6,258.6,0,0,0,1132.93,728c3.76-12.67,6.73-25.36,6.7-38.63,0-11.83-2.73-24.41-13.24-31.33-8.62-5.67-22.29-7.57-29.79,1-6.47,7.4-5.27,20.67-2,29.19,5.26,13.54,16.06,25.68,27,35,22.16,18.92,52.14,27.84,80.47,18.74a65.75,65.75,0,0,0,33.6-23.9c8.79-12.26,12.89-27.17,14.46-42a219.8,219.8,0,0,0,.63-32.66c-.74-16.77-2.52-33.74-7.55-49.81-20.65-65.93-92.63-88-149-113.65-25-11.37-59.3-27.82-64.5-58.21-2-12,5.6-24,14-31.89,9-8.55,20.07-14.69,30.61-21.13,11.48-7,22.64-14.45,31.13-25.07a86.26,86.26,0,0,0,17.38-38.39c4.3-23.73-.36-48.64-14.86-68.14a84.51,84.51,0,0,0-75.76-33.7c-32.13,2.85-60.29,21-81.53,44.45a248,248,0,0,0-27.38,37.38c-.75,1.23.73,3.81,0,5Z"/></svg>