<svg id="Layer_1" data-name="Layer 1" xmlns="http://www.w3.org/2000/svg" viewBox="0 0 1280 1024"><defs><style>.cls-1,.cls-2,.cls-3{fill:none;stroke:red;stroke-miterlimit:10;}.cls-1{stroke-width:9px;}.cls-2{stroke-width:12px;}.cls-3{stroke-width:17px;}</style></defs><title>heartchart</title><path class="cls-1" d="M293.24,440.33c264.52-8.89,529.13-17.78,793.79-15.73,12.18.09,24.41.21,36.48,1.89l-373.91,6.6c-105.67,1.86-211.36,3.73-317,3-90.25-.58-181.52-2.93-269.61,16.73,14.11,6.62,30.48,5.51,46,4.27l345.3-27.7q-101.7,4-203,15.12c-23.45,2.57-47.63,5.69-67.91,17.73l245.26-7.44L258,490.26l195.51-19.6q-104.53,11.1-209.35,19.27,74-7.69,147.22-20.78a1265.9,1265.9,0,0,1-174.85-.93c75.81-25.78,157.71-25,237.78-23.91,41.9.56,84.78,1.3,124,16a815.18,815.18,0,0,1-173.14,13.54Q577,449.6,749.89,434.8a1746,1746,0,0,0-176.7,7.59c-11.69,1.1-24.8,3.11-31.67,12.63,24.72,2.71,49.68,2.1,74.55,1.47l229.81-5.74L571.56,470,895.9,456.59a965.64,965.64,0,0,0-188.92.76l286.41-15a1012.31,1012.31,0,0,0-174.23-5.9,979.75,979.75,0,0,1,209-1.57L912.34,440.4l189.24.05a173,173,0,0,1-70.47-.75,176.85,176.85,0,0,1,58.06,14.92l-63.55,9.4a410.22,410.22,0,0,0,66.94,5.73q-76.12-1.17-152.25,1.4a959,959,0,0,0,126-3,2104.54,2104.54,0,0,0-289.58,5.46l231.59-3.83-265.08,9.66q123-8.82,246.3-11.59-200.23-5.11-400.38,7.64c99.23-9.74,199.4-19.47,298.41-7.67l-238.13,8.63c-71.1,2.57-142.27,5.15-213,12.53a2743.73,2743.73,0,0,1,368.76-18.47c-114.21,2.4-228.8,4.84-341.7,22.21l201.12-12.15L397.89,497.13a839,839,0,0,1,166.3-11.31q-118.71,10.32-237.91,12.75L452.42,485q-101.76,3.92-203,16.4l139.88-19.14q-81.27,1.26-162.28,8.86L301.45,477l-118.39,6.17a728.44,728.44,0,0,1,111.38-16.76q-60.34,6-121,7.82a916,916,0,0,1,117.23-21.47q-45,6.15-90.5,8.05l69.1-11.18a624.51,624.51,0,0,0-94.83,11.06l91.39-13.07a713.63,713.63,0,0,1-102.41,16.69,637.3,637.3,0,0,1,145.91-13.5,460.26,460.26,0,0,1-95.46,20.43l177.91,3L241.9,499.82l155.81-7.56a937.94,937.94,0,0,0-130.52,14.52,522.93,522.93,0,0,0,120.49-8.87L240.09,514.63l118.47-11.7L222,520.14q68.07-4,135.54-14.46l-152,4.43L301,491.68,200.25,501l83.47-11-94.84,9.24,58.41-9.4"/><path class="cls-1" d="M575.15,505.37l4.12-4.41A1244.27,1244.27,0,0,0,400.6,521.63a1563.19,1563.19,0,0,0,157-14.6l-172.19.19L525.79,500"/><path class="cls-1" d="M636.1,530.3q20.07-7.11,39.51-15.88"/><path class="cls-1" d="M685.81,494.68c-15.84-9.44-35.38-9.54-53.81-8.78a891.42,891.42,0,0,0-180.2,26,1252.85,1252.85,0,0,1,236.85-17.61l-129.48,5c-30.74,1.19-61.92,2.44-91.26,11.7,29.09,7.48,59.56,7,89.59,6.58l274.2-4.34a2078.84,2078.84,0,0,0-295.8,19.9C640.52,519.53,745.52,505.9,851,506.41q-161.37-.65-322.46,11.74c124.46-20.14,250-39,376-34.82l-308.48,19,350.14-27.91c-106.25.9-212.79,1.82-318.17,15.42q187.68-24.35,376.54-38L695.1,461.93c110.78-11,221.95-22,333.22-18.37-99,16.82-202.8-7.08-300.1,17.93l110.38-5.38c66.25-3.23,132.82-6.44,198.77.65l-183.95,13c63.14-2.32,126.5-4.64,189.4,1.4a957.79,957.79,0,0,1-120.41,10.35l154.71,5.25-126.41,3,101.5-3.25-92.63,3.65,86.23,3.5L933.69,504.42c35.08-1.77,70.41-3.53,105.2,1.29a1188.6,1188.6,0,0,1-179.41-1.29c47.69-5.82,96-11.65,143.64-5.77l-191.79,6c-24.39.76-49,1.56-72.62,7.73l255.42-12.63L713.36,508C801.27,497.62,890,487.27,978.1,495.6a2291.13,2291.13,0,0,1-232.39,10.49,1241.43,1241.43,0,0,1,252.53-12.83L751,498.9c71.84-5,144.17-9.93,215.69-1.57L859.5,516.06l189.84,6.72-132.66,8.05,118.65,3.77-112,11.8L1025,548.84l-84.4,7,77.29,5.24-132.63,8.2,102.06-10.7-42.88.87a327.8,327.8,0,0,1,62.66-5.95l-112.09,2.86q65.73-3,131-12.43l-72.45-7.41L1052,525.05l-70.56-5.7a298.93,298.93,0,0,1,72.45-7.88l-77.26,1.64,86.09-6.17-79.41-.3,70.19-9.58L1014,492.39l59.8-6.37-82.54-6.36,87-12.7-64.56-5.73,75.47-4.61-82,5.18,71.28-.59-57.6-.38q35.33-5.22,71-7.5a519.41,519.41,0,0,1-78-.16,580.46,580.46,0,0,1,79.73-7.22q-39.79,2.34-79.69,1.54a448.58,448.58,0,0,0,87.64-8.66l-99.79-10.54a338.68,338.68,0,0,1,91.38-2.74q-81,4.86-162.27,3.85A95.38,95.38,0,0,1,970.41,433c-91.81-2.36-184.65-4.62-274.43,14.72a784,784,0,0,1,170.08-8.27l-163.48,9L871.84,445c-81.47.22-164.15.6-242.49,22.92l115-2.48c49.79-1.08,100-2.12,149,6.74L554.26,485.07c-8.36.31-18,1.27-22.78,8.12"/><path class="cls-1" d="M219.94,528.1c100.83,9.93,202.69-12,303.62-3.13q-97,11.94-194.72,15.3L539.42,532q-118.59,3.79-237.25,1.43l119.05-23.83a1039.78,1039.78,0,0,0-136.43,12.57l166.44-12.28-181,25,104.89-2.21c36.69-.77,73.5-1.53,110,2.23-8.16,6.48-19.15,7.76-29.52,8.79L302,559.06l182.65-14.13L309.09,559.65l228.53-10.33L344,561.14l166.23-24.35L355.05,545c72.47-8.2,145.2-16.42,218.11-14.68q-98.73,9.27-197.33,19.93c9,5.26,20.11,4.55,30.48,3.68L518,544.57q-108,2.34-215.93-1.61l14.13-3.69a260.72,260.72,0,0,0-55,10.17l69-9.43-86.08,12.62,104.81-17L263.54,545q36.84-1.61,73.74-.48a592.51,592.51,0,0,1-88,22.95A856.27,856.27,0,0,0,357.15,545.2a372.44,372.44,0,0,0-84,8q48-4.43,96.33-5l-63.68,13.64,75.37-1.47L283.9,579.58l115.47-18.2q-65.24,2.91-130.53,4.19A319,319,0,0,1,371.18,553l-95,21.7,124.11-6.1A758.5,758.5,0,0,1,292.1,584.23l115-9.1a840.86,840.86,0,0,1-108.06,17L413.7,579,292,591.89l152.4-10.16L328.34,604.11l101.91-4.49-95,11.26a778.15,778.15,0,0,0,93.92-13.3l-126.84,3a528.87,528.87,0,0,1,115.49-12.3c-43,10.84-87.14,16.16-131.14,21.45l140.06-8.17-107.93,15.5,131.94-6L327,633.26l134.14-6.18a505.43,505.43,0,0,1-99.72,10.4Q412,630,463,626.8L338.28,636a620.77,620.77,0,0,1,108.89-12.27l-117.83,12.1a1417.59,1417.59,0,0,0,183.45-28.89,1160.36,1160.36,0,0,0-146.69-4.07c62-6.66,124.3-13.33,186.58-10.26a1629.83,1629.83,0,0,1-186.11,9.73l206-24.56-166.65,7.14c64.85-9.3,130-18.62,195.48-18.84L368.12,585.59c94.73-10.37,189.58-20.74,284.82-24q-129.83,2-259.49,9.73a3058.11,3058.11,0,0,1,325.26-33.46c-112.09,2.77-224.68,5.59-335.1,25a2832.53,2832.53,0,0,1,412-32.29c-131.63,14.92-266.08,9.11-395,39.59A4860.78,4860.78,0,0,1,887.4,522.71a2192.52,2192.52,0,0,0-310.1,16.84c124-13.7,248.92-25.43,373.4-16.89l-160.56,6.18c-36,1.38-72.38,2.82-107.24,12l88-3.88c63.26-2.79,126.89-5.57,189.69,2.53L737.3,549l228.29-9.58C883.3,540.59,800.89,541.76,719,550c92.65-10.85,185.56-21.72,278.85-21.55l-206.87.3c59-3.64,118.36-7.27,177.22-1.5-89.19,21.27-185.14.67-273,27l56.19-2.41c56-2.4,112.47-4.79,168,3.35L701.5,564.65c87-6.77,174.38-13.55,261.47-8L740.6,573.79l201.9,3.66c-45.33,6.12-91.24,6.23-137,6.34l-177.33.41a1122.18,1122.18,0,0,1,226.28-20.3l-252.66,6c92.47-10.22,185.88-20.43,278.28-9.7l-343.32,4.42a674.53,674.53,0,0,0,113.07-1.88"/><path class="cls-1" d="M645.25,909.28a24,24,0,0,0-24.1-3.7L671.64,907a73.85,73.85,0,0,1-29.71,2.47A55.78,55.78,0,0,0,674,905a91.4,91.4,0,0,0-45.43-5.74l37.75-15.62a185,185,0,0,0-66.68-5.81L701.45,858l-121-1,138.43-22.08L563.66,823.72A1488.9,1488.9,0,0,1,712.6,800.37q-80.54-2.36-161.07,2l190.38-23.87-217.68-3.76L777.76,736,547.92,720.27a1963.41,1963.41,0,0,1,213.54-29.4,2559.92,2559.92,0,0,0-316.8,12.06Q619.89,675.48,797,662.4L534.26,678.58c-26.82,1.65-53.88,3.29-80.44-.79a1891.64,1891.64,0,0,1,430.11-36l-412.15,7.94C593.29,618,719.43,609.21,844.71,600.52a2470.39,2470.39,0,0,0-310.12,12.23c-23.1,2.37-46.46,5.13-68.17,13.4A3147.56,3147.56,0,0,1,835,603.09L695.76,617.67"/><path class="cls-2" d="M663.92,882.3l-32.28,7.28,26.67,2a11.58,11.58,0,0,0-8.08,7.87l14.18,5.17-30.72,6.05a30.58,30.58,0,0,0,22.5.5L628.32,911l16-6.07a78.78,78.78,0,0,0-28.87,2.42A102.15,102.15,0,0,0,658.19,896a92.56,92.56,0,0,0-39.81,3.72l50.85-10.12a382.58,382.58,0,0,1-73.53,10.58l63.69-16.65-61.69,2,55.16-14.92a202.49,202.49,0,0,0-44.69,5.21q33.12-4.78,66.57-6.72L607.9,882.42l80.42-10.26a240.2,240.2,0,0,1-69.3,3.77,220.73,220.73,0,0,1,62.21-16.46l-71.61,4,82.79-9.85L589.13,868l111.26-14.34q-52.87,5.64-106.1,6.52l102-16.32a950.36,950.36,0,0,0-108.76,6.59l106-12.16A656.16,656.16,0,0,1,589,838.08l100.84-21.46q-70.7,1.86-141.29,6.6a1481.43,1481.43,0,0,1,153.57-21.29,935.19,935.19,0,0,0-130.93,15.35Q644,813,716.41,803.89l-154,12,130.38-25.35a798.18,798.18,0,0,0-135.1,4.21l129.49-5.92a333.52,333.52,0,0,1-91,9L640,781a836.24,836.24,0,0,0-115.67,1.44,1037.22,1037.22,0,0,0,128.87-20.52,753,753,0,0,0-126.65,8.7l114.6-11.45-109.6,15A926.94,926.94,0,0,0,668,750.73l-145-4.14q65.9-8.46,132.35-11.19-84.71,4.4-168.91,15.47c14.52,8.64,32.52,8,49.39,7.16l129.35-6.65-109.3-13.33c56.51-7.59,113.7-13.29,170.48-8.14L513,747.79l189.28-11.12q-92.55,1.1-185.07-3.14a490.23,490.23,0,0,1,111.14-11.37L447.23,739.74q92.19-8,184.76-9.68-79.86,8.78-160.34,9.64l165.78-26.9-158.85.82q63-6.79,126.51-8.53Q521.51,719.37,437,727.16l146-18.6q-80.16,5.9-160.63,3.76,72.94-18.8,147.49-30.45a763.65,763.65,0,0,0-109.57,7.78,760.71,760.71,0,0,0,96.7-9A949.64,949.64,0,0,0,421,695.35q64-7,127.2-19.22a1010.93,1010.93,0,0,0-135.46,11.79L559.5,673.24q-63.72,6-127.78,6.73A645.58,645.58,0,0,1,541.86,661.8l-169,15.4,153.48-26.43a1306.17,1306.17,0,0,0-153.11,4,807,807,0,0,1,121.41-17.32A634.21,634.21,0,0,1,400.43,656L528.1,637.9,384.92,652.74A882,882,0,0,1,489.85,624l-65.91,17.12"/><path class="cls-1" d="M704.38,826.35a6.9,6.9,0,0,1,4.06-8.19l-15.24,3.12a86.75,86.75,0,0,0,25.91-1.77,93.37,93.37,0,0,0-27.25-1.62,98.63,98.63,0,0,0,30.24-8.75,102.94,102.94,0,0,0-56.42-4.29l42.1-3.75a218.13,218.13,0,0,0-52.29,7.78l89.3-8.48a414,414,0,0,0-74.4,13.67,66.37,66.37,0,0,0,53.5-9.87,329.74,329.74,0,0,0-70.26-3.33,609.41,609.41,0,0,0,98.22-19.37,549.54,549.54,0,0,0-77.6-3.12,522.71,522.71,0,0,1,86.57-16.06L647,774.4l123.92-12.85-110.18,12q58.49-11.12,117.79-17.11a820.52,820.52,0,0,0-99.25,8.68l83.62-4.48a568.69,568.69,0,0,0-88.14,21.09,360,360,0,0,0,86.76-3L693,790a273.88,273.88,0,0,0,51.38-9,226.15,226.15,0,0,0-75.27,13.77l75.69-2.49-88.61,22.56a633,633,0,0,0,85.21-3.08,453.58,453.58,0,0,1-95.45,12.15l82.33-24.72c6.57-2,13.86-4.54,16.84-10.71l-69.46-9.6a297.19,297.19,0,0,1,84.19-20.25l-80.39,8.71q49.83-9.07,100.32-13.76l-106.59,4.12q62.75-15.09,126.68-24.51l-95.17,11.09a894.28,894.28,0,0,1,115-12.29l-80.88,12.91a378,378,0,0,1,81.57-3.55q-54.75,13.94-110.42,23.89a750.9,750.9,0,0,0,85.57-15.79l-75.79,3.46a718.81,718.81,0,0,1,77.39-20.2,330.13,330.13,0,0,0-77.24,5.61,546.47,546.47,0,0,1,92.65-12.08L675.41,744.81a1219.73,1219.73,0,0,1,159.15-27.07q-67.44,4.72-135.13,4.27l133.89-20.75q-57.17,5.34-113.69,15.91l114.52-10L700,722.78l134-27L721.87,699a452.4,452.4,0,0,1,118-17A720.54,720.54,0,0,0,708,707.57c4.71,5.41,13,5.17,20.19,4.49l117.65-11.24q-80.94,10.9-162.66,14.37l89.32-19.84Q669.22,706,566.74,723q99.62-17.78,199.94-31.2c19.28-2.58,39.44-4.95,57.76,1.58L624.83,724.2l199.3-35q-55.67,4.75-110.83,14,76.56-11.13,153.5-19.33a546.86,546.86,0,0,0-104.86,14.41q56.05-2.54,111.68-10.66a929.06,929.06,0,0,1-140.27,19.84Q790,690.06,848.12,678.18a741,741,0,0,0-117.21,9.42,1048.37,1048.37,0,0,1,135.72-17.23,841.44,841.44,0,0,1-84.24,13.8L891.87,664.8l-97.22,7.86a346,346,0,0,1,80.83-12.29l-67.41,11.21,72-9.7L676.49,675.74l176.43-26.45L621.51,667.51,839.6,654.22c-105,19.36-212.15,23.5-318.85,27.6,95.1-18,191.47-35.86,288-29.52L572.52,680.35l315.65-50.68a2009.81,2009.81,0,0,0-210.61,24.15l233.44-30c-75.15,9-150.48,18-224.18,35.22,22.34,4.63,45.48,1.85,68.12-1q75-9.41,149.83-19.45Q792.36,652.28,679,655.8,780,635.12,882,620q-129.29,6.42-257.55,25.11c15.77,3.7,32.24,1.78,48.33-.15l178.87-21.52a2134.88,2134.88,0,0,1-240.82,19.09,1596.54,1596.54,0,0,1,234-24.12L575.21,638.32q131.87-18.47,264.3-32.46l-264.92,4.46a1408.89,1408.89,0,0,1,229.12-25.83q-125.61,11-251.77,13.35l192.21-34.38q-118.36,4.63-236.4,14.87l212.61-20.42-205.44,37.4c14.49,5,30.2,4.3,45.5,3.6l250.66-11.57-197.84,28L866.8,596,722.22,615.78q87.91-3,175.51-11.84-65.33,3.78-130.24,12.36,90.06-9.85,179.45-24.88a479.47,479.47,0,0,0-90.93,5l70.73-6.15"/><path class="cls-1" d="M921,608l-65.42,2.82a234.06,234.06,0,0,1,72.9-8A396.67,396.67,0,0,1,826.71,614.1a670.65,670.65,0,0,1,125.76-19.31l-151.68,7.44q89.12-3.18,177.72-14.31l-123.88,3.82a955.39,955.39,0,0,0,122.54-19.4l-102.39,5.6Q934,563.32,994.39,553.82c-44.43-1-89.45-1.85-132.62,8.7l59.57-1.39c21.4-.49,42.84-1,64.17.82L875.29,581.6c-9.21,1.65-19.29,3.8-25,11.21,13.06,1.87,26.31,1.81,39.51,1.75l66.46-.29L840.39,617.64c36.61,1.68,73.26-.71,109.83-3.1L839.55,630.4a845.71,845.71,0,0,0,98.65-14.34,910.24,910.24,0,0,0-97.77,9.81l104-10.11L840.47,635l86.3-6.52-40.55,11.34c-8.12,2.27-16.72,4.84-22.24,11.21a229.08,229.08,0,0,0,74.88-12l-80.23,9.24,97.26-21.06a470,470,0,0,0-79.84,1.46c27.7-6.05,55.44-12.1,82.6-20.26a540.82,540.82,0,0,0-106.07,9.69,991.32,991.32,0,0,0,108.8-21.3L828.66,609.66q63-13.67,126.84-22.79Q910,593.67,864,596.45l118.52-18.68a561.08,561.08,0,0,0-101.35,7.11l103.21-18.52a577.76,577.76,0,0,0-102.84,13.8l71.16-17.23a897.89,897.89,0,0,0-154.9,22.78"/><path class="cls-1" d="M699.4,702.93l41.36-20.46a1024.91,1024.91,0,0,0-205.56,8.71q120.64-11.71,241.89-15.57L569.56,693.73c24.25,5,49.34,2.45,74-.18q89.46-9.56,178.82-20A1978.76,1978.76,0,0,0,503.9,675l320.45-42-295.76,4.8Q691.81,612,856.9,600.87q-161.29.57-322.09,16c118.1-11.4,236.38-22.81,355-24q-194.39,5.91-388.91,5.39L882.1,550.85C748,555.1,613.82,559.35,480.5,574l412.65-45.55L472.89,547.22a3139.32,3139.32,0,0,1,396.61-55c-143.69,22.49-290.85,19.42-433.41,48.23,30.58,1.79,61.18-2,91.58-5.74l327.48-40.57q-207.15,5.35-414,19.05a2931.13,2931.13,0,0,1,351.64-43.13c-155.48,2.37-311.54,4.79-465.24,28.31l388.18-25.14c-84.11,12.13-170.1,9.74-253.42,26.49-18.94,3.81-39.59,9.93-49.67,26.42,17.8,4,36.32,2.09,54.46.16l180.14-19.17L317.45,523.7,634.2,475.45c9.54-1.45,19.72-3.2,26.76-9.81a1567,1567,0,0,0-190.48,11.68c-15.86,1.95-32.4,4.41-45.41,13.69"/><path class="cls-1" d="M669.28,719.12,502.54,698.76c-2.59-8.91,9.22-14.61,18.34-16.32L732.62,642.8c-10.36-9.21-25.13-11.11-39-12.34a1194.41,1194.41,0,0,0-211.43-.18q171.85-9.53,343.45-23a2637.14,2637.14,0,0,0-379,17.49c27.66,3.9,55.77,1,83.56-1.81l242.75-25c-113.21.74-227,1.53-338.61,20.7,138.92-10.18,278-20.36,417.26-21.07-111.52,22-228.77,10-337.79,42.09,12.76,9,29.67,8.45,45.24,7.55q125.67-7.22,251.3-14.85l-256.65,1.37c-31,.16-62.14.32-93-3.11,51.29-15.71,104.85-22.33,158.09-28.89l162-19.94a3013,3013,0,0,0-362.75,12.53l376.72-32Q588.35,565,382.41,582.81c129.54-23.32,260.9-37.19,392.51-38.23l-430.75,8.67q199.46-24.3,400.11-36.78L386.9,523l300.47-34.65q-154.14-8.87-308.66-7.09a1504.5,1504.5,0,0,1,221.51-21.88,1208.67,1208.67,0,0,1-232.06,5.43,1027.18,1027.18,0,0,1,240.66-13.6c-20.74,4-42,4.28-63.13,4.52L348.53,458,666,460.09c-90.65-7.68-182.18-15.35-272.3-3l294.68-22.37L357,446.5c148.11-8.37,296.58-15.14,444.78-8.43,15,.68,31.16,2,42.47,11.81l-353.92,7A3331.56,3331.56,0,0,1,823.5,437.58c26-.22,52.7,0,76.71,9.86-6.56,7.65-17.42,9.65-27.41,11-119.84,16.09-242.86,5.84-361,31.68,31.42,3.2,63.1.91,94.6-1.39l377.37-27.47q-143.43,2.37-286.68,10.48c-61.1,3.46-122.65,7.78-181.67,24l318.67-15.76-309,26.47c-22.32,1.91-44.91,3.88-66.09,11.2,28.33,5.12,57.42,2.41,86.09-.1q189.73-16.63,380.27-20.73c-112.22,15.63-228.28,3.87-337.72,33.2l124.77-4.07c69.27-2.27,138.62-4.53,207.88-1.82-151.15-.83-302.76-1.64-452.89,16l171.75-11.37L327.35,562.89l190.74-51.78-222.92,8.45q75.65-19.35,151.9-36.28c-69.7,5-139.52,9.93-209.39,8.74a1537.44,1537.44,0,0,1,159.93-36.38L237.89,474.56q78.81-11.15,158.29-16.65Q318.95,468,241.28,474.49l154.65-28.1L290,462.78l112.48-10.73c-48.52,8.46-97.23,17-144,32.25,57.8,15.9,120.82-11.71,178.75,3.74-57.37,14.14-114.9,28.33-170.17,49.22,7.34,8.52,20.23,8.75,31.46,8.32l148.84-5.79L282,570.85l238-14.59c-4.27,6.79-13,8.87-20.92,10.37L325.46,599.7,540.89,589,410.42,606.43c-18.39,2.46-37.33,5.1-53.33,14.49l210.66-10-126.13,14.2c-17.68,2-35.75,4.09-51.8,11.77C454.91,647,521.7,626,587,635q-94.65,13.1-189.13,27.44c5.44,6.45,15.23,6.31,23.63,5.64l171.69-13.77c-52.33,4.56-105,9.17-155.7,22.88l166.21-12.27q-66.54,6.3-132.62,16.45c-8.64,1.32-18.78,3.88-21.78,12.08l129-7.83L466.77,710.16c-5.57,1.22-12.78,5.67-10,10.66q69.66-1.08,139-8.06L472.08,733.13,599.3,719.26,473.55,737.34l139.63-2.46L499.49,759.11l117.67-8.64a534.66,534.66,0,0,0-94.83,18.11q46.9.33,93.71-3.93L507.69,785.24l115.93-9.34-93.79,14.54a785.33,785.33,0,0,0,106.26-10.15,779.91,779.91,0,0,1-114.37-3,169,169,0,0,1,59.4-31c-1-6.32-9.11-8.13-15.5-8.5l-99.09-5.59a492.83,492.83,0,0,1,141.1-16.64L482,737.41,600.58,737"/><path class="cls-3" d="M634.52,357.62c-8.2-42.11-27.38-81.58-53.73-115.3a325,325,0,0,0-97.48-83c-41.92-23.41-90.78-39.75-139.28-36.74-49.39,3.06-89.63,29.92-120.89,66.87-15.56,18.4-29,38.55-41.41,59.2-13.36,22.32-25.11,45.75-33.22,70.51-16.13,49.31-16.14,103.69,10.7,149.27,12.9,21.92,30,41,47,59.73,17.92,19.76,36.22,39.18,55.21,57.92,38.85,38.37,81.11,71.52,125.28,103.48A898.74,898.74,0,0,1,505.87,792.08c35.78,36.86,69.36,75.77,104.68,113.07q12.93,13.67,26.23,27"/><path class="cls-3" d="M636,357.62c8.2-42.11,27.38-81.58,53.74-115.3a324.93,324.93,0,0,1,97.79-83.2c42.08-23.44,91.17-39.77,139.83-36.51,49.47,3.32,89.63,30.6,120.79,67.73,15.42,18.38,28.83,38.47,41.1,59.06,13.32,22.34,25,45.79,33,70.59,16.08,49.72,15.59,104.25-11.84,149.9-13.12,21.82-30.31,40.83-47.37,59.6-17.94,19.74-36.26,39.14-55.28,57.85-38.93,38.32-81.33,71.31-125.51,103.3a893.33,893.33,0,0,0-119.14,103c-35.82,37-69.5,76.05-105,113.41q-13,13.63-26.29,26.92"/></svg>