<svg id="Layer_1" data-name="Layer 1" xmlns="http://www.w3.org/2000/svg" viewBox="0 0 1280 1024"><defs><style>.cls-1,.cls-2,.cls-3{fill:none;}.cls-1{stroke:#b3b3b3;stroke-width:18px;}.cls-1,.cls-2,.cls-3,.cls-4{stroke-miterlimit:10;}.cls-2{stroke:#ffb09c;}.cls-2,.cls-3,.cls-4{stroke-width:10px;}.cls-3,.cls-4{stroke:#ccc;}.cls-4,.cls-5{fill:#e6e6e6;}</style></defs><title>height</title><line class="cls-1" x1="716" y1="293" x2="716" y2="794"/><line class="cls-1" x1="400" y1="788" x2="828" y2="788"/><line class="cls-2" x1="739" y1="318" x2="781" y2="318"/><line class="cls-3" x1="739" y1="365" x2="760" y2="365"/><line class="cls-2" x1="739" y1="412" x2="781" y2="412"/><line class="cls-3" x1="739" y1="458" x2="765" y2="458"/><line class="cls-2" x1="739" y1="506" x2="781" y2="506"/><line class="cls-3" x1="739" y1="551" x2="765" y2="551"/><line class="cls-2" x1="739" y1="601" x2="788" y2="601"/><line class="cls-3" x1="739" y1="644" x2="765" y2="644"/><line class="cls-2" x1="739" y1="692" x2="781" y2="692"/><line class="cls-3" x1="739" y1="739" x2="763" y2="739"/><ellipse class="cls-4" cx="561" cy="352.5" rx="37" ry="37.5"/><path class="cls-4" d="M557.48,403.67c16.21-.67,32.21-3.67,48.21,1.33,5,1,3,8,5,13,22,45,47,87,65,133,2,6-2,14-8,17-8,4-18,3-23-5-8-15-14-30-20-45-3-5-5-11-7-16a63.76,63.76,0,0,0-8-14L608,484V756.8c0,5.61-3.07,10.14-6.85,10.14,0,2.25-6.14,4.06-13.71,4.06-8.66,0-15.67-6.35-15.67-14.2V595.55l4.9-3H545.33l4.9,3V756.8c0,7.85-7,14.2-15.67,14.2-7.57,0-13.71-1.81-13.71-4.06-3.78,0-6.85-4.53-6.85-10.14V484l-1,4a63.76,63.76,0,0,0-8,14c-2,5-4,11-7,16-6,15-12,30-20,45-5,8-15,9-23,5-6-3-10-11-8-17,18-46,43-88,65-133,2-5,0-12,5-13,16-5,32-2,48.21-1.33"/><path class="cls-5" d="M507.31,457.45l-2,5a6,6,0,0,0,.6,4.62,6.13,6.13,0,0,0,3.59,2.76,6.06,6.06,0,0,0,4.62-.61,7,7,0,0,0,2.76-3.58l2-5a6.05,6.05,0,0,0-.61-4.63,6.14,6.14,0,0,0-3.59-2.76,6.06,6.06,0,0,0-4.62.61,7,7,0,0,0-2.76,3.59Z"/><path class="cls-5" d="M515,450.89l-9.21,6.71c-2.53,1.84-4,5.29-2.15,8.2,1.61,2.51,5.49,4.13,8.21,2.16l9.21-6.71c2.53-1.85,4-5.3,2.15-8.21-1.62-2.51-5.5-4.13-8.21-2.15Z"/><path class="cls-5" d="M520.24,460.24c.29-.31.64-.58.9-.9.48-.59-1,.6.18-.16a15,15,0,0,1,2.24-1.18l-8.21-8.21L509.88,458a6,6,0,0,0,2.15,8.21,6.15,6.15,0,0,0,8.21-2.15l5.47-8.23a6,6,0,0,0-.94-7.27c-2.14-2-4.7-2-7.27-.94a17.37,17.37,0,0,0-5.74,4.12c-2.14,2.3-2.45,6.25,0,8.49s6.2,2.45,8.48,0Z"/><path class="cls-5" d="M511,474c7.72,0,7.73-12,0-12s-7.73,12,0,12Z"/><path class="cls-5" d="M506.69,464.55q-9.18,13.6-19.14,26.66c-3.65,4.78,3.45,11.49,8.21,8.21,6.95-4.8,11.42-12.15,16.34-18.86l-10.36-6.06-13.53,21.23,10.36,6.06A89.12,89.12,0,0,1,507,487.15c2.95-4.12,7.07-7.57,9.6-11.95,2.69-4.67,3.17-10.68,4.26-15.88l3.92-18.72c1.58-7.54-10-10.76-11.57-3.19l-3.53,16.85c-1,4.93-1.19,12-4.28,16.07-6.33,8.38-12.68,15.72-17.14,25.4-3.19,6.93,6.14,12.68,10.36,6.06l13.53-21.23c4.23-6.64-5.89-12.15-10.36-6.06-3.57,4.87-7,11.06-12,14.56l8.21,8.21q10-13,19.14-26.66c4.33-6.42-6.06-12.43-10.36-6.06Z"/><path class="cls-5" d="M617,459.82l-4-3a6,6,0,0,0-8.82,6.78l.61,1.43a6,6,0,0,0,2.15,2.15l4,3a6,6,0,0,0,8.82-6.78l-.61-1.43a6,6,0,0,0-2.15-2.15Z"/><path class="cls-5" d="M596,462.07l14.83,8.32c6.74,3.78,12.8-6.58,6-10.37l-14.82-8.31c-6.74-3.78-12.8,6.58-6.06,10.36Z"/><path class="cls-5" d="M606.8,468.21a18.71,18.71,0,0,1,4.36,8.4,6,6,0,0,0,11.57-3.19,31.36,31.36,0,0,0-7.45-13.7,6,6,0,0,0-8.48,8.49Z"/><path class="cls-5" d="M608.7,467.9a9.83,9.83,0,0,0,.14,10.11,6.32,6.32,0,0,0,3.58,2.76,6.14,6.14,0,0,0,4.63-.6c2.6-1.68,4-5.41,2.15-8.21a5.45,5.45,0,0,1-.35-.62l.6,1.43a5.92,5.92,0,0,1-.27-.91l.22,1.59a5.26,5.26,0,0,1,0-1.19l-.21,1.6a4.83,4.83,0,0,1,.26-.92l-.6,1.44a2.49,2.49,0,0,1,.22-.43c1.54-2.73.74-6.68-2.16-8.21a6.09,6.09,0,0,0-8.2,2.16Z"/><path class="cls-5" d="M602.53,463.21a232.42,232.42,0,0,1,18.59,37.42c2.76,7.13,14.36,4,11.57-3.19a248.79,248.79,0,0,0-19.8-40.29c-4-6.58-14.41-.55-10.36,6.06Z"/><path class="cls-5" d="M633.57,491.74,611.22,454c-3.93-6.64-14.31-.61-10.36,6.06L623.2,497.8c3.93,6.64,14.31.61,10.37-6.06Z"/><path class="cls-5" d="M610.64,460.28l-2.69-1c-6-2.23-9.55,6-5.83,10,2.88,3.15,4.61,7.61,6.62,11.35l7.31,13.59c4.34,8.06,8.71,14.59,16.58,19.55,6.55,4.13,12.58-6.25,6-10.36-7.59-4.79-10.89-12.69-15-20.34-4-7.39-7.37-16-13.07-22.28l-5.84,10,2.69,1c7.25,2.69,10.38-8.9,3.19-11.57Z"/><path class="cls-5" d="M533.75,590.32a12.39,12.39,0,0,1,1.42-8.1l-9.43,1.22-.69-2.15,4.19-4.19a11.28,11.28,0,0,0-5.33,2.91,6.08,6.08,0,0,0-.94,7.27,16,16,0,0,0,4,4.81c2,1.51,5,2.61,7.27.93l2.38-1.73-7.27-.93c2.2,1.75,3.66,3.77,3.79,6.64.35,7.69,12.36,7.73,12,0a20.16,20.16,0,0,0-7.3-15.13c-1.93-1.54-5-2.6-7.27-.94l-2.38,1.73,7.27.94a7.26,7.26,0,0,1-2.17-2.38l-.93,7.28,0,.17a6,6,0,0,0,4.19-4.19,9.62,9.62,0,0,0-2.39-9.53c-2.59-2.85-7.59-2-9.42,1.22a23,23,0,0,0-3.06,14.15c.38,3.21,2.49,6,6,6,3,0,6.38-2.76,6-6Z"/><path class="cls-5" d="M592.39,597.51a14.89,14.89,0,0,1,.64-9.23l-11-4.63c-1,3.61-2.21,7.14-3.58,10.63h11.57a29.31,29.31,0,0,0-6.74-11.78L576,591.92a5.44,5.44,0,0,1,2,5.73h11.57l-.79-3.92c-1.16-5.7-10.46-5.76-11.57,0l-.68,3.51,11.78,1.59c.27-11.59-1.08-23.83-11.41-30.86-6.4-4.36-12.41,6-6,10.36,6.17,4.2,5.62,13.94,5.46,20.5s10.49,8.35,11.79,1.6l.68-3.51H577.2l.79,3.92c1.18,5.81,10.28,5.64,11.57,0,1.78-7.75-1.09-14.68-7.46-19.28-5.73-4.14-11.7,4.62-7.27,9.42a15.92,15.92,0,0,1,3.65,6.49c1.8,6.06,9.48,5.31,11.57,0,1.37-3.49,2.56-7,3.58-10.63,1.79-6.33-8.25-11-11-4.62a28.87,28.87,0,0,0-1.84,18.48c1.71,7.53,13.28,4.35,11.57-3.19Z"/><path class="cls-5" d="M535.56,575.81a12,12,0,0,0-1.65,5.56,11.83,11.83,0,0,0,1.32,5.65,5.72,5.72,0,0,0,2.16,2.15,6.1,6.1,0,0,0,8.81-3.59l.75-3c.77-3-1-6.65-4.19-7.38a6.1,6.1,0,0,0-7.38,4.19l-.75,2.95,11-1.43c.76,1.71.23.44.14-.08l.21,1.6a7,7,0,0,1,0-1.58l-.21,1.59a5.91,5.91,0,0,1,.22-.92s-.79,1.51-.05.29a6,6,0,1,0-10.36-6.05Z"/><path class="cls-5" d="M545.61,589.44c.26,1.72.14.45.1,0-.11-1.15-.34,1.32,0-.14,0-.19.1-.38.15-.57.18-.49.17-.49,0,0s-.21.48,0,0a6.58,6.58,0,0,1,.4-.67,6.05,6.05,0,0,0-2.16-8.21,6.11,6.11,0,0,0-8.2,2.15A15,15,0,0,0,534,592.63a6,6,0,0,0,2.76,3.58,6.16,6.16,0,0,0,4.62.61,6,6,0,0,0,3.58-2.76,7,7,0,0,0,.61-4.62Z"/><path class="cls-5" d="M546.93,589l3-2a6.39,6.39,0,0,0,2.76-3.59,6,6,0,0,0-4.19-7.38,6,6,0,0,0-4.62.61l-3,2a6.39,6.39,0,0,0-2.76,3.59,6,6,0,0,0,4.19,7.38,6,6,0,0,0,4.62-.61Z"/><path class="cls-5" d="M577.9,578l-3-2.06a6,6,0,0,0-8.82,6.78,6.77,6.77,0,0,0,2.76,3.58l3,2.06a6,6,0,0,0,8.82-6.78A6.77,6.77,0,0,0,577.9,578Z"/><path class="cls-5" d="M602,758v-1a6.18,6.18,0,0,0-1.76-4.24,6,6,0,0,0-8.48,0A6.2,6.2,0,0,0,590,757v1a6.18,6.18,0,0,0,1.76,4.24,6,6,0,0,0,8.48,0A6.2,6.2,0,0,0,602,758Z"/><path class="cls-5" d="M526,765c7.72,0,7.73-12,0-12s-7.73,12,0,12Z"/></svg>