<svg id="Layer_1" data-name="Layer 1" xmlns="http://www.w3.org/2000/svg" viewBox="0 0 1280 1024"><defs><style>.cls-1{opacity:0.48;}.cls-2{fill:#ff7c5c;}</style></defs><title>unicornsquig</title><g class="cls-1"><path class="cls-2" d="M1038.13,782.07l-47.64,14.57v5a24.36,24.36,0,0,1,7.75-10.52c.49-.38-.42-4.91,0-5l-56.58,11.49c-.17,0,0,5,0,5a470.78,470.78,0,0,0,100.8-3.76v-5l-60.67,10.81s-.23,4.87,0,5a38.43,38.43,0,0,0,30.75,2.91c.39-.13-.28-5,0-5l-60.89,7.65v5L993.08,811c.19,0-.05-5,0-5a201.86,201.86,0,0,0-76.74,10c-.47.15.39,4.9,0,5a478.65,478.65,0,0,0,102.1-36.45c.36-.17-.2-5,0-5l-115.21,1v5a624.18,624.18,0,0,1,124.08-21v-5l-170,19.56v5L1021,746.38c.31-.07-.21-5,0-5L835.86,758.92v5l184.21-43.61c.31-.07-.21-5,0-5L831.37,732v5l217.16-36.23c.22,0-.12-5,0-5L887,702.43v5A685.15,685.15,0,0,1,991.3,683c.25,0-.17-5,0-5q-69.52,7.47-138,21.85v5L1005,672c.35-.08-.26-5,0-5a1834.42,1834.42,0,0,1-213.82,22.55v5c66.79-26.24,138.65-33.82,209.49-41.09.16,0-.08-5,0-5L861,654.68v5a1539.27,1539.27,0,0,0,151.33-28.52c.25-.07-.12-5,0-5L843,627v5L1027.7,593.9c.25,0-.13-5,0-5a1704.69,1704.69,0,0,0-209.24,20.44v5a1703,1703,0,0,1,199.93-24.6q28.94-1.83,57.94-2.66v-5L847.78,624.79c-.29.05.2,5,0,5,73.91-8.59,148-17.19,222.42-18.75q31.58-.66,63.15.53v-5a707.83,707.83,0,0,1-167.65,25.8v5a1944.51,1944.51,0,0,1,196.52-13.21v-5l-159.84,20.48c-.21,0,.13,5,0,5l143.25-11.32v-5l-92,19.85c-.23.05.1,5,0,5l121.94.38v-5q-47.79,9.23-94.8,21.89c-.27.07.13,5,0,5l86-.48v-5l-54.34,12.24c-.26.06.13,5,0,5l55.32-1.14v-5a228.06,228.06,0,0,1-59.19,17.68c-.29,0,.21,5,0,5A157.38,157.38,0,0,0,1174.07,678c.28-.19,0-5,0-5l-45-8.56v5l56.74-18.49a41.7,41.7,0,0,0,0-5,246.46,246.46,0,0,0-78.37-.36v5a486.62,486.62,0,0,0,86.26-21.93c.22-.08,0-5,0-5a369.81,369.81,0,0,0-76.84-2.71v5l79.36-10.85c.14,0,0-5,0-5l-94.2-4.29v5a505,505,0,0,1,83-28,46.33,46.33,0,0,0,0-5,258.38,258.38,0,0,0-92.09-1.29c-.29,0,.22,5,0,5l93.68-14.22c.24,0-.15-5,0-5L1020.21,576v5l149.66-12.56c.15,0-.08-5,0-5A1119.93,1119.93,0,0,1,997,559.64v5l148.26-31.38c.23,0-.1-5,0-5q-120.65-.4-241.2,4.87v5q94-11.93,188.79-14.48v-5c-11.35,9.59-25.75,13.32-40.06,16-17.41,3.22-34.9,6-52.34,9L894,561.93a41.7,41.7,0,0,0,0,5c69.46,25.28,146.32-3,215.36,24.21v-5a1045.16,1045.16,0,0,1-215,16.52v5c8.4-11.89,24.22-14.71,37.33-18.5L982,574.61l101.68-29.36a26.91,26.91,0,0,0,0-5c-10.28-12.58-28.5-11.09-43.09-10.68l-61.39,1.75-124.78,3.56v5A820.37,820.37,0,0,1,1080,513v-5c-60.2,16.24-122.72,19.23-184.7,22.05v5L1013.51,520c.2,0-.11-5,0-5L786.85,528.54v5c73.77-15.85,147.83-31.86,218.58-58.59.32-.13-.18-5,0-5l-242.62.57v5A1272.57,1272.57,0,0,1,954.2,443.83c.15,0-.06-5,0-5q-105.06,4.32-209.48,17.44c-.19,0,.1,5,0,5L945.1,450.73l57.54-3v-5L760.33,472.94c-.24,0,.16,5,0,5L971.89,453.4c.2,0-.11-5,0-5L789.08,461.47v5L969.9,431.16c.22,0-.12-5,0-5l-219.82,4.09v5Q855.71,411.34,963,396.13c.19,0-.08-5,0-5q-100.53,2.72-200.55,14.1c-.19,0,.1,5,0,5A1117,1117,0,0,0,962.67,379c.28-.07-.16-5,0-5l-225.21,8.72v5l215.13-34.57c.19,0-.07-5,0-5a1704.78,1704.78,0,0,0-207.86,12v5l205.19-28.57c.19,0-.09-5,0-5q-95.35,2.54-190.34,12v5a1282.23,1282.23,0,0,0,183-34.63c.27-.07-.14-5,0-5q-79.44.72-158.66,7.22v5l148.24-22c.21,0-.11-5,0-5a1658.56,1658.56,0,0,0-167.22,16v5Q856.24,299.48,948.78,293v-5L779.4,310.25c-.25,0,.17,5,0,5l206.13-25.88c.19,0-.1-5,0-5-57.53,3.08-115.47,6.32-171.43,21-.27.07.13,5,0,5l212-.38v-5L869.74,341.76c-.22.05.08,5,0,5a713.79,713.79,0,0,0,129.08-7.38c.25,0-.18-5,0-5Q939.18,341,880.36,353.07c-.29.06.19,5,0,5q62.7-6.06,125.59-9.65v-5L889.33,361c-.27,0,.19,5,0,5l136.34-18.36c.2,0-.11-5,0-5L921.15,348v5l106.34-22.72c.25-.05-.12-5,0-5l-97.37,2.09v5a664.52,664.52,0,0,0,110.57-39.78c.31-.14-.12-5,0-5a517.41,517.41,0,0,0-108.55,4.82c-.25,0,.17,5,0,5a1314.57,1314.57,0,0,1,159.09-7.13v-5q-78.48,8.86-157.5,10.95v5l95.67-30.51c.21-.07,0-5,0-5a358.78,358.78,0,0,0-117.53,4.33c-.31.06.22,5,0,5L1035,259.6v-5q-58.66,9.21-118,12.71v5l134.54-19.87c.23,0-.14-5,0-5L921,257.35v5a785.52,785.52,0,0,1,113.78-20.86c.2,0-.14-5,0-5A609.44,609.44,0,0,1,952.51,239s-.1,5,0,5a609.44,609.44,0,0,0,82.29-2.48v-5A785.52,785.52,0,0,0,921,257.35c-.32.08.2,5,0,5l130.49-9.91v-5L917,267.31c-.21,0,.13,5,0,5q59.28-3.49,118-12.71c.27,0-.19-5,0-5L911.87,270.06v5a358.78,358.78,0,0,1,117.53-4.33v-5l-95.67,30.51c-.32.1.18,5,0,5q78.94-2.07,157.5-10.95c.13,0,0-5,0-5a1314.57,1314.57,0,0,0-159.09,7.13v5a517.41,517.41,0,0,1,108.55-4.82v-5a664.52,664.52,0,0,1-110.57,39.78c-.28.07.15,5,0,5l97.37-2.09v-5L921.15,348c-.27.06.15,5,0,5l104.52-5.39v-5L889.33,361v5L1006,348.42c.22,0-.12-5,0-5q-62.88,3.6-125.59,9.65v5q58.77-12,118.46-18.69v-5a713.79,713.79,0,0,1-129.08,7.38v5L1026.06,310c.25-.06-.11-5,0-5l-212,.38v5c56-14.71,113.9-17.95,171.43-21v-5L779.4,310.25v5L948.78,293c.21,0-.12-5,0-5q-92.41,6.51-183.86,22.16c-.29.05.22,5,0,5a1658.56,1658.56,0,0,1,167.22-16v-5l-148.24,22c-.23,0,.15,5,0,5q79.17-6.51,158.66-7.22v-5a1282.23,1282.23,0,0,1-183,34.63c-.21,0,.14,5,0,5q94.92-9.45,190.34-12v-5L744.73,360.15c-.25,0,.18,5,0,5a1704.78,1704.78,0,0,1,207.86-12v-5L737.46,382.69c-.21,0,.11,5,0,5L962.67,379v-5a1117,1117,0,0,1-200.19,31.26v5Q862.4,398.86,963,396.13v-5q-107.22,15.19-212.95,39.12c-.25.06.13,5,0,5l219.82-4.09v-5L789.08,461.47c-.26.06.17,5,0,5L971.89,453.4v-5L760.33,472.94v5l242.31-30.23c.19,0-.1-5,0-5L802.26,453.24l-57.54,3v5Q849,448.15,954.2,443.83v-5a1272.57,1272.57,0,0,0-191.39,31.69c-.26.06.12,5,0,5l242.62-.57v-5c-70.75,26.73-144.81,42.74-218.58,58.59-.27.06.17,5,0,5L1013.51,520v-5L895.27,530.07c-.19,0,.09,5,0,5,62-2.82,124.5-5.81,184.7-22.05.25-.07-.12-5,0-5a820.37,820.37,0,0,0-225.51,26.86c-.28.07.16,5,0,5l124.78-3.56,61.39-1.75c14.59-.41,32.81-1.9,43.09,10.68v-5L982,569.61l-50.36,14.55c-13.11,3.79-28.93,6.61-37.33,18.5-.27.39.12,5,0,5a1045.16,1045.16,0,0,0,215-16.52,39.72,39.72,0,0,0,0-5c-69-27.2-145.9,1.07-215.36-24.21v5l106.5-18.29c17.18-3,34.39-5.76,51.53-8.88,14.58-2.66,29.3-6.34,40.87-16.11.36-.31-.23-5,0-5q-94.69,2.54-188.79,14.48c-.19,0,.09,5,0,5q120.53-5.28,241.2-4.87v-5L997,559.64c-.16,0,0,5,0,5a1119.93,1119.93,0,0,0,172.87,3.83v-5L1020.21,576c-.17,0,.1,5,0,5l166.41-13.8v-5l-93.68,14.22v5a258.38,258.38,0,0,1,92.09,1.29v-5a505,505,0,0,0-83,28c-.31.13.14,5,0,5l94.2,4.29v-5l-79.36,10.85c-.22,0,.12,5,0,5a369.81,369.81,0,0,1,76.84,2.71v-5a486.62,486.62,0,0,1-86.26,21.93c-.29.05.22,5,0,5a246.46,246.46,0,0,1,78.37.36v-5l-56.74,18.49a39.72,39.72,0,0,0,0,5l45,8.56v-5a157.38,157.38,0,0,1-65.53,25.77v5a228.06,228.06,0,0,0,59.19-17.68c.35-.16-.21-5,0-5l-55.32,1.14v5L1166.75,675c.24-.06-.11-5,0-5l-86,.48v5q47-12.66,94.8-21.89c.21,0-.09-5,0-5l-121.94-.38v5l92-19.85c.28-.06-.19-5,0-5l-143.25,11.32v5l159.84-20.48c.17,0-.07-5,0-5A1944.51,1944.51,0,0,0,965.7,632.37c-.17,0,.08,5,0,5a707.83,707.83,0,0,0,167.65-25.8c.25-.07-.1-5,0-5-74.41-2.92-148.77,3.06-222.71,11.08-21,2.27-41.91,4.7-62.86,7.14v5l228.55-42.71c.23,0-.12-5,0-5a1702.58,1702.58,0,0,0-200.65,17.75q-28.7,4.26-57.22,9.51c-.32.06.24,5,0,5A1704.69,1704.69,0,0,1,1027.7,593.9v-5L843,627c-.23,0,.11,5,0,5l169.3-.83v-5A1539.27,1539.27,0,0,1,861,654.68c-.2,0,.1,5,0,5l139.62-6.22v-5c-70.84,7.27-142.7,14.85-209.49,41.09-.36.14.22,5,0,5A1834.42,1834.42,0,0,0,1005,672v-5l-151.7,32.87c-.38.08.3,4.93,0,5q68.43-14.37,138-21.85v-5A685.15,685.15,0,0,0,887,702.43c-.33.1.19,5,0,5l161.58-6.63v-5L831.37,732c-.26,0,.16,5,0,5l188.7-16.72v-5L835.86,758.92c-.31.07.21,5,0,5L1021,746.38v-5L857.3,779.11c-.32.08.23,5,0,5l170-19.56c.2,0-.1-5,0-5a624.18,624.18,0,0,0-124.08,21c-.28.08.14,5,0,5l115.21-1v-5a478.65,478.65,0,0,1-102.1,36.45v5a201.86,201.86,0,0,1,76.74-10v-5l-41.43,9.21c-.33.08.23,5,0,5l60.89-7.65v-5a38.43,38.43,0,0,1-30.75-2.91v5l60.67-10.81c.31-.05-.22-5,0-5a470.78,470.78,0,0,1-100.8,3.76v5l56.58-11.49v-5a24.42,24.42,0,0,0-7.75,10.52c-.22.58.33,4.9,0,5l47.64-14.57c.5-.15-.43-4.87,0-5Z"/></g><g class="cls-1"><path class="cls-2" d="M1050.32,729.75a98.08,98.08,0,0,0-39.82,10.64c-.4.21.26,5,0,5l48.74-3.09v-5A378.7,378.7,0,0,0,996,755.6c-.28.11.11,5,0,5a71.08,71.08,0,0,0,57.89-24.06c.34-.38-.23-5,0-5l-88.69,5.69v5q60.53-18.72,122.15-33.54c.29-.07-.18-5,0-5l-138.72,8.46v5l125-34.44c.34-.09-.24-5,0-5L971,688.18v5l150.28-41.95c.32-.09-.21-5,0-5l-110,7.63v5l143.69-33c.29-.07-.18-5,0-5a954.67,954.67,0,0,0-192.77,32.35c-.3.09.18,5,0,5L1127,651.06v-5c-40.4,34.06-101.89,17.33-142,51.84-.36.31.22,5,0,5a610.22,610.22,0,0,1,92.92,5v-5l-61.36,22.24c-.46.17.38,4.92,0,5a188,188,0,0,1,52.82-3.28v-5A331.33,331.33,0,0,0,989.12,738c-.21.07,0,5,0,5a111.66,111.66,0,0,0,53.22-4.47c.24-.08-.07-5,0-5a65.92,65.92,0,0,0-25,2.29v5a60.14,60.14,0,0,1,32.12-3.5v-5A398.49,398.49,0,0,0,941.58,758a32.1,32.1,0,0,0,0,5,85.48,85.48,0,0,0,64.39-3.26c.34-.16-.19-5,0-5a595.77,595.77,0,0,0-126.33,12.82v5a1155.87,1155.87,0,0,1,138.57-26.07c.19,0-.09-5,0-5a382.32,382.32,0,0,0-105.55,19.73c-.34.12.22,5,0,5q63.72-3.3,127.36-7.89v-5A618.26,618.26,0,0,0,925.1,780.28c-.29.1.15,5,0,5a566.25,566.25,0,0,0,137.4-14.9c.34-.08-.25-5,0-5a691.63,691.63,0,0,1-97.21,6.2v5l50-12.65v-5L899.31,789.07c-.27.07.14,5,0,5a655.32,655.32,0,0,0,146-17.72c.25-.06-.11-5,0-5l-144.91-.43v5c35.33-15.89,73.39-23.64,111.18-31.18.21,0-.08-5,0-5L867.1,737v5l139.36-31.84c.27-.06-.15-5,0-5l-156.24,6.17v5a671.16,671.16,0,0,0,100.25-26.51c.3-.11-.15-5,0-5a636,636,0,0,0-129.12,12.3v5l159.29-33.62c.26,0-.15-5,0-5l-152.83,7v5l114.72-32c.29-.08-.17-5,0-5q-62.94,1.95-125.55,9.17v5l157.19-25v-5Q901.77,635,828.61,641.86v5L955.38,622.3c.19,0,0-5,0-5a841.28,841.28,0,0,0-131.72,5v5l211.72-34.4c.25,0-.16-5,0-5a1385.71,1385.71,0,0,0-149,21.74c-.23,0,.12,5,0,5l51.44-1.09c.07,0,0-5,0-5l-51.44,1.09v5a1385.71,1385.71,0,0,1,149-21.74v-5l-211.72,34.4c-.27.05.19,5,0,5a841.28,841.28,0,0,1,131.72-5v-5L828.61,641.86c-.28,0,.19,5,0,5q73.11-6.87,145.56-19.13c.3-.05-.23-5,0-5L817,647.78c-.26,0,.19,5,0,5q62.57-7.21,125.55-9.17v-5l-114.72,32c-.31.08.18,5,0,5l152.83-7v-5L821.35,697.16c-.36.08.29,4.94,0,5a636,636,0,0,1,129.12-12.3v-5a671.16,671.16,0,0,1-100.25,26.51c-.23,0,.13,5,0,5l156.24-6.17v-5L867.1,737c-.23.05.09,5,0,5l144.51,2.7v-5c-37.79,7.54-75.85,15.29-111.18,31.18-.34.15.18,5,0,5l144.91.43v-5a655.32,655.32,0,0,1-146,17.72v5l115.94-30.14c.43-.11-.37-4.91,0-5l-50,12.65c-.25.07.12,5,0,5a691.63,691.63,0,0,0,97.21-6.2v-5a566.25,566.25,0,0,1-137.4,14.9v5A618.26,618.26,0,0,1,1040,758.33c.21,0-.13-5,0-5q-63.64,4.59-127.36,7.89v5a382.32,382.32,0,0,1,105.55-19.73v-5a1155.87,1155.87,0,0,0-138.57,26.07c-.41.1.32,4.93,0,5A595.77,595.77,0,0,1,1006,759.74v-5A85.48,85.48,0,0,1,941.58,758v5a398.49,398.49,0,0,1,107.85-25.7s.11-5,0-5a60.14,60.14,0,0,0-32.12,3.5c-.54.21.46,4.86,0,5a65.92,65.92,0,0,1,25-2.29v-5A111.66,111.66,0,0,1,989.12,738v5a331.33,331.33,0,0,1,80.23-16.09c.05,0,.05-5,0-5a188,188,0,0,0-52.82,3.28v5l61.36-22.24c.24-.08,0-5,0-5a610.22,610.22,0,0,0-92.92-5v5c40.15-34.51,101.64-17.78,142-51.84.37-.32-.24-5,0-5l-164.82,7.13v5A954.67,954.67,0,0,1,1155,625.84v-5l-143.69,33c-.29.06.18,5,0,5l110-7.63v-5L971,688.18c-.35.1.24,5,0,5l102.66-10.47v-5l-125,34.44c-.31.08.19,5,0,5l138.72-8.46v-5q-61.59,14.8-122.15,33.54c-.33.1.22,5,0,5l88.69-5.69v-5A71.08,71.08,0,0,1,996,755.6v5a378.7,378.7,0,0,1,63.22-18.3c.26-.06-.16-5,0-5l-48.74,3.09v5a98.08,98.08,0,0,1,39.82-10.64c.12,0,0-5,0-5Z"/></g><g class="cls-1"><path class="cls-2" d="M1083.93,585.35q-87.11,17.56-172.33,43c-.41.12.31,4.94,0,5,68.62-11.63,137.6-23.21,207.4-23.58v-5a783.66,783.66,0,0,1-119.43,14.42v5q42.87-4.32,85.83-7.82c13.9-1.13,27.8-2.36,41.72-3.14,13.36-.75,26.77-.49,39.57,3.79v-5L947.85,632.62c-.15,0,.07,5,0,5l183.1-7c.1,0,0-5,0-5-52.76,1.64-105.67,3.39-157.85,12-.13,0,0,5,0,5a565.71,565.71,0,0,0,118.45-.61c.17,0-.09-5,0-5a1156.77,1156.77,0,0,0-155.27,17.6c-.28.05.19,5,0,5l218.29-24.23v-5a490.36,490.36,0,0,1-82.18,12.4c-.14,0,.07,5,0,5a490.36,490.36,0,0,0,82.18-12.4c.33-.08-.22-5,0-5L936.28,654.65v5a1156.77,1156.77,0,0,1,155.27-17.6v-5a565.71,565.71,0,0,1-118.45.61v5c52.18-8.61,105.09-10.36,157.85-12v-5l-183.1,7v5L1166.69,617s.22-4.93,0-5c-12.8-4.28-26.21-4.53-39.57-3.79-13.92.77-27.82,2-41.72,3.14q-42.95,3.48-85.83,7.82c-.16,0,.08,5,0,5A783.66,783.66,0,0,0,1119,609.75c.22,0-.1-5,0-5-69.8.37-138.78,12-207.4,23.58v5q85.14-25.4,172.33-43c.35-.07-.29-4.94,0-5Z"/></g><g class="cls-1"><path class="cls-2" d="M1145.77,669.64s0-5,0-5,0,5,0,5Z"/></g><g class="cls-1"><path class="cls-2" d="M1172.67,662.27a58.37,58.37,0,0,0-45,16.43,22.57,22.57,0,0,0,0,5c10.47,4.57,21.64,3.66,32.7,2.28,5.51-.69,11-1.49,16.57-1.75,3.56-.16,9.59-.43,10.66,4v-5c-.28,2.1-6.87,2.31-8.92,2.7l-10.73,2-21.46,4.07-42.92,8.13c-.26,0,.14,5,0,5a573.72,573.72,0,0,0,103.09-15.66c.3-.07-.2-5,0-5-37.11,2.84-74.32,5.6-111.54,3.51v5l94.73-22.83c.28-.06-.17-5,0-5-23,1.17-46.09,2.2-68.89-1.66v5a579.66,579.66,0,0,1,63.64-15.63c.27-.05-.17-5,0-5a413.48,413.48,0,0,1-82.79-.92c.15,0-.22,5,0,5a413.48,413.48,0,0,0,82.79.92v-5a579.66,579.66,0,0,0-63.64,15.63,41.7,41.7,0,0,0,0,5c22.8,3.86,45.9,2.83,68.89,1.66v-5l-94.73,22.83c-.22.06.06,5,0,5,37.22,2.09,74.43-.67,111.54-3.51v-5a573.72,573.72,0,0,1-103.09,15.66v5l46.82-8.87,22.44-4.26,11.71-2.22c2.4-.45,3-.38,3.08-2.57s.43-4.88-1.55-6.48c-4.36-3.5-12.86-1.39-17.84-.82-13.58,1.57-27.53,4.39-40.56-1.29v5a58.37,58.37,0,0,1,45-16.43c-.08,0,.16-5,0-5Z"/></g><g class="cls-1"><path class="cls-2" d="M1133.21,561.45a87.92,87.92,0,0,1,41.37-11.68v-5q-108,12.43-215.16,30.78a36.16,36.16,0,0,0,0,5c2.18,5.6,8.44,6.45,13.78,6.48,8.42.05,16.95-.81,25.35-1.35q25.43-1.62,50.77-4.18,51.67-5.19,102.86-14.19c.22,0-.1-5,0-5L951.4,567.14v5L1128.84,542c.24,0-.15-5,0-5q-114.43,8.24-228.21,23.37c-.25,0,.18,5,0,5l203.53-26.68c.2,0-.1-5,0-5l-216.11,9.64v5l223.62-29.41c.2,0-.11-5,0-5l-191.74,10.9v5l95.75-13.72c29.31-4.21,58.88-8.52,86.41-20,.35-.15-.22-5,0-5l-210.55,7.46v5L1076,471.13c.24,0-.13-5,0-5q-100.24,5.21-200.19,15c-.17,0,.08,5,0,5q95.34-5.06,190.11-17.25c.23,0-.16-5,0-5l-76.66,8.19c-.22,0,.13,5,0,5l76.66-8.19v-5q-94.7,12.18-190.11,17.25v5q99.92-9.81,200.19-15v-5L891.54,498.58c-.22,0,.12,5,0,5l210.55-7.46v-5c-27.53,11.46-57.1,15.77-86.41,20l-95.75,13.72c-.21,0,.12,5,0,5l191.74-10.9v-5L888.05,543.33c-.19,0,.1,5,0,5l216.11-9.64v-5L900.63,560.37v5q113.73-15.12,228.21-23.37v-5L951.4,567.14c-.21,0,.1,5,0,5l200.78-4.83v-5q-51.15,9-102.86,14.19-25.33,2.55-50.77,4.18c-8.21.53-16.49,1.26-24.72,1.35-5.48.06-12.16-.68-14.41-6.48v5q107.14-18.33,215.16-30.78c.17,0-.07-5,0-5a87.92,87.92,0,0,0-41.37,11.68c-.74.43.69,4.6,0,5Z"/></g><g class="cls-1"><path class="cls-2" d="M1111.41,550.64l-129.75,8.88v5q84.31-7.31,167.63-22.69a43.89,43.89,0,0,0,0-5c-74-21.35-151.58,2.59-226.55-11v5l150-34.48c.27-.06-.15-5,0-5L894.22,499v5q74.49-18,150.35-29.36c.2,0-.1-5,0-5L873,475.71v5a1275.48,1275.48,0,0,0,150.12-24.1c.25-.06-.14-5,0-5l-162.71,4.3v5L1004.54,439c.11,0,0-5,0-5-62-7.06-124.42-2-186.39,3.09v5a1261.93,1261.93,0,0,1,170.68-22.51v-5q-92.64,8-184.87,20c-.25,0,.18,5,0,5q80.19-10.21,159.14-28.07c.17,0,0-5,0-5-53.82-5.62-108-3.8-162-1.89v5l175.41-40.05c.25-.06-.13-5,0-5l-174.19,2.49v5a971.25,971.25,0,0,1,189.31-30.69v-5q-63.88,5.22-127.21,15.36c-.29,0,.22,5,0,5q63.28-10.12,127.21-15.36c.16,0-.08-5,0-5a971.25,971.25,0,0,0-189.31,30.69c-.27.08.15,5,0,5l174.19-2.49v-5L801.15,404.62c-.27.06.14,5,0,5,54-1.91,108.13-3.73,162,1.89v-5Q884.24,424.35,804,434.58v5q92.2-12,184.87-20c.16,0-.08-5,0-5a1261.93,1261.93,0,0,0-170.68,22.51c-.27.06.18,5,0,5,62-5.12,124.37-10.15,186.39-3.09v-5L860.43,455.91c-.2,0,.1,5,0,5l162.71-4.3v-5A1275.48,1275.48,0,0,1,873,475.71c-.15,0,.07,5,0,5l171.55-6.08v-5Q968.79,481,894.22,499c-.28.07.16,5,0,5l178.52-7.65v-5l-150,34.48a46.33,46.33,0,0,0,0,5c75,13.6,152.51-10.34,226.55,11v-5q-83.22,15.38-167.63,22.69c-.17,0,.09,5,0,5l129.75-8.88c.15,0-.08-5,0-5Z"/></g><g class="cls-1"><path class="cls-2" d="M893.74,587.23l-35.44,1.09v5a538.85,538.85,0,0,0,94-15.77c.3-.08-.19-5,0-5l-137.75,7.69v5l182.24-34.31c.22,0-.12-5,0-5l-132.12,3v5l117.24-16.5c.21,0-.11-5,0-5l-136,6.92v5q74.4-10.93,149.4-17c.16,0-.08-5,0-5Q887.75,529.45,780,531.5v5a1541.5,1541.5,0,0,0,176.66-24.66c.23,0-.11-5,0-5l-170.45,3.09v5l149.75-31c.21,0-.08-5,0-5l-181.46-4.11v5L915.22,467c.15,0-.07-5,0-5a1312.6,1312.6,0,0,0-164.3,19.48c-.19,0,.06,5,0,5A544.84,544.84,0,0,0,922,463.38c.28-.09-.13-5,0-5l-168.62-2.47v5c8.9-7.69,20-11.33,31.31-13.82,13.4-2.95,27-5.22,40.45-7.78l85.51-16.23c.17,0,0-5,0-5a608.84,608.84,0,0,0-150.14,8.74c-.2,0,.07,5,0,5a755.36,755.36,0,0,0,139.83-10.27c.23,0-.12-5,0-5-56.42,2.66-113,5.25-169.39.31v5l166.88-32.57c.13,0,0-5,0-5a1002.46,1002.46,0,0,0-160.11-8.4v5l188.37-27.27c.18,0-.06-5,0-5l-181.34-.39v5a1490.16,1490.16,0,0,0,187.28-27.61c.24-.05-.12-5,0-5l-135.94,2v5l108.1-24c.18,0,0-5,0-5a816.58,816.58,0,0,0-127.44-.85v5L909.62,287.6v-5L862,292.79c-.38.08.3,4.94,0,5l47.63-10.19c.31-.07-.21-5,0-5L776.78,297.85c-.2,0,.11,5,0,5a816.58,816.58,0,0,1,127.44.85v-5l-108.1,24c-.25,0,.12,5,0,5l135.94-2v-5a1490.16,1490.16,0,0,1-187.28,27.61c-.12,0,0,5,0,5l181.34.39v-5L737.75,375.89c-.19,0,.09,5,0,5a1002.46,1002.46,0,0,1,160.11,8.4v-5L731,416.86c-.16,0,0,5,0,5,56.37,4.94,113,2.35,169.39-.31v-5a755.36,755.36,0,0,1-139.83,10.27v5a608.84,608.84,0,0,1,150.14-8.74v-5l-85.51,16.23c-13.48,2.56-27,4.83-40.45,7.78-11.32,2.49-22.41,6.13-31.31,13.82-.34.3.18,5,0,5L922,463.38v-5a544.84,544.84,0,0,1-171.11,23.07v5A1312.6,1312.6,0,0,1,915.22,467v-5L754.47,474.85c-.1,0,0,5,0,5L935.93,484v-5l-149.75,31c-.24.05.12,5,0,5l170.45-3.09v-5A1541.5,1541.5,0,0,1,780,531.5c-.13,0,0,5,0,5q107.74-2.06,215.31-9.16v-5q-75,6.1-149.4,17c-.21,0,.11,5,0,5l136-6.92v-5L864.64,549c-.19,0,.08,5,0,5l132.12-3v-5L814.52,580.24c-.25,0,.14,5,0,5l137.75-7.69v-5a538.85,538.85,0,0,1-94,15.77c-.13,0,.05,5,0,5l35.44-1.09c.09,0,0-5,0-5Z"/></g><g class="cls-1"><path class="cls-2" d="M963.35,444.56c5.08-5,9.4-11.09,9.56-18.45.14-6.15-1.07-11.07-7.91-12.9-10.86-2.92-22.87-3.49-34-4.86q-18-2.22-36.07-3.88v5A269.38,269.38,0,0,0,989.68,394c.33-.12-.19-5,0-5A877.47,877.47,0,0,0,889.21,397v5l108.84-20.12c.28-.05-.17-5,0-5-58.33,5.41-116.81,10.76-175.46,9.53v5L986.1,359.28c.25,0-.15-5,0-5-32.83,1.65-65.92,3.15-98.43-2.81v5a1189,1189,0,0,1,135-26.25c.18,0-.08-5,0-5q-68.79,1.8-137.23,9.66v5l165.88-21.22c.15,0,0-5,0-5l-143.46-3.09v5c46.58-13.92,94.7-21.17,142.68-28.31.18,0-.07-5,0-5l-156.54,0v5q66.71-11.93,133.2-25.07c.16,0,0-5,0-5l-94.87-9.61v5a611.18,611.18,0,0,1,114.12-20.22c.13,0,0-5,0-5A596.5,596.5,0,0,0,933.26,240c-.24.05.11,5,0,5a563.67,563.67,0,0,0,124.38-15.72c.23,0-.09-5,0-5q-69.71-2-139.39,2.26c-.14,0,.06,5,0,5q69.62-4.28,139.39-2.26v-5A563.67,563.67,0,0,1,933.26,240v5a596.5,596.5,0,0,1,113.19-12.71v-5a611.18,611.18,0,0,0-114.12,20.22c-.2,0,0,5,0,5l94.87,9.61v-5Q960.72,270.3,894,282.23c-.21,0,.08,5,0,5l156.54,0v-5c-48,7.14-96.1,14.39-142.68,28.31-.27.08.13,5,0,5l143.46,3.09v-5L885.44,334.88c-.23,0,.16,5,0,5q68.37-7.85,137.23-9.66v-5a1189,1189,0,0,0-135,26.25,43.89,43.89,0,0,0,0,5c32.51,6,65.6,4.46,98.43,2.81v-5L822.59,386.42c-.2,0,.07,5,0,5,58.65,1.23,117.13-4.12,175.46-9.53v-5L889.21,397c-.3.06.22,5,0,5A877.47,877.47,0,0,1,989.68,394v-5a269.38,269.38,0,0,1-94.76,15.52s-.14,5,0,5q22.46,2.08,44.82,5c7.13.93,14.27,1.86,21.36,3,5.77.93,11.18,2.83,11.8,9.38l0-4.65c-.14,6.77-4.94,12.82-9.53,17.37-.85.84.81,4.19,0,5Z"/></g><g class="cls-1"><path class="cls-2" d="M1033.31,295.49c-.88,1.33-2.18.22-2.4-1v5c2-3.77,9.49-4.82,13.25-6.18l15.84-5.71,31.7-11.43c.38-.14-.28-5,0-5l-64.47,6.64L996,281.06c-9.25.95-20.53,3.92-29.11-.92v5c19.61-6.95,40.31-9.73,60.76-13l64.67-10.38c.19,0-.08-5,0-5l-129.06.58v5c2.93-7,12.74-7.76,19.18-9.33l30-7.33,59.07-14.41c.26-.06-.13-5,0-5l-121.18,1.2c-.05,0,0,5,0,5l121.18-1.2v-5l-59.07,14.41-29,7.09c-6.61,1.62-17.12,2.32-20.15,9.57-.19.45.07,5,0,5l129.06-.58v-5l-64.67,10.38c-20.45,3.28-41.15,6.06-60.76,13a27.83,27.83,0,0,0,0,5c8.35,4.71,19.12,1.94,28.13,1l32.24-3.32,64.47-6.64v-5l-47.54,17.14c-4.08,1.48-12.64,2.46-13.27,7.42-.11.86.26,8,2.42,4.73.78-1.17-.75-3.86,0-5Z"/></g><path d="M962.29,339.38l5-4.29v-5L924.87,382.2c-.35.43.28,5,0,5a199.34,199.34,0,0,1,52.39.5c-.2,0,.26-5,0-5a199.34,199.34,0,0,0-52.39-.5v5l42.46-52.11c.74-.91-.82-4.3,0-5l-5,4.29c-.84.71.8,4.32,0,5Z"/><path d="M928.11,383.59l48.6-20.37c.62-.26-.56-4.76,0-5l-48.6,20.37c-.62.26.56,4.76,0,5Z"/><path d="M786.18,387.63a188.32,188.32,0,0,1,65.06-1.1v-5l-24.9,21.34-12.82,11c-3.83,3.28-9.26,6.62-12.17,10.75-1.14,1.61-2.23,8.59.3,9.15,3,.66,2.71-5.53,1.76-6.93.76,1.12-.79,3.85,0,5l.37.55v-5c-.66,2.6-3.25,1.19-3.43-.82v5c1.75-4.42,7.36-7.72,10.91-10.76l13.57-11.64,26.41-22.63c.28-.25,0-5,0-5a188.32,188.32,0,0,0-65.06,1.1c-.34.07.28,4.95,0,5Z"/><path d="M851.83,380,814,395.6l-18.46,7.63L786.3,407,781.69,409c-1.54.63-3.59,2.68-3.81.26v5a4.41,4.41,0,0,1,3.2-3.56c.56-.2-.49-4.82,0-5-3.06,1.1-4,5.14-3.21,8.22.61,2.26-1,1.16,2,.84,1.75-.19,3.87-1.6,5.54-2.29l13.84-5.72L851.83,385c.62-.26-.55-4.77,0-5Z"/><path d="M895.31,274.28c20.4-33.38,47.87-64.94,86.29-77.21,18.33-5.85,38.47-7,56.92-1A85,85,0,0,1,1080,226.15c11,14.73,17.74,33.75,15.72,52.23a85.94,85.94,0,0,1-21.13,47.71c-11,12.32-25.88,20-39.71,28.67-12.25,7.67-25.28,16.71-30.87,30.65-4.41,11-3.83,25.19,1.11,35.86,7.5,16.21,23.08,28,38.32,36.44,37.32,20.68,79.25,32,115.07,55.57,15.59,10.27,30,22.7,41,37.92,12.21,16.95,18.49,36.65,21.23,57.22,5.1,38.29,3.8,87.29-35.16,107.78-33.39,17.56-72.56,5.8-98.17-19.66a108.28,108.28,0,0,1-16.76-21.15c-4.68-7.89-9-17.62-3.09-26,8.59-12.14,27.74-7.31,36.23,2.32,13.44,15.24,6.22,38.2,1.15,55.32a246.55,246.55,0,0,1-20.77,50.44c-18.07,32.38-45.71,58.88-82.12,68.84-37.59,10.27-78.43,3.29-111.94-16-32-18.42-57.48-47.05-75.19-79.21-10.26-18.61-20-41-19.17-62.72.81-20.21,10.19-38.68,21.65-54.9,5.58-7.89,11.68-15.39,17.84-22.83,6-7.2,14.81-15.06,15.47-25,.26-4.06.23-8.51-1.67-12.2-3.64-7.09-11.82-11.12-19.06-13.47-30.61-9.93-70.29-6.58-92.37-34.22-12.57-15.73-15.18-37.38-17.26-56.76-2.49-23.14-2.2-46.48,2.08-69.39,6.89-36.81,24.4-71.51,54.79-94.25,26.74-20,62.24-30.5,95-21,5.69,1.65,19,8.33,19.89-2,.28-3,.76-8-2.9-8.85.31.07-.39,4.91,0,5,2,.46,2.75,1.72,2.89,3.8v-4.91c-.95,10.27-14.28,3.56-19.89,1.93a92,92,0,0,0-23.56-3.55,109.29,109.29,0,0,0-46,9.61c-31.23,13.71-55.15,39.34-68.62,70.45C720.86,366.48,717.58,400,718.8,433c.67,18,2.31,36.73,7.25,54.1,4.85,17,14.77,30.8,30.67,39,16.18,8.31,34.71,10.73,52.36,14.13,13.82,2.66,41.32,6.33,41.6,25.18l0-4.66c-.71,8.3-6.7,14.41-11.78,20.52s-10.24,12.3-15.14,18.64c-9.42,12.21-18.14,25.29-23.32,39.92-9.56,27.06-4.28,56.8,7.36,82.3,25,54.81,74,102.43,135.14,112.11,30.77,4.87,63.39.13,90.19-16.24,24.94-15.23,43.22-39.05,56-65A258.6,258.6,0,0,0,1104.93,712c3.76-12.67,6.73-25.36,6.7-38.63,0-11.83-2.73-24.41-13.24-31.33-8.62-5.67-22.29-7.57-29.79,1-6.47,7.4-5.27,20.67-2,29.19,5.26,13.54,16.06,25.68,27,35,22.16,18.92,52.14,27.84,80.47,18.74a65.75,65.75,0,0,0,33.6-23.9c8.79-12.26,12.89-27.17,14.46-42a219.8,219.8,0,0,0,.63-32.66c-.74-16.77-2.52-33.74-7.55-49.81-20.65-65.93-92.63-88-149-113.65-25-11.37-59.3-27.82-64.5-58.21-2-12,5.6-24,14-31.89,9-8.55,20.07-14.69,30.61-21.13,11.48-7,22.64-14.45,31.13-25.07a86.26,86.26,0,0,0,17.38-38.39c4.3-23.73-.36-48.64-14.86-68.14a84.51,84.51,0,0,0-75.76-33.7c-32.13,2.85-60.29,21-81.53,44.45a248,248,0,0,0-27.38,37.38c-.75,1.23.73,3.81,0,5Z"/><path d="M52.4,262.93a1.69,1.69,0,0,1-.89-1.63v5c.76-2.75,2.18-.64,3.64.57,1.76,1.45,3.47,2.95,5.15,4.49,2.94,2.69,5.76,5.52,8.45,8.46,1.53,1.68,3,3.4,4.48,5.15.47.57,3.72,5.44,4.22,5.38.82-.1,3.15-11.73,3.5-13,1.93-7.19,5-14.92,5.3-22.4.13-3.55.52-7.57-2.49-10,.79.65-.84,4.32,0,5,3.4,2.79,1.69,5.67.68,9.41l-3.49,13c-.24.88-2.78,12.93-3.5,13-.92.11-7.14-8.8-8.13-9.9-1.75-1.93-15.75-17-17.55-15.1-1.21,1.3-.42,6.55.63,7.58-.81-.8.85-4.16,0-5Z"/><path d="M71.87,290.43A17.4,17.4,0,0,1,82,289.28v-5a10.91,10.91,0,0,1-8.83-.16c.29.12-.07,4.45,0,5q2.22,19.78,5.79,39.36c-.29-1.6.3-3.38,0-5q-3.57-19.58-5.79-39.36v5a10.91,10.91,0,0,0,8.83.16c.23-.09,0-5,0-5a17.42,17.42,0,0,0-10.1,1.15c-.62.25.56,4.77,0,5Z"/><path d="M101.7,285.75l-2.34-2.12q-1.23-2.17-2.25.13c-1.15.73-2.18,2.81-2.85,3.9a31.31,31.31,0,0,0-4.05,10.45,49.55,49.55,0,0,0-.54,10.68c.27,9.25,8.82,23.38,19.55,16,8-5.5,8.84-18.6,8.62-27.4-.38-16-17.39-16-29.28-14-.31,0,.23,5,0,5,11.23-1.89,28-2.41,29.26,12.73v-4.65c-.18,9.41-5.74,32.18-20,23.6-5.49-3.31-8.75-10.77-7.65-17a30.32,30.32,0,0,1,4.05-10.45c.73-1.18,1.69-3.17,2.85-3.9q1-2.31,2.25-.13l2.34,2.12c-.81-.73.85-4.23,0-5Z"/><path d="M133.21,293.37a4,4,0,0,1,4.68-1.05v-5c-.62,7.41-1.61,14.89-1.74,22.33-.06,3.57-.57,8.27,2.33,10.91,6,5.44,12-6.54,14.33-10.77a62.11,62.11,0,0,0,7.35-23.67c.15-1.43-.53-3.71,0-5-5.35,13-4.74,29.61,1.92,42-.69-1.27.7-3.69,0-5-5.58-10.38-6.41-21.06-1.92-32v-5a61.17,61.17,0,0,1-13.42,32.61c-1.46,1.74-3,3.51-5.44,3.21s-4.31-2.64-4.82-5c-.57-2.6.26-5.94.48-8.57l.93-11.09c0-.52.27-4.91,0-5a4,4,0,0,0-4.68,1.05c-.85.79.81,4.24,0,5Z"/><path d="M168.89,297.43c6.75,4.16,13.34,12.9,11.93,21.29-.27,1.62.27,3.38,0,5,2-11.93-1.08-24.6-11.93-31.29.72.45-.77,4.53,0,5Z"/><path d="M170.91,291.27c-1.58.48-2.29-.27-2.75-1.76v5c1.8-9,34.61-24.57,35.86-11.68v-5c-.86,6.74-7.9,11.62-12.39,16L174.1,311.13c-.42.41.35,4.94,0,5,8.29-1.34,16.58-2.71,24.88-4,6.43-1,15-1.27,15.23,7.45l0-4.65c-.6,5.32-4.16,8.69-8.36,11.64-.8.57.76,4.47,0,5,4.36-3.07,8-6.61,8.37-12.18.17-2.58.38-6-.69-8.39-2.7-6-10.35-4.53-15.49-3.72-8,1.27-16,2.58-24,3.87v5l14.73-14.5c4.39-4.32,9.94-8.52,13.29-13.71,2.27-3.51,3.81-12.5-1.2-14.48-4.29-1.69-10.64.57-14.72,2.09a44.31,44.31,0,0,0-13.94,8.36c-2.6,2.31-4,4.08-4.12,7.46,0,1.95-.4,5.88,2.77,4.92.5-.14-.42-4.87,0-5Z"/><path d="M239.63,275,222.08,314c-1.77,3.94-6.58,15.4-.24,18.28,4.45,2,10.32-1.31,14.26-3.08a145.59,145.59,0,0,0,18-9.5c3-1.89,4.78-3.75,5-7.32.13-2,.55-4.88-1.49-5.86.62.3-.68,4.68,0,5a2,2,0,0,1,1.47,1.85v-5c-.5,3.77-3.6,5.5-6.6,7.28q-6.78,4-13.92,7.39c-4.34,2-19.36,9.89-19.59-.53v4.66c1.51-7.91,6.54-15.95,9.83-23.26l10.77-24c.63-1.4-.62-3.63,0-5Z"/><path d="M220.24,297.71l-3.05-3a5.54,5.54,0,0,1,0,.74V299c0,.13-.06.66,0,.73l3.05,3a5.57,5.57,0,0,1,0-.73c0-.59,0-1.18,0-1.77s0-1.18,0-1.77c0-.13.07-.65,0-.73Z"/><path d="M217.19,295.94a274.62,274.62,0,0,0,47.23-22.55c.76-.45-.71-4.57,0-5a274.62,274.62,0,0,1-47.23,22.55c-.57.21.5,4.82,0,5Z"/><path d="M217.34,317.44a224.27,224.27,0,0,1,51.32-24.62c.53-.18-.47-4.85,0-5a224.27,224.27,0,0,0-51.32,24.62c-.78.51.73,4.52,0,5Z"/><path d="M179.47,262.46c.62,1.42,1-1.81,1-2.14,0-.73.46-3.34-.31-3.82-2-1.23-11,15.81-12.25,17.8-.75,1.24.73,3.8,0,5l6.34-10.49c.74-1.22,4.55-9,6.2-6.95v-5c-.14.46-.64,1.39-1,.6.61,1.38-.62,3.59,0,5Z"/><path d="M318.46,276.67,313,302c-1.2,5.5-1.52,15.56-8.11,17.46v4.91a116.26,116.26,0,0,1,4.91-27.81c2.28-7.4,5.2-17.11,10.4-23.08,6.74-7.74,11.76,2.35,13.36,8.4,2.53,9.55.84,19-3.42,27.74-.66,1.36.65,3.67,0,5,3.76-7.74,5-15.75,5-24.26,0-7.09-.4-18.66-6.48-23.42-8.67-6.79-15.27,14.4-17.14,19.57a115.89,115.89,0,0,0-6.61,33c0,.45.19,4.86,0,4.91,6.58-1.9,6.92-12,8.11-17.46l5.5-25.32c.35-1.6-.34-3.41,0-5Z"/><path d="M293.32,298.26c-.8-.73-1,.15-1,.79,0,.48-.3,4.8,0,4.91,2.71,1,7-1.92,9.51-3l10.8-4.58,21.61-9.15c.63-.27-.56-4.76,0-5l-21.61,9.15L301.85,296c-2.52,1.07-6.87,4-9.51,3v4.91c.22-1,.54-1.22,1-.61-.81-.74.85-4.22,0-5Z"/><path d="M367.27,266c-2.69,12.58-2.06,31.86,8.82,40.42,9.38,7.39,14.1-5,16.78-11.93,4.05-10.49,7.54-21.17,10.56-32v-5a91.83,91.83,0,0,0-.91,32.52c.27,1.74,3.89,18.56,6.21,16,.63-.7,0-6.24-.82-5.69s.73,4.53,0,5c.62-.4.71.19.82.77v-5c-2.27,2.31-5.63-12.76-5.91-14.31a62,62,0,0,1,.61-24.28c.33-1.58-.43-3.47,0-5-2.35,8.42-5,16.76-7.94,25-2.13,5.91-4,15.22-9.11,19.4-6.32,5.2-12.8-1.9-15.62-7.37a34.65,34.65,0,0,1-3.49-23.5c.34-1.6-.34-3.41,0-5Z"/><path d="M426.1,271c4,10.93,2.67,21.54-3.11,31.6v5c1.94-18.3,4.61-38.55,19.17-51.45v-5c-.62,7.1-.82,14.2-.76,21.32.06,6.25-1.13,16.21,2.92,21.58,6.6,8.75,11-9.53,11.88-13.33a109.19,109.19,0,0,0,2.65-24.9c0-.07-.06-3.16,0-3.16a9.24,9.24,0,0,0-5.86,3c-.85.88.82,4.16,0,5a9.21,9.21,0,0,1,5.86-3l0-3.17A93.94,93.94,0,0,1,456,276.59c-1,3.94-2.19,12.68-6.71,14.28-11.16,3.92-7.44-31.05-7.12-34.76.07-.83-.51-4.54,0-5C427.6,264,424.93,284.26,423,302.56c-.14,1.25.59,4,0,5,7-12.14,7.93-28.47,3.11-41.6.54,1.45-.54,3.52,0,5Z"/><path d="M466.17,271.76l36.11-10.13c.46-.13-.4-4.88,0-5l-36.11,10.13c-.46.13.4,4.88,0,5Z"/><path d="M470.2,273.5c3.44,5.51,4.19,10.87,1.84,17a23.84,23.84,0,0,1-11.67,13c-.7.35.63,4.68,0,5,13.63-6.82,17.74-27.33,9.83-40,.74,1.18-.76,3.78,0,5Z"/><path d="M442.4,314.61a181.19,181.19,0,0,0,52.84-15.84c.68-.32-.61-4.71,0-5a181.19,181.19,0,0,1-52.84,15.84c-.26,0,.19,5,0,5Z"/><path d="M535.44,258.6c-4.69-5.52-16.1,6.74-19.45,9.79-5.84,5.32-13.86,12.15-14.63,20.58-.34,3.82-.48,8.64,2.14,11.67,4.58,5.27,13.15,3.72,18.67,1.09.68-.32-.62-4.71,0-5-4.55,2.16-10.27,3.42-15.11,1.4-2.1-.88-4.52-2.73-5.08-5.07-.65-2.75,1.53-5.9,3.1-8.11,4.18-5.89,9.95-11,15.49-15.54,3-2.47,10.89-10.49,14.87-5.81-.8-1,.84-4,0-5Z"/><path d="M545.68,284.5a75.74,75.74,0,0,0,.52-11.86,45.36,45.36,0,0,0-1.11-9.29c-.28-1.17-.6-2.33-1-3.48-.75.79-1.48,1.61-2.17,2.45a44.66,44.66,0,0,0-2.89,4,46.67,46.67,0,0,0-6.85,29.95c.82,7.56,7.51,10.58,14.35,7.84a17.13,17.13,0,0,0,10.35-13.94c1-10.14-2.45-19.72-12.47-23.88.56.23-.63,4.74,0,5,6.08,2.52,14.1,9.87,11.76,17.21-2.21,7-9.69,13.23-17.36,11.34-9.74-2.4-6.21-14.71-3.55-21.26a43.65,43.65,0,0,1,7.19-11.85c.35-.42.71-.83,1.09-1.23.49-.88.77-.79.82.27.57.56.73,2.71.89,3.5a29.47,29.47,0,0,1,.41,10.26c-.23,1.64.22,3.37,0,5Z"/><path d="M573.52,267.45l-1.91,15.75c-.32,2.68.17,9-2.19,10.92-3.22,2.62-1.86-7.7-1.57-9.42a50.75,50.75,0,0,1,3.08-10.81,49.31,49.31,0,0,1,12.81-18.27c4.64-4.13,17.34-10.51,17.76.7v-4.91c-.73,6.94-6,11.81-11,16.23a107.92,107.92,0,0,1-18.72,13.41c-.25.15,0,5,0,5,10.27,2.42,36.39-6.27,36.81,11.66v-4.66c-.29,2.52-2.52,7-2.9,1.3v4.91l.29-1.14c.41-1.57-.4-3.45,0-5-.46,1.8-1.16,6.88.21,8.41,2.33,2.62,2.48-6.44,2.41-8.13-.69-18.76-25.73-9.74-36.83-12.35v5a107.39,107.39,0,0,0,20.61-15.15c4.31-4.07,8.66-8.59,9.08-14.83.22-3.29.52-7.74-2.35-10-6.17-4.77-14.77,3.48-18.65,7.65-8.85,9.54-13.26,22-13.35,34.94,0,1.62,0,3.25,0,4.87s-.4,7.71,2.23,5.55c2.23-1.84,1.88-8.33,2.19-10.92l1.91-15.75c.2-1.65-.2-3.36,0-5Z"/><path d="M627.57,260.17a131.57,131.57,0,0,0-1.68,34.32c.19,2.4-.09,8.26,1.29,10.16.77,1.06,0,.91.79-.27a10.89,10.89,0,0,0,.83-1.84,43.24,43.24,0,0,0,1.76-5.1c1.67-6,2.22-12.27,3.12-18.43.81-5.63,1.83-11.41,4.49-16.51.68-1.3,3.28-6.36,5-6.6,1.1-.16.31,0,.69,1.33a29.34,29.34,0,0,1,.46,3.56q.45,3.1,1,6.19A136.17,136.17,0,0,0,652,290.23c2.3,6,5.56,15.35,12.55,7.71,10.63-11.63,15.66-28.37,16-43.84,0-1.14,0-2.28,0-3.42,0-.23,0-1.79,0-.9a70.74,70.74,0,0,1-6,27.07,69.57,69.57,0,0,1-5.58,10.2c-1.82,2.74-4.09,6.68-7.15,8.27-7.34,3.8-10.75-12.37-12.21-16.85A135.7,135.7,0,0,1,644.1,254c-.16-1.18-.29-2.37-.42-3.56a18.38,18.38,0,0,0-1.43,1.36,12.75,12.75,0,0,0-2.81,3.5,31,31,0,0,0-3.63,8.15c-2,6.56-2.42,13.47-3.46,20.2a72.28,72.28,0,0,1-2,9.44,39,39,0,0,1-1.57,4.44c-.25.63-.53,1.24-.83,1.84-.63,1.77-.94,1.56-1-.64-.83-2-.75-5.13-1-7.32a80.89,80.89,0,0,1-.41-9.84,104.07,104.07,0,0,1,1.92-16.41c.3-1.61-.3-3.39,0-5Z"/><path d="M115.16,371.9A97.3,97.3,0,0,1,125.88,413v-4.91c-3.45-10.16-4.19-20.41-1.41-30.84,1.39-5.2,5-17.14,12.6-12,3.21,2.14,4.87,6.22,6.44,9.57q2.73,5.79,5,11.77a174.61,174.61,0,0,1,8,28.11v-5L154,404.24c.63,1.34-.65,3.62,0,5l2.55,5.41c-.6-1.27.28-3.58,0-5a172.92,172.92,0,0,0-10.74-34.88c-2.43-5.63-10.23-23.64-17.65-12.11-4.73,7.35-5.65,17.7-5.71,26.24a72.08,72.08,0,0,0,3.47,24.17c-.45-1.31,0-3.5,0-4.91a97.62,97.62,0,0,0-10.73-41.26c.67,1.3-.68,3.66,0,5Z"/><path d="M122.8,390.47a301.2,301.2,0,0,0,49.72-14.15c.58-.22-.52-4.8,0-5a301.2,301.2,0,0,1-49.72,14.15c-.34.07.28,4.95,0,5Z"/><path d="M186.85,361.57l-5.14,29L179,406c-.13.78-1.16,5.75-1,5.8-1-.36-.69-9.64-.66-10.28a75.41,75.41,0,0,1,6.12-26.15c.62-1.44,4.19-10.49,5.49-10.49.79,0,4.56,12.33,5.06,13.66,1.68,4.56,3.33,9.12,5,13.66,1.19,3.15,2.49,6.65,5.21,8.85,7.15,5.76,11.39-7,12.79-11.86a54.26,54.26,0,0,0,1.7-15.64c0-4.76-2.85-11.41,1.66-14.57.81-.57-.76-4.47,0-5-3.16,2.22-2.87,5.92-2.85,9.39,0,6.21,1.51,12.09.12,18.32-1,4.48-3.74,15.61-9.6,15.87-6.54.28-9-10.37-10.71-14.91L193,370.79l-2-5.46-1-2.74-.67-1.82c-.15-1.14-.41-1.21-.78-.19-2.1,1.23-4.09,7.53-5.05,9.77a77.43,77.43,0,0,0-3.8,11.21,93.3,93.3,0,0,0-2.23,30.08c0,.59.22,5,.57,5.14-.13,0,1.09-6.19,1.2-6.76l2.56-14.49,5.14-29c.28-1.62-.29-3.39,0-5Z"/><path d="M238.29,360.66c-4.11-.06-3.22,7.79-2.95,10.64,1.11,11.9,3.59,23.84,5.36,35.66-.24-1.63.25-3.37,0-5l-.8-5.43c.24,1.63-.24,3.36,0,5l.8,5.43v-5l-3.24-21.58c-.44-2.93-4.34-14.8.83-14.72,0,0,.07-5,0-5Z"/><path d="M235.41,361.72a1,1,0,0,1-1.1-.93v4.91c.18-4.77,7.72-7.29,11.48-8.46a27,27,0,0,1,14.55-.61c7.54,1.91,17.52,9.89,15.91,18.7-1.72,9.41-10.17,16.9-17.82,21.78-3.72,2.38-25.33,15.22-27.61,8.08v4.66c0-1.36.45-1.82,1.61-2.07.38-.08-.3-4.93,0-5-2.15.46-2.26,5.61-1.62,7.41,2.1,5.87,16.85-2.19,20.24-3.89,12.5-6.28,25.49-16.31,25.66-31.5,0-4.64-.21-9-2.67-13.13a22.92,22.92,0,0,0-19-10.76,29.29,29.29,0,0,0-10.72,1.83c-3,1.08-8.23,3-9.63,6.15-.75,1.69-1.24,7.13.73,7.83-.48-.18.56-4.81,0-5Z"/><path d="M315.11,372.22l64.07-19.42c.49-.15-.43-4.87,0-5l-64.07,19.42c-.5.15.42,4.87,0,5Z"/><path d="M345.57,365.75c3.29,13,2.12,25.61-2.8,38-.58,1.45.56,3.57,0,5,5.93-14.95,6.74-32.43,2.8-48,.4,1.56-.4,3.43,0,5Z"/><path d="M324,415.81A193.06,193.06,0,0,0,380.38,399c.67-.32-.62-4.71,0-5A193.06,193.06,0,0,1,324,410.81c-.26,0,.19,5,0,5Z"/><path d="M391.18,353.57l1.92,11.93c-.26-1.62.27-3.37,0-5l-1.92-11.93c.26,1.62-.27,3.37,0,5Z"/><path d="M403.4,351.53h-4.5s0,5,0,5h4.5s0-5,0-5Z"/><path d="M395.91,356.57l6-4.81v-4.91l-1.13,24.46c-.07,1.5.07,3.64,0,4.82l1.13-24.46c0-.7-.47-4.54,0-4.91l-6,4.81c-.84.67.79,4.37,0,5Z"/><path d="M420.27,378.74c5.67,8.12,7,17.47,2.4,26.43-1.11,2.17-1.85,4.23-4,1.85a9.61,9.61,0,0,1-1.31-3.11c-.17-5.25,2.67-12,4.42-16.84,2.5-6.93,7.42-22.46,17.47-20.46,4.49.89,5.52,5.41,5.92,9.35.69,6.87-1.2,13.83-3.85,20.1-.59,1.4.65,3.67,0,5a91.21,91.21,0,0,1,17.45-24.52,88.49,88.49,0,0,1,10.91-9.27c4.09-2.94,9.91-6.39,10.08,1.46l0-4.66c-1,13.21-3.17,26.42-4.77,39.57v5l.39-4.11c.16-1.65-.16-3.35,0-5l-.39,4.11c-.16,1.65.2,3.36,0,5l4.21-34.51c.44-3.63,1.77-10.19,0-13.7-3.25-6.46-18.13,8.74-21,11.67a91.55,91.55,0,0,0-16.89,24v5a54.39,54.39,0,0,0,4.18-21.21c0-4.6.44-10.13-1.51-14.36-3.83-8.31-12.87-2.22-16,3-4.76,7.8-7.79,17.06-9.72,25.94a45.37,45.37,0,0,0-1.1,12.67c.12,1.82.39,4,1.86,5.33,2.93,2.59,4.94-4.75,5.62-7,3.08-10.15,1.71-23-4.33-31.66.77,1.1-.79,3.86,0,5Z"/><path d="M116.51,460.84a43.14,43.14,0,0,0,13-12.85c.3-.45-.23-5,0-5a34.8,34.8,0,0,0-26,16.34c-.23.37,0,5,0,5a54.38,54.38,0,0,1,22,7.74c6.16,3.85,14.62,10.07,15,18v-4.91c-1.83,14.59-19.38,1.15-19.67-7.73v4.91l.29-1.48c.32-1.61-.32-3.4,0-5-1.13,5.73-.07,10.93,4,15.28,2.71,2.86,7.12,7.31,11.48,5.38,3-1.33,3.78-4.64,3.88-7.6.24-7.47-3-12.33-8.66-17.21a53.93,53.93,0,0,0-28.36-12.38v5a34.8,34.8,0,0,1,26-16.34v-5a43.14,43.14,0,0,1-13,12.85c-.79.5.72,4.53,0,5Z"/><path d="M166.25,449c-4.42,11.43-7.65,23.86-7.23,36.21.21,6.16,3.32,11.6,10.26,8,7.38-3.82,14-10.63,19.63-16.64.85-.91-.81-4.13,0-5a110.29,110.29,0,0,1-13.77,12.6c-3.64,2.78-10.26,8.34-14.31,3.17-3-3.82-1.13-9.4-.31-13.64A113.45,113.45,0,0,1,166.25,454c.56-1.46-.56-3.57,0-5Z"/><path d="M153.65,459a141.56,141.56,0,0,1,36.88-19.64c.56-.2-.49-4.83,0-5A141.56,141.56,0,0,0,153.65,454c-.82.61.77,4.43,0,5Z"/><path d="M151.23,466.91,149,470.25c-.41.59.47,4.84,0,5a207.13,207.13,0,0,0,37-16.69c.75-.43-.69-4.6,0-5a207.13,207.13,0,0,1-37,16.69v5l2.28-3.34c.78-1.15-.77-3.88,0-5Z"/><path d="M189,454.21a362.58,362.58,0,0,0,41.84-19.82c.74-.41-.67-4.63,0-5A363.37,363.37,0,0,1,189,449.21c-.6.24.54,4.79,0,5Z"/><path d="M196.62,449.13c7.79,4.6,12.43,13.7,8.47,22.24-.64,1.38.63,3.64,0,5,5-10.73,2-26.07-8.47-32.24.7.42-.76,4.55,0,5Z"/><path d="M233.92,443.61l33.11-7c.37-.08-.3-4.94,0-5l-33.11,7c-.37.08.3,4.93,0,5Z"/><path d="M250,445.42c6.55,7.16,8.2,16,3.38,24.6-.72,1.28.7,3.75,0,5,5.81-10.31,4.62-25.85-3.38-34.6.81.88-.85,4.07,0,5Z"/><path d="M269.19,446.84a130.6,130.6,0,0,1,38.24-15.15c.39-.09-.31-4.93,0-5a130.6,130.6,0,0,0-38.24,15.15c-.76.45.7,4.58,0,5Z"/><path d="M283.55,442.83c15.06,5.42,6.72,26.7,1.52,36.29-.7,1.3.69,3.72,0,5a57.48,57.48,0,0,0,7.33-27.52c0-7.3-1-15.94-8.85-18.77.5.18-.56,4.8,0,5Z"/><path d="M267.19,490.69,318,469.17c.63-.27-.57-4.76,0-5l-50.77,21.52c-.63.27.56,4.76,0,5Z"/><path d="M322,434a185.58,185.58,0,0,0-2.39,44.41v-4.92c-3.45-10-4.68-22.95,1-32.5,6.37-10.72,12.86,5.86,15.53,10.73,2.47,4.51,4.92,9.05,7.42,13.55,1.88,3.38,4.74,7.06,7.73,2.47,2.36-3.62,2.17-9.4,2.75-13.56l2.33-16.72c.23-1.64-.22-3.37,0-5l-2.85,20.44c-.43,3.08-.53,11.84-5.19,12.17-2.79.19-4.19-3.75-5.23-5.65L338,450.06c-2.74-5-5.15-12-9.1-16.09-8.63-9-12.23,16-12.36,20.37-.26,8.24.38,16.24,3.09,24.1-.46-1.32.09-3.48,0-4.91A143.73,143.73,0,0,1,322,439c.3-1.62-.29-3.39,0-5Z"/><path d="M380.05,434.25c-6.86,8.15-9,17.57-8.79,28s6,19.69,17.42,18.85c9.14-.68,14.66-7.15,14.63-16,0-3.94-1-7.27-5.25-8.48-6.25-1.77-12.25,2.76-18.26,3.67v5l16.42-4.46c4.41-1.19,9.22-2.73,13.84-1.83,3.39.66,7.19,3.2,7.79,6.88.27,1.61-3.42,8.06-5.63,4.06l0,2.5v-.86l0,2.5.56-.59c.85-.91-.82-4.13,0-5-1.17,1.25-1.37,7.06.68,7.71,4.87,1.55,4.93-8.66,4.87-11.36-.44-19.54-28.28-7.33-38.53-4.55-.38.1.28,4.95,0,5,6.55-1,22.17-9.74,23.49,2.65V463c-.81,11.1-14.62,16.16-23.73,11.28-13.63-7.31-7.18-25.89.5-35,.84-1-.8-4,0-5Z"/><path d="M462,438.86a48.64,48.64,0,0,0,5.35,15.85c2.3,4.18,6.16,10.69,10.54,13,1.89,1,1.36.58,2.33-1.59.63-1.42,1.26-2.85,1.87-4.29q2.21-5.18,4.2-10.43c2.44-6.42,4.62-12.94,6.61-19.51.41-1.34-.7-3.86,0-5L490.41,431c-.75,1.23.73,3.8,0,5l2.53-4.15v-5c-2,6.57-4.17,13.09-6.61,19.51q-1.83,4.82-3.84,9.57c-.6,1.43-1.22,2.87-1.85,4.3-.38.85-.76,1.71-1.15,2.56q-.35,1.85-1.56-.12c-4.32-2.08-8.33-9-10.54-13A48.64,48.64,0,0,1,462,433.86c.26,1.62-.26,3.37,0,5Z"/><path d="M471.62,464.33a7.28,7.28,0,0,1-.49-2.31v4.91c.05-1.91,2.2-9.1,5.54-8.19,2.4.65,3.31,7.11,3.54,8.92,1.15,9,1,18.1,2.4,27.13-.24-1.62.25-3.37,0-5a227.48,227.48,0,0,1-2.08-22.72c-.14-2.78-.63-13.38-4.41-13.1-5.86.43-5.7,11.42-4.51,15.36-.45-1.52.47-3.46,0-5Z"/><path d="M517,434.26a5,5,0,0,0-7-2.26c-3.07,1.47-4.5,5.22-5.63,8.19A57.19,57.19,0,0,0,500.89,460c-.09,8.08.06,23.73,11,24.9,7.26.78,12.2-7.95,14.77-13.44a36.76,36.76,0,0,0,3.31-16c0-11.59-6.69-24.21-20.06-22.95-.19,0,.11,5,0,5,9.62-.91,18.82,7.15,19.78,16.79.82,8.26-7,25.32-16.63,25.67-11.11.41-12.61-16.2-11.5-23.62.81-5.34,2.2-11.34,5.14-15.95,2.31-3.62,8-6.13,10.36-1.13-.64-1.35.65-3.63,0-5Z"/><path d="M543,437a78.74,78.74,0,0,0-1.92,20.47c.14,7.31.67,19.93,8,24,8.52,4.73,14.35-9.7,16.33-15.57,2.95-8.78,4.48-18,10-25.71v-5A115.35,115.35,0,0,0,574,475.33c-.22-1.63.23-3.36,0-5a84.76,84.76,0,0,1,1.39-30.08c.27-1.21-.67-4.06,0-5-8.36,11.67-7.15,28.26-17.06,38.91-5.65,6.07-11.74,2.17-14.41-4.35-3.6-8.8-3.17-18.73-1-27.77.38-1.58-.39-3.44,0-5Z"/><path d="M129,534.41l-.11-1.25v5c.23-.95,1.38-4.13,3-3.64.36.11,1.48,5.11,1.59,5.51q1.74,6.45,3,13a182.59,182.59,0,0,1,3.05,28.37c0-1.2.06-3.31,0-4.82a181.48,181.48,0,0,0-5.33-38.81c-.44-1.75-1.54-8.07-2.88-8-1.62.06-2.27,2.56-2.44,3.74a26.49,26.49,0,0,0,.12,5.9c-.15-1.65.15-3.35,0-5Z"/><path d="M133.4,549.54c16.93-5.15,29.37-19.26,46.57-23.75.44-.12-.37-4.91,0-5-17.2,4.49-29.64,18.6-46.57,23.75-.5.15.43,4.87,0,5Z"/><path d="M136.19,563A316.78,316.78,0,0,0,182,540.44c.76-.46-.7-4.58,0-5A316.78,316.78,0,0,1,136.19,558c-.6.24.54,4.79,0,5Z"/><path d="M211.49,530A96.21,96.21,0,0,1,214,546.54c.09,1.49.12,17.36-1.24,17.45-.76,0-2.48-11.61-2.66-13a57.85,57.85,0,0,1,.17-17.28c1.22-7,4-14.77,9.64-19.47,5-4.14,14-5.52,15.62,2.46l0-1.24V517l0-3.76c-1,6.13-4.84,12.21-8.32,17.25s-7.7,9.16-13.52,11.25v5a38,38,0,0,1,24.41-2.9c7.52,1.62,18.93,6.43,19.58,15.33v-4.91c-.12,1.27-.91,5.62-2.93,5.67-2.2.06-3.34-4.58-3.37-6v4.66l.24-1.23c.31-1.61-.31-3.4,0-5-.61,3.15-1.1,9.16,1.66,11.38,4.39,3.53,4.61-6.57,4.42-9.44-.55-8.29-10.34-13-17.38-15a38,38,0,0,0-26.62,2.36c-.61.29.55,4.8,0,5,6-2.18,10.41-6.6,13.94-11.85,3.2-4.77,7.36-10.89,7.9-16.74.22-2.4.46-5.6-.32-7.93-1.93-5.81-9.06-4.89-13.26-2.42C211.45,514,209.51,529,209.4,540c0,4.06,0,8.13.31,12.18a87.87,87.87,0,0,0,1.49,10.34c.31,1.5.44,4.28,1.32,5.53s.19.36.56-.93a27.91,27.91,0,0,0,.59-4.64A113.67,113.67,0,0,0,211.49,525c.37,1.57-.37,3.42,0,5Z"/><path d="M274.46,519c-3.4,2.42-2.63,8.45-2.29,12.21,1.07,11.62,3.14,23.23,4.72,34.79v-5c-1.06-1.7-2.68-4.31-2.36-6.45.25-1.63-.24-3.37,0-5-.83,5.53-.64,11.61,2.36,16.45-.62-1,.16-3.78,0-5l-2.84-20.87c-.61-4.49-3.94-13,.41-16.13.81-.57-.77-4.45,0-5Z"/><path d="M269.81,519.66a3.05,3.05,0,0,0-3.88,2.93c-.07.52.18,4.95,0,5l42.85-11c.43-.11-.37-4.9,0-5l-42.85,11v5a3.06,3.06,0,0,1,3.88-2.93c-.21,0,.29-5,0-5Z"/><path d="M272.88,565,315,551.9c.5-.16-.44-4.87,0-5L272.88,560c-.5.16.44,4.87,0,5Z"/><path d="M262.34,548.31,296.88,538c.5-.15-.42-4.87,0-5l-34.54,10.34c-.49.15.42,4.88,0,5Z"/><path d="M339.87,520.86c4.23,7.58,0,14.88-2.61,22.32a42.7,42.7,0,0,0-2.48,15.36c.14,8.56,7.14,5.81,12.83,3.51,8.81-3.56,17.42-7.58,25.84-12,.72-.37-.65-4.66,0-5-8.15,4.27-16.47,8.18-25,11.65-3,1.21-8.38,4.43-11.66,2.5-3.46-2-.78-7.43.18-10.24,3.45-10.05,8.67-22.76,2.89-33.11.7,1.25-.72,3.71,0,5Z"/><path d="M329.9,527.52,376.4,517c.39-.09-.32-4.93,0-5l-46.5,10.48c-.4.08.32,4.92,0,5Z"/><path d="M332.76,543.67l24.38-9.54c.59-.23-.54-4.79,0-5l-24.38,9.54c-.6.23.53,4.79,0,5Z"/><path d="M692.52,403.64c-5.34,2.73-11.4,5.88-17.6,4.81-4.86-.84-9-4.43-9.66-9.38V404c.24-8.36,10.87-15,16.79-19.66,6.35-5,12.92-9.8,18.68-15.52,13.07-13,16.95-29.82,18.91-47.59,2.17-19.61,3.73-39.31,5-59,.86-13.87,1.67-27.81,1.08-41.71-.67-15.74-3.85-31.92-13.57-44.72-10.2-13.46-25.78-21.36-41-27.7a737.07,737.07,0,0,0-108.61-35A787.93,787.93,0,0,0,332.74,91.94c-69,3.85-143.74,14.65-199.8,58.37-14.48,11.3-27.19,24.68-38.87,38.81S71.22,217.66,61.55,233c-9.32,14.79-16.72,31.1-17.88,48.75-.92,13.8.87,27.49,3.33,41.05,1.69,9.29,3.55,18.57,4.42,28,1,11.31-.54,22.5-2.76,33.58-3.62,18.1-9,36-9.52,54.53-1,34.88,9.56,69.45,20,102.38,5.89,18.63,12.21,37.3,20.09,55.19,7.12,16.15,16.32,31.13,29.45,43.08,26,23.66,61.88,36.46,95.46,44.73,72.67,17.92,149.39,11.4,221.37-6.54,68-16.94,138.21-42.53,190.9-90.24,23.55-21.33,45.58-50.25,46.74-83.31a110.46,110.46,0,0,0-.17-12.34c-.69-8.82-3.6-16.64-6.77-24.81-2.78-7.16-4.2-13.32.51-19.9,3.32-4.64,8.2-7.9,13-10.88,9.23-5.74,20.32-10.91,24.48-21.71.56-1.47-.55-3.57,0-5C686,430.65,652.91,430.23,652.91,456c0,6.62,1.8,12.42,4.26,18.55,3.38,8.41,6.21,17.26,5.85,26.46-.66,16.84-7.95,33.3-16.94,47.28C627.55,577.12,599,599.21,570,616.61c-30.13,18-62.87,31.38-96.19,42.25-70.33,22.93-145.42,36.44-219.49,29-36.12-3.62-72.1-12.34-105.14-27.55-15.53-7.15-30.49-16.06-42.85-28C93.46,620,84.72,604.58,77.81,588.31c-7.68-18.12-14-36.89-19.86-55.68-5.89-19-11.33-38.27-15.22-57.77-2.33-11.69-4.16-23.79-3.34-35.72A196.14,196.14,0,0,1,44,410.65c3.59-16.28,7.78-32.5,8-49.27.17-15.71-2.69-30.85-5.42-46.25-1.86-10.5-3.71-21.3-2.54-32a89.54,89.54,0,0,1,7.14-25.75c7-16.19,17.65-30.57,28.24-44.59,11.14-14.73,22.8-29.15,36-42.09,51-49.87,122.81-65.77,191.6-71.92a787,787,0,0,1,340.16,45c16.27,6,33.24,11.86,47.83,21.42,13.88,9.09,23.54,22,27.69,38.09,5,19.51,2.85,40.08,1.54,59.92-1.36,20.47-2.62,41.2-5.64,61.5-1.29,8.68-3.3,17.38-7.39,25.21-3.8,7.28-9.41,13.27-15.59,18.58-6.37,5.48-13.26,10.3-19.64,15.77-5,4.27-10.62,8.72-10.7,15.75-.06,4.39.31,8.06,4.17,11,7.18,5.42,16.15,1.17,23.11-2.39.7-.36-.65-4.67,0-5Z"/><path d="M406.76,488.79c-6.17-2.65-3.5,11.3-3.32,13.63a218,218,0,0,0,5.88,36.26c-.39-1.56.39-3.42,0-5A220.64,220.64,0,0,1,403,489.84v4.91a2.7,2.7,0,0,1,3.76-1c-.57-.25.64-4.73,0-5Z"/><path d="M417.41,559a1.87,1.87,0,0,1-.6-1.3v4l0,.73a1.94,1.94,0,0,1,.65-1.37,3.82,3.82,0,0,0,0-.74c0-.59,0-1.18,0-1.76v-1.77a3,3,0,0,1,0-.73c-1,.87-.67,2.53-.68,3.68a20.32,20.32,0,0,0,.05,3.12,2,2,0,0,0,.59,1.1s0-.81,0-.73c0-.59,0-1.18,0-1.77s0-1.18,0-1.77c0-.12.07-.65,0-.73Z"/></svg>